<svg width="276" height="354" viewBox="0 0 276 354" fill="none" xmlns="http://www.w3.org/2000/svg">
<g filter="url(#filter0_d_49_5917)">
<path d="M60.2578 67.7647C60.2578 61.2672 65.5251 56 72.0225 56H203.76C210.257 56 215.524 61.2672 215.524 67.7647V231.235C215.524 237.733 210.257 243 203.76 243H72.0225C65.5251 243 60.2578 237.733 60.2578 231.235V67.7647Z" fill="white"/>
<path d="M77.8325 79.6755V78.7458H84.3234V79.6755H81.602V87.4004H80.554V79.6755H77.8325ZM87.5013 87.5356C86.9153 87.5356 86.4011 87.3962 85.9588 87.1173C85.5194 86.8384 85.1757 86.4482 84.9277 85.9467C84.6826 85.4452 84.5601 84.8592 84.5601 84.1887C84.5601 83.5126 84.6826 82.9224 84.9277 82.4181C85.1757 81.9138 85.5194 81.5222 85.9588 81.2433C86.4011 80.9644 86.9153 80.825 87.5013 80.825C88.0873 80.825 88.6 80.9644 89.0395 81.2433C89.4818 81.5222 89.8255 81.9138 90.0706 82.4181C90.3185 82.9224 90.4425 83.5126 90.4425 84.1887C90.4425 84.8592 90.3185 85.4452 90.0706 85.9467C89.8255 86.4482 89.4818 86.8384 89.0395 87.1173C88.6 87.3962 88.0873 87.5356 87.5013 87.5356ZM87.5013 86.6397C87.9464 86.6397 88.3126 86.5256 88.6 86.2974C88.8874 86.0692 89.1001 85.7692 89.2381 85.3973C89.3761 85.0255 89.4452 84.6226 89.4452 84.1887C89.4452 83.7549 89.3761 83.3506 89.2381 82.9759C89.1001 82.6012 88.8874 82.2984 88.6 82.0674C88.3126 81.8364 87.9464 81.7208 87.5013 81.7208C87.0562 81.7208 86.6899 81.8364 86.4026 82.0674C86.1152 82.2984 85.9025 82.6012 85.7645 82.9759C85.6264 83.3506 85.5574 83.7549 85.5574 84.1887C85.5574 84.6226 85.6264 85.0255 85.7645 85.3973C85.9025 85.7692 86.1152 86.0692 86.4026 86.2974C86.6899 86.5256 87.0562 86.6397 87.5013 86.6397ZM94.7877 80.9095V81.7547H91.4239V80.9095H94.7877ZM92.4043 79.3544H93.4016V85.541C93.4016 85.8227 93.4425 86.034 93.5242 86.1749C93.6087 86.3129 93.7157 86.4059 93.8453 86.4538C93.9778 86.4989 94.1172 86.5214 94.2637 86.5214C94.3736 86.5214 94.4637 86.5158 94.5342 86.5045C94.6046 86.4904 94.6609 86.4792 94.7032 86.4707L94.906 87.3666C94.8384 87.3919 94.744 87.4173 94.6229 87.4426C94.5018 87.4708 94.3482 87.4849 94.1623 87.4849C93.8806 87.4849 93.6045 87.4243 93.334 87.3032C93.0664 87.1821 92.8438 86.9975 92.6663 86.7496C92.4917 86.5017 92.4043 86.189 92.4043 85.8115V79.3544ZM98.198 87.5525C97.7867 87.5525 97.4134 87.475 97.0781 87.3201C96.7429 87.1623 96.4766 86.9355 96.2794 86.6397C96.0822 86.3411 95.9836 85.9805 95.9836 85.5579C95.9836 85.186 96.0569 84.8846 96.2034 84.6536C96.3499 84.4198 96.5457 84.2366 96.7908 84.1042C97.0359 83.9718 97.3063 83.8732 97.6021 83.8084C97.9008 83.7408 98.2008 83.6873 98.5022 83.6478C98.8966 83.5971 99.2164 83.5591 99.4615 83.5337C99.7094 83.5056 99.8897 83.4591 100.002 83.3943C100.118 83.3295 100.176 83.2168 100.176 83.0562V83.0224C100.176 82.6055 100.062 82.2815 99.8334 82.0505C99.608 81.8194 99.2657 81.7039 98.8065 81.7039C98.3304 81.7039 97.9571 81.8082 97.6866 82.0167C97.4162 82.2251 97.226 82.4477 97.1162 82.6843L96.1696 82.3463C96.3386 81.9519 96.564 81.6448 96.8457 81.425C97.1302 81.2025 97.4401 81.0475 97.7754 80.9602C98.1135 80.87 98.4459 80.825 98.7727 80.825C98.9812 80.825 99.2206 80.8503 99.4911 80.901C99.7644 80.9489 100.028 81.0489 100.281 81.2011C100.538 81.3532 100.75 81.5828 100.919 81.8899C101.088 82.197 101.173 82.6083 101.173 83.1238V87.4004H100.176V86.5214H100.125C100.057 86.6623 99.9447 86.813 99.7869 86.9736C99.6291 87.1342 99.4192 87.2708 99.1572 87.3835C98.8952 87.4962 98.5755 87.5525 98.198 87.5525ZM98.3501 86.6566C98.7445 86.6566 99.0769 86.5792 99.3474 86.4242C99.6207 86.2693 99.8263 86.0692 99.9644 85.8241C100.105 85.579 100.176 85.3213 100.176 85.0508V84.138C100.133 84.1887 100.04 84.2352 99.8968 84.2775C99.7559 84.3169 99.5925 84.3521 99.4066 84.3831C99.2234 84.4113 99.0445 84.4367 98.8699 84.4592C98.698 84.4789 98.5586 84.4958 98.4515 84.5099C98.1923 84.5437 97.9501 84.5987 97.7247 84.6747C97.5021 84.748 97.3218 84.8592 97.1838 85.0086C97.0485 85.1551 96.9809 85.3551 96.9809 85.6086C96.9809 85.9551 97.1091 86.2172 97.3655 86.3946C97.6247 86.5693 97.9529 86.6566 98.3501 86.6566ZM103.991 78.7458V87.4004H102.993V78.7458H103.991ZM111.801 87.5356C111.192 87.5356 110.668 87.3919 110.229 87.1046C109.789 86.8172 109.451 86.4214 109.215 85.9171C108.978 85.4128 108.86 84.8367 108.86 84.1887C108.86 83.5295 108.981 82.9478 109.223 82.4435C109.468 81.9364 109.809 81.5405 110.246 81.256C110.685 80.9686 111.198 80.825 111.784 80.825C112.24 80.825 112.652 80.9095 113.018 81.0785C113.384 81.2475 113.684 81.4842 113.918 81.7885C114.152 82.0927 114.297 82.4477 114.353 82.8534H113.356C113.28 82.5576 113.111 82.2956 112.849 82.0674C112.59 81.8364 112.24 81.7208 111.801 81.7208C111.412 81.7208 111.071 81.8223 110.778 82.0251C110.488 82.2251 110.261 82.5083 110.098 82.8745C109.937 83.2379 109.857 83.6647 109.857 84.1549C109.857 84.6564 109.936 85.0931 110.094 85.465C110.254 85.8368 110.48 86.1256 110.77 86.3312C111.063 86.5369 111.407 86.6397 111.801 86.6397C112.06 86.6397 112.295 86.5947 112.507 86.5045C112.718 86.4144 112.897 86.2848 113.043 86.1157C113.19 85.9467 113.294 85.7439 113.356 85.5072H114.353C114.297 85.8904 114.158 86.2355 113.935 86.5425C113.715 86.8468 113.424 87.0891 113.06 87.2694C112.7 87.4469 112.28 87.5356 111.801 87.5356ZM117.721 87.5525C117.31 87.5525 116.937 87.475 116.602 87.3201C116.266 87.1623 116 86.9355 115.803 86.6397C115.606 86.3411 115.507 85.9805 115.507 85.5579C115.507 85.186 115.58 84.8846 115.727 84.6536C115.873 84.4198 116.069 84.2366 116.314 84.1042C116.559 83.9718 116.83 83.8732 117.126 83.8084C117.424 83.7408 117.724 83.6873 118.026 83.6478C118.42 83.5971 118.74 83.5591 118.985 83.5337C119.233 83.5056 119.413 83.4591 119.526 83.3943C119.641 83.3295 119.699 83.2168 119.699 83.0562V83.0224C119.699 82.6055 119.585 82.2815 119.357 82.0505C119.131 81.8194 118.789 81.7039 118.33 81.7039C117.854 81.7039 117.481 81.8082 117.21 82.0167C116.94 82.2251 116.749 82.4477 116.64 82.6843L115.693 82.3463C115.862 81.9519 116.087 81.6448 116.369 81.425C116.654 81.2025 116.964 81.0475 117.299 80.9602C117.637 80.87 117.969 80.825 118.296 80.825C118.505 80.825 118.744 80.8503 119.015 80.901C119.288 80.9489 119.551 81.0489 119.805 81.2011C120.061 81.3532 120.274 81.5828 120.443 81.8899C120.612 82.197 120.696 82.6083 120.696 83.1238V87.4004H119.699V86.5214H119.648C119.581 86.6623 119.468 86.813 119.31 86.9736C119.153 87.1342 118.943 87.2708 118.681 87.3835C118.419 87.4962 118.099 87.5525 117.721 87.5525ZM117.874 86.6566C118.268 86.6566 118.6 86.5792 118.871 86.4242C119.144 86.2693 119.35 86.0692 119.488 85.8241C119.629 85.579 119.699 85.3213 119.699 85.0508V84.138C119.657 84.1887 119.564 84.2352 119.42 84.2775C119.279 84.3169 119.116 84.3521 118.93 84.3831C118.747 84.4113 118.568 84.4367 118.393 84.4592C118.221 84.4789 118.082 84.4958 117.975 84.5099C117.716 84.5437 117.473 84.5987 117.248 84.6747C117.026 84.748 116.845 84.8592 116.707 85.0086C116.572 85.1551 116.504 85.3551 116.504 85.6086C116.504 85.9551 116.633 86.2172 116.889 86.3946C117.148 86.5693 117.476 86.6566 117.874 86.6566ZM127.114 82.3632L126.219 82.6167C126.162 82.4674 126.079 82.3223 125.969 82.1815C125.862 82.0378 125.716 81.9195 125.53 81.8265C125.344 81.7335 125.106 81.687 124.816 81.687C124.418 81.687 124.087 81.7786 123.822 81.9617C123.56 82.142 123.429 82.3716 123.429 82.6505C123.429 82.8984 123.52 83.0942 123.7 83.2379C123.88 83.3816 124.162 83.5013 124.545 83.5971L125.509 83.8338C126.089 83.9746 126.521 84.1902 126.806 84.4803C127.09 84.7677 127.233 85.1382 127.233 85.5917C127.233 85.9636 127.126 86.296 126.912 86.589C126.7 86.882 126.404 87.113 126.024 87.2821C125.644 87.4511 125.202 87.5356 124.697 87.5356C124.035 87.5356 123.487 87.3919 123.053 87.1046C122.62 86.8172 122.345 86.3975 122.229 85.8453L123.176 85.6086C123.266 85.958 123.437 86.22 123.687 86.3946C123.941 86.5693 124.272 86.6566 124.68 86.6566C125.145 86.6566 125.514 86.558 125.788 86.3608C126.064 86.1608 126.202 85.9213 126.202 85.6424C126.202 85.4171 126.123 85.2283 125.965 85.0762C125.807 84.9212 125.565 84.8057 125.238 84.7297L124.156 84.4761C123.562 84.3352 123.125 84.1169 122.846 83.8211C122.57 83.5225 122.432 83.1492 122.432 82.7012C122.432 82.335 122.535 82.011 122.741 81.7293C122.949 81.4476 123.232 81.2264 123.59 81.0658C123.951 80.9053 124.359 80.825 124.816 80.825C125.458 80.825 125.962 80.9658 126.328 81.2475C126.697 81.5293 126.959 81.9011 127.114 82.3632ZM129.731 83.4957V87.4004H128.734V78.7458H129.731V81.9237H129.816C129.968 81.5884 130.196 81.3222 130.5 81.125C130.807 80.925 131.216 80.825 131.726 80.825C132.168 80.825 132.556 80.9137 132.888 81.0912C133.22 81.2659 133.478 81.5349 133.661 81.8983C133.847 82.2589 133.94 82.7181 133.94 83.276V87.4004H132.943V83.3436C132.943 82.828 132.809 82.4294 132.541 82.1477C132.277 81.8631 131.909 81.7208 131.439 81.7208C131.112 81.7208 130.819 81.7899 130.56 81.9279C130.303 82.066 130.1 82.2674 129.951 82.5322C129.805 82.797 129.731 83.1182 129.731 83.4957ZM135.9 87.4004V78.7458H136.897V81.9406H136.982C137.055 81.8279 137.156 81.6842 137.286 81.5096C137.418 81.3321 137.607 81.1743 137.852 81.0363C138.1 80.8954 138.435 80.825 138.858 80.825C139.405 80.825 139.886 80.9616 140.303 81.2349C140.72 81.5081 141.046 81.8955 141.279 82.397C141.513 82.8984 141.63 83.4901 141.63 84.1718C141.63 84.8592 141.513 85.4551 141.279 85.9594C141.046 86.4608 140.722 86.8496 140.308 87.1257C139.893 87.399 139.416 87.5356 138.875 87.5356C138.458 87.5356 138.124 87.4666 137.873 87.3286C137.623 87.1877 137.43 87.0285 137.294 86.851C137.159 86.6707 137.055 86.5214 136.982 86.4031H136.863V87.4004H135.9ZM136.88 84.1549C136.88 84.6451 136.952 85.0776 137.096 85.4523C137.24 85.8241 137.449 86.1157 137.726 86.327C138.002 86.5355 138.34 86.6397 138.74 86.6397C139.157 86.6397 139.505 86.5299 139.784 86.3101C140.065 86.0876 140.277 85.7889 140.417 85.4142C140.561 85.0367 140.633 84.617 140.633 84.1549C140.633 83.6985 140.562 83.2872 140.422 82.921C140.284 82.5519 140.074 82.2603 139.792 82.0462C139.513 81.8293 139.162 81.7208 138.74 81.7208C138.334 81.7208 137.993 81.8237 137.717 82.0293C137.441 82.2322 137.233 82.5167 137.092 82.883C136.951 83.2464 136.88 83.6704 136.88 84.1549ZM145.066 87.5525C144.655 87.5525 144.281 87.475 143.946 87.3201C143.611 87.1623 143.345 86.9355 143.147 86.6397C142.95 86.3411 142.851 85.9805 142.851 85.5579C142.851 85.186 142.925 84.8846 143.071 84.6536C143.218 84.4198 143.414 84.2366 143.659 84.1042C143.904 83.9718 144.174 83.8732 144.47 83.8084C144.769 83.7408 145.069 83.6873 145.37 83.6478C145.765 83.5971 146.084 83.5591 146.329 83.5337C146.577 83.5056 146.758 83.4591 146.87 83.3943C146.986 83.3295 147.044 83.2168 147.044 83.0562V83.0224C147.044 82.6055 146.929 82.2815 146.701 82.0505C146.476 81.8194 146.134 81.7039 145.674 81.7039C145.198 81.7039 144.825 81.8082 144.555 82.0167C144.284 82.2251 144.094 82.4477 143.984 82.6843L143.037 82.3463C143.206 81.9519 143.432 81.6448 143.714 81.425C143.998 81.2025 144.308 81.0475 144.643 80.9602C144.981 80.87 145.314 80.825 145.641 80.825C145.849 80.825 146.088 80.8503 146.359 80.901C146.632 80.9489 146.896 81.0489 147.149 81.2011C147.406 81.3532 147.618 81.5828 147.787 81.8899C147.956 82.197 148.041 82.6083 148.041 83.1238V87.4004H147.044V86.5214H146.993C146.925 86.6623 146.813 86.813 146.655 86.9736C146.497 87.1342 146.287 87.2708 146.025 87.3835C145.763 87.4962 145.443 87.5525 145.066 87.5525ZM145.218 86.6566C145.612 86.6566 145.945 86.5792 146.215 86.4242C146.489 86.2693 146.694 86.0692 146.832 85.8241C146.973 85.579 147.044 85.3213 147.044 85.0508V84.138C147.001 84.1887 146.908 84.2352 146.765 84.2775C146.624 84.3169 146.46 84.3521 146.274 84.3831C146.091 84.4113 145.912 84.4367 145.738 84.4592C145.566 84.4789 145.426 84.4958 145.319 84.5099C145.06 84.5437 144.818 84.5987 144.593 84.6747C144.37 84.748 144.19 84.8592 144.052 85.0086C143.916 85.1551 143.849 85.3551 143.849 85.6086C143.849 85.9551 143.977 86.2172 144.233 86.3946C144.493 86.5693 144.821 86.6566 145.218 86.6566ZM152.498 87.5356C151.89 87.5356 151.366 87.3919 150.926 87.1046C150.487 86.8172 150.148 86.4214 149.912 85.9171C149.675 85.4128 149.557 84.8367 149.557 84.1887C149.557 83.5295 149.678 82.9478 149.92 82.4435C150.165 81.9364 150.506 81.5405 150.943 81.256C151.382 80.9686 151.895 80.825 152.481 80.825C152.938 80.825 153.349 80.9095 153.715 81.0785C154.081 81.2475 154.381 81.4842 154.615 81.7885C154.849 82.0927 154.994 82.4477 155.05 82.8534H154.053C153.977 82.5576 153.808 82.2956 153.546 82.0674C153.287 81.8364 152.938 81.7208 152.498 81.7208C152.109 81.7208 151.768 81.8223 151.475 82.0251C151.185 82.2251 150.958 82.5083 150.795 82.8745C150.634 83.2379 150.554 83.6647 150.554 84.1549C150.554 84.6564 150.633 85.0931 150.791 85.465C150.951 85.8368 151.177 86.1256 151.467 86.3312C151.76 86.5369 152.104 86.6397 152.498 86.6397C152.757 86.6397 152.992 86.5947 153.204 86.5045C153.415 86.4144 153.594 86.2848 153.74 86.1157C153.887 85.9467 153.991 85.7439 154.053 85.5072H155.05C154.994 85.8904 154.855 86.2355 154.632 86.5425C154.412 86.8468 154.121 87.0891 153.757 87.2694C153.397 87.4469 152.977 87.5356 152.498 87.5356ZM157.438 85.0339L157.421 83.8H157.624L160.464 80.9095H161.698L158.672 83.969H158.588L157.438 85.0339ZM156.508 87.4004V78.7458H157.506V87.4004H156.508ZM160.633 87.4004L158.097 84.1887L158.807 83.4957L161.901 87.4004H160.633Z" fill="#2E2E3A"/>
<path d="M82.3409 117.846V102.392H83.331V117.846H82.3409ZM85.1964 107.336C85.14 106.809 84.9026 106.398 84.484 106.104C84.0695 105.811 83.5302 105.664 82.8661 105.664C82.3993 105.664 81.9988 105.734 81.6648 105.875C81.3307 106.016 81.0752 106.207 80.8981 106.449C80.721 106.69 80.6304 106.966 80.6264 107.276C80.6264 107.533 80.6848 107.757 80.8015 107.946C80.9222 108.135 81.0852 108.296 81.2905 108.429C81.4957 108.557 81.7231 108.666 81.9727 108.755C82.2222 108.843 82.4737 108.918 82.7273 108.978L83.8864 109.268C84.3532 109.376 84.802 109.523 85.2326 109.708C85.6673 109.894 86.0556 110.127 86.3977 110.409C86.7438 110.69 87.0175 111.031 87.2188 111.429C87.42 111.827 87.5206 112.294 87.5206 112.83C87.5206 113.554 87.3355 114.192 86.9652 114.743C86.5949 115.291 86.0597 115.719 85.3594 116.029C84.6631 116.335 83.82 116.488 82.8299 116.488C81.868 116.488 81.0329 116.339 80.3246 116.041C79.6203 115.743 79.0689 115.309 78.6705 114.737C78.276 114.166 78.0627 113.469 78.0305 112.648H80.234C80.2662 113.079 80.399 113.437 80.6325 113.723C80.8659 114.009 81.1697 114.222 81.544 114.363C81.9223 114.504 82.3449 114.574 82.8118 114.574C83.2988 114.574 83.7254 114.502 84.0916 114.357C84.4619 114.208 84.7517 114.003 84.9609 113.741C85.1702 113.475 85.2769 113.166 85.2809 112.811C85.2769 112.489 85.1823 112.224 84.9972 112.015C84.812 111.801 84.5524 111.624 84.2184 111.483C83.8884 111.338 83.502 111.21 83.0593 111.097L81.6527 110.735C80.6345 110.473 79.8295 110.077 79.2379 109.545C78.6503 109.01 78.3565 108.3 78.3565 107.414C78.3565 106.686 78.5537 106.048 78.9482 105.501C79.3466 104.953 79.8879 104.529 80.5721 104.227C81.2563 103.921 82.031 103.768 82.8963 103.768C83.7737 103.768 84.5424 103.921 85.2024 104.227C85.8665 104.529 86.3877 104.949 86.766 105.489C87.1443 106.024 87.3395 106.64 87.3516 107.336H85.1964ZM94.4253 103.937V116.301H92.1856V106.116H92.1132L89.2215 107.964V105.911L92.2943 103.937H94.4253ZM99.4737 114.61L99.3952 115.275C99.3389 115.782 99.2383 116.297 99.0934 116.82C98.9525 117.347 98.8036 117.832 98.6467 118.275C98.4897 118.718 98.3629 119.066 98.2663 119.319H96.7933C96.8497 119.074 96.9261 118.74 97.0227 118.317C97.1233 117.895 97.2199 117.42 97.3125 116.892C97.4051 116.365 97.4674 115.83 97.4996 115.287L97.5419 114.61H99.4737ZM106.046 116.47C105.242 116.47 104.521 116.319 103.885 116.017C103.249 115.711 102.744 115.293 102.37 114.761C102 114.23 101.802 113.622 101.778 112.938H103.952C103.992 113.445 104.211 113.86 104.61 114.182C105.008 114.5 105.487 114.659 106.046 114.659C106.485 114.659 106.876 114.558 107.218 114.357C107.56 114.156 107.829 113.876 108.027 113.518C108.224 113.16 108.32 112.751 108.316 112.292C108.32 111.825 108.222 111.411 108.021 111.049C107.819 110.686 107.544 110.403 107.193 110.197C106.843 109.988 106.441 109.884 105.986 109.884C105.616 109.879 105.252 109.948 104.893 110.089C104.535 110.23 104.251 110.415 104.042 110.644L102.02 110.312L102.666 103.937H109.838V105.809H104.519L104.163 109.087H104.235C104.465 108.817 104.789 108.594 105.207 108.417C105.626 108.235 106.085 108.145 106.584 108.145C107.332 108.145 108 108.322 108.588 108.676C109.176 109.026 109.638 109.509 109.976 110.125C110.315 110.741 110.484 111.445 110.484 112.238C110.484 113.055 110.294 113.783 109.916 114.423C109.542 115.059 109.021 115.56 108.353 115.926C107.688 116.289 106.92 116.47 106.046 116.47ZM116.943 116.47C116.074 116.47 115.301 116.321 114.625 116.023C113.953 115.725 113.422 115.311 113.031 114.779C112.641 114.248 112.434 113.634 112.409 112.938H114.679C114.699 113.272 114.81 113.564 115.011 113.814C115.213 114.059 115.48 114.25 115.814 114.387C116.148 114.524 116.523 114.592 116.937 114.592C117.38 114.592 117.772 114.516 118.114 114.363C118.456 114.206 118.724 113.989 118.917 113.711C119.11 113.433 119.205 113.113 119.201 112.751C119.205 112.377 119.108 112.047 118.911 111.761C118.714 111.475 118.428 111.252 118.054 111.091C117.684 110.93 117.237 110.849 116.714 110.849H115.621V109.123H116.714C117.144 109.123 117.521 109.048 117.843 108.9C118.169 108.751 118.424 108.541 118.609 108.272C118.794 107.998 118.885 107.682 118.881 107.324C118.885 106.974 118.806 106.67 118.646 106.412C118.489 106.151 118.265 105.947 117.975 105.803C117.69 105.658 117.354 105.585 116.967 105.585C116.589 105.585 116.239 105.654 115.917 105.79C115.595 105.927 115.335 106.123 115.138 106.376C114.941 106.626 114.836 106.923 114.824 107.27H112.669C112.685 106.577 112.884 105.97 113.267 105.446C113.653 104.919 114.168 104.509 114.812 104.215C115.456 103.917 116.178 103.768 116.979 103.768C117.804 103.768 118.521 103.923 119.128 104.233C119.74 104.539 120.213 104.951 120.547 105.471C120.881 105.99 121.048 106.563 121.048 107.191C121.052 107.887 120.847 108.471 120.432 108.942C120.022 109.413 119.483 109.721 118.815 109.865V109.962C119.684 110.083 120.35 110.405 120.813 110.928C121.28 111.447 121.511 112.093 121.507 112.866C121.507 113.558 121.31 114.178 120.915 114.725C120.525 115.268 119.986 115.695 119.297 116.005C118.613 116.315 117.829 116.47 116.943 116.47ZM128.608 103.937V116.301H126.368V106.116H126.296L123.404 107.964V105.911L126.477 103.937H128.608Z" fill="#2E2E3A"/>
<path d="M80.5962 135.565V129.717H81.9232V135.565H80.5962ZM78.3354 133.304V131.977H84.184V133.304H78.3354ZM89.0427 137.069C88.4792 137.069 87.9749 136.964 87.5298 136.753C87.0847 136.538 86.7311 136.245 86.4691 135.874C86.2099 135.502 86.0719 135.076 86.055 134.597H87.5763C87.6045 134.952 87.758 135.243 88.0369 135.468C88.3158 135.69 88.6511 135.802 89.0427 135.802C89.3497 135.802 89.623 135.731 89.8625 135.59C90.1019 135.45 90.2907 135.254 90.4287 135.003C90.5668 134.752 90.6344 134.466 90.6316 134.145C90.6344 133.818 90.5654 133.528 90.4245 133.275C90.2837 133.021 90.0907 132.823 89.8456 132.679C89.6005 132.532 89.3187 132.459 89.0004 132.459C88.7412 132.456 88.4863 132.504 88.2355 132.603C87.9848 132.701 87.7862 132.831 87.6397 132.992L86.224 132.759L86.6762 128.297H91.6965V129.607H87.9735L87.7242 131.901H87.7749C87.9355 131.713 88.1623 131.556 88.4553 131.432C88.7483 131.305 89.0694 131.242 89.4188 131.242C89.9428 131.242 90.4104 131.366 90.8217 131.614C91.2331 131.859 91.557 132.197 91.7937 132.628C92.0303 133.059 92.1487 133.552 92.1487 134.107C92.1487 134.679 92.0163 135.189 91.7514 135.637C91.4894 136.082 91.1246 136.433 90.6569 136.689C90.1921 136.943 89.654 137.069 89.0427 137.069ZM94.2331 137.044C93.9767 137.044 93.7569 136.954 93.5738 136.774C93.3907 136.593 93.3006 136.374 93.3034 136.114C93.3006 135.861 93.3907 135.644 93.5738 135.464C93.7569 135.283 93.9767 135.193 94.2331 135.193C94.481 135.193 94.6965 135.283 94.8796 135.464C95.0656 135.644 95.1599 135.861 95.1627 136.114C95.1599 136.286 95.1149 136.443 95.0275 136.584C94.943 136.724 94.8303 136.837 94.6895 136.922C94.5514 137.003 94.3993 137.044 94.2331 137.044ZM96.5689 135.345V134.099L100.241 128.297H101.281V130.071H100.647L98.1747 133.989V134.056H103.301V135.345H96.5689ZM100.698 136.951V134.965L100.714 134.407V128.297H102.194V136.951H100.698ZM109.278 135.328V134.872C109.278 134.537 109.349 134.228 109.489 133.947C109.633 133.665 109.842 133.438 110.115 133.266C110.388 133.094 110.719 133.008 111.108 133.008C111.508 133.008 111.843 133.094 112.114 133.266C112.384 133.435 112.588 133.661 112.726 133.942C112.867 134.224 112.938 134.534 112.938 134.872V135.328C112.938 135.664 112.867 135.972 112.726 136.254C112.586 136.536 112.379 136.762 112.105 136.934C111.835 137.106 111.502 137.192 111.108 137.192C110.714 137.192 110.38 137.106 110.106 136.934C109.833 136.762 109.626 136.536 109.485 136.254C109.347 135.972 109.278 135.664 109.278 135.328ZM110.381 134.872V135.328C110.381 135.551 110.435 135.755 110.542 135.941C110.649 136.127 110.837 136.22 111.108 136.22C111.381 136.22 111.569 136.129 111.67 135.945C111.774 135.759 111.826 135.554 111.826 135.328V134.872C111.826 134.647 111.777 134.441 111.678 134.255C111.58 134.066 111.39 133.972 111.108 133.972C110.843 133.972 110.656 134.066 110.546 134.255C110.436 134.441 110.381 134.647 110.381 134.872ZM104.879 130.376V129.919C104.879 129.581 104.951 129.271 105.095 128.99C105.238 128.708 105.447 128.483 105.72 128.314C105.993 128.142 106.324 128.056 106.713 128.056C107.11 128.056 107.444 128.142 107.715 128.314C107.988 128.483 108.194 128.708 108.332 128.99C108.47 129.271 108.539 129.581 108.539 129.919V130.376C108.539 130.714 108.468 131.024 108.327 131.305C108.189 131.584 107.984 131.808 107.71 131.977C107.437 132.146 107.105 132.231 106.713 132.231C106.316 132.231 105.981 132.146 105.707 131.977C105.437 131.808 105.231 131.583 105.09 131.301C104.949 131.019 104.879 130.711 104.879 130.376ZM105.99 129.919V130.376C105.99 130.601 106.043 130.807 106.147 130.993C106.254 131.176 106.443 131.267 106.713 131.267C106.984 131.267 107.169 131.176 107.271 130.993C107.375 130.807 107.427 130.601 107.427 130.376V129.919C107.427 129.694 107.378 129.488 107.279 129.302C107.181 129.114 106.992 129.019 106.713 129.019C106.445 129.019 106.258 129.114 106.151 129.302C106.044 129.491 105.99 129.697 105.99 129.919ZM105.361 136.951L111.311 128.297H112.367L106.417 136.951H105.361Z" fill="#24CA49"/>
<circle cx="135.058" cy="186.7" r="13.6" fill="#C2B7CD"/>
<g clip-path="url(#clip0_49_5917)">
<path d="M140.724 187.551V191.801C140.724 191.952 140.665 192.096 140.558 192.202C140.452 192.308 140.308 192.368 140.158 192.368H139.591C139.441 192.368 139.296 192.308 139.19 192.202C139.084 192.096 139.024 191.952 139.024 191.801V191.235H131.091V191.801C131.091 191.952 131.031 192.096 130.925 192.202C130.819 192.308 130.675 192.368 130.524 192.368H129.958C129.807 192.368 129.663 192.308 129.557 192.202C129.451 192.096 129.391 191.952 129.391 191.801V187.551L128.687 187.376C128.564 187.345 128.455 187.274 128.378 187.175C128.3 187.075 128.258 186.952 128.258 186.826V186.418C128.258 186.343 128.287 186.271 128.341 186.218C128.394 186.164 128.466 186.135 128.541 186.135H129.603L130.815 182.904C130.896 182.687 131.041 182.501 131.231 182.37C131.42 182.238 131.646 182.168 131.876 182.168H138.239C138.47 182.168 138.695 182.238 138.885 182.37C139.074 182.501 139.219 182.687 139.3 182.904L140.512 186.135H141.574C141.649 186.135 141.721 186.164 141.775 186.218C141.828 186.271 141.858 186.343 141.858 186.418V186.826C141.858 186.952 141.815 187.075 141.738 187.175C141.66 187.274 141.551 187.345 141.429 187.376L140.724 187.551ZM130.524 188.401V189.535C130.524 189.685 130.584 189.829 130.69 189.935C130.796 190.042 130.941 190.101 131.091 190.101H132.93C132.979 190.101 133.027 190.088 133.069 190.064C133.112 190.04 133.147 190.005 133.172 189.963C133.198 189.921 133.211 189.874 133.213 189.825C133.214 189.776 133.202 189.727 133.179 189.684C132.723 188.829 131.838 188.401 130.524 188.401ZM139.591 188.401C138.278 188.401 137.393 188.829 136.936 189.684C136.912 189.727 136.901 189.776 136.902 189.825C136.903 189.874 136.917 189.922 136.942 189.964C136.967 190.006 137.003 190.04 137.046 190.065C137.088 190.089 137.136 190.101 137.185 190.101H139.024C139.175 190.101 139.319 190.042 139.425 189.935C139.531 189.829 139.591 189.685 139.591 189.535V188.401ZM131.658 183.301L130.773 185.956C130.745 186.041 130.737 186.131 130.75 186.22C130.764 186.309 130.798 186.393 130.851 186.466C130.903 186.539 130.972 186.598 131.052 186.639C131.132 186.68 131.22 186.701 131.31 186.701H138.805C138.895 186.701 138.983 186.68 139.063 186.639C139.143 186.598 139.212 186.539 139.264 186.466C139.317 186.393 139.351 186.309 139.365 186.22C139.378 186.131 139.37 186.041 139.342 185.956L138.458 183.301H131.658Z" fill="white"/>
</g>
<circle cx="112.958" cy="186.7" r="13.6" fill="#FD4438"/>
<g clip-path="url(#clip1_49_5917)">
<path d="M117.491 191.233C117.491 191.384 117.431 191.528 117.325 191.634C117.219 191.74 117.075 191.8 116.924 191.8H108.991C108.841 191.8 108.697 191.74 108.59 191.634C108.484 191.528 108.424 191.384 108.424 191.233V186.133H106.724L112.576 180.814C112.681 180.719 112.817 180.666 112.958 180.666C113.099 180.666 113.235 180.719 113.339 180.814L119.191 186.133H117.491V191.233ZM112.391 187.267V190.667H113.524V187.267H112.391Z" fill="white"/>
</g>
<g filter="url(#filter1_dddddd_49_5917)">
<circle cx="90.8578" cy="186.7" r="13.6" fill="#0062FF"/>
</g>
<g clip-path="url(#clip2_49_5917)">
<path d="M93.6912 182.168C94.5929 182.168 95.4577 182.526 96.0953 183.164C96.733 183.801 97.0912 184.666 97.0912 185.568V187.835C97.0912 188.736 96.733 189.601 96.0953 190.239C95.4577 190.876 94.5929 191.235 93.6912 191.235H88.0245C87.1228 191.235 86.258 190.876 85.6203 190.239C84.9827 189.601 84.6245 188.736 84.6245 187.835V185.568C84.6245 184.666 84.9827 183.801 85.6203 183.164C86.258 182.526 87.1228 182.168 88.0245 182.168H93.6912ZM89.7245 185.001H88.5912V186.135H87.4578V187.268H88.5906L88.5912 188.401H89.7245L89.7239 187.268H90.8578V186.135H89.7245V185.001ZM94.2578 187.268H93.1245V188.401H94.2578V187.268ZM93.1245 185.001H91.9912V186.135H93.1245V185.001Z" fill="white"/>
</g>
<rect x="197.958" y="213.049" width="5.1" height="120.7" rx="2.55" transform="rotate(90 197.958 213.049)" fill="#E2E2EA"/>
<rect x="169.908" y="213.049" width="5.1" height="92.65" rx="2.55" transform="rotate(90 169.908 213.049)" fill="#A162F7"/>
</g>
<defs>
<filter id="filter0_d_49_5917" x="0.257812" y="0" width="275.267" height="307" filterUnits="userSpaceOnUse" color-interpolation-filters="sRGB">
<feFlood flood-opacity="0" result="BackgroundImageFix"/>
<feColorMatrix in="SourceAlpha" type="matrix" values="0 0 0 0 0 0 0 0 0 0 0 0 0 0 0 0 0 0 127 0" result="hardAlpha"/>
<feOffset dy="4"/>
<feGaussianBlur stdDeviation="30"/>
<feComposite in2="hardAlpha" operator="out"/>
<feColorMatrix type="matrix" values="0 0 0 0 0 0 0 0 0 0 0 0 0 0 0 0 0 0 0.08 0"/>
<feBlend mode="normal" in2="BackgroundImageFix" result="effect1_dropShadow_49_5917"/>
<feBlend mode="normal" in="SourceGraphic" in2="effect1_dropShadow_49_5917" result="shape"/>
</filter>
<filter id="filter1_dddddd_49_5917" x="9.25781" y="173.1" width="163.2" height="180.199" filterUnits="userSpaceOnUse" color-interpolation-filters="sRGB">
<feFlood flood-opacity="0" result="BackgroundImageFix"/>
<feColorMatrix in="SourceAlpha" type="matrix" values="0 0 0 0 0 0 0 0 0 0 0 0 0 0 0 0 0 0 127 0" result="hardAlpha"/>
<feOffset dy="2.35217"/>
<feGaussianBlur stdDeviation="0.940867"/>
<feColorMatrix type="matrix" values="0 0 0 0 0 0 0 0 0 0.164706 0 0 0 0 1 0 0 0 0.0281146 0"/>
<feBlend mode="normal" in2="BackgroundImageFix" result="effect1_dropShadow_49_5917"/>
<feColorMatrix in="SourceAlpha" type="matrix" values="0 0 0 0 0 0 0 0 0 0 0 0 0 0 0 0 0 0 127 0" result="hardAlpha"/>
<feOffset dy="5.65259"/>
<feGaussianBlur stdDeviation="2.26103"/>
<feColorMatrix type="matrix" values="0 0 0 0 0 0 0 0 0 0.164706 0 0 0 0 1 0 0 0 0.0403893 0"/>
<feBlend mode="normal" in2="effect1_dropShadow_49_5917" result="effect2_dropShadow_49_5917"/>
<feColorMatrix in="SourceAlpha" type="matrix" values="0 0 0 0 0 0 0 0 0 0 0 0 0 0 0 0 0 0 127 0" result="hardAlpha"/>
<feOffset dy="10.6433"/>
<feGaussianBlur stdDeviation="4.25733"/>
<feColorMatrix type="matrix" values="0 0 0 0 0 0 0 0 0 0.164706 0 0 0 0 1 0 0 0 0.05 0"/>
<feBlend mode="normal" in2="effect2_dropShadow_49_5917" result="effect3_dropShadow_49_5917"/>
<feColorMatrix in="SourceAlpha" type="matrix" values="0 0 0 0 0 0 0 0 0 0 0 0 0 0 0 0 0 0 127 0" result="hardAlpha"/>
<feOffset dy="18.9859"/>
<feGaussianBlur stdDeviation="7.59435"/>
<feColorMatrix type="matrix" values="0 0 0 0 0 0 0 0 0 0.164706 0 0 0 0 1 0 0 0 0.0596107 0"/>
<feBlend mode="normal" in2="effect3_dropShadow_49_5917" result="effect4_dropShadow_49_5917"/>
<feColorMatrix in="SourceAlpha" type="matrix" values="0 0 0 0 0 0 0 0 0 0 0 0 0 0 0 0 0 0 127 0" result="hardAlpha"/>
<feOffset dy="35.511"/>
<feGaussianBlur stdDeviation="14.2044"/>
<feColorMatrix type="matrix" values="0 0 0 0 0 0 0 0 0 0.164706 0 0 0 0 1 0 0 0 0.0718854 0"/>
<feBlend mode="normal" in2="effect4_dropShadow_49_5917" result="effect5_dropShadow_49_5917"/>
<feColorMatrix in="SourceAlpha" type="matrix" values="0 0 0 0 0 0 0 0 0 0 0 0 0 0 0 0 0 0 127 0" result="hardAlpha"/>
<feOffset dy="85"/>
<feGaussianBlur stdDeviation="34"/>
<feColorMatrix type="matrix" values="0 0 0 0 0 0 0 0 0 0.164706 0 0 0 0 1 0 0 0 0.1 0"/>
<feBlend mode="normal" in2="effect5_dropShadow_49_5917" result="effect6_dropShadow_49_5917"/>
<feBlend mode="normal" in="SourceGraphic" in2="effect6_dropShadow_49_5917" result="shape"/>
</filter>
<clipPath id="clip0_49_5917">
<rect width="13.6" height="13.6" fill="white" transform="translate(128.258 179.9)"/>
</clipPath>
<clipPath id="clip1_49_5917">
<rect width="13.6" height="13.6" fill="white" transform="translate(106.158 179.9)"/>
</clipPath>
<clipPath id="clip2_49_5917">
<rect width="13.6" height="13.6" fill="white" transform="translate(84.0579 179.9)"/>
</clipPath>
</defs>
</svg>
