<svg width="54" height="50" viewBox="0 0 54 50" fill="none" xmlns="http://www.w3.org/2000/svg">
<path d="M42.3665 17.8326C37.5327 17.8326 33.614 14.0816 33.614 9.45455C33.613 8.93883 33.6642 8.42423 33.7669 7.91797H16.453C9.13379 7.91797 4.83398 12.0887 4.83398 19.0765V34.296C4.83398 41.2838 9.13379 45.418 16.453 45.418H32.3528C39.6529 45.418 43.9527 41.2838 43.9527 34.296V17.6863C43.4297 17.7811 42.8988 17.8301 42.3665 17.8326Z" fill="#1E46D7"/>
<path d="M35.2765 22.9368L29.0656 30.6197C28.8043 30.9536 28.4124 31.1715 27.9799 31.2232C27.5474 31.275 27.1115 31.1562 26.7724 30.8941L20.81 26.4124L15.44 33.0709C15.0512 33.6629 14.2938 33.9288 13.5972 33.7181C12.9007 33.5073 12.4407 32.8729 12.4779 32.1746C12.4747 31.829 12.5962 31.493 12.8219 31.2233L19.243 23.2843C19.5011 22.9531 19.8878 22.7353 20.3157 22.6802C20.7436 22.6252 21.1767 22.7374 21.5171 22.9916L27.4795 27.4916L32.7157 21.0343C32.9675 20.7014 33.3494 20.4804 33.7744 20.4218C34.1994 20.3632 34.631 20.472 34.9707 20.7233C35.6725 21.2495 35.8082 22.2153 35.2765 22.9002V22.9368Z" fill="#FFABB3"/>
<ellipse cx="42.866" cy="8.95833" rx="5.43316" ry="5.20833" fill="#FFABB3"/>
</svg>
