<svg width="50" height="50" viewBox="0 0 50 50" fill="none" xmlns="http://www.w3.org/2000/svg">
<path opacity="0.15" d="M40 0H10C4.47715 0 0 4.47715 0 10V40C0 45.5228 4.47715 50 10 50H40C45.5228 50 50 45.5228 50 40V10C50 4.47715 45.5228 0 40 0Z" fill="#1DE2CF"/>
<path d="M32.3241 24.7531V25.7011C32.3233 25.8038 32.2821 25.902 32.2095 25.9746C32.1369 26.0472 32.0387 26.0883 31.9361 26.0891H30.4361C30.3334 26.0883 30.2352 26.0472 30.1626 25.9746C30.09 25.902 30.0488 25.8038 30.048 25.7011V25.3401L24.99 26.6491L20.0991 25.3861V25.7021C20.0983 25.8048 20.0571 25.903 19.9845 25.9756C19.9119 26.0482 19.8137 26.0893 19.7111 26.0901H18.2111C18.1084 26.0893 18.0102 26.0482 17.9376 25.9756C17.865 25.903 17.8238 25.8048 17.823 25.7021V24.8021L14.175 23.8281V31.4681C14.1817 31.744 14.2426 32.0159 14.3544 32.2682C14.4661 32.5205 14.6265 32.7484 14.8264 32.9387C15.0262 33.129 15.2616 33.278 15.5191 33.3772C15.7766 33.4765 16.0512 33.524 16.327 33.5171H33.6511C33.9264 33.5243 34.2004 33.4768 34.4572 33.3775C34.7141 33.2782 34.9488 33.129 35.1477 32.9385C35.3465 32.748 35.5057 32.5199 35.616 32.2676C35.7262 32.0152 35.7854 31.7435 35.7901 31.4681V23.8281L32.3241 24.7531Z" fill="#31E2CF"/>
<path d="M33.6551 34.5883H16.3321C15.1001 34.5883 14.1841 34.0883 14.1841 32.9883V34.1483C14.1931 34.418 14.2567 34.6831 14.3709 34.9277C14.4852 35.1722 14.6477 35.3911 14.8488 35.5711C15.0498 35.7511 15.2853 35.8886 15.5409 35.9753C15.7965 36.0619 16.067 36.096 16.3361 36.0753H33.6601C33.9287 36.0954 34.1987 36.0608 34.4536 35.9736C34.7085 35.8863 34.943 35.7482 35.143 35.5677C35.343 35.3872 35.5042 35.1679 35.617 34.9233C35.7298 34.6786 35.7917 34.4136 35.7991 34.1443V32.9883C35.7991 34.0883 34.8841 34.5883 33.6551 34.5883Z" fill="#31E2CF"/>
<path d="M34.1701 18.3661H15.8131C15.2184 18.3363 14.6361 18.5424 14.1925 18.9395C13.7489 19.3367 13.48 19.8928 13.4441 20.4871V22.6081L17.8351 23.7451V23.2081C17.8359 23.1055 17.877 23.0072 17.9496 22.9346C18.0222 22.862 18.1204 22.8209 18.2231 22.8201H19.7231C19.8258 22.8209 19.924 22.862 19.9966 22.9346C20.0692 23.0072 20.1103 23.1055 20.1111 23.2081V24.3321L25.0021 25.5951L30.0651 24.2861V23.2081C30.0659 23.1055 30.107 23.0072 30.1796 22.9346C30.2522 22.862 30.3504 22.8209 30.4531 22.8201H31.9531C32.0558 22.8209 32.154 22.862 32.2266 22.9346C32.2992 23.0072 32.3403 23.1055 32.3411 23.2081V23.7001L36.5601 22.6081V20.4871C36.5179 19.8914 36.2442 19.3358 35.7975 18.9394C35.3508 18.543 34.7666 18.3372 34.1701 18.3661Z" fill="#31E2CF"/>
<path d="M20.5111 17.622V16.692C20.5122 16.2865 20.6737 15.898 20.9604 15.6113C21.2471 15.3246 21.6357 15.163 22.0411 15.162H27.9411C28.3466 15.163 28.7351 15.3246 29.0218 15.6113C29.3086 15.898 29.4701 16.2865 29.4711 16.692V17.622H31.0371V16.122C31.0421 15.8342 30.9895 15.5484 30.8826 15.2812C30.7757 15.0141 30.6165 14.7709 30.4144 14.566C30.2123 14.3611 29.9714 14.1986 29.7057 14.0881C29.44 13.9775 29.1549 13.921 28.8671 13.922H21.1371C20.8488 13.9192 20.5627 13.9739 20.2957 14.0828C20.0287 14.1918 19.7861 14.3529 19.582 14.5567C19.3779 14.7605 19.2165 15.0029 19.1072 15.2698C18.9978 15.5366 18.9427 15.8226 18.9451 16.111V17.611L20.5111 17.622Z" fill="#31E2CF"/>
</svg>
