<svg width="249" height="221" viewBox="0 0 249 221" fill="none" xmlns="http://www.w3.org/2000/svg">
<g filter="url(#filter0_d_49_4275)">
<rect x="50" y="25" width="148.571" height="121" rx="12" fill="#1E46D7"/>
<g clip-path="url(#clip0_49_4275)" filter="url(#filter1_d_49_4275)">
<g filter="url(#filter2_d_49_4275)">
<path d="M132.974 63.7069V64.8317C132.973 64.9535 132.924 65.07 132.838 65.1562C132.752 65.2423 132.635 65.2911 132.513 65.292H130.734C130.612 65.2911 130.495 65.2423 130.409 65.1562C130.323 65.07 130.274 64.9535 130.273 64.8317V64.4033L124.272 65.9565L118.469 64.4579V64.8329C118.468 64.9547 118.419 65.0712 118.333 65.1574C118.247 65.2435 118.13 65.2923 118.009 65.2932H116.229C116.107 65.2923 115.991 65.2435 115.904 65.1574C115.818 65.0712 115.769 64.9547 115.769 64.8329V63.765L111.44 62.6094V71.6742C111.448 72.0015 111.52 72.3241 111.653 72.6235C111.786 72.9229 111.976 73.1932 112.213 73.419C112.45 73.6447 112.729 73.8216 113.035 73.9393C113.34 74.0571 113.666 74.1135 113.994 74.1053H134.548C134.875 74.1138 135.2 74.0575 135.505 73.9397C135.81 73.8218 136.088 73.6448 136.324 73.4188C136.56 73.1927 136.749 72.9222 136.88 72.6227C137.01 72.3233 137.081 72.0009 137.086 71.6742V62.6094L132.974 63.7069Z" fill="white"/>
<path d="M134.554 75.375H114C112.538 75.375 111.452 74.7817 111.452 73.4766V74.8529C111.462 75.1729 111.538 75.4875 111.673 75.7776C111.809 76.0678 112.002 76.3274 112.24 76.5411C112.479 76.7547 112.758 76.9178 113.061 77.0206C113.365 77.1234 113.686 77.1638 114.005 77.1393H134.56C134.879 77.1632 135.199 77.1221 135.501 77.0186C135.804 76.9151 136.082 76.7512 136.319 76.537C136.557 76.3228 136.748 76.0627 136.882 75.7724C137.015 75.4821 137.089 75.1677 137.098 74.8482V73.4766C137.098 74.7817 136.012 75.375 134.554 75.375Z" fill="white"/>
<path d="M135.165 56.1284H113.384C112.679 56.093 111.988 56.3375 111.461 56.8087C110.935 57.2799 110.616 57.9398 110.573 58.6449V61.1615L115.783 62.5105V61.8734C115.784 61.7516 115.833 61.635 115.919 61.5489C116.005 61.4627 116.122 61.4139 116.244 61.413H118.023C118.145 61.4139 118.262 61.4627 118.348 61.5489C118.434 61.635 118.483 61.7516 118.484 61.8734V63.207L124.287 64.7055L130.294 63.1524V61.8734C130.295 61.7516 130.344 61.635 130.43 61.5489C130.516 61.4627 130.633 61.4139 130.755 61.413H132.534C132.656 61.4139 132.773 61.4627 132.859 61.5489C132.945 61.635 132.994 61.7516 132.995 61.8734V62.4571L138 61.1615V58.6449C137.95 57.9381 137.626 57.2789 137.096 56.8085C136.566 56.3382 135.873 56.094 135.165 56.1284Z" fill="white"/>
<path d="M118.957 55.2456V54.1422C118.959 53.6611 119.15 53.2001 119.49 52.8599C119.831 52.5198 120.292 52.3281 120.773 52.3268H127.773C128.254 52.3281 128.715 52.5198 129.055 52.8599C129.395 53.2001 129.587 53.6611 129.588 54.1422V55.2456H131.446V53.4659C131.452 53.1245 131.39 52.7853 131.263 52.4683C131.136 52.1513 130.947 51.8628 130.707 51.6198C130.468 51.3767 130.182 51.1839 129.867 51.0526C129.551 50.9214 129.213 50.8544 128.872 50.8556H119.7C119.358 50.8523 119.018 50.9172 118.702 51.0465C118.385 51.1758 118.097 51.3669 117.855 51.6087C117.613 51.8505 117.421 52.1381 117.291 52.4547C117.162 52.7713 117.096 53.1107 117.099 53.4528V55.2326L118.957 55.2456Z" fill="white"/>
</g>
</g>
<g filter="url(#filter3_d_49_4275)">
<path d="M115.171 108.362H112.514C112.439 107.927 112.299 107.541 112.095 107.205C111.892 106.864 111.638 106.575 111.335 106.338C111.032 106.101 110.687 105.924 110.298 105.805C109.915 105.682 109.501 105.621 109.056 105.621C108.265 105.621 107.564 105.82 106.953 106.217C106.342 106.61 105.864 107.188 105.519 107.95C105.173 108.708 105 109.634 105 110.727C105 111.84 105.173 112.777 105.519 113.54C105.869 114.297 106.347 114.87 106.953 115.259C107.564 115.642 108.262 115.834 109.048 115.834C109.484 115.834 109.891 115.777 110.27 115.663C110.654 115.545 110.997 115.372 111.3 115.145C111.608 114.918 111.866 114.638 112.074 114.307C112.287 113.975 112.434 113.597 112.514 113.17L115.171 113.185C115.071 113.876 114.856 114.525 114.524 115.131C114.198 115.737 113.769 116.272 113.239 116.736C112.708 117.195 112.088 117.555 111.378 117.815C110.668 118.071 109.879 118.199 109.013 118.199C107.735 118.199 106.593 117.903 105.59 117.311C104.586 116.719 103.795 115.865 103.217 114.747C102.64 113.63 102.351 112.29 102.351 110.727C102.351 109.16 102.642 107.82 103.225 106.707C103.807 105.59 104.6 104.735 105.604 104.143C106.608 103.552 107.744 103.256 109.013 103.256C109.823 103.256 110.575 103.369 111.271 103.597C111.967 103.824 112.588 104.158 113.132 104.598C113.677 105.034 114.124 105.569 114.475 106.203C114.83 106.833 115.062 107.553 115.171 108.362ZM117.584 118V103.455H123.038C124.156 103.455 125.093 103.649 125.851 104.037C126.613 104.425 127.188 104.97 127.576 105.67C127.969 106.366 128.166 107.179 128.166 108.107C128.166 109.039 127.967 109.849 127.569 110.536C127.176 111.217 126.596 111.745 125.829 112.119C125.062 112.489 124.12 112.673 123.003 112.673H119.118V110.486H122.648C123.301 110.486 123.836 110.396 124.253 110.216C124.669 110.031 124.977 109.764 125.176 109.413C125.38 109.058 125.481 108.623 125.481 108.107C125.481 107.59 125.38 107.15 125.176 106.786C124.972 106.416 124.662 106.137 124.246 105.947C123.829 105.753 123.291 105.656 122.633 105.656H120.219V118H117.584ZM125.098 111.409L128.699 118H125.758L122.221 111.409H125.098ZM130.591 103.455H133.816L138.134 113.994H138.304L142.623 103.455H145.847V118H143.319V108.007H143.184L139.164 117.957H137.275L133.255 107.986H133.12V118H130.591V103.455Z" fill="white"/>
</g>
</g>
<defs>
<filter id="filter0_d_49_4275" x="0" y="0" width="248.572" height="221" filterUnits="userSpaceOnUse" color-interpolation-filters="sRGB">
<feFlood flood-opacity="0" result="BackgroundImageFix"/>
<feColorMatrix in="SourceAlpha" type="matrix" values="0 0 0 0 0 0 0 0 0 0 0 0 0 0 0 0 0 0 127 0" result="hardAlpha"/>
<feOffset dy="25"/>
<feGaussianBlur stdDeviation="25"/>
<feColorMatrix type="matrix" values="0 0 0 0 0.168627 0 0 0 0 0.34902 0 0 0 0 1 0 0 0 0.25 0"/>
<feBlend mode="normal" in2="BackgroundImageFix" result="effect1_dropShadow_49_4275"/>
<feBlend mode="normal" in="SourceGraphic" in2="effect1_dropShadow_49_4275" result="shape"/>
</filter>
<filter id="filter1_d_49_4275" x="85.2856" y="29" width="78" height="78" filterUnits="userSpaceOnUse" color-interpolation-filters="sRGB">
<feFlood flood-opacity="0" result="BackgroundImageFix"/>
<feColorMatrix in="SourceAlpha" type="matrix" values="0 0 0 0 0 0 0 0 0 0 0 0 0 0 0 0 0 0 127 0" result="hardAlpha"/>
<feOffset dy="4"/>
<feGaussianBlur stdDeviation="7"/>
<feComposite in2="hardAlpha" operator="out"/>
<feColorMatrix type="matrix" values="0 0 0 0 0 0 0 0 0 0 0 0 0 0 0 0 0 0 0.25 0"/>
<feBlend mode="normal" in2="BackgroundImageFix" result="effect1_dropShadow_49_4275"/>
<feBlend mode="normal" in="SourceGraphic" in2="effect1_dropShadow_49_4275" result="shape"/>
</filter>
<filter id="filter2_d_49_4275" x="90.5735" y="34.8555" width="67.427" height="66.2891" filterUnits="userSpaceOnUse" color-interpolation-filters="sRGB">
<feFlood flood-opacity="0" result="BackgroundImageFix"/>
<feColorMatrix in="SourceAlpha" type="matrix" values="0 0 0 0 0 0 0 0 0 0 0 0 0 0 0 0 0 0 127 0" result="hardAlpha"/>
<feOffset dy="4"/>
<feGaussianBlur stdDeviation="10"/>
<feComposite in2="hardAlpha" operator="out"/>
<feColorMatrix type="matrix" values="0 0 0 0 0 0 0 0 0 0 0 0 0 0 0 0 0 0 0.25 0"/>
<feBlend mode="normal" in2="BackgroundImageFix" result="effect1_dropShadow_49_4275"/>
<feBlend mode="normal" in="SourceGraphic" in2="effect1_dropShadow_49_4275" result="shape"/>
</filter>
<filter id="filter3_d_49_4275" x="87.3511" y="92.2539" width="73.4961" height="44.9453" filterUnits="userSpaceOnUse" color-interpolation-filters="sRGB">
<feFlood flood-opacity="0" result="BackgroundImageFix"/>
<feColorMatrix in="SourceAlpha" type="matrix" values="0 0 0 0 0 0 0 0 0 0 0 0 0 0 0 0 0 0 127 0" result="hardAlpha"/>
<feOffset dy="4"/>
<feGaussianBlur stdDeviation="7.5"/>
<feComposite in2="hardAlpha" operator="out"/>
<feColorMatrix type="matrix" values="0 0 0 0 0 0 0 0 0 0 0 0 0 0 0 0 0 0 0.28 0"/>
<feBlend mode="normal" in2="BackgroundImageFix" result="effect1_dropShadow_49_4275"/>
<feBlend mode="normal" in="SourceGraphic" in2="effect1_dropShadow_49_4275" result="shape"/>
</filter>
<clipPath id="clip0_49_4275">
<rect width="50" height="50" fill="white" transform="translate(99.2856 39)"/>
</clipPath>
</defs>
</svg>
