<svg width="56" height="60" viewBox="0 0 56 60" fill="none" xmlns="http://www.w3.org/2000/svg">
<path opacity="0.3" d="M23.7043 1.17634C26.428 -0.392113 29.7837 -0.392114 32.5074 1.17634L50.9318 11.7862C53.6555 13.3546 55.3334 16.2533 55.3334 19.3902V40.6098C55.3334 43.7467 53.6555 46.6454 50.9318 48.2138L32.5074 58.8237C29.7837 60.3921 26.428 60.3921 23.7043 58.8237L5.27996 48.2138C2.55628 46.6454 0.878418 43.7467 0.878418 40.6098V19.3902C0.878418 16.2533 2.55628 13.3546 5.27996 11.7862L23.7043 1.17634Z" fill="#FFC83E"/>
<path d="M31.1469 38.0099L29.497 39.6555V32.5461C29.497 31.8436 28.9266 31.2734 28.221 31.2734C27.5154 31.2734 26.945 31.8436 26.945 32.5461V39.6555L25.2951 38.0099C24.7962 37.5123 23.9898 37.5123 23.4909 38.0099C22.992 38.5075 22.992 39.3119 23.4909 39.8095L27.3177 43.6264C27.4351 43.7448 27.5767 43.8377 27.7337 43.9026C27.8894 43.9662 28.0552 44.0006 28.2211 44.0006C28.3869 44.0006 28.5529 43.9662 28.7085 43.9026C28.8654 43.8377 29.0071 43.7448 29.1245 43.6264L32.9513 39.8095C33.4502 39.3119 33.4502 38.5075 32.9513 38.0099C32.4523 37.5122 31.6458 37.5122 31.1469 38.0099Z" fill="#FFC83E"/>
<path d="M39.6332 25.1941C39.0501 20.8159 35.0307 16 30.1971 16C27.6055 16 24.9706 17.2702 23.2109 19.3078C22.6482 19.1028 22.0523 18.9972 21.445 18.9972C18.6952 18.9972 16.4417 21.1583 16.3039 23.868C14.2725 25.1738 12.9097 27.5856 12.9097 29.9999C12.9097 31.5119 13.4124 33.1893 14.289 34.6008C15.4502 36.4729 17.5799 37.6362 19.8461 37.6362H20.798C20.9856 37.1067 21.2778 36.618 21.6874 36.2095C22.4096 35.4878 23.3717 35.0908 24.3938 35.0908V32.5453C24.3938 30.4402 26.11 28.7271 28.2218 28.7271C30.3324 28.7271 32.0499 30.4402 32.0499 32.5453V35.0908C33.0707 35.0908 34.0328 35.4878 34.7563 36.2095C35.1659 36.618 35.4568 37.1067 35.6457 37.6362H36.9817C40.2929 37.6362 43.1525 35.1773 43.4919 32.0375C43.52 31.7868 43.534 31.531 43.534 31.2727C43.534 28.3505 42.0334 26.0634 39.6332 25.1941Z" fill="#FFC83E"/>
</svg>
