<svg width="446" height="410" viewBox="0 0 446 410" fill="none" xmlns="http://www.w3.org/2000/svg">
<g filter="url(#filter0_d_49_4215)">
<rect x="70" y="45" width="306" height="270" rx="10" fill="white"/>
</g>
<circle opacity="0.2" cx="223" cy="125" r="40" fill="#FD4C5C"/>
<g clip-path="url(#clip0_49_4215)">
<path d="M215.193 115.395C216.036 115.49 216.979 115.567 217.918 115.71C218.23 115.774 218.552 115.751 218.853 115.646C219.153 115.541 219.421 115.356 219.629 115.111C224.09 110.378 229.668 108.015 235.941 107.152C237.16 106.987 238.392 106.956 239.618 107.061C240.498 107.133 240.847 107.567 240.933 108.475C241.12 110.435 240.906 112.36 240.527 114.26C239.4 119.904 237.12 124.939 232.96 128.962C232.797 129.113 232.67 129.3 232.589 129.509C232.507 129.718 232.474 129.943 232.491 130.168C232.531 131.618 232.93 133.046 232.701 134.515C232.462 136.051 231.832 137.388 230.598 138.287C228.53 139.797 226.419 141.247 224.267 142.637C222.873 143.538 221.334 142.637 221.201 140.915C221.068 139.236 220.945 137.556 220.849 135.875C220.813 135.254 220.655 134.932 219.953 134.816C216.448 134.246 214.395 132.105 213.784 128.454C213.693 127.92 213.488 127.679 212.918 127.653C211.273 127.582 209.629 127.457 207.987 127.327C206.303 127.193 205.48 125.678 206.357 124.196C207.617 122.071 208.907 119.959 210.274 117.905C211.406 116.215 213.098 115.48 215.193 115.395ZM230.145 122.104C230.665 122.114 231.182 122.018 231.666 121.821C232.15 121.624 232.59 121.331 232.961 120.957C233.333 120.584 233.628 120.139 233.828 119.648C234.029 119.157 234.133 118.63 234.132 118.097C234.131 117.565 234.026 117.038 233.824 116.548C233.621 116.057 233.325 115.613 232.953 115.241C232.581 114.869 232.139 114.577 231.655 114.382C231.171 114.186 230.653 114.092 230.133 114.103C227.972 114.103 226.162 115.931 226.165 118.108C226.169 120.285 227.974 122.104 230.145 122.104Z" fill="#FD4C5C"/>
<path d="M217.928 138.098C217.943 138.404 217.76 138.685 217.517 138.933C216.63 139.842 215.739 140.747 214.855 141.661C214.493 142.035 214.08 142.236 213.573 142.059C213.066 141.882 212.93 141.392 212.873 140.893C212.851 140.722 212.842 140.549 212.847 140.376C212.878 139.825 212.622 139.749 212.174 139.91C211.251 140.237 210.321 140.542 209.397 140.865C208.922 141.038 208.467 141.086 208.071 140.693C207.676 140.3 207.718 139.832 207.873 139.339C208.176 138.39 208.46 137.435 208.796 136.496C209.006 135.902 208.816 135.705 208.243 135.736C207.992 135.757 207.74 135.745 207.492 135.7C206.704 135.528 206.322 134.677 206.856 134.069C207.86 132.921 208.924 131.829 210.042 130.797C210.658 130.228 211.359 130.554 211.706 131.486C212.237 132.971 213.128 134.294 214.296 135.332C215.13 136.051 216.085 136.607 217.115 136.975C217.602 137.154 217.925 137.46 217.928 138.098Z" fill="#FD4C5C"/>
</g>
<path d="M124.372 217V202.455H134.002V204.99H127.447V208.456H133.363V210.991H127.447V217H124.372ZM138.988 217.206C138.292 217.206 137.672 217.085 137.127 216.844C136.583 216.598 136.152 216.235 135.835 215.757C135.522 215.274 135.366 214.673 135.366 213.953C135.366 213.347 135.477 212.838 135.7 212.426C135.922 212.014 136.225 211.683 136.609 211.432C136.992 211.181 137.428 210.991 137.916 210.864C138.408 210.736 138.924 210.646 139.464 210.594C140.098 210.527 140.61 210.466 140.998 210.409C141.386 210.348 141.668 210.258 141.843 210.139C142.018 210.021 142.106 209.846 142.106 209.614V209.571C142.106 209.121 141.964 208.773 141.68 208.527C141.401 208.281 141.003 208.158 140.487 208.158C139.942 208.158 139.509 208.278 139.187 208.52C138.865 208.757 138.652 209.055 138.548 209.415L135.749 209.188C135.892 208.525 136.171 207.952 136.588 207.469C137.004 206.981 137.542 206.607 138.2 206.347C138.863 206.081 139.63 205.949 140.501 205.949C141.107 205.949 141.687 206.02 142.241 206.162C142.8 206.304 143.294 206.524 143.725 206.822C144.161 207.121 144.504 207.504 144.755 207.973C145.006 208.437 145.132 208.993 145.132 209.642V217H142.262V215.487H142.177C142.002 215.828 141.767 216.129 141.474 216.389C141.18 216.645 140.828 216.846 140.416 216.993C140.004 217.135 139.528 217.206 138.988 217.206ZM139.855 215.118C140.3 215.118 140.693 215.03 141.034 214.855C141.374 214.675 141.642 214.434 141.836 214.131C142.03 213.828 142.127 213.484 142.127 213.101V211.943C142.033 212.005 141.902 212.062 141.737 212.114C141.576 212.161 141.393 212.206 141.19 212.249C140.986 212.286 140.783 212.322 140.579 212.355C140.375 212.384 140.191 212.41 140.025 212.433C139.67 212.485 139.36 212.568 139.095 212.682C138.829 212.795 138.624 212.949 138.477 213.143C138.33 213.333 138.257 213.57 138.257 213.854C138.257 214.266 138.406 214.58 138.704 214.798C139.007 215.011 139.391 215.118 139.855 215.118ZM156.556 209.202L153.786 209.372C153.738 209.135 153.637 208.922 153.48 208.733C153.324 208.539 153.118 208.385 152.862 208.271C152.611 208.153 152.311 208.094 151.96 208.094C151.492 208.094 151.096 208.193 150.774 208.392C150.452 208.586 150.291 208.847 150.291 209.173C150.291 209.434 150.396 209.654 150.604 209.834C150.812 210.014 151.17 210.158 151.676 210.267L153.651 210.665C154.711 210.883 155.502 211.233 156.023 211.716C156.544 212.199 156.804 212.833 156.804 213.619C156.804 214.334 156.593 214.962 156.172 215.501C155.755 216.041 155.182 216.463 154.453 216.766C153.729 217.064 152.893 217.213 151.946 217.213C150.502 217.213 149.352 216.912 148.494 216.311C147.642 215.705 147.143 214.881 146.996 213.839L149.972 213.683C150.062 214.124 150.28 214.46 150.625 214.692C150.971 214.919 151.414 215.033 151.953 215.033C152.484 215.033 152.91 214.931 153.232 214.727C153.558 214.519 153.724 214.251 153.729 213.925C153.724 213.65 153.608 213.425 153.381 213.25C153.154 213.07 152.803 212.933 152.33 212.838L150.441 212.462C149.375 212.249 148.582 211.879 148.061 211.354C147.545 210.828 147.287 210.158 147.287 209.344C147.287 208.643 147.477 208.039 147.855 207.533C148.239 207.026 148.776 206.635 149.468 206.361C150.164 206.086 150.978 205.949 151.911 205.949C153.289 205.949 154.373 206.24 155.164 206.822C155.959 207.405 156.423 208.198 156.556 209.202ZM164.512 206.091V208.364H157.942V206.091H164.512ZM159.434 203.477H162.459V213.648C162.459 213.927 162.502 214.145 162.587 214.301C162.672 214.453 162.791 214.559 162.942 214.621C163.099 214.682 163.278 214.713 163.482 214.713C163.624 214.713 163.766 214.701 163.908 214.678C164.05 214.649 164.159 214.628 164.235 214.614L164.711 216.865C164.559 216.912 164.346 216.967 164.072 217.028C163.797 217.095 163.463 217.135 163.07 217.149C162.341 217.178 161.702 217.08 161.153 216.858C160.608 216.635 160.184 216.29 159.881 215.821C159.578 215.352 159.429 214.76 159.434 214.045V203.477ZM174.222 217.206C173.526 217.206 172.906 217.085 172.362 216.844C171.817 216.598 171.386 216.235 171.069 215.757C170.757 215.274 170.6 214.673 170.6 213.953C170.6 213.347 170.712 212.838 170.934 212.426C171.157 212.014 171.46 211.683 171.843 211.432C172.227 211.181 172.662 210.991 173.15 210.864C173.642 210.736 174.159 210.646 174.698 210.594C175.333 210.527 175.844 210.466 176.232 210.409C176.621 210.348 176.902 210.258 177.078 210.139C177.253 210.021 177.34 209.846 177.34 209.614V209.571C177.34 209.121 177.198 208.773 176.914 208.527C176.635 208.281 176.237 208.158 175.721 208.158C175.177 208.158 174.743 208.278 174.421 208.52C174.099 208.757 173.886 209.055 173.782 209.415L170.984 209.188C171.126 208.525 171.405 207.952 171.822 207.469C172.239 206.981 172.776 206.607 173.434 206.347C174.097 206.081 174.864 205.949 175.735 205.949C176.341 205.949 176.921 206.02 177.475 206.162C178.034 206.304 178.529 206.524 178.96 206.822C179.395 207.121 179.739 207.504 179.99 207.973C180.24 208.437 180.366 208.993 180.366 209.642V217H177.497V215.487H177.411C177.236 215.828 177.002 216.129 176.708 216.389C176.415 216.645 176.062 216.846 175.65 216.993C175.238 217.135 174.762 217.206 174.222 217.206ZM175.089 215.118C175.534 215.118 175.927 215.03 176.268 214.855C176.609 214.675 176.876 214.434 177.07 214.131C177.265 213.828 177.362 213.484 177.362 213.101V211.943C177.267 212.005 177.137 212.062 176.971 212.114C176.81 212.161 176.628 212.206 176.424 212.249C176.221 212.286 176.017 212.322 175.813 212.355C175.61 212.384 175.425 212.41 175.259 212.433C174.904 212.485 174.594 212.568 174.329 212.682C174.064 212.795 173.858 212.949 173.711 213.143C173.564 213.333 173.491 213.57 173.491 213.854C173.491 214.266 173.64 214.58 173.938 214.798C174.241 215.011 174.625 215.118 175.089 215.118ZM185.739 210.693V217H182.713V206.091H185.597V208.016H185.725C185.966 207.381 186.371 206.879 186.939 206.51C187.507 206.136 188.196 205.949 189.006 205.949C189.763 205.949 190.424 206.115 190.987 206.446C191.551 206.777 191.989 207.251 192.301 207.866C192.614 208.477 192.77 209.206 192.77 210.054V217H189.744V210.594C189.749 209.926 189.579 209.405 189.233 209.031C188.887 208.652 188.412 208.463 187.806 208.463C187.398 208.463 187.039 208.551 186.726 208.726C186.418 208.901 186.177 209.157 186.002 209.493C185.831 209.824 185.744 210.224 185.739 210.693ZM199.175 217.178C198.346 217.178 197.595 216.964 196.923 216.538C196.256 216.107 195.725 215.475 195.332 214.642C194.944 213.804 194.75 212.777 194.75 211.56C194.75 210.31 194.951 209.27 195.354 208.442C195.756 207.608 196.291 206.986 196.959 206.574C197.631 206.157 198.367 205.949 199.167 205.949C199.778 205.949 200.287 206.053 200.694 206.261C201.106 206.465 201.438 206.721 201.689 207.028C201.944 207.331 202.139 207.63 202.271 207.923H202.363V202.455H205.382V217H202.399V215.253H202.271C202.129 215.556 201.928 215.857 201.667 216.155C201.412 216.448 201.078 216.692 200.666 216.886C200.259 217.08 199.762 217.178 199.175 217.178ZM200.133 214.77C200.621 214.77 201.033 214.637 201.369 214.372C201.71 214.102 201.97 213.726 202.15 213.243C202.335 212.76 202.427 212.194 202.427 211.545C202.427 210.897 202.337 210.333 202.157 209.855C201.978 209.377 201.717 209.008 201.376 208.747C201.035 208.487 200.621 208.357 200.133 208.357C199.636 208.357 199.217 208.491 198.876 208.761C198.535 209.031 198.277 209.405 198.102 209.884C197.927 210.362 197.839 210.916 197.839 211.545C197.839 212.18 197.927 212.741 198.102 213.229C198.282 213.712 198.54 214.09 198.876 214.365C199.217 214.635 199.636 214.77 200.133 214.77ZM212.555 217V202.455H222.356V204.99H215.631V208.456H221.852V210.991H215.631V214.464H222.385V217H212.555ZM227.855 217.206C227.159 217.206 226.539 217.085 225.994 216.844C225.45 216.598 225.019 216.235 224.702 215.757C224.389 215.274 224.233 214.673 224.233 213.953C224.233 213.347 224.344 212.838 224.567 212.426C224.789 212.014 225.093 211.683 225.476 211.432C225.86 211.181 226.295 210.991 226.783 210.864C227.275 210.736 227.791 210.646 228.331 210.594C228.966 210.527 229.477 210.466 229.865 210.409C230.253 210.348 230.535 210.258 230.71 210.139C230.886 210.021 230.973 209.846 230.973 209.614V209.571C230.973 209.121 230.831 208.773 230.547 208.527C230.268 208.281 229.87 208.158 229.354 208.158C228.809 208.158 228.376 208.278 228.054 208.52C227.732 208.757 227.519 209.055 227.415 209.415L224.617 209.188C224.759 208.525 225.038 207.952 225.455 207.469C225.871 206.981 226.409 206.607 227.067 206.347C227.73 206.081 228.497 205.949 229.368 205.949C229.974 205.949 230.554 206.02 231.108 206.162C231.667 206.304 232.162 206.524 232.593 206.822C233.028 207.121 233.371 207.504 233.622 207.973C233.873 208.437 233.999 208.993 233.999 209.642V217H231.129V215.487H231.044C230.869 215.828 230.635 216.129 230.341 216.389C230.048 216.645 229.695 216.846 229.283 216.993C228.871 217.135 228.395 217.206 227.855 217.206ZM228.722 215.118C229.167 215.118 229.56 215.03 229.901 214.855C230.242 214.675 230.509 214.434 230.703 214.131C230.897 213.828 230.994 213.484 230.994 213.101V211.943C230.9 212.005 230.77 212.062 230.604 212.114C230.443 212.161 230.261 212.206 230.057 212.249C229.853 212.286 229.65 212.322 229.446 212.355C229.243 212.384 229.058 212.41 228.892 212.433C228.537 212.485 228.227 212.568 227.962 212.682C227.697 212.795 227.491 212.949 227.344 213.143C227.197 213.333 227.124 213.57 227.124 213.854C227.124 214.266 227.273 214.58 227.571 214.798C227.874 215.011 228.258 215.118 228.722 215.118ZM245.423 209.202L242.653 209.372C242.606 209.135 242.504 208.922 242.347 208.733C242.191 208.539 241.985 208.385 241.73 208.271C241.479 208.153 241.178 208.094 240.828 208.094C240.359 208.094 239.963 208.193 239.642 208.392C239.32 208.586 239.159 208.847 239.159 209.173C239.159 209.434 239.263 209.654 239.471 209.834C239.679 210.014 240.037 210.158 240.544 210.267L242.518 210.665C243.579 210.883 244.369 211.233 244.89 211.716C245.411 212.199 245.671 212.833 245.671 213.619C245.671 214.334 245.461 214.962 245.039 215.501C244.623 216.041 244.05 216.463 243.32 216.766C242.596 217.064 241.76 217.213 240.813 217.213C239.369 217.213 238.219 216.912 237.362 216.311C236.509 215.705 236.01 214.881 235.863 213.839L238.839 213.683C238.929 214.124 239.147 214.46 239.492 214.692C239.838 214.919 240.281 215.033 240.82 215.033C241.351 215.033 241.777 214.931 242.099 214.727C242.426 214.519 242.591 214.251 242.596 213.925C242.591 213.65 242.475 213.425 242.248 213.25C242.021 213.07 241.67 212.933 241.197 212.838L239.308 212.462C238.242 212.249 237.449 211.879 236.928 211.354C236.412 210.828 236.154 210.158 236.154 209.344C236.154 208.643 236.344 208.039 236.722 207.533C237.106 207.026 237.643 206.635 238.335 206.361C239.031 206.086 239.845 205.949 240.778 205.949C242.156 205.949 243.24 206.24 244.031 206.822C244.826 207.405 245.29 208.198 245.423 209.202ZM249.444 221.091C249.061 221.091 248.701 221.06 248.365 220.999C248.033 220.942 247.759 220.868 247.541 220.778L248.223 218.52C248.578 218.629 248.898 218.688 249.182 218.697C249.47 218.707 249.719 218.641 249.927 218.499C250.14 218.357 250.313 218.115 250.446 217.774L250.623 217.312L246.71 206.091H249.892L252.15 214.102H252.264L254.544 206.091H257.747L253.507 218.179C253.303 218.766 253.026 219.277 252.676 219.713C252.33 220.153 251.892 220.492 251.362 220.729C250.832 220.97 250.193 221.091 249.444 221.091ZM269.727 206.091V208.364H263.157V206.091H269.727ZM264.649 203.477H267.674V213.648C267.674 213.927 267.717 214.145 267.802 214.301C267.887 214.453 268.006 214.559 268.157 214.621C268.313 214.682 268.493 214.713 268.697 214.713C268.839 214.713 268.981 214.701 269.123 214.678C269.265 214.649 269.374 214.628 269.45 214.614L269.926 216.865C269.774 216.912 269.561 216.967 269.286 217.028C269.012 217.095 268.678 217.135 268.285 217.149C267.556 217.178 266.917 217.08 266.367 216.858C265.823 216.635 265.399 216.29 265.096 215.821C264.793 215.352 264.644 214.76 264.649 214.045V203.477ZM276.509 217.213C275.406 217.213 274.452 216.979 273.647 216.51C272.847 216.036 272.229 215.378 271.794 214.536C271.358 213.688 271.14 212.705 271.14 211.588C271.14 210.461 271.358 209.476 271.794 208.634C272.229 207.786 272.847 207.128 273.647 206.659C274.452 206.186 275.406 205.949 276.509 205.949C277.613 205.949 278.564 206.186 279.365 206.659C280.169 207.128 280.79 207.786 281.225 208.634C281.661 209.476 281.879 210.461 281.879 211.588C281.879 212.705 281.661 213.688 281.225 214.536C280.79 215.378 280.169 216.036 279.365 216.51C278.564 216.979 277.613 217.213 276.509 217.213ZM276.524 214.869C277.026 214.869 277.445 214.727 277.781 214.443C278.117 214.154 278.37 213.761 278.541 213.264C278.716 212.767 278.803 212.201 278.803 211.567C278.803 210.932 278.716 210.366 278.541 209.869C278.37 209.372 278.117 208.979 277.781 208.69C277.445 208.402 277.026 208.257 276.524 208.257C276.017 208.257 275.591 208.402 275.245 208.69C274.904 208.979 274.646 209.372 274.471 209.869C274.301 210.366 274.215 210.932 274.215 211.567C274.215 212.201 274.301 212.767 274.471 213.264C274.646 213.761 274.904 214.154 275.245 214.443C275.591 214.727 276.017 214.869 276.524 214.869ZM295.471 212.355V206.091H298.496V217H295.591V215.018H295.478C295.232 215.658 294.822 216.171 294.249 216.56C293.681 216.948 292.987 217.142 292.168 217.142C291.439 217.142 290.797 216.976 290.243 216.645C289.689 216.313 289.256 215.842 288.944 215.232C288.636 214.621 288.48 213.889 288.475 213.037V206.091H291.501V212.497C291.505 213.141 291.678 213.65 292.019 214.024C292.36 214.398 292.817 214.585 293.39 214.585C293.754 214.585 294.095 214.502 294.412 214.337C294.73 214.166 294.985 213.915 295.18 213.584C295.378 213.252 295.475 212.843 295.471 212.355ZM309.993 209.202L307.223 209.372C307.176 209.135 307.074 208.922 306.918 208.733C306.762 208.539 306.556 208.385 306.3 208.271C306.049 208.153 305.748 208.094 305.398 208.094C304.929 208.094 304.534 208.193 304.212 208.392C303.89 208.586 303.729 208.847 303.729 209.173C303.729 209.434 303.833 209.654 304.041 209.834C304.25 210.014 304.607 210.158 305.114 210.267L307.088 210.665C308.149 210.883 308.94 211.233 309.46 211.716C309.981 212.199 310.242 212.833 310.242 213.619C310.242 214.334 310.031 214.962 309.61 215.501C309.193 216.041 308.62 216.463 307.891 216.766C307.166 217.064 306.331 217.213 305.384 217.213C303.94 217.213 302.789 216.912 301.932 216.311C301.08 215.705 300.58 214.881 300.433 213.839L303.409 213.683C303.499 214.124 303.717 214.46 304.063 214.692C304.408 214.919 304.851 215.033 305.391 215.033C305.921 215.033 306.347 214.931 306.669 214.727C306.996 214.519 307.162 214.251 307.166 213.925C307.162 213.65 307.046 213.425 306.818 213.25C306.591 213.07 306.241 212.933 305.767 212.838L303.878 212.462C302.813 212.249 302.02 211.879 301.499 211.354C300.983 210.828 300.725 210.158 300.725 209.344C300.725 208.643 300.914 208.039 301.293 207.533C301.676 207.026 302.214 206.635 302.905 206.361C303.601 206.086 304.415 205.949 305.348 205.949C306.726 205.949 307.81 206.24 308.601 206.822C309.396 207.405 309.86 208.198 309.993 209.202ZM317.118 217.213C315.996 217.213 315.03 216.986 314.221 216.531C313.416 216.072 312.796 215.423 312.36 214.585C311.924 213.742 311.706 212.746 311.706 211.595C311.706 210.473 311.924 209.488 312.36 208.641C312.796 207.793 313.409 207.133 314.199 206.659C314.995 206.186 315.928 205.949 316.998 205.949C317.717 205.949 318.387 206.065 319.008 206.297C319.633 206.524 320.177 206.867 320.641 207.327C321.11 207.786 321.474 208.364 321.735 209.06C321.995 209.751 322.126 210.561 322.126 211.489V212.32H312.914V210.445H319.278C319.278 210.009 319.183 209.623 318.993 209.287C318.804 208.951 318.541 208.688 318.205 208.499C317.874 208.304 317.488 208.207 317.047 208.207C316.588 208.207 316.181 208.314 315.826 208.527C315.475 208.735 315.201 209.017 315.002 209.372C314.803 209.723 314.701 210.113 314.697 210.544V212.327C314.697 212.866 314.796 213.333 314.995 213.726C315.198 214.119 315.485 214.422 315.854 214.635C316.224 214.848 316.662 214.955 317.168 214.955C317.504 214.955 317.812 214.907 318.091 214.812C318.371 214.718 318.61 214.576 318.809 214.386C319.008 214.197 319.159 213.965 319.263 213.69L322.062 213.875C321.92 214.547 321.628 215.134 321.188 215.636C320.752 216.134 320.189 216.522 319.498 216.801C318.811 217.076 318.018 217.213 317.118 217.213Z" fill="#111827"/>
<path d="M112.573 251V239.364H119.596V240.614H113.982V244.545H119.232V245.795H113.982V249.75H119.687V251H112.573ZM124.522 251.205C123.969 251.205 123.467 251.1 123.016 250.892C122.566 250.68 122.208 250.375 121.942 249.977C121.677 249.576 121.545 249.091 121.545 248.523C121.545 248.023 121.643 247.617 121.84 247.307C122.037 246.992 122.3 246.746 122.63 246.568C122.96 246.39 123.323 246.258 123.721 246.17C124.122 246.08 124.526 246.008 124.931 245.955C125.461 245.886 125.891 245.835 126.221 245.801C126.554 245.763 126.797 245.701 126.948 245.614C127.103 245.527 127.181 245.375 127.181 245.159V245.114C127.181 244.553 127.028 244.117 126.721 243.807C126.418 243.496 125.958 243.341 125.34 243.341C124.7 243.341 124.198 243.481 123.835 243.761C123.471 244.042 123.215 244.341 123.067 244.659L121.795 244.205C122.022 243.674 122.325 243.261 122.704 242.966C123.086 242.667 123.503 242.458 123.954 242.341C124.408 242.22 124.855 242.159 125.295 242.159C125.575 242.159 125.897 242.193 126.261 242.261C126.628 242.326 126.982 242.46 127.323 242.665C127.668 242.869 127.954 243.178 128.181 243.591C128.408 244.004 128.522 244.557 128.522 245.25V251H127.181V249.818H127.113C127.022 250.008 126.871 250.21 126.658 250.426C126.446 250.642 126.164 250.826 125.812 250.977C125.46 251.129 125.03 251.205 124.522 251.205ZM124.727 250C125.257 250 125.704 249.896 126.067 249.688C126.435 249.479 126.711 249.21 126.897 248.881C127.086 248.551 127.181 248.205 127.181 247.841V246.614C127.124 246.682 126.999 246.744 126.806 246.801C126.617 246.854 126.397 246.902 126.147 246.943C125.901 246.981 125.66 247.015 125.425 247.045C125.194 247.072 125.007 247.095 124.863 247.114C124.514 247.159 124.189 247.233 123.886 247.335C123.586 247.434 123.344 247.583 123.158 247.784C122.977 247.981 122.886 248.25 122.886 248.591C122.886 249.057 123.058 249.409 123.403 249.648C123.751 249.883 124.192 250 124.727 250ZM137.151 244.227L135.947 244.568C135.871 244.367 135.759 244.172 135.612 243.983C135.468 243.79 135.271 243.631 135.021 243.506C134.771 243.381 134.451 243.318 134.06 243.318C133.526 243.318 133.081 243.441 132.725 243.688C132.373 243.93 132.197 244.239 132.197 244.614C132.197 244.947 132.318 245.21 132.56 245.403C132.803 245.597 133.182 245.758 133.697 245.886L134.992 246.205C135.772 246.394 136.354 246.684 136.737 247.074C137.119 247.46 137.31 247.958 137.31 248.568C137.31 249.068 137.166 249.515 136.879 249.909C136.594 250.303 136.197 250.614 135.685 250.841C135.174 251.068 134.579 251.182 133.901 251.182C133.011 251.182 132.274 250.989 131.691 250.602C131.108 250.216 130.738 249.652 130.583 248.909L131.856 248.591C131.977 249.061 132.206 249.413 132.543 249.648C132.884 249.883 133.329 250 133.879 250C134.504 250 135 249.867 135.367 249.602C135.738 249.333 135.924 249.011 135.924 248.636C135.924 248.333 135.818 248.08 135.606 247.875C135.394 247.667 135.068 247.511 134.629 247.409L133.174 247.068C132.375 246.879 131.788 246.585 131.413 246.188C131.041 245.786 130.856 245.284 130.856 244.682C130.856 244.189 130.994 243.754 131.271 243.375C131.551 242.996 131.932 242.699 132.413 242.483C132.897 242.267 133.447 242.159 134.06 242.159C134.924 242.159 135.602 242.348 136.094 242.727C136.591 243.106 136.943 243.606 137.151 244.227ZM139.329 251V242.273H140.67V251H139.329ZM140.011 240.818C139.749 240.818 139.524 240.729 139.335 240.551C139.149 240.373 139.056 240.159 139.056 239.909C139.056 239.659 139.149 239.445 139.335 239.267C139.524 239.089 139.749 239 140.011 239C140.272 239 140.496 239.089 140.681 239.267C140.871 239.445 140.965 239.659 140.965 239.909C140.965 240.159 140.871 240.373 140.681 240.551C140.496 240.729 140.272 240.818 140.011 240.818ZM144.467 239.364V251H143.126V239.364H144.467ZM147.786 254.273C147.559 254.273 147.356 254.254 147.178 254.216C147 254.182 146.877 254.148 146.809 254.114L147.15 252.932C147.476 253.015 147.763 253.045 148.013 253.023C148.263 253 148.485 252.888 148.678 252.688C148.875 252.491 149.055 252.17 149.218 251.727L149.468 251.045L146.241 242.273H147.695L150.104 249.227H150.195L152.604 242.273H154.059L150.354 252.273C150.188 252.723 149.981 253.097 149.735 253.392C149.489 253.691 149.203 253.913 148.877 254.057C148.555 254.201 148.192 254.273 147.786 254.273ZM164.124 242.273V243.409H159.602V242.273H164.124ZM160.92 240.182H162.261V248.5C162.261 248.879 162.316 249.163 162.425 249.352C162.539 249.538 162.683 249.663 162.857 249.727C163.035 249.788 163.223 249.818 163.42 249.818C163.567 249.818 163.689 249.811 163.783 249.795C163.878 249.777 163.954 249.761 164.011 249.75L164.283 250.955C164.192 250.989 164.066 251.023 163.903 251.057C163.74 251.095 163.533 251.114 163.283 251.114C162.905 251.114 162.533 251.032 162.17 250.869C161.81 250.706 161.511 250.458 161.272 250.125C161.037 249.792 160.92 249.371 160.92 248.864V240.182ZM169.593 251.182C168.805 251.182 168.114 250.994 167.519 250.619C166.928 250.244 166.466 249.72 166.133 249.045C165.803 248.371 165.638 247.583 165.638 246.682C165.638 245.773 165.803 244.979 166.133 244.301C166.466 243.623 166.928 243.097 167.519 242.722C168.114 242.347 168.805 242.159 169.593 242.159C170.381 242.159 171.07 242.347 171.661 242.722C172.256 243.097 172.718 243.623 173.048 244.301C173.381 244.979 173.548 245.773 173.548 246.682C173.548 247.583 173.381 248.371 173.048 249.045C172.718 249.72 172.256 250.244 171.661 250.619C171.07 250.994 170.381 251.182 169.593 251.182ZM169.593 249.977C170.192 249.977 170.684 249.824 171.07 249.517C171.457 249.21 171.743 248.807 171.928 248.307C172.114 247.807 172.207 247.265 172.207 246.682C172.207 246.098 172.114 245.555 171.928 245.051C171.743 244.547 171.457 244.14 171.07 243.83C170.684 243.519 170.192 243.364 169.593 243.364C168.995 243.364 168.502 243.519 168.116 243.83C167.729 244.14 167.443 244.547 167.258 245.051C167.072 245.555 166.979 246.098 166.979 246.682C166.979 247.265 167.072 247.807 167.258 248.307C167.443 248.807 167.729 249.21 168.116 249.517C168.502 249.824 168.995 249.977 169.593 249.977ZM183.64 251.182C182.822 251.182 182.117 250.989 181.526 250.602C180.935 250.216 180.481 249.684 180.163 249.006C179.844 248.328 179.685 247.553 179.685 246.682C179.685 245.795 179.848 245.013 180.174 244.335C180.504 243.653 180.962 243.121 181.549 242.739C182.14 242.352 182.829 242.159 183.617 242.159C184.231 242.159 184.784 242.273 185.276 242.5C185.769 242.727 186.172 243.045 186.487 243.455C186.801 243.864 186.996 244.341 187.072 244.886H185.731C185.629 244.489 185.401 244.136 185.049 243.83C184.701 243.519 184.231 243.364 183.64 243.364C183.117 243.364 182.659 243.5 182.265 243.773C181.875 244.042 181.57 244.422 181.35 244.915C181.134 245.403 181.026 245.977 181.026 246.636C181.026 247.311 181.132 247.898 181.344 248.398C181.56 248.898 181.863 249.286 182.254 249.562C182.647 249.839 183.11 249.977 183.64 249.977C183.988 249.977 184.305 249.917 184.589 249.795C184.873 249.674 185.113 249.5 185.31 249.273C185.507 249.045 185.647 248.773 185.731 248.455H187.072C186.996 248.97 186.808 249.434 186.509 249.847C186.214 250.256 185.822 250.581 185.333 250.824C184.848 251.062 184.284 251.182 183.64 251.182ZM192.577 251.182C191.79 251.182 191.098 250.994 190.504 250.619C189.913 250.244 189.451 249.72 189.117 249.045C188.788 248.371 188.623 247.583 188.623 246.682C188.623 245.773 188.788 244.979 189.117 244.301C189.451 243.623 189.913 243.097 190.504 242.722C191.098 242.347 191.79 242.159 192.577 242.159C193.365 242.159 194.055 242.347 194.646 242.722C195.24 243.097 195.702 243.623 196.032 244.301C196.365 244.979 196.532 245.773 196.532 246.682C196.532 247.583 196.365 248.371 196.032 249.045C195.702 249.72 195.24 250.244 194.646 250.619C194.055 250.994 193.365 251.182 192.577 251.182ZM192.577 249.977C193.176 249.977 193.668 249.824 194.055 249.517C194.441 249.21 194.727 248.807 194.913 248.307C195.098 247.807 195.191 247.265 195.191 246.682C195.191 246.098 195.098 245.555 194.913 245.051C194.727 244.547 194.441 244.14 194.055 243.83C193.668 243.519 193.176 243.364 192.577 243.364C191.979 243.364 191.487 243.519 191.1 243.83C190.714 244.14 190.428 244.547 190.242 245.051C190.057 245.555 189.964 246.098 189.964 246.682C189.964 247.265 190.057 247.807 190.242 248.307C190.428 248.807 190.714 249.21 191.1 249.517C191.487 249.824 191.979 249.977 192.577 249.977ZM199.92 245.75V251H198.579V242.273H199.874V243.636H199.988C200.192 243.193 200.503 242.837 200.92 242.568C201.336 242.295 201.874 242.159 202.533 242.159C203.124 242.159 203.641 242.28 204.085 242.523C204.528 242.761 204.872 243.125 205.119 243.614C205.365 244.098 205.488 244.712 205.488 245.455V251H204.147V245.545C204.147 244.86 203.969 244.326 203.613 243.943C203.257 243.557 202.768 243.364 202.147 243.364C201.719 243.364 201.336 243.456 200.999 243.642C200.666 243.828 200.403 244.098 200.21 244.455C200.016 244.811 199.92 245.242 199.92 245.75ZM214.762 242.273L211.535 251H210.171L206.944 242.273H208.398L210.808 249.227H210.898L213.308 242.273H214.762ZM219.879 251.182C219.038 251.182 218.312 250.996 217.702 250.625C217.096 250.25 216.629 249.727 216.299 249.057C215.973 248.383 215.81 247.598 215.81 246.705C215.81 245.811 215.973 245.023 216.299 244.341C216.629 243.655 217.087 243.121 217.674 242.739C218.265 242.352 218.954 242.159 219.742 242.159C220.197 242.159 220.646 242.235 221.089 242.386C221.532 242.538 221.935 242.784 222.299 243.125C222.663 243.462 222.952 243.909 223.168 244.466C223.384 245.023 223.492 245.708 223.492 246.523V247.091H216.765V245.932H222.129C222.129 245.439 222.03 245 221.833 244.614C221.64 244.227 221.363 243.922 221.004 243.699C220.647 243.475 220.227 243.364 219.742 243.364C219.208 243.364 218.746 243.496 218.356 243.761C217.969 244.023 217.672 244.364 217.464 244.784C217.255 245.205 217.151 245.655 217.151 246.136V246.909C217.151 247.568 217.265 248.127 217.492 248.585C217.723 249.04 218.043 249.386 218.452 249.625C218.862 249.86 219.337 249.977 219.879 249.977C220.231 249.977 220.549 249.928 220.833 249.83C221.121 249.727 221.369 249.576 221.577 249.375C221.786 249.17 221.947 248.917 222.06 248.614L223.356 248.977C223.219 249.417 222.99 249.803 222.668 250.136C222.346 250.466 221.949 250.723 221.475 250.909C221.002 251.091 220.469 251.182 219.879 251.182ZM225.532 251V242.273H226.827V243.591H226.918C227.077 243.159 227.365 242.809 227.782 242.54C228.199 242.271 228.668 242.136 229.191 242.136C229.29 242.136 229.413 242.138 229.56 242.142C229.708 242.146 229.82 242.152 229.896 242.159V243.523C229.85 243.511 229.746 243.494 229.583 243.472C229.424 243.445 229.255 243.432 229.077 243.432C228.653 243.432 228.274 243.521 227.941 243.699C227.612 243.873 227.35 244.116 227.157 244.426C226.968 244.733 226.873 245.083 226.873 245.477V251H225.532ZM235.827 242.273V243.409H231.305V242.273H235.827ZM232.623 240.182H233.964V248.5C233.964 248.879 234.019 249.163 234.129 249.352C234.242 249.538 234.386 249.663 234.56 249.727C234.738 249.788 234.926 249.818 235.123 249.818C235.271 249.818 235.392 249.811 235.487 249.795C235.581 249.777 235.657 249.761 235.714 249.75L235.987 250.955C235.896 250.989 235.769 251.023 235.606 251.057C235.443 251.095 235.237 251.114 234.987 251.114C234.608 251.114 234.237 251.032 233.873 250.869C233.513 250.706 233.214 250.458 232.975 250.125C232.74 249.792 232.623 249.371 232.623 248.864V240.182ZM243.004 251H241.526L245.799 239.364H247.254L251.526 251H250.049L246.572 241.205H246.481L243.004 251ZM243.549 246.455H249.504V247.705H243.549V246.455ZM253.339 251V239.364H257.271C258.183 239.364 258.93 239.528 259.509 239.858C260.093 240.184 260.524 240.625 260.805 241.182C261.085 241.739 261.225 242.36 261.225 243.045C261.225 243.731 261.085 244.354 260.805 244.915C260.528 245.475 260.1 245.922 259.521 246.256C258.941 246.585 258.199 246.75 257.293 246.75H254.475V245.5H257.248C257.873 245.5 258.375 245.392 258.754 245.176C259.132 244.96 259.407 244.669 259.577 244.301C259.752 243.93 259.839 243.511 259.839 243.045C259.839 242.58 259.752 242.163 259.577 241.795C259.407 241.428 259.13 241.14 258.748 240.932C258.365 240.72 257.858 240.614 257.225 240.614H254.748V251H253.339ZM264.904 239.364V251H263.495V239.364H264.904ZM274.025 251L271.366 242.273H272.775L274.661 248.955H274.752L276.616 242.273H278.048L279.888 248.932H279.979L281.866 242.273H283.275L280.616 251H279.298L277.388 244.295H277.252L275.343 251H274.025ZM285.048 251V242.273H286.388V251H285.048ZM285.729 240.818C285.468 240.818 285.243 240.729 285.053 240.551C284.868 240.373 284.775 240.159 284.775 239.909C284.775 239.659 284.868 239.445 285.053 239.267C285.243 239.089 285.468 239 285.729 239C285.991 239 286.214 239.089 286.4 239.267C286.589 239.445 286.684 239.659 286.684 239.909C286.684 240.159 286.589 240.373 286.4 240.551C286.214 240.729 285.991 240.818 285.729 240.818ZM292.64 242.273V243.409H288.117V242.273H292.64ZM289.435 240.182H290.776V248.5C290.776 248.879 290.831 249.163 290.941 249.352C291.055 249.538 291.199 249.663 291.373 249.727C291.551 249.788 291.738 249.818 291.935 249.818C292.083 249.818 292.204 249.811 292.299 249.795C292.394 249.777 292.469 249.761 292.526 249.75L292.799 250.955C292.708 250.989 292.581 251.023 292.418 251.057C292.255 251.095 292.049 251.114 291.799 251.114C291.42 251.114 291.049 251.032 290.685 250.869C290.326 250.706 290.026 250.458 289.788 250.125C289.553 249.792 289.435 249.371 289.435 248.864V240.182ZM296.185 245.75V251H294.844V239.364H296.185V243.636H296.299C296.504 243.186 296.81 242.828 297.219 242.562C297.632 242.294 298.182 242.159 298.867 242.159C299.462 242.159 299.983 242.278 300.43 242.517C300.877 242.752 301.223 243.114 301.469 243.602C301.719 244.087 301.844 244.705 301.844 245.455V251H300.504V245.545C300.504 244.852 300.324 244.316 299.964 243.938C299.608 243.555 299.113 243.364 298.481 243.364C298.041 243.364 297.647 243.456 297.299 243.642C296.954 243.828 296.682 244.098 296.481 244.455C296.284 244.811 296.185 245.242 296.185 245.75ZM308.798 242.273H310.138V251.636C310.138 252.174 310.046 252.64 309.86 253.034C309.678 253.428 309.402 253.733 309.031 253.949C308.663 254.165 308.199 254.273 307.638 254.273C307.593 254.273 307.548 254.273 307.502 254.273C307.457 254.273 307.411 254.273 307.366 254.273V253.023C307.411 253.023 307.453 253.023 307.491 253.023C307.529 253.023 307.57 253.023 307.616 253.023C308.025 253.023 308.324 252.902 308.513 252.659C308.703 252.42 308.798 252.08 308.798 251.636V242.273ZM309.457 240.818C309.195 240.818 308.97 240.729 308.781 240.551C308.595 240.373 308.502 240.159 308.502 239.909C308.502 239.659 308.595 239.445 308.781 239.267C308.97 239.089 309.195 239 309.457 239C309.718 239 309.942 239.089 310.127 239.267C310.317 239.445 310.411 239.659 310.411 239.909C310.411 240.159 310.317 240.373 310.127 240.551C309.942 240.729 309.718 240.818 309.457 240.818ZM318.094 247.432V242.273H319.435V251H318.094V249.523H318.004C317.799 249.966 317.481 250.343 317.049 250.653C316.617 250.96 316.072 251.114 315.413 251.114C314.867 251.114 314.382 250.994 313.958 250.756C313.534 250.513 313.201 250.15 312.958 249.665C312.716 249.176 312.594 248.561 312.594 247.818V242.273H313.935V247.727C313.935 248.364 314.113 248.871 314.469 249.25C314.829 249.629 315.288 249.818 315.844 249.818C316.178 249.818 316.517 249.733 316.862 249.562C317.21 249.392 317.502 249.131 317.737 248.778C317.975 248.426 318.094 247.977 318.094 247.432ZM328.073 244.227L326.869 244.568C326.793 244.367 326.681 244.172 326.533 243.983C326.389 243.79 326.192 243.631 325.942 243.506C325.692 243.381 325.372 243.318 324.982 243.318C324.448 243.318 324.003 243.441 323.647 243.688C323.295 243.93 323.119 244.239 323.119 244.614C323.119 244.947 323.24 245.21 323.482 245.403C323.725 245.597 324.103 245.758 324.619 245.886L325.914 246.205C326.694 246.394 327.276 246.684 327.658 247.074C328.041 247.46 328.232 247.958 328.232 248.568C328.232 249.068 328.088 249.515 327.8 249.909C327.516 250.303 327.119 250.614 326.607 250.841C326.096 251.068 325.501 251.182 324.823 251.182C323.933 251.182 323.196 250.989 322.613 250.602C322.03 250.216 321.66 249.652 321.505 248.909L322.778 248.591C322.899 249.061 323.128 249.413 323.465 249.648C323.806 249.883 324.251 250 324.8 250C325.425 250 325.922 249.867 326.289 249.602C326.66 249.333 326.846 249.011 326.846 248.636C326.846 248.333 326.74 248.08 326.528 247.875C326.316 247.667 325.99 247.511 325.55 247.409L324.096 247.068C323.297 246.879 322.71 246.585 322.335 246.188C321.963 245.786 321.778 245.284 321.778 244.682C321.778 244.189 321.916 243.754 322.192 243.375C322.473 242.996 322.853 242.699 323.335 242.483C323.819 242.267 324.369 242.159 324.982 242.159C325.846 242.159 326.524 242.348 327.016 242.727C327.513 243.106 327.865 243.606 328.073 244.227ZM334.046 242.273V243.409H329.523V242.273H334.046ZM330.842 240.182H332.183V248.5C332.183 248.879 332.237 249.163 332.347 249.352C332.461 249.538 332.605 249.663 332.779 249.727C332.957 249.788 333.145 249.818 333.342 249.818C333.489 249.818 333.611 249.811 333.705 249.795C333.8 249.777 333.876 249.761 333.933 249.75L334.205 250.955C334.114 250.989 333.987 251.023 333.825 251.057C333.662 251.095 333.455 251.114 333.205 251.114C332.826 251.114 332.455 251.032 332.092 250.869C331.732 250.706 331.433 250.458 331.194 250.125C330.959 249.792 330.842 249.371 330.842 248.864V240.182ZM182.663 275.205C182.11 275.205 181.608 275.1 181.157 274.892C180.706 274.68 180.348 274.375 180.083 273.977C179.818 273.576 179.685 273.091 179.685 272.523C179.685 272.023 179.784 271.617 179.981 271.307C180.178 270.992 180.441 270.746 180.771 270.568C181.1 270.39 181.464 270.258 181.862 270.17C182.263 270.08 182.666 270.008 183.072 269.955C183.602 269.886 184.032 269.835 184.362 269.801C184.695 269.763 184.937 269.701 185.089 269.614C185.244 269.527 185.322 269.375 185.322 269.159V269.114C185.322 268.553 185.168 268.117 184.862 267.807C184.558 267.496 184.098 267.341 183.481 267.341C182.841 267.341 182.339 267.481 181.975 267.761C181.612 268.042 181.356 268.341 181.208 268.659L179.935 268.205C180.163 267.674 180.466 267.261 180.844 266.966C181.227 266.667 181.644 266.458 182.094 266.341C182.549 266.22 182.996 266.159 183.435 266.159C183.716 266.159 184.038 266.193 184.401 266.261C184.769 266.326 185.123 266.46 185.464 266.665C185.808 266.869 186.094 267.178 186.322 267.591C186.549 268.004 186.663 268.557 186.663 269.25V275H185.322V273.818H185.254C185.163 274.008 185.011 274.21 184.799 274.426C184.587 274.642 184.305 274.826 183.952 274.977C183.6 275.129 183.17 275.205 182.663 275.205ZM182.867 274C183.397 274 183.844 273.896 184.208 273.688C184.576 273.479 184.852 273.21 185.038 272.881C185.227 272.551 185.322 272.205 185.322 271.841V270.614C185.265 270.682 185.14 270.744 184.947 270.801C184.757 270.854 184.538 270.902 184.288 270.943C184.041 270.981 183.801 271.015 183.566 271.045C183.335 271.072 183.147 271.095 183.004 271.114C182.655 271.159 182.329 271.233 182.026 271.335C181.727 271.434 181.485 271.583 181.299 271.784C181.117 271.981 181.026 272.25 181.026 272.591C181.026 273.057 181.199 273.409 181.543 273.648C181.892 273.883 182.333 274 182.867 274ZM197.496 266.273V267.409H192.792V266.273H197.496ZM194.201 275V265.068C194.201 264.568 194.318 264.152 194.553 263.818C194.788 263.485 195.093 263.235 195.468 263.068C195.843 262.902 196.239 262.818 196.656 262.818C196.985 262.818 197.254 262.845 197.462 262.898C197.671 262.951 197.826 263 197.928 263.045L197.542 264.205C197.474 264.182 197.379 264.153 197.258 264.119C197.14 264.085 196.985 264.068 196.792 264.068C196.349 264.068 196.029 264.18 195.832 264.403C195.638 264.627 195.542 264.955 195.542 265.386V275H194.201ZM202.675 275.182C201.835 275.182 201.109 274.996 200.499 274.625C199.893 274.25 199.425 273.727 199.096 273.057C198.77 272.383 198.607 271.598 198.607 270.705C198.607 269.811 198.77 269.023 199.096 268.341C199.425 267.655 199.884 267.121 200.471 266.739C201.062 266.352 201.751 266.159 202.539 266.159C202.994 266.159 203.442 266.235 203.886 266.386C204.329 266.538 204.732 266.784 205.096 267.125C205.46 267.462 205.749 267.909 205.965 268.466C206.181 269.023 206.289 269.708 206.289 270.523V271.091H199.562V269.932H204.925C204.925 269.439 204.827 269 204.63 268.614C204.437 268.227 204.16 267.922 203.8 267.699C203.444 267.475 203.024 267.364 202.539 267.364C202.005 267.364 201.543 267.496 201.153 267.761C200.766 268.023 200.469 268.364 200.261 268.784C200.052 269.205 199.948 269.655 199.948 270.136V270.909C199.948 271.568 200.062 272.127 200.289 272.585C200.52 273.04 200.84 273.386 201.249 273.625C201.658 273.86 202.134 273.977 202.675 273.977C203.028 273.977 203.346 273.928 203.63 273.83C203.918 273.727 204.166 273.576 204.374 273.375C204.583 273.17 204.744 272.917 204.857 272.614L206.153 272.977C206.016 273.417 205.787 273.803 205.465 274.136C205.143 274.466 204.746 274.723 204.272 274.909C203.799 275.091 203.266 275.182 202.675 275.182ZM210.306 275L207.647 266.273H209.056L210.942 272.955H211.033L212.897 266.273H214.329L216.17 272.932H216.261L218.147 266.273H219.556L216.897 275H215.579L213.67 268.295H213.533L211.624 275H210.306ZM229.374 275.182C228.556 275.182 227.852 274.989 227.261 274.602C226.67 274.216 226.215 273.684 225.897 273.006C225.579 272.328 225.42 271.553 225.42 270.682C225.42 269.795 225.583 269.013 225.908 268.335C226.238 267.653 226.696 267.121 227.283 266.739C227.874 266.352 228.564 266.159 229.352 266.159C229.965 266.159 230.518 266.273 231.011 266.5C231.503 266.727 231.906 267.045 232.221 267.455C232.535 267.864 232.73 268.341 232.806 268.886H231.465C231.363 268.489 231.136 268.136 230.783 267.83C230.435 267.519 229.965 267.364 229.374 267.364C228.852 267.364 228.393 267.5 227.999 267.773C227.609 268.042 227.304 268.422 227.085 268.915C226.869 269.403 226.761 269.977 226.761 270.636C226.761 271.311 226.867 271.898 227.079 272.398C227.295 272.898 227.598 273.286 227.988 273.562C228.382 273.839 228.844 273.977 229.374 273.977C229.723 273.977 230.039 273.917 230.323 273.795C230.607 273.674 230.848 273.5 231.045 273.273C231.242 273.045 231.382 272.773 231.465 272.455H232.806C232.73 272.97 232.543 273.434 232.244 273.847C231.948 274.256 231.556 274.581 231.067 274.824C230.583 275.062 230.018 275.182 229.374 275.182ZM236.107 263.364V275H234.766V263.364H236.107ZM238.563 275V266.273H239.904V275H238.563ZM239.245 264.818C238.984 264.818 238.758 264.729 238.569 264.551C238.383 264.373 238.29 264.159 238.29 263.909C238.29 263.659 238.383 263.445 238.569 263.267C238.758 263.089 238.984 263 239.245 263C239.506 263 239.73 263.089 239.915 263.267C240.105 263.445 240.2 263.659 240.2 263.909C240.2 264.159 240.105 264.373 239.915 264.551C239.73 264.729 239.506 264.818 239.245 264.818ZM245.906 275.182C245.087 275.182 244.383 274.989 243.792 274.602C243.201 274.216 242.746 273.684 242.428 273.006C242.11 272.328 241.951 271.553 241.951 270.682C241.951 269.795 242.114 269.013 242.44 268.335C242.769 267.653 243.228 267.121 243.815 266.739C244.406 266.352 245.095 266.159 245.883 266.159C246.496 266.159 247.049 266.273 247.542 266.5C248.034 266.727 248.438 267.045 248.752 267.455C249.067 267.864 249.262 268.341 249.337 268.886H247.996C247.894 268.489 247.667 268.136 247.315 267.83C246.966 267.519 246.496 267.364 245.906 267.364C245.383 267.364 244.924 267.5 244.531 267.773C244.14 268.042 243.835 268.422 243.616 268.915C243.4 269.403 243.292 269.977 243.292 270.636C243.292 271.311 243.398 271.898 243.61 272.398C243.826 272.898 244.129 273.286 244.519 273.562C244.913 273.839 245.375 273.977 245.906 273.977C246.254 273.977 246.57 273.917 246.854 273.795C247.138 273.674 247.379 273.5 247.576 273.273C247.773 273.045 247.913 272.773 247.996 272.455H249.337C249.262 272.97 249.074 273.434 248.775 273.847C248.479 274.256 248.087 274.581 247.599 274.824C247.114 275.062 246.549 275.182 245.906 275.182ZM252.548 271.818L252.525 270.159H252.798L256.616 266.273H258.275L254.207 270.386H254.093L252.548 271.818ZM251.298 275V263.364H252.638V275H251.298ZM256.843 275L253.434 270.682L254.388 269.75L258.548 275H256.843ZM266.183 268.227L264.978 268.568C264.902 268.367 264.79 268.172 264.643 267.983C264.499 267.79 264.302 267.631 264.052 267.506C263.802 267.381 263.482 267.318 263.092 267.318C262.558 267.318 262.112 267.441 261.756 267.688C261.404 267.93 261.228 268.239 261.228 268.614C261.228 268.947 261.349 269.21 261.592 269.403C261.834 269.597 262.213 269.758 262.728 269.886L264.023 270.205C264.804 270.394 265.385 270.684 265.768 271.074C266.15 271.46 266.342 271.958 266.342 272.568C266.342 273.068 266.198 273.515 265.91 273.909C265.626 274.303 265.228 274.614 264.717 274.841C264.205 275.068 263.611 275.182 262.933 275.182C262.042 275.182 261.306 274.989 260.722 274.602C260.139 274.216 259.77 273.652 259.614 272.909L260.887 272.591C261.008 273.061 261.237 273.413 261.575 273.648C261.915 273.883 262.361 274 262.91 274C263.535 274 264.031 273.867 264.398 273.602C264.77 273.333 264.955 273.011 264.955 272.636C264.955 272.333 264.849 272.08 264.637 271.875C264.425 271.667 264.099 271.511 263.66 271.409L262.205 271.068C261.406 270.879 260.819 270.585 260.444 270.188C260.073 269.786 259.887 269.284 259.887 268.682C259.887 268.189 260.025 267.754 260.302 267.375C260.582 266.996 260.963 266.699 261.444 266.483C261.929 266.267 262.478 266.159 263.092 266.159C263.955 266.159 264.633 266.348 265.126 266.727C265.622 267.106 265.974 267.606 266.183 268.227Z" fill="#374151"/>
<defs>
<filter id="filter0_d_49_4215" x="0" y="0" width="446" height="410" filterUnits="userSpaceOnUse" color-interpolation-filters="sRGB">
<feFlood flood-opacity="0" result="BackgroundImageFix"/>
<feColorMatrix in="SourceAlpha" type="matrix" values="0 0 0 0 0 0 0 0 0 0 0 0 0 0 0 0 0 0 127 0" result="hardAlpha"/>
<feOffset dy="25"/>
<feGaussianBlur stdDeviation="35"/>
<feColorMatrix type="matrix" values="0 0 0 0 0.107708 0 0 0 0 0.211814 0 0 0 0 0.5875 0 0 0 0.08 0"/>
<feBlend mode="normal" in2="BackgroundImageFix" result="effect1_dropShadow_49_4215"/>
<feBlend mode="normal" in="SourceGraphic" in2="effect1_dropShadow_49_4215" result="shape"/>
</filter>
<clipPath id="clip0_49_4215">
<rect width="35" height="36" fill="white" transform="translate(206 107)"/>
</clipPath>
</defs>
</svg>
