<svg width="145" height="35" viewBox="0 0 145 35" fill="none" xmlns="http://www.w3.org/2000/svg">
<path d="M35.092 21.8662C34.9262 27.2483 31.948 30.746 27.1758 32.9135C20.9886 35.7227 14.523 34.3458 10.9498 29.5879C10.7931 29.4011 10.6534 29.201 10.5324 28.9899C10.1949 28.316 9.33343 27.6363 9.7538 26.9333C10.1061 26.3499 11.0327 26.8837 11.7018 26.8954C17.6581 27.0121 22.7885 21.8195 22.451 15.9793C22.3741 14.4144 21.6805 12.9407 20.5179 11.8719C20.2218 11.5802 19.6297 11.341 19.7718 10.883C19.9258 10.3521 20.5771 10.39 21.0389 10.2996C28.3067 8.96936 35.2726 14.5091 35.092 21.8662Z" fill="#1E46D7" fill-opacity="0.15"/>
<path d="M16.1437 0.00224322C19.1485 0.127679 22.6181 2.14924 24.9983 5.98524C25.247 6.38488 25.6377 6.86037 25.4009 7.31252C25.1197 7.86094 24.5305 7.54298 24.0687 7.4963C17.8874 6.87204 12.0702 12.4729 12.6534 18.5288C12.8099 20.0869 13.5485 21.532 14.7257 22.5836C14.9921 22.8345 15.4776 23.062 15.2911 23.4937C15.1342 23.8555 14.6546 23.8759 14.2638 23.9576C8.9351 25.0573 3.20078 22.2452 1.05744 17.4699C-0.0956901 14.9568 -0.313484 12.1238 0.442282 9.46822C1.19805 6.81265 2.87906 4.50433 5.19018 2.94854C7.98777 1.02616 11.0932 -0.056099 16.1437 0.00224322Z" fill="#1E46D7"/>
<path d="M64.3249 27.5312L61.2169 21.9312H60.7969H56.7089V27.5312H52.2849V7.93125H60.7969C63.3542 7.93125 65.3329 8.52858 66.7329 9.72325C68.1329 10.8992 68.8329 12.5699 68.8329 14.7352C68.8329 16.2472 68.5156 17.5446 67.8809 18.6272C67.2649 19.6912 66.3596 20.5032 65.1649 21.0632L69.3369 27.5312H64.3249ZM56.7089 18.2352H60.7969C62.0289 18.2352 62.9716 17.9552 63.6249 17.3952C64.2969 16.8166 64.6329 15.9766 64.6329 14.8752C64.6329 13.7926 64.2969 12.9806 63.6249 12.4392C62.9716 11.8792 62.0289 11.5992 60.7969 11.5992H56.7089V18.2352ZM81.1986 27.5312V25.7672C80.6946 26.4019 80.0413 26.8872 79.2386 27.2232C78.436 27.5592 77.512 27.7273 76.4666 27.7273C74.88 27.7273 73.62 27.2979 72.6866 26.4392C71.7533 25.5619 71.2866 24.4232 71.2866 23.0232C71.2866 21.6046 71.7813 20.5032 72.7706 19.7192C73.7786 18.9166 75.1973 18.5059 77.0266 18.4872H81.1706V18.2072C81.1706 17.4046 80.9 16.7886 80.3586 16.3592C79.836 15.9112 79.0613 15.6872 78.0346 15.6872C76.6346 15.6872 75.1413 16.1259 73.5546 17.0032L72.2106 14.0352C73.4053 13.4379 74.5253 12.9992 75.5706 12.7192C76.616 12.4392 77.764 12.2992 79.0146 12.2992C81.0306 12.2992 82.5893 12.7752 83.6906 13.7272C84.8106 14.6792 85.38 16.0046 85.3986 17.7032L85.4266 27.5312H81.1986ZM77.6706 24.6472C78.5666 24.6472 79.3413 24.4326 79.9946 24.0032C80.648 23.5739 81.04 23.0326 81.1706 22.3792V21.0352H77.7826C76.9426 21.0352 76.3173 21.1752 75.9066 21.4552C75.5146 21.7166 75.3186 22.1459 75.3186 22.7432C75.3186 23.3219 75.524 23.7886 75.9346 24.1432C76.364 24.4792 76.9426 24.6472 77.6706 24.6472ZM98.6343 16.8912C97.813 16.4246 97.001 16.0699 96.1983 15.8272C95.3956 15.5659 94.677 15.4352 94.0423 15.4352C93.5196 15.4352 93.0996 15.5286 92.7823 15.7152C92.465 15.9019 92.3063 16.1819 92.3063 16.5552C92.3063 16.9659 92.521 17.2832 92.9503 17.5072C93.3796 17.7312 94.0796 17.9832 95.0503 18.2632C96.1143 18.5806 96.9916 18.8979 97.6823 19.2152C98.373 19.5139 98.9703 19.9712 99.4743 20.5872C99.9783 21.1846 100.23 21.9779 100.23 22.9672C100.23 24.4606 99.6516 25.6272 98.4943 26.4672C97.3556 27.2886 95.8903 27.6993 94.0983 27.6993C92.8663 27.6993 91.681 27.5219 90.5423 27.1672C89.4036 26.7939 88.4143 26.2712 87.5743 25.5992L88.9743 22.6872C89.7396 23.2846 90.589 23.7512 91.5223 24.0872C92.4743 24.4046 93.3703 24.5632 94.2103 24.5632C94.789 24.5632 95.2463 24.4699 95.5823 24.2832C95.937 24.0779 96.1143 23.7792 96.1143 23.3872C96.1143 22.9579 95.8903 22.6219 95.4423 22.3792C95.013 22.1366 94.313 21.8752 93.3423 21.5952C92.3156 21.2966 91.457 20.9979 90.7663 20.6992C90.0943 20.4006 89.5156 19.9526 89.0303 19.3552C88.545 18.7392 88.3023 17.9459 88.3023 16.9752C88.3023 15.4819 88.8623 14.3246 89.9823 13.5032C91.1023 12.6819 92.521 12.2712 94.2383 12.2712C95.265 12.2712 96.2916 12.4206 97.3183 12.7192C98.345 12.9992 99.2783 13.4099 100.118 13.9512L98.6343 16.8912ZM111.851 27.5312V25.7672C111.347 26.4019 110.694 26.8872 109.891 27.2232C109.088 27.5592 108.164 27.7273 107.119 27.7273C105.532 27.7273 104.272 27.2979 103.339 26.4392C102.406 25.5619 101.939 24.4232 101.939 23.0232C101.939 21.6046 102.434 20.5032 103.423 19.7192C104.431 18.9166 105.85 18.5059 107.679 18.4872H111.823V18.2072C111.823 17.4046 111.552 16.7886 111.011 16.3592C110.488 15.9112 109.714 15.6872 108.687 15.6872C107.287 15.6872 105.794 16.1259 104.207 17.0032L102.863 14.0352C104.058 13.4379 105.178 12.9992 106.223 12.7192C107.268 12.4392 108.416 12.2992 109.667 12.2992C111.683 12.2992 113.242 12.7752 114.343 13.7272C115.463 14.6792 116.032 16.0046 116.051 17.7032L116.079 27.5312H111.851ZM108.323 24.6472C109.219 24.6472 109.994 24.4326 110.647 24.0032C111.3 23.5739 111.692 23.0326 111.823 22.3792V21.0352H108.435C107.595 21.0352 106.97 21.1752 106.559 21.4552C106.167 21.7166 105.971 22.1459 105.971 22.7432C105.971 23.3219 106.176 23.7886 106.587 24.1432C107.016 24.4792 107.595 24.6472 108.323 24.6472ZM134.663 6.75525V27.5312H130.379V25.3192C129.837 26.1032 129.165 26.7006 128.363 27.1112C127.56 27.5032 126.645 27.6993 125.619 27.6993C124.2 27.6993 122.949 27.3819 121.867 26.7472C120.803 26.0939 119.972 25.1792 119.375 24.0032C118.796 22.8272 118.507 21.4739 118.507 19.9432C118.507 18.4312 118.796 17.0966 119.375 15.9392C119.953 14.7819 120.775 13.8859 121.839 13.2512C122.903 12.6166 124.125 12.2992 125.507 12.2992C127.635 12.2992 129.259 13.0926 130.379 14.6792V6.75525H134.663ZM126.627 24.2272C127.728 24.2272 128.624 23.8446 129.315 23.0792C130.024 22.2952 130.379 21.2872 130.379 20.0552C130.379 18.8232 130.024 17.8246 129.315 17.0592C128.624 16.2752 127.728 15.8832 126.627 15.8832C125.507 15.8832 124.592 16.2752 123.883 17.0592C123.192 17.8246 122.837 18.8232 122.819 20.0552C122.837 21.2872 123.192 22.2952 123.883 23.0792C124.592 23.8446 125.507 24.2272 126.627 24.2272Z" fill="#060C3B"/>
</svg>
