<svg width="99" height="41" viewBox="0 0 99 41" fill="none" xmlns="http://www.w3.org/2000/svg">
<g clip-path="url(#clip0_49_4202)">
<path d="M98.9312 28.8111C98.57 29.6911 98.2668 30.5924 97.8345 31.4446C95.4843 36.0809 91.8355 39.1364 86.8024 40.5063C85.6461 40.8211 84.4718 41.0338 83.2591 40.997C82.2662 40.9651 81.2725 40.997 80.2788 40.9888C77.864 40.9675 75.5963 40.3067 73.4536 39.2574C67.6156 36.4015 64.3051 31.618 62.9935 25.3476C62.9012 24.9084 62.8424 24.4635 62.7631 24.0219C62.7116 23.7348 62.7982 23.5851 63.1178 23.5859C65.1182 23.5908 67.1185 23.5908 69.1184 23.5859C69.4453 23.5859 69.5196 23.765 69.5719 24.0349C69.9658 26.064 70.7005 27.9557 71.9344 29.6265C74.0591 32.5102 76.9291 34.1246 80.4855 34.5254C82.5947 34.7626 84.6426 34.5066 86.5973 33.6691C88.9484 32.6615 90.6833 30.9702 91.9295 28.7571C92.3842 27.9508 92.7508 27.0978 93.0229 26.2128C93.1046 25.9618 93.2059 25.8465 93.4911 25.9462C95.3004 26.5825 97.1129 27.2073 98.9255 27.8363L98.9312 28.8111Z" fill="#A8A8BD"/>
<path d="M86.2737 0C87.2543 0.320593 88.257 0.565944 89.2156 0.969139C92.8929 2.52304 95.6313 5.08615 97.4782 8.61677C97.591 8.83267 97.5599 8.95372 97.3638 9.08866C95.7452 10.2178 94.1332 11.3527 92.5277 12.4933C92.2465 12.6929 92.1354 12.5808 92.0202 12.3191C91.5498 11.2323 90.9089 10.2276 90.1218 9.34301C88.7383 7.80792 87.0231 6.85186 85.0348 6.3538C84.4865 6.2164 84.4873 6.22049 84.6173 5.648C85.0133 3.89946 85.4091 2.15064 85.8046 0.401552C85.8349 0.26988 85.8463 0.134126 85.8667 0H86.2737Z" fill="#A8A8BD"/>
<path d="M27.9156 25.6336C27.9156 27.9993 27.9156 30.3656 27.9156 32.7325C27.9156 33.3049 27.9099 33.3139 27.3575 33.3139C24.5278 33.3139 21.6982 33.3139 18.8685 33.3139C17.5128 33.3139 16.3254 32.8887 15.393 31.8786C15.1527 31.6186 14.9901 31.6333 14.7147 31.8336C12.2411 33.6214 9.59502 33.8701 6.81004 32.6515C5.89805 32.2524 4.91498 32.7275 4.70169 33.7008C4.64926 33.9676 4.62596 34.2394 4.63222 34.5113C4.63222 36.3882 4.6216 38.2651 4.63958 40.1421C4.63958 40.5576 4.50556 40.6851 4.09778 40.6745C3.18743 40.6492 2.27462 40.6581 1.36346 40.6704C1.05047 40.6745 0.929534 40.5649 0.931169 40.2443C0.940975 37.7147 0.918908 35.1852 0.948326 32.6556C0.966305 31.1409 1.81455 30.0172 3.23646 29.5093C3.41461 29.4447 3.53065 29.403 3.41706 29.1748C2.88761 28.097 2.58738 26.921 2.53532 25.7211C2.37188 22.5945 3.75047 19.0835 7.25867 17.6392C11.7475 15.7925 16.6458 18.4333 17.61 23.2087C18.0121 25.2034 17.8805 27.1605 17.029 29.0317C16.8729 29.3752 16.9726 29.547 17.2439 29.7375C17.7253 30.0761 18.2769 30.1718 18.8326 30.18C20.4923 30.2029 22.1528 30.18 23.8125 30.1971C24.2309 30.1971 24.2211 29.9608 24.2211 29.6696C24.2178 26.0384 24.2178 22.4072 24.2211 18.776C24.2211 17.887 24.1574 17.9582 25.0309 17.9582C25.7517 17.9582 26.4728 17.9582 27.1941 17.9582C27.9189 17.9582 27.9189 17.9582 27.9189 18.7032L27.9156 25.6336ZM14.1737 25.3065C14.1795 24.2964 13.9997 23.3322 13.5118 22.4375C12.2043 20.042 8.73861 19.7623 7.065 21.9165C5.73053 23.634 5.67578 26.6379 6.95386 28.4012C8.43134 30.4458 11.258 30.6445 12.9864 28.8101C13.909 27.8311 14.1631 26.6044 14.1737 25.3065Z" fill="#A8A8BD"/>
<path d="M47.1972 33.314H39.1544C38.6175 33.314 38.6052 33.314 38.6118 33.8587C38.6273 35.1279 38.3764 36.3253 37.6418 37.3795C36.7265 38.6937 35.4599 39.3693 33.85 39.4445C32.2401 39.5197 30.7774 39.1525 29.4314 38.2742C28.9804 37.9797 28.9665 37.974 29.2329 37.5218C29.5851 36.9239 29.9471 36.3318 30.287 35.7274C30.417 35.4951 30.5469 35.4649 30.7774 35.59C31.2897 35.8722 31.8119 36.111 32.4117 36.1805C33.6269 36.3212 34.485 35.7879 34.8265 34.6152C34.9422 34.1955 34.9972 33.7615 34.99 33.3262C34.9856 28.4432 34.9856 23.5596 34.99 18.6754C34.99 17.9516 34.99 17.9516 35.7336 17.9508C36.5508 17.9508 37.368 17.9672 38.1852 17.9443C38.5807 17.9337 38.6976 18.0776 38.6968 18.4644C38.6853 22.1643 38.6894 25.8643 38.6902 29.565C38.6902 30.1882 38.6902 30.189 39.317 30.189H51.4825C52.0668 30.189 52.0685 30.189 52.0685 29.5969C52.0685 28.4519 52.0431 27.311 52.0742 26.1693C52.1208 24.4298 50.9783 23.3625 49.3513 23.1098C48.1615 22.9258 46.9602 23.0558 45.7646 23.0239C45.316 23.0124 44.8657 23.0174 44.4179 23.0239C44.1662 23.0239 44.042 22.9282 44.0445 22.6624C44.051 21.901 44.0445 21.1396 44.0494 20.3774C44.0494 20.0241 44.2455 19.7231 44.4016 19.4303C46.2599 15.8907 49.1356 13.4952 52.7933 11.9757C53.1202 11.8391 53.2722 11.8939 53.398 12.2308C53.7249 13.1108 54.0747 13.9818 54.44 14.8479C54.5756 15.1677 54.5045 15.2937 54.1793 15.4033C52.1039 16.094 50.2335 17.292 48.7376 18.8889C48.5423 19.0966 48.3658 19.3223 48.1893 19.5432C48.1263 19.6249 48.016 19.7125 48.0789 19.827C48.1419 19.9415 48.2751 19.8965 48.378 19.8965C49.3856 19.8916 50.3883 19.9096 51.382 20.1214C54.2659 20.7364 55.7793 22.5324 55.8137 25.4856C55.8423 27.9334 55.8137 30.3828 55.8267 32.8306C55.8267 33.2076 55.6927 33.3213 55.3242 33.3213C52.6127 33.3082 49.9086 33.314 47.1972 33.314Z" fill="#A8A8BD"/>
<path d="M68.3004 5.94384C68.3004 3.60155 70.1636 1.62401 72.3619 1.62892C74.6173 1.633 76.492 3.61218 76.4838 5.97983C76.4748 8.29678 74.5969 10.2146 72.3431 10.2089C70.1187 10.2032 68.2955 8.28287 68.3004 5.94384Z" fill="#A8A8BD"/>
<path d="M21.0251 39.4404C20.1001 39.4346 19.4054 38.7043 19.4185 37.7433C19.4316 36.8061 20.2022 35.9997 21.0766 36.0079C21.951 36.0161 22.7608 36.8895 22.7535 37.7932C22.7461 38.6789 21.9412 39.4469 21.0251 39.4404Z" fill="#A8A8BD"/>
<path d="M23.5501 37.7327C23.5575 36.7815 24.2693 36.0152 25.1494 36.0078C26.0483 36.0013 26.8548 36.8633 26.8418 37.8071C26.8295 38.7313 26.0712 39.4485 25.115 39.4428C24.1785 39.4322 23.542 38.737 23.5501 37.7327Z" fill="#A8A8BD"/>
</g>
<defs>
<clipPath id="clip0_49_4202">
<rect width="98" height="41" fill="white" transform="translate(0.931152)"/>
</clipPath>
</defs>
</svg>
