<svg width="107" height="45" viewBox="0 0 107 45" fill="none" xmlns="http://www.w3.org/2000/svg">
<g clip-path="url(#clip0_49_4096)">
<path d="M49.699 27.2904C47.3928 27.2904 45.0866 27.3213 42.8006 27.2904C41.7368 27.2679 41.2958 27.5968 41.192 28.696C40.6875 33.9924 37.698 36.4495 32.1804 36.2864C30.9581 36.2499 30.2836 35.8226 30.2893 34.5519C30.2951 33.2812 30.9091 32.7695 32.1631 32.8117C32.7856 32.8436 33.4097 32.822 34.0283 32.747C36.0462 32.4659 37.6058 29.6546 36.8102 27.8301C36.5651 27.2679 36.0722 27.3213 35.5994 27.3016C34.3079 27.2482 33.0049 27.3016 31.7307 27.1414C27.5363 26.6213 25.1003 24.0912 24.8812 19.9726C24.7717 17.9668 24.7717 15.9567 24.8812 13.9509C25.0974 10.1163 27.8274 6.50947 33.3422 6.72875C37.9979 6.91711 41.019 9.61873 41.2035 14.2742C41.3073 16.9337 41.2813 19.5987 41.2035 22.2582C41.1718 23.4952 41.6388 23.9168 42.8813 23.8578C44.5072 23.7819 46.1388 23.8072 47.782 23.8578C48.9034 23.8887 49.2032 23.7201 48.9034 22.4522C48.0386 18.7975 47.9492 15.0473 48.9524 11.3842C49.5866 9.07333 51.3855 7.72955 53.683 7.09701C55.5888 6.58053 57.6046 6.59319 59.5034 7.13356C62.4294 7.92915 64.4502 10.5436 64.5799 13.7372C64.6578 15.6039 64.6145 17.4734 64.6059 19.3401C64.5857 24.2542 61.6741 27.1667 56.5975 27.3016C54.2913 27.3606 51.9851 27.3016 49.699 27.3016V27.2904ZM36.8851 17.8895C36.7669 16.3798 37.1013 14.4597 36.6285 12.5677C36.2163 10.9259 35.3457 10.2737 33.4056 10.2147C31.1253 10.1472 29.8857 10.732 29.5657 12.3513C28.9917 15.3834 28.9809 18.4914 29.534 21.5272C29.7416 22.7248 30.5372 23.4642 31.8748 23.647C33.0683 23.8072 34.2589 23.7903 35.4524 23.8465C36.4873 23.8943 36.9456 23.5373 36.8938 22.4831C36.8332 21.0859 36.8851 19.6831 36.8851 17.8895ZM60.1952 17.0461C60.1952 15.8822 60.2327 14.7155 60.1952 13.5545C60.1059 11.2211 58.9672 10.195 56.5601 10.2063C54.0088 10.2063 52.8672 11.2071 52.8124 13.5798C52.7519 15.6742 52.8384 17.7742 52.7779 19.8658C52.6971 22.5956 53.7522 24.1333 57.5863 23.6189C59.3333 23.3855 60.0886 22.5337 60.1808 20.8076C60.2356 19.5762 60.1895 18.3112 60.1895 17.0461H60.1952Z" fill="#A8A8BD"/>
<path d="M90.5913 27.2875C85.8924 27.2875 81.1963 27.2875 76.4974 27.2875C71.5131 27.2678 68.8407 24.6758 68.8206 19.8123C68.7975 14.395 68.8206 8.97485 68.8206 3.55472C68.8206 1.82017 69.1895 1.46875 70.8933 1.46875C72.6748 1.46875 73.1534 1.88201 73.1591 3.58283C73.1793 8.85958 73.1591 14.1391 73.1591 19.4187C73.1591 20.2115 73.1303 21.0071 73.3898 21.7802C73.7876 22.9637 74.5948 23.6637 75.8805 23.7931C76.212 23.8268 76.5493 23.8268 76.8837 23.8296C79.8212 23.8661 79.8212 23.8661 80.0057 21.0014C80.0922 19.6633 80.5996 19.3597 82.4273 19.3962C83.664 19.4215 84.3011 19.9163 84.2838 21.1701C84.2492 23.8324 84.2607 23.8408 87.0368 23.8324C92.7389 23.8099 98.443 23.7818 104.149 23.7481C105.59 23.7481 106.983 25.0075 106.991 26.3738C106.991 27.3718 106.19 27.2762 105.55 27.2818C102.29 27.2987 99.0292 27.2818 95.7687 27.2818L90.5913 27.2875Z" fill="#A8A8BD"/>
<path d="M16.4837 11.5701C16.4837 8.86287 16.4837 6.15561 16.4837 3.44836C16.4837 1.82063 16.8729 1.48047 18.5276 1.48047C20.3783 1.48047 20.8338 1.84313 20.8338 3.52145C20.8338 8.89098 20.8828 14.2577 20.8338 19.6244C20.7848 24.5947 17.951 27.2739 12.8341 27.2907C9.28829 27.2907 5.74247 27.316 2.19954 27.2767C1.41542 27.2767 0.334381 27.6449 0.034572 26.4867C-0.201816 25.5758 1.12138 23.9566 2.1563 23.8469C3.10185 23.757 4.06469 23.8469 5.02178 23.8469C6.85234 23.8329 7.00801 23.6923 7.01377 21.9437C7.01377 18.5842 7.01377 15.2248 7.01377 11.8625C7.01377 9.89461 8.6829 8.9219 10.5596 9.7709C11.3754 10.1392 11.3697 10.856 11.3697 11.5617C11.3697 14.8762 11.3322 18.1907 11.3956 21.5051C11.4129 22.3176 10.819 23.5068 12.2604 23.8104C13.8777 24.1449 15.5122 23.4196 16.0282 22.1742C16.3636 21.2967 16.5193 20.3636 16.4866 19.4276C16.4779 16.7963 16.4837 14.1818 16.4837 11.5701Z" fill="#A8A8BD"/>
<path d="M95.3189 6.83259C97.1091 6.45025 98.0374 7.37235 98.7235 8.87076C100.165 12.025 101.745 15.123 103.198 18.2716C103.543 19.0222 104.55 19.9303 103.345 20.6978C102.258 21.3893 100.07 20.754 99.5393 19.6885C98.4698 17.5463 97.481 15.3676 96.4115 13.2226C96.0713 12.5451 96.0137 11.384 95.1546 11.3868C94.4426 11.3868 94.2898 12.5113 93.9813 13.1607C92.9925 15.182 92.0787 17.2399 91.0986 19.264C90.7413 19.9545 90.1316 20.4894 89.3898 20.7631C88.6481 21.0368 87.828 21.0296 87.0915 20.7427C86.3852 20.4363 86.4169 19.9247 86.6937 19.3371C88.4551 15.6572 90.2424 11.9913 91.9634 8.29443C92.6553 6.8157 93.8804 6.64142 95.3189 6.83259Z" fill="#A8A8BD"/>
<path d="M85.3361 39.8153C85.3361 40.1892 85.3361 40.5631 85.3361 40.9398C85.2755 43.3575 83.9466 44.8222 81.6749 44.974C78.968 45.1567 77.4863 44.0069 77.0798 41.4571C76.9159 40.3008 76.9266 39.1272 77.1115 37.9739C77.4315 35.6743 78.9449 34.3727 81.28 34.4233C83.6612 34.4711 85.2035 35.933 85.3159 38.2776C85.3591 38.792 85.3361 39.3093 85.3361 39.8153ZM83.197 39.776C83.197 39.2615 83.197 38.7499 83.197 38.2354C83.1653 37.0097 82.5599 36.304 81.2569 36.2956C79.9539 36.2872 79.2966 36.9534 79.2534 38.1848C79.2159 39.2587 79.2217 40.3326 79.2534 41.4065C79.2851 42.6266 80.0231 43.1467 81.2079 43.1636C82.5081 43.1804 83.1307 42.6013 83.2057 41.3165C83.2259 40.8105 83.1999 40.2961 83.197 39.7816V39.776Z" fill="#A8A8BD"/>
<path d="M70.7636 41.69C71.493 39.8008 72.1589 38.0606 72.8363 36.3232C72.9652 35.9238 73.1402 35.5399 73.3581 35.1791C73.5416 34.926 73.8123 34.7456 74.1208 34.6708C74.4293 34.5959 74.755 34.6317 75.0388 34.7714C75.7191 35.0526 75.3415 35.6401 75.1656 36.1068C74.2345 38.5582 73.2716 40.9984 72.3751 43.461C72.058 44.3269 71.5823 44.7486 70.5964 44.7317C69.6855 44.7317 69.1867 44.3325 68.8898 43.5341C67.976 41.0771 67.0275 38.6341 66.1137 36.1771C65.9321 35.6851 65.4939 35.0357 66.2809 34.7321C66.4475 34.6581 66.6281 34.619 66.8112 34.6173C66.9942 34.6155 67.1756 34.6511 67.3437 34.7218C67.5117 34.7925 67.6628 34.8967 67.7871 35.0278C67.9113 35.1588 68.0061 35.3138 68.0653 35.4827C68.688 36.9473 69.2184 38.4486 69.8209 39.9217C70.0372 40.4671 70.066 41.1137 70.7636 41.69Z" fill="#A8A8BD"/>
<path d="M50.4054 34.4927C51.2808 34.4792 52.1348 34.7568 52.8269 35.2798C52.9322 35.3372 53.024 35.4155 53.0965 35.5096C53.1689 35.6037 53.2204 35.7115 53.2475 35.8262C53.2747 35.9408 53.2769 36.0597 53.2541 36.1753C53.2313 36.2908 53.184 36.4004 53.1152 36.4971C52.8471 36.9525 52.4637 37.1661 51.9159 36.9665C51.2961 36.7416 50.7109 36.3593 50.0018 36.4915C49.5088 36.5814 49.0476 36.7726 48.938 37.2983C48.8342 37.7818 49.1888 38.091 49.5751 38.2906C50.2526 38.6421 50.9502 38.9513 51.6449 39.2662C52.8845 39.8284 53.6456 40.7027 53.5418 42.0999C53.5022 42.7605 53.24 43.3899 52.7958 43.8901C52.3516 44.3904 51.7505 44.7335 51.0857 44.8662C50.4329 45.0209 49.7536 45.0367 49.094 44.9125C48.4344 44.7883 47.81 44.5271 47.2631 44.1465C46.7615 43.8176 46.3551 43.41 46.8134 42.7578C47.2372 42.1505 47.7446 42.0381 48.4076 42.4289C48.7991 42.6937 49.2382 42.8844 49.702 42.9911C50.3419 43.0923 50.9906 42.918 51.2183 42.2264C51.446 41.5348 50.9934 41.1778 50.4342 40.9164C49.8749 40.6549 49.2811 40.4413 48.7391 40.1545C47.0412 39.269 46.4329 38.2091 46.7904 36.8316C47.1478 35.4007 48.5114 34.4898 50.4054 34.4927Z" fill="#A8A8BD"/>
<path d="M60.6306 34.6315C61.0035 34.6179 61.3713 34.7192 61.6818 34.9211C61.9923 35.123 62.2297 35.4151 62.3603 35.756C63.0204 37.2516 63.7642 38.7134 64.4532 40.1949C64.678 40.6785 65.1451 41.2604 64.4013 41.6484C64.2557 41.735 64.0934 41.7915 63.9245 41.8145C63.7555 41.8374 63.5836 41.8262 63.4192 41.7817C63.2549 41.7372 63.1017 41.6602 62.9691 41.5555C62.8366 41.4509 62.7275 41.3207 62.6486 41.1733C62.1008 40.2512 61.6684 39.2616 61.1812 38.303C61.0169 37.9825 60.9996 37.4596 60.5816 37.4287C60.0397 37.4034 60.0512 37.9909 59.8782 38.3564C59.5006 39.1098 59.1892 39.8913 58.8289 40.6504C58.5406 41.2688 58.0995 41.7749 57.3298 41.7749C56.5601 41.7749 56.0355 41.519 56.416 40.6869C57.2347 38.9046 58.1024 37.1447 58.9903 35.3933C59.2901 34.7973 59.8811 34.5837 60.6306 34.6315Z" fill="#A8A8BD"/>
<path d="M87.8642 39.6378C87.8642 38.6567 87.844 37.67 87.8642 36.6945C87.8901 35.8511 87.6653 34.7266 89.0461 34.7266C90.3578 34.7266 90.1214 35.8173 90.1387 36.6129C90.1762 38.2013 90.1992 39.7897 90.1387 41.3752C90.0926 42.4997 90.5019 43.0338 91.7098 42.9298C92.3321 42.8914 92.9565 42.898 93.5778 42.9495C93.6981 42.9452 93.8179 42.9662 93.9291 43.011C94.0403 43.0559 94.1404 43.1235 94.2224 43.2094C94.3044 43.2952 94.3666 43.3973 94.4046 43.5087C94.4426 43.62 94.4556 43.7381 94.4427 43.8547C94.454 43.9611 94.4417 44.0685 94.4065 44.1697C94.3713 44.2709 94.3141 44.3636 94.2388 44.4412C94.1636 44.5189 94.072 44.5798 93.9703 44.6198C93.8687 44.6598 93.7594 44.6779 93.6499 44.6728C92.0211 44.6897 90.3924 44.7066 88.7636 44.6503C88.0314 44.625 87.8988 44.0066 87.8728 43.419C87.8527 42.1568 87.8728 40.8889 87.8728 39.635L87.8642 39.6378Z" fill="#A8A8BD"/>
<path d="M101.289 34.7342C102.137 34.5964 102.633 34.9225 102.956 35.6057C103.676 37.1322 104.434 38.6418 105.146 40.174C105.36 40.635 105.965 41.2732 105.219 41.6077C104.55 41.9085 103.645 41.8888 103.201 41.0455C102.699 40.0896 102.301 39.0776 101.837 38.1105C101.722 37.8715 101.549 37.5314 101.344 37.4807C100.912 37.3795 100.854 37.8434 100.719 38.1105C100.298 38.9539 99.9056 39.7973 99.5164 40.6407C99.4234 40.9067 99.2592 41.1437 99.0407 41.327C98.8223 41.5104 98.5576 41.6335 98.2739 41.6836C97.2938 41.8467 96.8153 41.4025 97.1958 40.5282C97.9453 38.8105 98.7928 37.135 99.6202 35.451C99.9805 34.7566 100.664 34.7032 101.289 34.7342Z" fill="#A8A8BD"/>
<path d="M56.4879 1.55612e-05C58.6413 1.55612e-05 59.0824 0.416099 59.0824 2.36993C59.0824 4.32376 58.4857 4.8326 56.4677 4.82416C54.5132 4.82416 53.9251 4.21691 53.9482 2.27151C53.951 0.373902 54.3719 -0.00279571 56.4879 1.55612e-05Z" fill="#A8A8BD"/>
<path d="M101.304 44.7164C99.8161 44.7164 98.3315 44.7332 96.8439 44.7164C96.3625 44.7164 95.6447 44.8991 95.6072 44.14C95.5698 43.4485 96.0598 43.0155 96.7776 42.9649C97.5416 42.9143 98.3113 42.934 99.0839 42.9312H105.138C105.616 42.9312 106.109 42.9312 106.513 43.232C106.668 43.3447 106.791 43.495 106.868 43.6681C106.945 43.8412 106.975 44.0311 106.954 44.2188C106.893 44.736 106.444 44.7107 106.072 44.7136C104.489 44.7136 102.901 44.7136 101.327 44.7136L101.304 44.7164Z" fill="#A8A8BD"/>
<path d="M60.4517 44.718C58.97 44.718 57.4853 44.718 56.0036 44.718C55.551 44.718 54.9398 44.8052 54.9168 44.122C54.904 43.861 54.9901 43.6045 55.1586 43.4013C55.327 43.1981 55.5662 43.0624 55.8306 43.02C56.1585 42.9537 56.4933 42.9254 56.828 42.9356C59.313 42.9356 61.7999 42.9356 64.2887 42.9356C64.6696 42.9253 65.0499 42.9727 65.4158 43.0762C65.6491 43.1443 65.8513 43.2883 65.9888 43.4843C66.1262 43.6803 66.1906 43.9163 66.1711 44.1529C66.1337 44.7377 65.5946 44.7152 65.1881 44.7152C63.6083 44.7321 62.017 44.7152 60.4517 44.7152V44.718Z" fill="#A8A8BD"/>
</g>
<defs>
<clipPath id="clip0_49_4096">
<rect width="107" height="45" fill="white"/>
</clipPath>
</defs>
</svg>
