<svg width="133" height="51" viewBox="0 0 133 51" fill="none" xmlns="http://www.w3.org/2000/svg">
<g clip-path="url(#clip0_49_4169)">
<path d="M128.88 33.0549V32.4133C128.88 28.0327 128.889 23.6537 128.866 19.2747C128.866 18.7534 129.018 18.6491 129.519 18.6956C131.628 18.8945 132.89 20.1392 132.903 22.2245C132.933 26.5842 132.933 30.9434 132.903 35.3021C132.887 37.2269 131.631 38.4941 129.845 38.5342C128.584 38.5615 127.589 38.0033 126.824 37.081C125.627 35.6373 124.475 34.1616 123.318 32.6891C121.166 29.9484 119.018 27.2044 116.874 24.4573C116.771 24.3258 116.72 24.122 116.483 24.1124C116.331 24.3081 116.409 24.5343 116.409 24.7428C116.409 29.141 116.396 33.5409 116.409 37.9407C116.409 38.462 116.269 38.5823 115.756 38.5198C113.63 38.2904 112.403 37.1002 112.382 34.9765C112.337 30.6777 112.347 26.3773 112.382 22.0785C112.391 20.6814 112.859 19.4383 114.333 18.9073C115.808 18.3764 117.112 18.7469 118.19 19.8377C119.481 21.153 120.511 22.6752 121.647 24.1108C123.908 26.9708 126.142 29.8516 128.39 32.7228C128.496 32.8608 128.622 32.9843 128.738 33.1158L128.88 33.0549Z" fill="#A8A8BD"/>
<path d="M93.7316 30.378C94.938 31.5826 95.1734 34.0673 94.2384 35.6825C93.1513 37.5576 91.3761 38.3564 89.2886 38.5618C83.7307 39.1087 79.1634 35.1083 79.0048 29.6322C78.9346 27.2053 79.3906 24.934 80.803 22.9065C82.5472 20.3962 85.0057 18.975 88.0544 18.6013C91.6294 18.1634 94.8825 18.9221 97.5355 21.45C99.4661 23.2963 100.393 25.6317 100.553 28.2206C100.756 31.5361 100.594 34.8597 100.632 38.1784C100.632 38.4783 100.509 38.5425 100.231 38.5473C98.1829 38.573 96.661 37.3347 96.5253 35.3393C96.4011 33.5075 96.4861 31.6612 96.4321 29.823C96.388 28.3537 96.1215 26.9213 95.399 25.606C94.0308 23.1086 91.2142 21.9168 88.1966 22.5391C85.4831 23.1038 83.6441 25.2371 83.4217 28.0666C83.3253 29.3001 83.4332 30.5015 83.9121 31.6564C84.7785 33.7417 86.7369 34.9671 89.0826 34.8773C91.2077 34.7971 92.7623 33.5444 93.475 31.3196C93.5633 31.01 93.6401 30.7036 93.7316 30.378Z" fill="#A8A8BD"/>
<path d="M69.3733 38.2164C67.0281 38.2164 64.6813 38.2164 62.3328 38.2164C61.5354 38.2415 60.74 38.1241 59.9854 37.8699C58.3164 37.2524 57.638 35.5024 58.4455 33.9272C58.9163 33.0049 59.7026 32.3601 60.4938 31.7313C64.1555 28.8227 67.821 25.9194 71.4903 23.0215C71.6537 22.8963 71.9807 22.8065 71.8777 22.5643C71.7861 22.3558 71.4723 22.4745 71.2614 22.4745C68.3631 22.4745 65.4648 22.4745 62.5665 22.4745C61.558 22.4745 60.569 22.3622 59.7255 21.7286C58.882 21.095 58.6793 20.1519 58.6548 19.1622C58.645 18.7885 58.9359 18.8927 59.1337 18.8911C60.3368 18.8831 61.5416 18.8911 62.7464 18.8911H72.7882C73.543 18.867 74.2974 18.9475 75.0293 19.1301C77.1299 19.722 77.9096 21.8249 76.664 23.5973C76.1507 24.3288 75.4641 24.9046 74.7645 25.4596C71.1965 28.288 67.627 31.1159 64.0557 33.9433C63.8449 34.1037 63.4378 34.2641 63.5294 34.5207C63.6209 34.7774 64.0378 34.633 64.3058 34.633C67.0848 34.6442 69.8638 34.633 72.6329 34.633C73.4911 34.633 74.3509 34.633 75.183 34.8736C75.8474 35.0578 76.4289 35.4572 76.8328 36.0067C77.2367 36.5562 77.4393 37.2236 77.4078 37.9004C77.3898 38.3062 77.1283 38.2212 76.9027 38.2212C75.4527 38.2212 74.0044 38.2212 72.5544 38.2212L69.3733 38.2164Z" fill="#A8A8BD"/>
<path d="M40.4085 33.1288C40.0031 33.7352 39.5971 34.341 39.1907 34.9462C39.14 34.9975 39.0648 35.0553 39.1269 35.1275C39.189 35.1996 39.2413 35.1066 39.2904 35.0777C42.939 31.7093 45.6656 27.8259 46.5107 22.8711C46.6742 23.7918 46.5009 24.7093 46.3914 25.6108C46.0148 28.7555 45.0276 31.8003 43.4833 34.5805C43.3869 34.7537 43.2626 34.9221 43.3035 35.1403L43.2921 35.1066L43.1449 35.4146C41.9631 37.2849 40.4641 38.9017 38.9128 40.4753C37.8551 41.5484 36.7746 42.599 35.547 43.4908C35.4015 43.4604 35.3524 43.5582 35.3099 43.6641V43.6256L35.1726 43.7571L35.1857 43.7459L35.0517 43.8774H35.0631C35.0125 43.8779 34.9629 43.891 34.9189 43.9154C34.8749 43.9398 34.8379 43.9747 34.8114 44.017L34.8506 44.0314C34.6463 43.9881 34.5024 44.1132 34.3504 44.2095C32.7941 45.199 31.1597 46.0647 29.4627 46.7983C26.2937 48.1883 22.8893 48.9889 19.4225 49.1595C15.2525 49.3488 11.3374 48.4938 7.72972 46.3941C7.53846 45.9306 7.05296 45.7285 6.76198 45.3483C6.49717 45.0034 6.22255 44.6698 6.09668 44.2046C6.40236 44.4116 6.70314 44.6233 7.01209 44.8222C10.1049 46.8144 13.5508 47.3325 17.1716 47.2282C22.0151 47.0807 26.3683 45.4911 30.3945 42.9375C31.0353 42.53 31.7431 42.2076 32.2368 41.6029C32.4002 41.38 32.7484 41.3687 32.8612 41.0688C32.6274 40.987 32.4869 41.1345 32.3299 41.2051C28.3103 43.0353 24.1402 44.0923 19.6612 43.6528C15.4111 43.239 12.0256 41.3126 9.41997 38.0243C9.30227 37.8768 9.2042 37.7308 9.2843 37.5351C10.306 38.5729 11.3718 39.5514 12.691 40.2331C14.8732 41.3559 17.2288 41.6334 19.6367 41.5484C27.4946 41.2709 34.1722 38.1799 40.0521 33.2299C40.129 33.1657 40.2156 33.1096 40.2924 33.0486L40.4085 33.1288ZM38.9978 35.352C38.9275 35.2622 38.8752 35.3296 38.8229 35.3745C38.8229 35.3745 38.8572 35.4194 38.8768 35.4451L38.9831 35.344L39.0599 35.2446L39.0076 35.2349L38.9978 35.352Z" fill="#A8A8BD"/>
<path d="M43.3084 35.1407C43.2676 34.9226 43.3918 34.7541 43.4882 34.5809C45.0326 31.8007 46.0197 28.7559 46.3963 25.6112C46.5059 24.7097 46.671 23.7922 46.5157 22.8715C46.599 21.4728 46.6366 20.0757 46.2623 18.7011C45.0232 14.1617 41.9402 11.3514 37.4579 10.0393C32.6945 8.64382 28.1403 9.45226 23.8231 11.7476C20.0241 13.7703 17.6571 16.8612 16.4998 21.1953C16.2562 20.5104 16.5488 19.856 16.3919 19.1758L16.2186 19.4967C16.1496 19.5937 16.0879 19.6956 16.0339 19.8014C14.5447 23.3303 14.4205 26.9361 15.5108 30.5805C16.0043 32.2357 16.8867 33.7542 18.087 35.014C18.5774 35.5273 19.1823 35.901 19.6236 36.4576C18.2113 36.0149 17.0556 35.1632 16.0273 34.1574C12.8642 31.0392 11.7363 27.204 12.3575 22.9421C13.2386 16.8837 16.6959 12.4935 22.0413 9.48914C25.9825 7.27398 30.2474 6.22655 34.7918 6.70294C40.9251 7.34455 45.427 10.3216 47.7597 16.0416C48.9252 18.8983 48.8287 21.8754 48.1503 24.8349C47.3019 28.5241 45.6248 31.8669 43.4866 34.9947C43.4342 35.051 43.3742 35.1001 43.3084 35.1407Z" fill="#A8A8BD"/>
<path d="M19.6237 36.4527C19.1823 35.9025 18.5709 35.5287 18.0871 35.009C16.8867 33.7493 16.0044 32.2308 15.5108 30.5755C14.4205 26.9312 14.5447 23.3269 16.0339 19.7965C16.088 19.6907 16.1497 19.5888 16.2186 19.4917C15.9244 21.0043 15.7184 22.5169 15.8361 24.0712C16.2644 29.7013 20.3446 32.9687 25.211 33.535C29.2535 34.0033 32.6569 32.5982 35.5454 29.873C37.4989 28.0267 39.2218 26.0233 40.1993 23.4873C40.7322 22.1063 40.8058 20.6851 40.6995 19.2383C41.1393 19.9986 41.1474 20.8535 41.1785 21.6796C41.2913 24.6374 40.4772 27.3691 38.9619 29.9115C38.8589 30.0847 38.7281 30.2451 38.7837 30.4648L38.7543 30.4536L38.7657 30.4264C38.7207 30.4506 38.6835 30.4867 38.6584 30.5307C38.6332 30.5746 38.6211 30.6246 38.6235 30.675V30.6589L38.5009 30.8434C36.5663 33.3331 33.9961 35.2775 31.0501 36.4799C27.7349 37.8546 24.3479 38.0134 20.8938 37.0045C20.544 36.9034 20.2138 36.7398 19.8754 36.6051C19.848 36.5582 19.8097 36.5182 19.7638 36.4884C19.7178 36.4586 19.6653 36.4398 19.6106 36.4334L19.6237 36.4527Z" fill="#A8A8BD"/>
<path d="M38.7869 30.4668C38.7314 30.2471 38.8621 30.0867 38.9651 29.9134C40.4805 27.3711 41.2945 24.6394 41.1817 21.6816C41.1507 20.8555 41.1425 20.0006 40.7028 19.2402C39.9966 16.2969 37.9794 14.7041 35.0566 14.2148C31.1563 13.562 27.7251 14.4923 25.224 17.6474C23.8133 19.4295 23.3066 21.4843 24.2825 23.6786C24.8366 24.9217 25.5657 25.4959 27.5273 26.3493C26.8538 26.869 26.0953 27.047 25.327 27.1513C21.7128 27.655 19.0728 25.1174 19.5648 21.5629C20.1042 17.6699 22.3094 14.8997 25.8468 13.1818C29.2437 11.5313 32.7812 11.1864 36.4036 12.4953C40.997 14.1571 43.3215 18.2281 42.3816 22.9536C41.8471 25.6323 40.6635 28.0223 39.0436 30.2198C38.9651 30.3089 38.8793 30.3915 38.7869 30.4668Z" fill="#A8A8BD"/>
<path d="M9.29739 37.5213C9.21729 37.717 9.31538 37.863 9.43308 38.0105C12.0388 41.2988 15.4192 43.2252 19.6743 43.6391C24.1533 44.0737 28.3234 43.0215 32.343 41.1913C32.5065 41.1207 32.6405 40.9732 32.8743 41.055C32.7615 41.3549 32.4052 41.3661 32.2499 41.5891C31.9752 41.5378 31.7921 41.7303 31.5862 41.8426C28.3332 43.607 24.9396 44.9848 21.2305 45.4885C17.3727 46.0114 13.6914 45.5976 10.4155 43.3407C7.80002 41.5346 6.07871 39.0307 4.94261 36.1402C2.87639 30.8887 3.03333 25.5905 4.71214 20.278C4.7438 20.1832 4.78035 20.0901 4.82165 19.9989C4.87487 19.9189 4.93331 19.8422 4.99657 19.7695C4.6255 25.6034 4.96387 31.1806 8.23322 36.1819L8.34602 36.3423L8.36563 36.3664L8.5013 36.5493V36.5364C8.49494 36.5875 8.5059 36.6392 8.53249 36.6836C8.55909 36.728 8.59983 36.7625 8.64843 36.7818L8.62881 36.7578L8.76121 36.9021L8.74978 36.8877C8.74978 37.0016 8.79881 37.0818 8.92795 37.0914L8.8969 37.1139L8.93122 37.0962C8.89036 37.3737 8.96882 37.5534 9.29739 37.5309V37.5213Z" fill="#A8A8BD"/>
<path d="M108.333 30.0016C108.333 32.6419 108.313 35.2821 108.347 37.9223C108.355 38.495 108.156 38.58 107.646 38.5303C105.416 38.3137 104.187 37.0995 104.172 34.8811C104.136 29.6006 104.159 24.3202 104.149 19.0397C104.149 18.6949 104.252 18.6018 104.605 18.6098C106.894 18.658 108.308 20.0069 108.324 22.259C108.346 24.8399 108.324 27.4208 108.324 30.0016H108.333Z" fill="#A8A8BD"/>
<path d="M7.74274 46.3869C11.3505 48.4865 15.2623 49.3415 19.4356 49.1522C22.9002 48.9809 26.3023 48.1803 29.4692 46.7911C31.1662 46.0574 32.8006 45.1917 34.3569 44.2022C34.5089 44.1059 34.6528 43.9808 34.8571 44.0241C33.6131 45.1582 32.1877 46.05 30.7573 46.9306C27.8868 48.6951 24.8611 50.121 21.4724 50.6327C18.3877 51.0963 15.29 51.1861 12.2218 50.5204C6.4726 49.2757 2.96133 45.7629 1.5032 40.2178C1.03172 38.4183 0.84591 36.5582 0.952317 34.7031C1.22367 35.6976 1.4427 36.7001 1.75166 37.6818C2.4513 39.9274 3.31441 42.1009 4.77908 43.9952C5.40821 44.8333 6.1829 45.556 7.06762 46.1302C7.28013 46.2553 7.46485 46.4478 7.74274 46.3869Z" fill="#A8A8BD"/>
<path d="M10.834 9.0257C11.3225 8.4441 11.8589 7.9028 12.4376 7.40725C16.0551 4.23609 20.0813 1.76268 24.8023 0.487476C25.5685 0.275766 26.3484 0.114998 27.1366 0.00626772C27.7218 -0.0707255 27.9752 0.166674 27.8738 0.752144C27.6924 1.81561 26.9274 2.33692 25.9564 2.63045C23.6962 3.31377 21.4741 4.10188 19.2902 4.99478C16.521 6.1176 13.8042 7.35753 11.2541 8.91985C11.1413 8.99524 11.0432 9.13638 10.834 9.0257Z" fill="#A8A8BD"/>
<path d="M108.694 14.7069C108.699 15.0217 108.641 15.3345 108.523 15.6273C108.405 15.9201 108.23 16.1872 108.006 16.4132C107.783 16.6393 107.516 16.8198 107.222 16.9446C106.927 17.0693 106.61 17.1358 106.289 17.1402C105.964 17.1436 105.641 17.084 105.339 16.9649C105.038 16.8458 104.763 16.6694 104.53 16.446C104.298 16.2225 104.113 15.9563 103.986 15.6625C103.858 15.3688 103.791 15.0534 103.788 14.7342C103.798 14.0989 104.059 13.4922 104.517 13.0429C104.974 12.5936 105.593 12.3372 106.24 12.3281C106.886 12.3277 107.506 12.5772 107.965 13.0226C108.425 13.468 108.687 14.0732 108.694 14.7069Z" fill="#A8A8BD"/>
<path d="M9.2942 37.5245C8.96726 37.547 8.88716 37.3641 8.92803 37.0898C9.09711 37.1894 9.22633 37.3428 9.2942 37.5245Z" fill="#A8A8BD"/>
<path d="M35.3149 43.6633C35.3574 43.5574 35.4065 43.4595 35.552 43.49C35.532 43.5371 35.4994 43.5781 35.4577 43.6086C35.416 43.6391 35.3667 43.658 35.3149 43.6633Z" fill="#A8A8BD"/>
<path d="M38.6235 30.6744C38.6211 30.6241 38.6332 30.5741 38.6583 30.5301C38.6835 30.4862 38.7206 30.45 38.7657 30.4258C38.8164 30.5621 38.7346 30.6263 38.6235 30.6744Z" fill="#A8A8BD"/>
<path d="M43.1499 35.4174L43.297 35.1094C43.3641 35.2569 43.2382 35.3275 43.1499 35.4174Z" fill="#A8A8BD"/>
<path d="M19.6155 36.4336C19.6702 36.4399 19.7227 36.4588 19.7686 36.4886C19.8146 36.5184 19.8529 36.5583 19.8803 36.6052C19.7724 36.578 19.6416 36.5812 19.6155 36.4336Z" fill="#A8A8BD"/>
<path d="M8.64523 36.7766C8.59663 36.7573 8.55589 36.7228 8.52929 36.6784C8.5027 36.6341 8.49174 36.5823 8.4981 36.5312C8.54621 36.5513 8.58649 36.5859 8.61298 36.6301C8.63947 36.6743 8.65078 36.7257 8.64523 36.7766Z" fill="#A8A8BD"/>
<path d="M8.92476 37.0865C8.79562 37.0769 8.75149 36.9967 8.74658 36.8828C8.85938 36.9069 8.89533 36.9935 8.92476 37.0865Z" fill="#A8A8BD"/>
<path d="M34.8245 44.0107C34.851 43.9684 34.888 43.9335 34.932 43.9091C34.976 43.8847 35.0256 43.8716 35.0762 43.8711C35.0272 43.9802 34.9634 44.0588 34.8245 44.0107Z" fill="#A8A8BD"/>
<path d="M38.5059 30.8446L38.6292 30.6602L38.5059 30.8446Z" fill="#A8A8BD"/>
<path d="M40.456 32.944L40.5086 32.875L40.5283 32.9183L40.451 32.9392L40.456 32.944Z" fill="#A8A8BD"/>
<path d="M40.3055 33.0354C40.3317 32.9664 40.3709 32.9199 40.4559 32.9439C40.5148 33.0225 40.4559 33.0771 40.4134 33.1316L40.3055 33.0354Z" fill="#A8A8BD"/>
<path d="M8.34676 36.3362L8.23328 36.1758L8.34676 36.3362Z" fill="#A8A8BD"/>
<path d="M8.50127 36.5422L8.3656 36.3594C8.40646 36.3694 8.44243 36.3933 8.46723 36.4267C8.49203 36.4601 8.50407 36.501 8.50127 36.5422Z" fill="#A8A8BD"/>
<path d="M8.75803 36.8943L8.62561 36.75C8.66189 36.7539 8.69542 36.7708 8.71984 36.7974C8.74425 36.824 8.75785 36.8585 8.75803 36.8943Z" fill="#A8A8BD"/>
<path d="M10.7278 9.13615L10.7442 9.09766L10.8051 9.13615L10.7673 9.17786L10.7278 9.13615Z" fill="#A8A8BD"/>
<path d="M35.1907 43.7604L35.328 43.6289C35.3296 43.7219 35.2724 43.7604 35.1907 43.7604Z" fill="#A8A8BD"/>
<path d="M35.0648 43.8776L35.1989 43.7461C35.1989 43.8343 35.1466 43.8712 35.0648 43.8776Z" fill="#A8A8BD"/>
<path d="M38.9831 35.3449L38.8769 35.4459C38.8573 35.4202 38.8213 35.3769 38.8229 35.3753C38.8752 35.3304 38.9276 35.263 38.9978 35.3529L38.9831 35.3449Z" fill="#A8A8BD"/>
<path d="M38.998 35.3515L39.0078 35.2344L39.0605 35.244L38.9832 35.3435L38.998 35.3515Z" fill="#A8A8BD"/>
<path d="M39.2953 35.0768C39.2414 35.1057 39.2022 35.2164 39.1319 35.1266C39.0616 35.0367 39.1449 34.9966 39.1956 34.9453L39.2953 35.0768Z" fill="#A8A8BD"/>
</g>
<defs>
<clipPath id="clip0_49_4169">
<rect width="132" height="51" fill="white" transform="translate(0.931152)"/>
</clipPath>
</defs>
</svg>
