<svg width="129" height="43" viewBox="0 0 129 43" fill="none" xmlns="http://www.w3.org/2000/svg">
<g clip-path="url(#clip0_49_4138)">
<path d="M128.931 27.9963C125.967 27.9963 123.003 27.9823 120.039 27.9963C119.34 28.0123 118.659 27.7754 118.121 27.3294C113.684 23.8394 109.241 20.3534 104.756 16.9232C103.937 16.2983 103.649 15.6255 103.707 14.6511C103.751 13.9304 104.031 13.6369 104.744 13.6529C106.612 13.6888 108.474 13.6355 110.33 13.4931C111.701 13.3913 113.038 13.1996 114.315 12.6665C115.734 12.0676 116.366 10.9076 116.316 8.92096C116.282 7.28576 115.716 6.48913 114.2 5.92609C112.515 5.29118 110.74 5.25924 108.987 5.19135C106.725 5.1035 104.457 5.19135 102.194 5.13145C101.205 5.1035 100.955 5.48685 100.959 6.40927C100.989 13.0998 100.975 19.7863 100.973 26.4769C100.973 27.9264 100.909 27.9883 99.4499 27.9903C97.4484 27.9903 95.4503 27.9903 93.4556 27.9903C92.1006 27.9903 91.9665 27.8625 91.9665 26.5128C91.9665 18.7648 91.9665 11.016 91.9665 3.26665C91.9665 0.0481668 91.5942 0.541322 94.7105 0.527345C99.7714 0.503387 104.833 0.503387 109.895 0.527345C112.994 0.545315 116.086 0.74098 119.102 1.5456C120.889 2.02278 122.582 2.70561 123.747 4.25895C123.845 4.39072 123.963 4.51052 124.056 4.64828C126.832 8.8411 124.476 15.0524 119.638 16.3083C118.456 16.6138 117.259 16.8613 115.924 17.1369L128.933 27.3913L128.931 27.9963Z" fill="#A8A8BD"/>
<path d="M43.2035 42.5006C43.6038 41.8856 44.4244 41.8277 44.8287 41.2288C44.9948 40.9832 45.275 40.7636 45.179 40.4441C45.0629 40.0668 44.6886 40.1925 44.4084 40.1546C44.3764 40.1546 44.3424 40.1546 44.3083 40.1546C42.1608 40.0827 41.5644 39.2721 42.0447 37.1258C42.1888 36.4869 42.6451 36.3771 43.1695 36.3871C43.835 36.3963 44.4994 36.4456 45.1589 36.5348C46.1376 36.6726 46.656 37.3334 46.7921 38.4955C46.8362 38.8568 46.67 39.3979 47.2865 39.3959C47.9029 39.3939 47.967 38.8888 47.967 38.3976C47.967 37.1731 47.967 35.9485 47.967 34.7239C47.967 34.2308 48.015 33.7636 48.6815 33.7616C49.348 33.7596 49.368 34.2407 49.39 34.7259C49.472 36.5228 49.476 36.5228 51.2093 36.4949C53.4429 36.449 53.4569 36.449 53.627 38.6572C53.6671 39.1803 53.8552 39.4678 54.3996 39.4678C55.2322 39.4678 56.0648 39.5017 56.8954 39.4558C57.726 39.4099 57.9882 38.8988 57.5739 38.16C57.2036 37.4992 56.5992 37.2097 55.8446 37.1617C55.4443 37.1378 54.7378 37.3434 54.7458 36.8363C54.7458 36.1834 55.4784 36.5728 55.8787 36.5009C56.272 36.432 56.6737 36.424 57.0695 36.4769C58.4205 36.6546 58.9849 37.2336 59.193 38.5773C59.2451 38.9187 59.159 39.3919 59.7054 39.3759C60.2038 39.358 60.3579 38.9766 60.3619 38.5354C60.3739 37.3095 60.3619 36.0836 60.3799 34.8597C60.3799 34.3725 60.3038 33.7895 61.0584 33.7755C61.883 33.7596 61.7909 34.3745 61.7949 34.9036C61.7949 36.1275 61.7949 37.3534 61.7949 38.5773C61.7949 38.9207 61.7028 39.3979 62.2452 39.4099C62.7096 39.4099 62.8457 38.9926 62.8637 38.6352C62.9137 37.3454 62.9097 36.0536 62.9377 34.7639C62.9377 34.4424 62.8877 34.087 63.2279 33.8674C63.7063 33.5599 64.2947 33.8794 64.3167 34.5582C64.3648 36.0457 64.3688 37.5371 64.3167 39.0246C64.2787 40.0488 63.5161 40.1646 62.6695 40.1646C57.9762 40.1646 53.2808 40.1646 48.5874 40.1486C47.5507 40.1486 46.622 40.1067 46.2577 41.3905C46.0756 42.0334 45.3411 42.2071 44.7927 42.5106L43.2035 42.5006ZM50.4087 39.4698C51.6456 39.4698 52.176 39.0705 52.21 38.154C52.228 37.5371 52.0719 37.1557 51.3374 37.1557C50.2446 37.1737 49.444 37.8146 49.418 38.7251C49.392 39.4778 49.8943 39.4778 50.4087 39.4698ZM43.6038 38.202C43.5318 38.9367 43.6999 39.4678 44.5845 39.4638C45.1189 39.4638 45.3851 39.2482 45.3471 38.6851C45.2951 37.9424 45.159 37.2656 44.2263 37.2236C43.4778 37.1897 43.6379 37.7787 43.5958 38.202H43.6038Z" fill="#A8A8BD"/>
<path d="M80.9706 42.4993C81.3409 41.8743 82.1715 41.7745 82.5457 41.1656C82.6998 40.924 83.006 40.7243 82.8179 40.3829C82.6638 40.1034 82.3576 40.1673 82.0994 40.1513C79.7357 40.0036 79.7257 39.9936 79.7677 37.5977C79.7857 36.4576 79.8878 36.3698 81.0527 36.4377C81.3829 36.4576 81.7171 36.4377 82.0534 36.4556C83.8307 36.5395 84.297 36.9588 84.5612 38.7417C84.6112 39.0891 84.6492 39.4445 85.0935 39.4365C85.6179 39.4365 86.1923 39.6042 86.6447 39.2568C86.8988 39.0572 86.5706 38.8575 86.4645 38.6698C85.5158 37.0566 85.8881 36.3758 87.7755 36.3039C88.2424 36.2821 88.7102 36.2874 89.1765 36.3199C90.5635 36.4237 90.9778 37.2163 90.3233 38.4163C90.1772 38.6858 89.6809 38.9993 89.955 39.2249C90.4234 39.6122 91.0919 39.5024 91.6863 39.4245C92.1306 39.3706 92.1346 38.9993 92.1406 38.6619C92.1406 38.1987 92.1406 37.7354 92.1526 37.2643C92.1646 36.7931 92.2607 36.3778 92.8571 36.4037C93.4195 36.4257 93.5616 36.817 93.5616 37.2982V39.2748C94.1281 39.0532 94.092 38.6758 94.114 38.3404C94.138 37.977 94.114 37.6117 94.1321 37.2483C94.1321 36.821 94.2241 36.4257 94.7625 36.4077C95.3009 36.3897 95.519 36.7671 95.5351 37.2463C95.5551 37.9211 95.5351 38.596 95.5351 39.3826C96.1075 38.9833 95.9353 38.4802 95.9734 38.0529C95.9857 37.6579 96.0205 37.264 96.0774 36.8729C96.1595 36.4936 96.4917 36.3718 96.856 36.4037C97.0259 36.4084 97.1874 36.4786 97.3065 36.5996C97.4256 36.7206 97.493 36.883 97.4945 37.0526C97.5345 37.5797 97.5225 38.1088 97.5385 38.6379C97.5385 38.9474 97.3884 39.3786 97.9088 39.3986C98.0099 39.4102 98.1124 39.4002 98.2095 39.3693C98.3065 39.3384 98.3958 39.2873 98.4715 39.2193C98.5472 39.1513 98.6076 39.0681 98.6486 38.9751C98.6896 38.8821 98.7103 38.7814 98.7093 38.6798C98.7494 37.8532 98.7373 37.0247 98.7474 36.1981C98.7474 35.5991 98.7474 35.0001 98.7634 34.4012C98.7754 33.9639 99.0155 33.7363 99.4619 33.7383C99.9082 33.7403 100.15 33.9739 100.15 34.4111C100.15 35.9665 100.172 37.5238 100.13 39.0791C100.112 39.738 99.662 40.1074 99.0035 40.1034C95.6431 40.0874 92.2847 40.2332 88.9223 40.0155C87.6394 39.9337 86.3384 40.0954 85.0455 40.1573C84.8769 40.1717 84.7165 40.2366 84.5854 40.3435C84.4544 40.4504 84.3587 40.5943 84.311 40.7563C83.9507 41.6587 83.2662 42.1818 82.3756 42.4853L80.9706 42.4993ZM81.1907 38.3065C81.1307 38.9054 81.3589 39.4425 82.2555 39.4525C82.7939 39.4525 83.0421 39.2149 83.01 38.6539C82.964 37.8992 82.7799 37.2563 81.8793 37.1804C81.1767 37.1325 81.2028 37.6596 81.1907 38.3105V38.3065Z" fill="#A8A8BD"/>
<path d="M115.141 42.4987C116.156 41.0552 116.202 39.416 116.12 37.7469C116.112 37.5156 116.122 37.284 116.148 37.054C116.196 36.5868 116.534 36.483 116.931 36.4551C117.369 36.4351 117.513 36.7146 117.531 37.082C117.555 37.645 117.549 38.2061 117.571 38.7691C117.585 39.1385 117.735 39.412 118.172 39.42C118.608 39.428 118.73 39.1365 118.738 38.7691C118.748 38.2061 118.748 37.643 118.762 37.082C118.772 36.6507 118.962 36.4111 119.442 36.4311C119.873 36.4491 120.151 36.5988 120.163 37.06C120.177 37.5891 120.163 38.1182 120.189 38.6573C120.189 38.843 120.189 39.1005 120.467 39.0826C120.667 39.0686 120.701 38.859 120.709 38.6972C120.733 38.234 120.741 37.7708 120.745 37.2996C120.749 36.8284 120.871 36.4531 121.454 36.4231C122.08 36.3912 122.152 36.7945 122.16 37.2617C122.168 37.7289 122.16 38.26 122.186 38.7491C122.186 38.9129 122.236 39.1085 122.457 39.0646C122.513 39.0374 122.562 38.9968 122.599 38.9463C122.636 38.8958 122.66 38.837 122.669 38.7751C122.707 38.2819 122.713 37.7768 122.723 37.2896C122.723 36.8264 122.793 36.4311 123.409 36.4132C124.084 36.3932 124.158 36.8125 124.156 37.3236C124.14 37.6869 124.144 38.0508 124.168 38.4137C124.208 38.7911 123.968 39.394 124.676 39.3681C125.303 39.3461 125.349 38.841 125.349 38.3498C125.349 37.3236 125.311 36.2973 125.369 35.2751C125.401 34.7001 124.996 33.7557 126.089 33.7697C127.1 33.7837 126.732 34.6801 126.756 35.2332C126.806 36.3872 126.782 37.5472 126.756 38.7052C126.73 39.8632 126.419 40.1607 125.257 40.1547C123.029 40.1547 120.799 40.1547 118.572 40.1308C117.937 40.1308 117.485 40.2546 117.295 40.9434C117.105 41.6322 116.466 42.0335 115.944 42.4887L115.141 42.4987Z" fill="#A8A8BD"/>
<path d="M128.931 39.9162C127.75 40.3155 127.512 40.1618 127.504 38.9359C127.504 37.6501 127.504 36.3663 127.504 35.0825C127.504 33.7528 127.546 33.7248 128.933 33.7568L128.931 39.9162Z" fill="#A8A8BD"/>
<path d="M21.7841 0.520087C25.1145 0.520087 28.4449 0.544049 31.7753 0.504117C32.6919 0.494134 33.0502 0.837543 33.0082 1.72402C32.9661 2.4515 32.9661 3.1808 33.0082 3.90828C33.0742 4.87862 32.6319 5.16812 31.7052 5.16413C26.4755 5.13618 21.2477 5.14616 16.0179 5.15415C14.4168 5.15415 12.8156 5.10623 11.2385 5.35381C11.0725 5.35975 10.9076 5.38249 10.7462 5.42169C9.91357 5.72916 8.92284 5.90686 8.87881 7.05689C8.83878 8.14901 9.82749 8.26481 10.53 8.48044C13.4381 9.37291 16.4863 9.54062 19.4684 10.0537C22.8409 10.6347 26.2733 10.8524 29.5097 12.1462C33.3944 13.7015 34.9716 16.4967 34.3651 20.6376C33.9068 23.7662 32.1475 25.7069 29.1974 26.7012C26.3954 27.6496 23.4593 27.8992 20.5332 27.9511C14.707 28.0389 8.8768 27.9511 3.04861 28.005C2.04789 28.005 1.66164 27.7274 1.76971 26.7072C1.84277 25.8816 1.84277 25.0511 1.76971 24.2255C1.70567 23.301 2.10195 23.0135 2.99459 23.0275C7.18961 23.0555 11.3859 23.0555 15.5836 23.0275C18.0114 23.0115 20.4471 23.1972 22.8629 22.8179C23.258 22.7575 23.6491 22.6729 24.0337 22.5643C24.9023 22.3107 25.5228 21.8036 25.5608 20.8333C25.5968 19.9388 25.0304 19.4357 24.2859 19.1142C22.8309 18.4993 21.2657 18.3276 19.7266 18.064C15.3054 17.3053 10.7802 17.0757 6.49912 15.5903C4.45565 14.8795 2.52025 13.9251 1.59158 11.8087C0.176566 8.58426 0.839038 3.96419 5.11411 2.09539C7.44209 1.09463 9.94659 0.566575 12.4814 0.542053C15.5776 0.480159 18.6859 0.528075 21.7741 0.528075L21.7841 0.520087Z" fill="#A8A8BD"/>
<path d="M80.2462 27.9899C78.645 27.9899 77.0439 27.958 75.4547 28.0019C74.5641 28.0259 74.0737 27.6944 73.7275 26.8559C70.2583 18.4703 66.7692 10.0986 63.26 1.74094C62.8297 0.708708 62.9417 0.542989 64.0725 0.521026C66.9606 0.469115 66.9806 0.455139 68.6759 2.8111C72.2084 7.73865 75.7149 12.6842 79.2395 17.6177C81.395 20.6365 83.5686 23.6454 85.7261 26.6642C85.9503 26.9777 86.3266 27.3011 86.1264 27.7144C85.9263 28.1277 85.4159 27.98 85.0356 27.984C83.4405 27.9979 81.8433 27.9899 80.2462 27.9899Z" fill="#A8A8BD"/>
<path d="M43.8081 27.9893C42.1769 27.9893 40.5457 27.9893 38.9146 27.9893C38.5543 27.9893 38.128 28.0532 37.9258 27.6738C37.7237 27.2945 38.0659 27.0609 38.2541 26.7993C43.3658 19.6582 48.4794 12.5165 53.5951 5.37406C54.5198 4.08027 55.4384 2.77851 56.3191 1.45877C56.7674 0.785924 57.3078 0.444512 58.1404 0.512395C58.8383 0.552334 59.538 0.552334 60.2359 0.512395C61.0105 0.484443 61.1686 0.779932 60.8784 1.47474C59.6595 4.37177 58.4666 7.28079 57.2598 10.1838C55.7747 13.7617 54.2876 17.3382 52.7985 20.9134C51.9319 22.9899 51.0393 25.0583 50.1967 27.1427C49.9465 27.7597 49.5522 27.9993 48.9038 27.9913C47.2025 27.9753 45.5053 27.9893 43.8081 27.9893Z" fill="#A8A8BD"/>
<path d="M24.0378 40.1537C22.2365 40.1537 20.4472 40.1537 18.6519 40.1537C18.3437 40.1537 17.8813 40.2774 17.9154 39.7543C17.9414 39.343 18.3617 39.4608 18.6439 39.4549C19.0742 39.4549 19.5085 39.4728 19.9388 39.4549C20.4812 39.4349 21.1397 39.5906 21.1797 38.7141C21.2157 37.9035 20.8395 37.3664 20.0549 37.1947C19.6086 37.0969 19.1282 37.1508 18.6539 37.1189C18.4538 37.1049 18.2256 37.035 18.2216 36.7954C18.2176 36.5558 18.4517 36.4959 18.6539 36.4899C19.4495 36.4381 20.2473 36.4321 21.0436 36.472C22.0083 36.5638 22.5527 37.2027 22.5847 38.3527C22.6087 39.2392 22.985 39.5148 23.8076 39.4648C24.5041 39.4229 25.2086 39.4768 25.9011 39.4469C26.7017 39.4129 26.9439 38.9976 26.6396 38.2489C26.3354 37.5002 25.729 37.2287 24.9885 37.1588C24.6582 37.1268 24.324 37.1288 23.9877 37.1029C23.8116 37.0889 23.6455 37.0031 23.6415 36.8134C23.6375 36.6237 23.8016 36.5578 23.9697 36.5019C26.0812 35.8051 27.7084 36.7016 28.2088 38.8619C28.2728 39.1394 28.3328 39.4029 28.6751 39.391C28.768 39.3922 28.8601 39.3744 28.9458 39.3385C29.0314 39.3025 29.1087 39.2494 29.1728 39.1823C29.2369 39.1151 29.2864 39.0356 29.3182 38.9485C29.3499 38.8614 29.3634 38.7687 29.3576 38.6762C29.3916 37.618 29.3836 36.5598 29.3956 35.5036C29.3956 35.1043 29.3956 34.705 29.4216 34.3057C29.4476 33.9064 29.6978 33.7247 30.0881 33.7227C30.4784 33.7207 30.7726 33.8744 30.7746 34.2777C30.7746 35.9289 30.8086 37.5821 30.7346 39.2312C30.7005 39.978 30.0641 40.1237 29.4076 40.1177C28.511 40.1177 27.6063 40.1177 26.7157 40.1177H24.0217L24.0378 40.1537Z" fill="#A8A8BD"/>
<path d="M111.569 40.154C110.604 40.154 109.639 40.1421 108.677 40.154C107.804 40.168 107.39 39.7348 107.354 38.8962C107.354 38.7624 107.34 38.6307 107.34 38.4969C107.34 37.826 107.083 37.3289 106.369 37.2011C106.023 37.1412 105.64 37.1911 105.62 37.6324C105.588 38.3272 105.318 39.1318 106.271 39.5012C106.529 39.603 106.993 39.573 106.915 39.9604C106.837 40.3477 106.411 40.16 106.131 40.16C104.407 40.1321 103.407 38.3352 104.239 36.7659C104.302 36.6514 104.394 36.5551 104.506 36.4863C105.062 36.1429 107.794 36.6121 108.266 37.1113C108.435 37.2722 108.567 37.4674 108.654 37.6838C108.741 37.9001 108.78 38.1324 108.769 38.3651C108.711 39.2077 109.169 39.4752 109.923 39.4732C110.854 39.4732 111.787 39.4832 112.725 39.4732C113.148 39.4732 113.654 39.5511 113.726 38.9361C113.798 38.3212 113.794 37.7382 113.09 37.4287C112.385 37.1192 111.659 37.1791 110.93 37.1632C110.606 37.1632 110.216 37.2251 110.049 36.8537C109.883 36.4823 110.176 36.2308 110.408 35.9992C111.042 35.3702 111.693 34.7533 112.333 34.1284C112.511 33.9269 112.758 33.7987 113.026 33.769C113.282 33.753 113.594 33.6692 113.736 33.9686C113.862 34.2302 113.612 34.3899 113.458 34.5496C113.02 35.0009 112.559 35.4341 112.127 35.8914C111.769 36.2727 111.909 36.4704 112.397 36.4903C112.563 36.4903 112.729 36.4903 112.896 36.4803C114.827 36.4164 115.64 37.267 115.533 39.1957C115.497 39.8426 115.243 40.172 114.565 40.162C113.566 40.1341 112.567 40.154 111.569 40.154Z" fill="#A8A8BD"/>
<path d="M37.7796 40.1192C37.0831 40.1192 36.3786 40.1591 35.6901 40.1032C35.3258 40.0732 34.8595 39.8796 35.4539 39.4643C35.8682 39.1748 35.8041 38.7814 35.8081 38.4001C35.8222 37.1782 35.8082 35.9543 35.8182 34.7324C35.8182 34.2512 35.8342 33.764 36.5086 33.7541C37.1831 33.7441 37.2112 34.2053 37.2332 34.7004C37.3152 36.5313 37.3212 36.5293 39.1766 36.4854C39.2758 36.4764 39.3756 36.4764 39.4748 36.4854C40.0752 36.5792 40.8878 36.0861 41.2461 36.697C41.6604 37.4058 41.4962 38.3142 41.3181 39.1189C41.172 39.7857 40.6076 40.0672 39.9711 40.1172C39.2426 40.1611 38.5101 40.1172 37.7696 40.1172L37.7796 40.1192ZM38.1038 39.4603C39.4628 39.4703 39.9751 39.0929 39.9872 38.1286C39.9872 37.6474 39.9872 37.1842 39.2967 37.1722C38.2419 37.1522 37.2572 37.9469 37.2752 38.8294C37.2852 39.4683 37.7455 39.4483 38.1038 39.4603Z" fill="#A8A8BD"/>
<path d="M7.23356 40.1362C6.86729 40.1362 6.50103 40.1362 6.13477 40.1362C5.41625 40.1182 5.02997 39.7528 5.00796 39.0281C5.00796 38.8963 5.00797 38.7625 4.99596 38.6287C4.98195 37.896 4.74778 37.319 3.91718 37.2032C3.5169 37.1473 3.24068 37.341 3.25469 37.7463C3.27671 38.4191 2.91645 39.2736 3.98322 39.5432C4.20338 39.5971 4.50961 39.623 4.47359 39.9285C4.43156 40.2959 4.10532 40.222 3.84313 40.218C2.18994 40.1901 1.81767 39.8187 1.78765 38.1476C1.75963 36.5503 1.32533 36.2728 3.62298 36.4285C5.75851 36.5723 6.02469 36.732 6.43699 38.8244C6.51304 39.2077 6.66116 39.4234 7.07346 39.4374C7.52778 39.4553 7.89804 39.3275 7.96809 38.8384C8.0199 38.3457 8.04261 37.8503 8.03614 37.3549C8.04814 36.8598 8.09417 36.3806 8.75464 36.3966C9.41512 36.4125 9.44516 36.8997 9.45117 37.3949C9.45117 37.5606 9.45117 37.7243 9.45117 37.89C9.46518 40.0543 9.36709 40.1521 7.23356 40.1362Z" fill="#A8A8BD"/>
<path d="M71.668 40.1269C71.2677 40.1269 70.8674 40.1528 70.4671 40.1269C69.8086 40.075 69.4444 39.6996 69.3843 39.0447C69.3623 38.8151 69.3623 38.5815 69.3403 38.3519C69.2742 37.6491 68.8599 37.2898 68.1734 37.2239C68.0987 37.2075 68.0212 37.2098 67.9476 37.2306C67.874 37.2513 67.8067 37.2899 67.7517 37.3428C67.6966 37.3958 67.6555 37.4614 67.632 37.534C67.6085 37.6066 67.6034 37.6839 67.6171 37.7589C67.6431 38.3839 67.3608 39.1306 68.1954 39.484C68.3756 39.5599 68.5957 39.5539 68.7719 39.6317C68.8278 39.6597 68.8769 39.6996 68.9156 39.7486C68.9544 39.7976 68.9818 39.8545 68.996 39.9152C69.0008 39.957 68.9952 39.9993 68.9798 40.0384C68.9644 40.0776 68.9396 40.1123 68.9076 40.1397C68.8756 40.1671 68.8374 40.1862 68.7963 40.1955C68.7552 40.2047 68.7125 40.2038 68.6718 40.1928C67.9172 40.071 66.9806 40.4404 66.4702 39.6098C65.9378 38.7413 66.128 37.755 66.2701 36.8146C66.2988 36.7163 66.3593 36.6302 66.4423 36.5699C66.5252 36.5096 66.6258 36.4784 66.7284 36.4811C67.7832 36.4392 68.8579 36.2555 69.8667 36.7207C70.5912 37.0542 70.7913 37.719 70.7973 38.4518C70.7973 38.9968 70.8974 39.464 71.5979 39.46C72.2984 39.456 72.5186 39.0368 72.5266 38.4258C72.5479 38.0268 72.5479 37.6269 72.5266 37.2279C72.4745 36.6708 72.7107 36.4192 73.2591 36.4292C73.8475 36.4292 73.9796 36.7986 73.9276 37.2977C73.8996 37.5613 73.8595 37.8248 73.8535 38.0964C73.8015 40.1189 73.7735 40.1548 71.668 40.1269Z" fill="#A8A8BD"/>
<path d="M13.4161 40.1414C12.4854 40.1414 11.5548 40.1414 10.6261 40.1414C10.3739 40.1414 10.0057 40.1654 10.0257 39.804C10.0457 39.4426 10.3999 39.4905 10.6561 39.4825C11.1205 39.4686 11.5868 39.4825 12.0571 39.4825C12.5615 39.4606 13.196 39.6323 13.228 38.7977C13.258 38.027 13.0278 37.4001 12.1872 37.2324C11.7369 37.1445 11.2606 37.1885 10.7982 37.1565C10.53 37.1386 10.1978 37.0966 10.2418 36.7432C10.2739 36.4577 10.5801 36.4837 10.8122 36.4877C11.5087 36.4877 12.2132 36.4877 12.9057 36.5196C14.0446 36.5835 14.5449 37.1186 14.669 38.2646C14.715 38.7039 14.4549 39.4107 15.2434 39.3987C16.032 39.3867 16.008 38.7198 16.014 38.1448C16.014 37.7815 16.014 37.4181 16.038 37.0547C16.062 36.6913 16.2521 36.4278 16.6604 36.4258C17.0307 36.4258 17.3409 36.5715 17.381 36.9649C17.461 37.7535 17.5271 38.5621 17.3389 39.3308C17.1968 39.9298 16.7045 40.1474 16.1201 40.1514C15.2114 40.1534 14.3148 40.1394 13.4161 40.1414Z" fill="#A8A8BD"/>
<path d="M32.9923 36.9378C32.9923 37.6985 32.9923 38.4592 32.9923 39.2199C32.9923 39.6771 32.8862 40.0924 32.3018 40.1224C31.7173 40.1523 31.5933 39.7829 31.5432 39.3017C31.3831 37.7824 31.4291 36.263 31.4512 34.7416C31.4512 34.2065 31.6013 33.7313 32.2938 33.7632C32.9442 33.7932 32.9903 34.2704 32.9963 34.7615C33.0003 35.4823 32.9923 36.2091 32.9923 36.9378Z" fill="#A8A8BD"/>
<path d="M76.6556 40.1292C76.0912 40.1292 75.5248 40.1292 74.9584 40.1292C74.7582 40.1292 74.5281 40.0573 74.5281 39.8137C74.5281 39.5701 74.7562 39.5062 74.9604 39.5002C75.5268 39.4823 76.0932 39.5002 76.6576 39.4703C77.0339 39.4523 77.5362 39.608 77.6783 39.0909C77.7595 38.8556 77.7785 38.6034 77.7337 38.3587C77.6888 38.1139 77.5815 37.8848 77.4222 37.6933C76.9738 37.1742 76.3874 37.1782 75.779 37.1622C75.4087 37.1523 74.7903 37.314 74.7783 36.8128C74.7602 36.1939 75.3787 36.5613 75.7169 36.4994C75.9451 36.4554 76.1833 36.4834 76.4134 36.4614C78.571 36.2618 79.5377 37.316 79.1574 39.4383C79.0713 39.9195 78.8192 40.1371 78.3568 40.1451C77.7904 40.1451 77.224 40.1451 76.6576 40.1451L76.6556 40.1292Z" fill="#A8A8BD"/>
<path d="M100.897 36.8966C100.897 36.07 100.897 35.2454 100.897 34.4209C100.897 34.0535 100.961 33.758 101.421 33.75C101.842 33.75 102.168 33.8977 102.172 34.349C102.19 36.064 102.188 37.7811 102.172 39.4962C102.172 39.9434 101.888 40.1391 101.451 40.1211C100.951 40.1011 100.881 39.7757 100.887 39.3704C100.899 38.5438 100.887 37.7192 100.887 36.8946L100.897 36.8966Z" fill="#A8A8BD"/>
</g>
<defs>
<clipPath id="clip0_49_4138">
<rect width="128" height="42" fill="white" transform="translate(0.931152 0.5)"/>
</clipPath>
</defs>
</svg>
