<svg width="102" height="43" viewBox="0 0 102 43" fill="none" xmlns="http://www.w3.org/2000/svg">
<g clip-path="url(#clip0_49_4156)">
<path d="M23.2339 42.9777C20.0882 43.1447 16.807 42.3707 13.6224 41.2834C9.79806 39.9762 6.6971 37.6496 4.50452 34.2807C2.9729 31.9288 2.06689 29.3281 1.5049 26.6018C0.999462 24.144 0.888712 21.6619 0.944087 19.1776C1.0136 16.0678 1.47544 13.0191 2.557 10.0648C3.16847 8.39244 3.89658 6.79034 5.03116 5.40707C6.875 3.16689 8.40545 2.61519 10.9633 3.06783C11.7244 3.20259 11.8151 3.45137 11.3049 4.01573C10.0895 5.37239 9.14264 6.93815 8.51266 8.63317C7.93162 10.1355 7.59221 11.7169 7.5065 13.3208C7.33802 16.5297 7.83167 19.621 9.27376 22.535C10.2752 24.5609 11.709 26.2713 13.3974 27.7835C15.6159 29.7692 18.1701 31.2389 20.9058 32.4332C23.1299 33.4245 25.4117 34.2871 27.7392 35.0166C30.2184 35.7882 32.7519 36.3814 35.3196 36.7915C36.1113 36.9136 36.9137 36.9504 37.6983 37.114C38.1343 37.2038 38.2403 37.3639 37.9151 37.7198C36.7723 38.9672 35.3561 39.8587 33.8681 40.6361C30.6387 42.3246 27.1725 43.0629 23.2339 42.9777Z" fill="#A8A8BD"/>
<path d="M67.5379 9.99906C67.5379 11.458 67.5379 12.9138 67.5379 14.3665C67.5379 15.7107 67.9762 16.1725 69.3735 16.1817C72.5676 16.2025 75.7616 16.1898 78.9556 16.1898C79.7803 16.1898 80.6051 16.2013 81.4215 16.1725C82.5596 16.1322 82.8071 15.8857 82.985 14.8134C83.1475 13.8356 83.3019 12.8739 83.8309 11.9732C84.7805 10.3607 86.7763 9.57059 88.6614 9.75602C91.5267 10.0382 93.0784 12.2623 93.1997 14.6476C93.2645 15.9226 93.539 16.1817 94.8374 16.1863C95.2884 16.2048 95.7402 16.1735 96.184 16.093C97.0571 15.9053 97.4223 15.5011 97.4376 14.62C97.4647 13.1457 97.4199 11.6714 97.513 10.1972C97.5424 9.72378 97.6721 9.51417 98.1834 9.48422C98.9044 9.44276 99.6219 9.32528 100.341 9.23084C100.68 9.18707 100.963 9.24697 100.963 9.63626C100.963 11.6081 101.121 13.5891 100.896 15.5494C100.682 17.4164 99.2602 18.7329 97.2962 19.1729C95.8222 19.5242 94.2805 19.4992 92.8192 19.1003C92.5399 19.0231 92.3479 19.0381 92.1794 19.3099C90.4935 21.974 85.8291 21.8657 84.2185 19.4873C83.9829 19.1418 83.7178 19.0669 83.3231 19.2166C82.8624 19.3906 82.3699 19.4205 81.8751 19.4205C77.7374 19.4205 73.5996 19.4182 69.4619 19.4136C68.6365 19.4298 67.8151 19.2979 67.0384 19.0243C65.125 18.3091 64.0376 16.8544 64.0187 14.8526C63.9893 11.8073 64.0187 8.76092 63.9999 5.71565C63.9999 5.18468 64.2143 4.95088 64.7492 4.90941C65.4314 4.85643 66.11 4.75623 66.791 4.67906C67.3047 4.61802 67.5509 4.80461 67.5438 5.34709C67.5238 6.89852 67.5368 8.44993 67.5368 10.0014L67.5379 9.99906ZM86.3804 15.4872C86.3673 16.1789 86.5 16.8658 86.7704 17.5051C87.006 18.0568 87.4396 18.3321 88.0499 18.354C88.6602 18.3759 89.1986 18.1731 89.4449 17.5972C90.054 16.1748 90.0127 14.7305 89.4767 13.2943C89.2575 12.7069 88.7875 12.4247 88.163 12.4097C87.4985 12.3936 87.0673 12.746 86.7834 13.3069C86.4358 13.9968 86.4111 14.742 86.3804 15.4872Z" fill="#A8A8BD"/>
<path d="M21.4856 8.53837C21.422 5.57488 22.3021 3.25176 24.3839 1.4504C26.5317 -0.407395 29.6727 -0.507599 31.9089 1.33523C33.4193 2.58028 34.323 4.15822 34.7365 6.0425C35.3975 9.01636 34.9227 11.7529 32.9928 14.1705C31.6085 15.9051 29.767 16.7666 27.4884 16.5132C25.5703 16.3001 24.1683 15.2301 23.0938 13.7317C21.9262 12.0962 21.3713 10.2718 21.4856 8.53837Z" fill="#A8A8BD"/>
<path d="M74.6965 29.8438C74.6965 28.5032 74.6965 27.1637 74.6965 25.823C74.6965 24.7381 74.9474 24.3257 76.0007 23.9652C78.0613 23.2626 80.1432 22.901 82.2026 23.9952C82.4524 24.1276 82.6562 24.0147 82.873 23.9318C84.0724 23.4711 85.3012 23.1648 86.6019 23.3709C88.9158 23.736 89.9456 24.9039 90.008 27.3837C90.0645 29.6791 90.008 31.9781 90.0233 34.2758C90.0233 34.7573 89.7877 34.922 89.3364 34.9174C88.7686 34.9116 88.1995 34.9243 87.6305 34.9174C86.9695 34.9093 86.8482 34.7953 86.8458 34.1319C86.8376 32.0253 86.8458 29.9187 86.8387 27.8133C86.8387 26.4703 86.2496 25.9992 84.8818 26.2388C84.6697 26.2757 84.4647 26.3448 84.2526 26.3828C83.9098 26.4427 83.8591 26.6281 83.8638 26.9587C83.898 29.4281 83.8992 31.8986 83.9157 34.368C83.9157 34.7619 83.7177 34.9197 83.3372 34.9185C82.7481 34.9185 82.159 34.8978 81.5699 34.9266C81.0103 34.9542 80.81 34.7365 80.8159 34.1883C80.8371 32.1013 80.8277 30.0143 80.8159 27.9262C80.8159 26.3724 79.5081 25.6526 78.0625 26.3909C77.7939 26.5279 77.7974 26.7445 77.7974 26.9737C77.7974 29.367 77.7974 31.7604 77.8069 34.1537C77.8069 34.8275 77.7479 34.9128 77.0493 34.9208C76.4814 34.9278 75.9123 34.9093 75.3445 34.9266C74.8649 34.9404 74.6764 34.7319 74.68 34.2724C74.6918 32.7981 74.68 31.3227 74.68 29.8485L74.6965 29.8438Z" fill="#A8A8BD"/>
<path d="M35.2477 33.7996C31.176 33.7616 27.5378 32.4924 24.2907 30.114C24.2573 30.0938 24.2261 30.0703 24.1977 30.0437C24.0221 29.8341 23.6215 29.7086 23.7488 29.3815C23.8595 29.0958 24.22 29.1845 24.491 29.1672C26.6047 29.0348 28.6453 28.5672 30.5233 27.6181C31.5341 27.1067 32.5167 26.9155 33.6148 27.1286C35.8627 27.564 38.0494 27.1286 40.242 26.6909C42.0317 26.3415 43.7433 25.6827 45.2964 24.7456C45.4401 24.6592 45.6145 24.5349 45.783 24.6673C45.9514 24.7998 45.8631 24.984 45.8277 25.1522C45.4237 27.0779 44.4896 28.8592 43.1262 30.304C42.2319 31.2704 41.2835 32.1964 40.0959 32.8241C38.5831 33.6257 36.9396 33.8307 35.2477 33.7996Z" fill="#A8A8BD"/>
<path d="M72.3578 29.3394C72.3578 30.0869 72.3908 30.8367 72.3472 31.5796C72.3154 32.1278 72.4992 32.501 73.0023 32.7314C73.4488 32.9364 73.5501 33.222 73.2886 33.6528C73.06 34.0306 72.8809 34.4371 72.6724 34.8264C72.5334 35.0867 72.2942 35.233 72.0527 35.0211C70.977 34.0766 69.8389 34.4533 68.6819 34.8034C67.4761 35.1862 66.1699 35.1339 65.0001 34.656C63.6464 34.1123 62.7416 32.7682 62.8677 31.4575C63.0338 29.7207 63.9822 28.585 65.5327 28.2326C66.4752 28.0172 67.4342 28.0137 68.3956 28.0022C68.7114 28.0022 69.1426 28.1819 69.2875 27.6912C69.4324 27.2006 69.1933 26.559 68.7726 26.3264C68.2319 26.0281 67.6416 26.0258 67.0537 26.1133C66.3767 26.2147 65.7031 26.3379 65.0331 26.483C64.6384 26.5671 64.4323 26.4416 64.3592 26.0638C64.2555 25.5374 64.146 25.0122 64.0423 24.487C63.9893 24.2164 64.0246 23.9733 64.3392 23.8881C66.1654 23.3952 68.0033 22.9978 69.8766 23.6336C71.4577 24.1703 72.3331 25.3912 72.3508 27.037C72.3637 27.8076 72.3567 28.5735 72.3578 29.3394ZM68.0163 30.3415C67.705 30.3242 67.3929 30.3264 67.082 30.3483C66.4234 30.4324 66.0216 30.9243 66.0216 31.5819C66.0216 32.1705 66.2891 32.4469 67.0066 32.569C67.6392 32.6772 68.2495 32.5448 68.8445 32.349C68.9673 32.315 69.0769 32.2459 69.159 32.1504C69.2412 32.0549 69.2921 31.9375 69.3052 31.8134C69.5019 30.4912 69.3558 30.3138 68.0163 30.3415Z" fill="#A8A8BD"/>
<path d="M100.837 29.5346C100.837 30.2049 100.873 30.8775 100.825 31.5444C100.785 32.1145 100.97 32.5049 101.501 32.7434C101.985 32.961 102.044 33.2778 101.76 33.7132C101.54 34.0495 101.369 34.418 101.182 34.7751C100.982 35.1552 100.674 35.2173 100.367 34.9559C99.5277 34.2429 98.6487 34.3201 97.6767 34.6668C96.3148 35.1528 94.9233 35.2208 93.5437 34.676C92.1641 34.1312 91.2863 32.9012 91.324 31.5812C91.37 30.0171 92.2253 28.8584 93.6804 28.3332C94.7407 27.952 95.84 28.0326 96.9345 28.0004C97.2255 27.9923 97.6473 28.2077 97.7863 27.7459C97.9489 27.2091 97.6532 26.5008 97.2114 26.2946C96.6388 26.0263 96.0261 26.0297 95.4229 26.1196C94.7647 26.2169 94.1129 26.3515 93.4707 26.5227C93.0689 26.6321 92.8816 26.5561 92.818 26.1472C92.739 25.6174 92.6283 25.0922 92.5434 24.5624C92.494 24.2583 92.5317 23.9715 92.8969 23.8713C94.5463 23.4187 96.2217 23.0777 97.9312 23.5027C99.8505 23.9807 100.769 25.1912 100.828 27.2379C100.85 28.0027 100.828 28.7698 100.828 29.5346H100.837ZM97.7851 31.2484C97.6791 30.9501 98.0479 30.3661 97.3139 30.327C96.7644 30.2953 96.2135 30.2984 95.6644 30.3362C95.3475 30.3557 95.0499 30.4916 94.8313 30.7168C94.6128 30.942 94.4895 31.2397 94.4862 31.5501C94.4862 32.1629 94.8185 32.4773 95.5737 32.5867C95.9839 32.6325 96.3992 32.602 96.7978 32.4969C97.6815 32.308 97.7839 32.1825 97.7851 31.2518V31.2484Z" fill="#A8A8BD"/>
<path d="M55.0729 30.6362C55.0729 31.8432 55.0599 33.0549 55.0788 34.2551C55.087 34.7538 54.8761 34.9461 54.3777 34.9254C53.771 34.9035 53.1619 34.9115 52.5551 34.9254C52.1699 34.9323 51.9743 34.7895 51.9755 34.3898C51.9825 31.4217 51.9755 28.4548 51.9884 25.4867C51.9773 25.2145 52.0513 24.9455 52.2006 24.7154C52.3498 24.4854 52.5672 24.3053 52.8237 24.199C54.9539 23.2684 57.1665 22.9436 59.3897 23.7567C60.6986 24.2358 61.336 25.3588 61.5399 26.6983C61.7696 28.2025 61.6259 29.7171 61.6577 31.2271C61.6777 32.2418 61.6494 33.2565 61.6648 34.2712C61.6706 34.7319 61.488 34.9426 61.005 34.9277C60.4371 34.9092 59.8692 34.9277 59.3002 34.9277C58.5815 34.9277 58.4825 34.8401 58.4754 34.1353C58.4695 31.9723 58.4754 29.8092 58.4672 27.6451C58.4613 26.764 57.8911 26.218 56.9956 26.1973C56.7801 26.1911 56.5645 26.2035 56.3512 26.2341C54.7936 26.4726 55.0964 26.3943 55.0752 27.6589C55.0587 28.654 55.0752 29.6503 55.0752 30.6454L55.0729 30.6362Z" fill="#A8A8BD"/>
<path d="M47.1768 15.0625C47.2734 16.5967 46.9718 18.0687 46.4699 19.5141C46.0481 20.7396 45.2411 21.6599 44.1901 22.42C42.1236 23.9173 39.7531 24.5312 37.2495 24.7823C36.6192 24.8456 35.9983 24.7512 35.3774 24.6671C35.2207 24.6464 35.0605 24.6095 34.9921 24.4448C34.9061 24.2363 35.064 24.1258 35.1971 24.0152C36.1491 23.2193 37.0822 22.4085 37.8716 21.4468C38.561 20.6381 39.136 19.7425 39.5811 18.7839C39.6476 18.6246 39.7531 18.4836 39.8882 18.3734C40.0234 18.2632 40.1841 18.187 40.3564 18.1516C41.888 17.7554 43.171 16.9664 44.2856 15.8676C45.2093 14.9577 45.8879 13.9039 46.4463 12.7579C46.5194 12.6081 46.5641 12.3778 46.7668 12.387C47.0224 12.3985 46.993 12.6623 47.0437 12.8339C47.2628 13.5676 47.1367 14.3208 47.1768 15.0625Z" fill="#A8A8BD"/>
<path d="M57.7331 9.25461C58.6215 9.24079 59.4874 9.38936 60.3522 9.56674C60.7775 9.65427 60.9672 9.84086 60.787 10.2924C60.6375 10.6872 60.5117 11.0903 60.4099 11.4994C60.2921 11.9302 60.0624 12.0753 59.5911 11.9797C58.7664 11.8035 57.9264 11.6964 57.0899 11.944C56.3547 12.1628 55.8646 12.6097 55.7479 13.3768C55.636 14.1082 55.9117 14.6748 56.5267 15.1044C57.3691 15.701 58.3482 15.7621 59.3272 15.8128C60.012 15.8424 60.6928 15.9303 61.3619 16.0754C61.7908 16.1733 61.9333 16.4117 61.8049 16.839C61.6518 17.3527 61.5269 17.8756 61.4161 18.3996C61.3372 18.7739 61.1534 18.9225 60.7563 18.8396C58.2739 18.3155 55.8492 18.6519 53.4517 19.3233C52.6481 19.5479 52.6152 19.5364 52.3819 18.7636C52.2488 18.3236 52.1463 17.8744 51.9919 17.4391C51.8376 17.0037 52.0119 16.8079 52.4208 16.6731C53.4399 16.338 53.4423 16.3276 53.0888 15.3163C52.5704 13.8352 52.6435 12.3966 53.5342 11.0813C54.4472 9.73145 55.8563 9.2834 57.4433 9.25C57.5376 9.25461 57.6354 9.25461 57.7331 9.25461Z" fill="#A8A8BD"/>
<path d="M45.9951 8.42002C45.8467 10.0544 45.1126 11.5713 43.799 12.8244C43.224 13.3726 42.6126 13.8713 41.8809 14.2065C41.6594 14.3102 41.4096 14.5048 41.174 14.3078C40.9619 14.1316 41.1069 13.8875 41.1516 13.664C41.5121 11.873 41.6653 10.0659 41.4238 8.25072C41.2036 6.47638 40.5213 4.78696 39.4421 3.34419C39.0792 2.8616 39.1923 2.62549 39.7814 2.62894C43.2653 2.65313 45.8184 4.5547 45.9951 8.42002Z" fill="#A8A8BD"/>
<path d="M100.972 6.49948C100.972 7.52685 100.139 8.31234 99.0411 8.32616C98.0102 8.33883 97.0724 7.45312 97.0936 6.48334C97.116 5.44675 98.0196 4.56334 99.0458 4.57831C99.3015 4.58042 99.5542 4.63183 99.7895 4.72959C100.025 4.82735 100.238 4.96954 100.417 5.14801C100.596 5.32648 100.737 5.53773 100.832 5.76964C100.928 6.00155 100.975 6.24958 100.972 6.49948Z" fill="#A8A8BD"/>
</g>
<defs>
<clipPath id="clip0_49_4156">
<rect width="101" height="43" fill="white" transform="translate(0.931152)"/>
</clipPath>
</defs>
</svg>
