<svg width="123" height="47" viewBox="0 0 123 47" fill="none" xmlns="http://www.w3.org/2000/svg">
<path d="M39.9346 12.2594H41.9752C43.7859 12.2594 45.5965 12.2485 47.4072 12.2594C49.2721 12.2757 49.9801 12.9963 49.9982 14.8468C50.0163 16.7878 50.0163 16.7878 51.9048 16.7951C53.2465 16.7951 53.2465 16.7951 53.2483 15.4081C53.2483 14.7454 53.2483 14.0809 53.2483 13.4164C53.2628 12.6922 53.6448 12.33 54.3691 12.263C56.4785 12.082 56.6523 12.2431 56.6722 14.3344C56.6722 15.113 56.3481 16.0871 56.8225 16.6212C57.2969 17.1554 58.2999 16.7063 59.0677 16.7878C59.3954 16.8222 59.7304 16.7878 60.0617 16.7878C61.3853 16.8005 61.3853 16.8005 61.3871 15.4244C61.3871 14.7907 61.3871 14.157 61.3871 13.5232C61.3871 13.3132 61.3563 13.0688 61.4468 12.8986C62.0244 11.8285 63.0457 12.3554 63.8858 12.2811C64.5123 12.2268 64.8038 12.6433 64.8038 13.2589C64.8038 14.8885 64.8273 16.518 64.8038 18.1476C64.808 18.622 64.6388 19.0815 64.3281 19.4399C64.0173 19.7984 63.5864 20.031 63.1163 20.094C62.6096 20.1723 62.097 20.2062 61.5844 20.1954C51.9591 20.1954 42.3337 20.1954 32.7084 20.1954C31.3848 20.1954 31.3848 20.1954 31.3196 21.5299C31.2237 23.5216 30.5429 24.1788 28.5783 24.1879C27.4014 24.1879 26.2245 24.1716 25.0494 24.1879C24.2509 24.2006 23.9141 23.8457 23.8851 23.0472C23.8073 20.8201 23.8489 20.7567 26.0579 20.7567C26.4508 20.7567 26.8437 20.7712 27.2348 20.7567C27.4811 20.7422 27.8921 20.84 27.8704 20.4634C27.8522 20.1194 27.4467 20.2135 27.1932 20.2063C26.621 20.1882 26.047 20.2063 25.4731 20.1954C23.8055 20.161 23.1029 19.5165 23.0178 17.8416C22.9653 16.7896 22.9708 15.7286 23.0178 14.6748C23.0885 13.0452 23.8272 12.321 25.455 12.2594C26.5685 12.2178 27.6875 12.2232 28.8028 12.2594C30.5211 12.3083 31.2418 13.0525 31.316 14.778C31.4011 16.786 31.4011 16.7806 33.3946 16.786C37.6194 16.8005 41.8443 16.821 46.0691 16.8476C46.4819 16.8476 46.7064 16.7498 46.7173 16.317C46.73 15.9169 46.6521 15.5819 46.1741 15.5511C45.9025 15.5349 45.6309 15.5349 45.3593 15.5349C41.9493 15.5349 38.5392 15.5349 35.1292 15.5349C33.9994 15.5349 33.9722 15.3991 33.8436 14.2982C33.6626 12.7573 34.2474 11.7959 35.5511 10.9684C38.2978 9.22296 40.945 7.31999 43.6356 5.48581C44.55 4.86476 44.7401 4.91727 45.3159 5.8932C46.3008 7.56985 46.3081 7.58071 44.664 8.72322C43.0815 9.82228 41.4827 10.896 39.8912 11.9824L39.9346 12.2594Z" fill="#A8A8BD"/>
<path d="M114.04 20.7959C114.04 24.6038 114.028 28.4139 114.053 32.2205C114.053 32.8106 113.865 33.1643 113.357 33.4462C111.817 34.3024 110.297 35.1961 108.765 36.0682C108.329 36.3172 107.419 36.1034 107.115 35.6975C106.861 35.3564 107.142 35.22 107.369 35.0892C108.305 34.5514 109.251 34.0261 110.188 33.4894C110.83 33.1222 111.458 32.7322 112.105 32.3752C112.216 32.3217 112.308 32.2357 112.369 32.1287C112.43 32.0217 112.457 31.8987 112.447 31.776C112.447 31.6429 112.447 31.5099 112.447 31.378C112.447 24.2922 112.451 17.2049 112.459 10.1161C112.459 9.52938 112.278 9.18714 111.769 8.89948C108.172 6.86955 104.586 4.81991 101.009 2.75057C100.553 2.48451 100.193 2.59025 99.7924 2.81424C96.9981 4.37648 94.2007 5.93569 91.4003 7.49187C90.7384 7.86139 90.0821 8.24229 89.4088 8.58908C89.0101 8.79487 88.8471 9.06207 88.8528 9.52824C88.8768 11.7249 88.8642 13.9228 88.8619 16.1229C88.8579 16.45 88.7405 16.7657 88.5297 17.0162C88.3189 17.2668 88.0277 17.4369 87.7056 17.4975C87.4982 17.5305 87.3638 17.4543 87.3182 17.2621C87.283 17.0954 87.2666 16.9254 87.2692 16.755C87.2692 14.1217 87.2795 11.4884 87.2578 8.85514C87.2578 8.24002 87.513 7.87959 88.0303 7.59306C91.9107 5.44754 95.7923 3.30201 99.6511 1.11783C100.263 0.776731 100.714 0.785828 101.309 1.13261C105.321 3.47029 109.346 5.78599 113.385 8.0797C113.876 8.36054 114.059 8.69596 114.055 9.25991C114.032 13.103 114.04 16.9495 114.04 20.7959Z" fill="#A8A8BD"/>
<path d="M121.231 31.7887C121.248 29.4675 121.196 27.1417 121.345 24.825C121.378 24.2934 121.156 24.0134 120.705 23.7595C118.745 22.6567 116.805 21.5199 114.862 20.3876C114.458 20.1519 114.215 19.1748 114.46 18.7781C114.655 18.4631 114.9 18.6648 115.099 18.7781C115.972 19.2667 116.837 19.771 117.705 20.272C119.243 21.1595 120.772 22.0651 122.324 22.9276C122.746 23.1622 122.95 23.4558 122.93 23.9148C122.725 28.4825 122.869 33.0536 122.816 37.6225C122.816 38.12 122.529 38.3569 122.144 38.5734C119.126 40.2622 116.111 41.9567 113.099 43.6568C111.997 44.2791 110.893 44.9036 109.804 45.553C109.31 45.8511 108.916 45.8353 108.406 45.5383C104.862 43.4766 101.297 41.4512 97.7424 39.4099C94.581 37.5964 91.4204 35.7784 88.2605 33.9558C88.1162 33.8832 87.9962 33.77 87.9155 33.6303C87.8348 33.4905 87.7967 33.3303 87.8061 33.1692C87.8061 31.3002 87.8061 29.4289 87.8061 27.5599C87.8061 27.0623 88.5127 26.3936 88.9967 26.4072C89.375 26.4186 89.3909 26.6996 89.3921 26.9739C89.3978 27.7855 89.3921 28.5981 89.3921 29.4097C89.3921 30.3538 89.4114 31.2991 89.3841 32.2432C89.3716 32.6717 89.5102 32.9312 89.892 33.15C93.0605 34.9544 96.2166 36.7769 99.3818 38.5904C102.449 40.3472 105.524 42.087 108.584 43.8495C108.959 44.066 109.249 44.0705 109.628 43.8495C113.229 41.8093 116.831 39.7692 120.454 37.7709C121.037 37.4479 121.238 37.0705 121.222 36.4267C121.204 34.8898 121.231 33.3381 121.231 31.7887Z" fill="#A8A8BD"/>
<path d="M78.941 30.8099C78.941 28.4697 78.9558 26.1284 78.9297 23.787C78.9297 23.2569 79.1237 22.9613 79.5672 22.7098C83.0961 20.7056 86.6197 18.6924 90.1379 16.6701C93.2803 14.8668 96.4261 13.068 99.5538 11.233C100.087 10.9204 100.486 10.9407 100.999 11.2477C102.407 12.0912 103.834 12.9049 105.278 13.6887C105.92 14.0365 106.158 14.5066 106.072 15.2077C106.011 15.7152 105.87 15.8183 105.427 15.5657C104.147 14.8385 102.831 14.1645 101.612 13.3478C100.659 12.7101 99.9202 12.7361 98.9174 13.3319C94.5373 15.9372 90.0982 18.4383 85.6785 20.9756C84.1231 21.8682 82.569 22.7619 81.0023 23.6341C80.8493 23.7041 80.7214 23.8192 80.636 23.9641C80.5506 24.1089 80.5117 24.2764 80.5247 24.444C80.5323 28.7114 80.5323 32.978 80.5247 37.2438C80.5137 37.4032 80.5499 37.5622 80.6288 37.7012C80.7077 37.8402 80.8257 37.9529 80.9683 38.0254C83.464 39.4828 85.9538 40.9456 88.4374 42.4136C89.4304 42.9981 90.4185 43.5897 91.4017 44.1886C91.733 44.3902 92.0166 44.3687 92.3501 44.175C94.307 43.0355 96.2741 41.9095 98.239 40.7836C98.6769 40.5333 99.6309 40.7666 99.8964 41.1868C100.072 41.4655 99.8964 41.5799 99.6695 41.7056C98.225 42.5257 96.7839 43.3515 95.3462 44.1829C94.3002 44.7867 93.2497 45.3847 92.223 46.0179C91.8975 46.2196 91.6728 46.1312 91.396 45.9636C89.075 44.5862 86.7513 43.2125 84.4249 41.8427C82.7346 40.8436 81.0534 39.8287 79.3517 38.85C78.958 38.6235 78.9376 38.3109 78.9376 37.9438C78.9399 35.5666 78.941 33.1887 78.941 30.8099Z" fill="#A8A8BD"/>
<path d="M112.054 20.7687C112.054 24.225 112.044 27.6823 112.064 31.1385C112.064 31.7083 111.873 32.0228 111.37 32.2986C109.841 33.1396 108.347 34.0432 106.838 34.9195C106.281 35.2432 105.477 35.0825 105.115 34.5777C104.865 34.2358 105.159 34.1002 105.383 33.9703C106.627 33.2433 107.845 32.4616 109.135 31.8257C110.117 31.3425 110.522 30.7898 110.503 29.5979C110.415 23.6176 110.434 17.6327 110.491 11.6513C110.5 10.7397 110.242 10.2759 109.465 9.84511C106.593 8.25773 103.766 6.5997 100.917 4.95763C100.766 4.86 100.59 4.80806 100.41 4.80806C100.23 4.80806 100.054 4.86 99.9026 4.95763C97.4977 6.29089 95.0905 7.62035 92.681 8.94602C92.1989 9.21153 91.7179 9.47932 91.2335 9.738C90.936 9.89639 90.8197 10.1049 90.8266 10.4662C90.8551 11.9476 90.8437 13.429 90.8402 14.9104C90.8486 15.2439 90.737 15.5693 90.5258 15.8275C90.3145 16.0858 90.0177 16.2597 89.6891 16.3177C89.2731 16.4043 89.2548 16.116 89.2525 15.8402C89.2468 14.7007 89.2525 13.5612 89.2525 12.4216C89.2525 11.4906 89.2525 10.5596 89.2525 9.62974C89.2405 9.46953 89.2777 9.30946 89.3592 9.17098C89.4407 9.0325 89.5625 8.9222 89.7084 8.85485C93.0784 6.99209 96.4434 5.11754 99.8035 3.23123C100.225 2.9942 100.577 2.9623 101.013 3.21527C104.541 5.26189 108.074 7.29672 111.613 9.31979C112.013 9.54769 112.057 9.88272 112.056 10.2827C112.055 13.7788 112.054 17.2742 112.054 20.7687Z" fill="#A8A8BD"/>
<path d="M120.938 29.7639C120.921 32.0291 120.938 34.2954 120.844 36.5595C120.826 36.9664 120.68 37.2304 120.326 37.4293C116.83 39.4065 113.329 41.3734 109.858 43.394C109.197 43.778 108.773 43.5506 108.223 43.2283C105.133 41.4202 102.021 39.6499 98.921 37.8567C96.0343 36.1904 93.1534 34.5114 90.2668 32.8451C90.1214 32.7752 89.9995 32.6641 89.9161 32.5254C89.8327 32.3867 89.7914 32.2265 89.7974 32.0645C89.7974 30.1605 89.7974 28.2553 89.8043 26.3501C89.8043 25.8689 90.4861 25.222 90.9646 25.2209C91.3828 25.2209 91.3817 25.5329 91.3817 25.8243C91.3817 27.405 91.4533 28.9901 91.3578 30.565C91.3033 31.4794 91.6658 31.9102 92.4034 32.3274C96.5242 34.6589 100.619 37.0384 104.723 39.4019C106.052 40.1676 107.386 40.9254 108.71 41.7025C108.841 41.7944 108.997 41.8448 109.157 41.8475C109.316 41.8501 109.473 41.8048 109.607 41.7174C112.702 39.9558 115.802 38.2034 118.906 36.4601C119.193 36.2989 119.224 36.0795 119.247 35.8029C119.434 33.2737 119.293 30.7399 119.35 28.2084C119.369 27.3912 119.292 26.5695 119.433 25.7569C119.516 25.286 119.229 25.0712 118.878 24.8757C117.561 24.1252 116.249 23.366 114.944 22.5979C114.503 22.3397 114.262 21.3728 114.5 20.9408C114.63 20.7122 114.811 20.7682 114.985 20.8688C116.854 21.9484 118.723 23.03 120.592 24.1134C120.926 24.3066 120.94 24.63 120.94 24.9614L120.938 29.7639Z" fill="#A8A8BD"/>
<path d="M80.9323 30.8771C80.9323 28.888 80.9459 26.8988 80.9221 24.9119C80.9153 24.3936 81.0843 24.0822 81.5404 23.823C85.398 21.6308 89.2499 19.4261 93.0961 17.2089C95.3388 15.9206 97.5754 14.6199 99.806 13.3067C99.9205 13.2258 100.057 13.1816 100.197 13.1797C100.337 13.1779 100.474 13.2186 100.591 13.2965C102.241 14.2536 103.901 15.1947 105.547 16.1574C106.001 16.4234 106.228 17.3089 106.001 17.7715C105.854 18.0636 105.646 17.9738 105.433 17.8511C104.795 17.4828 104.156 17.116 103.517 16.7508C102.582 16.2154 101.638 15.6971 100.719 15.1367C100.343 14.9094 100.048 14.9264 99.6766 15.1435C97.0368 16.6894 94.3895 18.2243 91.7346 19.7481C88.886 21.3857 86.0318 23.0149 83.1719 24.6357C82.6319 24.9404 82.4243 25.3109 82.4299 25.9452C82.4617 29.221 82.4617 32.4968 82.4299 35.7727C82.4243 36.4126 82.6069 36.7957 83.1833 37.131C85.9063 38.7132 88.61 40.3443 91.3114 41.972C91.7074 42.2107 92.0216 42.1766 92.4074 41.9436C93.6611 41.1763 94.9432 40.4489 96.2184 39.7123C96.6984 39.435 97.5096 39.6384 97.8431 40.1045C98.0598 40.4057 97.8431 40.5534 97.6253 40.683C96.6813 41.2377 95.7359 41.789 94.7889 42.3368C93.9232 42.8392 93.0462 43.3223 92.193 43.8452C91.898 44.027 91.6824 43.9759 91.4158 43.8168C88.5786 42.1216 85.7387 40.4307 82.8962 38.7439C82.4095 38.454 81.9353 38.1415 81.436 37.8732C81.0526 37.6675 80.9232 37.3822 80.9266 36.9548C80.9402 34.9247 80.9323 32.9026 80.9323 30.8771Z" fill="#A8A8BD"/>
<path d="M110.064 20.8436C110.064 23.895 110.052 26.9464 110.073 29.9978C110.073 30.603 109.871 30.966 109.332 31.2618C107.777 32.1151 106.252 33.0264 104.713 33.9104C104.307 34.1437 103.297 33.8843 103.045 33.4895C102.861 33.2005 103.069 33.0958 103.281 32.9752C104.774 32.1231 106.252 31.2436 107.761 30.4221C108.299 30.1286 108.492 29.7759 108.489 29.1706C108.469 23.6178 108.469 18.0645 108.489 12.5109C108.489 11.9534 108.335 11.6121 107.83 11.3299C105.54 10.0466 103.269 8.7302 101 7.40816C100.578 7.16241 100.219 7.14876 99.7853 7.3911C97.6231 8.59709 95.4531 9.78943 93.2751 10.9681C92.9552 11.1422 92.8066 11.364 92.8146 11.7349C92.8327 12.5109 92.8248 13.2891 92.8146 14.0662C92.8146 14.6054 92.109 15.3177 91.5849 15.3302C91.3319 15.337 91.2446 15.172 91.2446 14.9672C91.2401 13.5458 91.2419 12.1248 91.2503 10.7042C91.2503 10.3435 91.5543 10.2036 91.8174 10.0568C93.9455 8.87128 96.0744 7.68767 98.2039 6.50594C98.8154 6.16463 99.4359 5.84492 100.043 5.49905C100.153 5.42732 100.282 5.38963 100.414 5.39064C100.546 5.39166 100.674 5.43132 100.783 5.50474C103.712 7.19692 106.642 8.88418 109.574 10.5665C109.993 10.8077 110.059 11.1911 110.058 11.6371C110.057 14.7067 110.064 17.7774 110.064 20.8436Z" fill="#A8A8BD"/>
<path d="M117.311 30.5167C117.311 29.3272 117.282 28.2157 117.323 27.1065C117.345 26.5518 117.122 26.2412 116.653 25.9961C116.019 25.6572 115.402 25.2844 114.791 24.915C114.387 24.6722 114.152 23.6928 114.393 23.2974C114.549 23.0399 114.75 23.154 114.932 23.2568C115.706 23.6928 116.437 24.235 117.256 24.5536C118.674 25.1037 119.019 26.0525 118.934 27.4905C118.779 30.0976 118.82 32.716 118.792 35.3299C118.792 35.7558 118.62 36.0167 118.242 36.2257C115.318 37.8456 112.398 39.4771 109.484 41.1203C109.158 41.3044 108.906 41.2795 108.592 41.0999C105.05 39.0742 101.504 37.0541 97.9551 35.0396C96.0009 33.927 94.0569 32.7974 92.1004 31.6892C91.9472 31.614 91.8192 31.4963 91.732 31.3504C91.6448 31.2044 91.6021 31.0365 91.609 30.8669C91.609 29.0415 91.601 27.216 91.609 25.3906C91.609 24.8348 92.254 24.1864 92.8 24.148C93.2049 24.1198 93.1879 24.4248 93.189 24.6891C93.189 25.8752 93.189 27.0613 93.189 28.2462C93.189 28.6416 93.2459 29.0471 93.1776 29.43C93.0218 30.3089 93.4836 30.7505 94.1854 31.1425C97.582 33.0436 100.963 34.9707 104.347 36.8944C105.744 37.6874 107.135 38.4894 108.521 39.3005C108.847 39.4914 109.146 39.5456 109.48 39.3581C111.904 38.0026 114.326 36.6403 116.76 35.2915C117.102 35.104 117.215 34.8837 117.246 34.4918C117.342 33.1453 117.262 31.7909 117.311 30.5167Z" fill="#A8A8BD"/>
<path d="M82.9221 30.7806C82.9221 29.1519 82.9347 27.5221 82.9141 25.8934C82.9141 25.3933 83.1024 25.1126 83.5395 24.8637C87.2368 22.7679 90.9265 20.6574 94.6085 18.532C96.3362 17.5394 98.0605 16.5419 99.7813 15.5395C100.153 15.3224 100.48 15.269 100.887 15.5099C102.47 16.4476 104.073 17.3511 105.67 18.2683C106.152 18.5457 106.438 19.4867 106.166 19.9516C105.979 20.2721 105.752 20.0959 105.536 19.972C104.303 19.2651 103.026 18.6195 101.845 17.833C100.838 17.1636 100.057 17.0954 98.9437 17.7842C95.7029 19.7879 92.3514 21.6143 89.042 23.5101C87.6727 24.292 86.3136 25.0808 84.9339 25.8468C84.7979 25.9119 84.6848 26.0167 84.6098 26.1472C84.5348 26.2777 84.5014 26.4278 84.514 26.5776C84.5201 29.3811 84.5201 32.1846 84.514 34.9881C84.514 35.2915 84.5859 35.5325 84.8723 35.7029C87.0405 36.9872 89.2087 38.2727 91.3768 39.5774C91.7956 39.8309 92.1288 39.8047 92.5294 39.5467C93.1513 39.1467 93.8029 38.7932 94.4488 38.4307C94.8128 38.2261 95.8684 38.5523 96.0646 38.9114C96.1867 39.1387 96.0726 39.274 95.8935 39.3785C94.6473 40.1021 93.3997 40.8242 92.1505 41.5448C91.8915 41.6948 91.6826 41.5368 91.4658 41.4084C89.2824 40.1059 87.0987 38.805 84.9145 37.5055C84.425 37.2146 83.9423 36.9122 83.4436 36.6395C83.0693 36.4349 82.9107 36.1553 82.9141 35.7234C82.929 34.0754 82.9221 32.4286 82.9221 30.7806Z" fill="#A8A8BD"/>
<path d="M108.068 20.8373C108.068 23.522 108.057 26.2066 108.077 28.8902C108.077 29.4774 107.873 29.8292 107.357 30.1125C105.835 30.9511 104.341 31.8398 102.836 32.7092C102.564 32.8801 102.239 32.9458 101.922 32.8944C101.605 32.843 101.318 32.6778 101.112 32.4293C100.878 32.1586 101.009 32.0078 101.271 31.8581C102.565 31.1156 103.821 30.2976 105.154 29.6339C106.149 29.1381 106.544 28.5326 106.524 27.3548C106.441 22.7691 106.48 18.179 106.502 13.5911C106.502 12.997 106.314 12.6589 105.803 12.3733C104.154 11.4593 102.531 10.4871 100.901 9.53324C100.741 9.43172 100.556 9.3772 100.367 9.37579C100.178 9.37438 99.9921 9.42613 99.8304 9.52524C98.3405 10.3421 96.854 11.1657 95.3561 11.9666C94.9305 12.195 94.6893 12.4658 94.7221 12.9879C94.7505 13.4197 93.9296 14.1417 93.5017 14.1177C93.2651 14.104 93.239 13.9258 93.2379 13.7521C93.23 13.0861 93.2379 12.4201 93.2379 11.7541C93.2379 11.4685 93.3953 11.3051 93.6285 11.1772C95.7622 10.0043 97.8952 8.82875 100.027 7.65055C100.288 7.50661 100.521 7.55116 100.772 7.69739C102.974 8.98298 105.18 10.2613 107.391 11.5324C107.895 11.8215 108.086 12.203 108.082 12.7891C108.057 15.4692 108.068 18.1527 108.068 20.8373Z" fill="#A8A8BD"/>
<path d="M84.9148 30.8625C84.9148 29.6682 84.933 28.4739 84.9068 27.2818C84.8943 26.6881 85.0902 26.3252 85.6357 26.0147C90.3615 23.3281 95.0741 20.619 99.7733 17.8877C100.222 17.6283 100.571 17.6454 101.017 17.9195C102.54 18.842 104.092 19.7076 105.639 20.5959C106.152 20.8917 106.426 21.7334 106.181 22.2668C106.036 22.5819 105.823 22.4591 105.617 22.3419C104.334 21.6105 103.044 20.8894 101.769 20.1455C100.024 19.1218 100.617 19.2253 99.0022 20.1262C96.1412 21.7186 93.3235 23.3952 90.4853 25.0331C89.3213 25.7053 88.1573 26.3798 86.9797 27.0282C86.8255 27.0974 86.6966 27.2127 86.6107 27.3582C86.5249 27.5036 86.4862 27.672 86.5002 27.8403C86.5116 29.8285 86.5116 31.8176 86.5002 33.8073C86.4877 33.9868 86.5271 34.166 86.6137 34.3237C86.7004 34.4814 86.8305 34.6109 86.9888 34.6968C88.4983 35.6068 90.0035 36.5235 91.5047 37.4471C91.6391 37.5373 91.7971 37.5861 91.959 37.5875C92.121 37.589 92.2798 37.5429 92.4158 37.4551C92.9226 37.1821 93.737 37.3937 94.098 37.8487C94.2483 38.0375 94.1811 38.1592 94.0103 38.2627C93.3941 38.6358 92.7803 39.0123 92.1573 39.3717C91.9374 39.4968 91.7302 39.4035 91.5206 39.275C89.5176 38.0526 87.5093 36.8367 85.4956 35.6272C85.0936 35.3872 84.9068 35.0835 84.9125 34.6126C84.9262 33.3626 84.9159 32.1125 84.9148 30.8625Z" fill="#A8A8BD"/>
<path d="M93.7945 26.9189C93.7945 25.9903 93.7877 25.0606 93.7945 24.132C93.7945 23.6165 94.4624 22.9543 94.9586 22.9531C95.2535 22.9531 95.327 23.1193 95.3225 23.3992C95.2999 25.1425 95.3078 26.8859 95.2671 28.6337C95.2547 29.1777 95.4468 29.4895 95.917 29.7603C100.163 32.2001 104.4 34.6542 108.629 37.1228C108.936 37.3015 109.23 37.3322 109.534 37.1592C111.289 36.1692 113.037 35.169 114.799 34.1937C115.147 34.0014 115.272 33.7511 115.274 33.3733C115.289 31.6311 115.412 29.8912 115.387 28.1467C115.387 27.6915 115.252 27.4002 114.861 27.176C114.403 26.9132 114.16 25.9687 114.404 25.526C114.54 25.2779 114.743 25.3212 114.936 25.4338C115.501 25.7684 116.073 26.1041 116.631 26.458C116.894 26.6253 116.957 26.9132 116.953 27.209C116.92 29.5964 116.886 31.9835 116.851 34.3701C116.851 34.7195 116.654 34.9175 116.37 35.0768C114.071 36.3664 111.773 37.661 109.476 38.9606C109.191 39.1222 108.956 39.0914 108.685 38.9333C105.92 37.3189 103.152 35.7083 100.381 34.1016C98.3469 32.9204 96.3046 31.7479 94.2544 30.5842C93.9154 30.3907 93.7719 30.1506 93.7775 29.7671C93.8024 28.8169 93.7933 27.869 93.7945 26.9189Z" fill="#A8A8BD"/>
<path d="M47.4774 38.4918C47.4774 39.6977 47.4919 40.9054 47.4774 42.1131C47.4611 43.1597 47.041 43.7536 46.0035 43.8296C43.4194 44.0366 40.8225 44.03 38.2395 43.8097C37.345 43.7282 36.8109 43.0854 36.791 42.1294C36.7572 39.7152 36.7572 37.301 36.791 34.8869C36.8036 33.958 37.45 33.2573 38.3662 33.0328C38.6578 32.9552 38.9573 32.9115 39.2589 32.9024C41.2796 32.8915 43.3002 32.8644 45.3209 32.9024C46.9396 32.9386 47.4665 33.5271 47.481 35.1349V38.4828L47.4774 38.4918ZM44.5351 38.4104V38.146C44.5043 35.6854 44.8483 36.0058 42.3623 35.9913C39.8365 35.9769 39.8274 35.9913 39.8419 38.5262C39.8618 41.206 39.4798 40.8439 42.1052 40.862C44.5351 40.862 44.5351 40.862 44.5351 38.4104Z" fill="#A8A8BD"/>
<path d="M0.00723858 38.8035C0.00723858 37.5071 0.00723858 36.2107 0.00723858 34.9143C0.0199131 33.7392 0.474387 33.1037 1.60604 33.0077C4.00743 32.7844 6.42458 32.7892 8.82505 33.0222C9.89695 33.1308 10.308 33.6342 10.3188 34.7097C10.346 37.4528 10.3188 40.1959 10.3369 42.939C10.3369 43.6398 9.99834 43.924 9.34108 43.9186C9.06949 43.9186 8.79789 43.9295 8.52629 43.9186C7.47974 43.8806 7.2679 43.6705 7.25885 42.6149C7.24798 40.7735 7.41275 40.8568 5.47899 40.8586H5.20739C3.19034 40.8586 3.17404 40.8586 3.07084 42.8811C3.03462 43.6054 2.7232 43.9385 2.01162 43.9186C1.92109 43.9186 1.83056 43.9186 1.74183 43.9186C0.0706141 43.944 0 43.8751 0 42.2365L0.00723858 38.8035ZM5.13678 35.9826C4.68774 35.9826 4.23146 35.9952 3.78785 35.9826C3.27363 35.9663 2.99661 36.1365 3.05274 36.7068C3.10343 37.2192 3.031 37.7715 3.80596 37.7624C4.64428 37.7516 5.48442 37.7461 6.32275 37.7624C6.93656 37.7805 7.26428 37.594 7.27333 36.9006C7.28239 36.2071 6.98364 35.9246 6.30465 35.9699C5.91536 36.0025 5.52426 35.9808 5.13497 35.9826H5.13678Z" fill="#A8A8BD"/>
<path d="M48.7112 38.383C48.7112 36.9345 48.7257 35.4859 48.7112 34.0374C48.7003 33.2317 49.0733 32.8895 49.8645 32.8931C52.0373 32.9076 54.2101 32.8678 56.3828 32.913C58.0342 32.9456 58.6588 33.6174 58.6842 35.2578C58.6999 36.4045 58.6999 37.5513 58.6842 38.698C58.6661 39.5635 58.3926 40.3095 57.5054 40.6553C57.0437 40.8364 57.1089 41.0844 57.3244 41.423C57.6557 41.9264 57.9653 42.4442 58.2623 42.9675C58.5592 43.4908 58.3546 43.7624 57.8241 43.8927C56.2941 44.2657 55.3073 43.8927 54.4581 42.5746C54.2119 42.1962 53.9838 41.8051 53.7665 41.4085C53.4388 40.8147 52.8955 40.8128 52.3451 40.907C51.7947 41.0011 51.8345 41.4918 51.8164 41.9119C51.8164 42.093 51.8164 42.274 51.8164 42.4551C51.8037 43.7877 51.6498 43.9362 50.2792 43.929C48.9085 43.9217 48.722 43.7479 48.7184 42.3646C48.7136 41.038 48.7112 39.7108 48.7112 38.383ZM53.7429 35.9911C53.3537 35.9911 52.9625 36.0038 52.5714 35.9911C51.8363 35.964 51.8979 36.4854 51.8472 36.9707C51.7965 37.5139 52.0283 37.7619 52.5606 37.7655C53.2504 37.7655 53.9421 37.7547 54.6338 37.7655C55.2602 37.7818 55.5771 37.5446 55.5789 36.8747C55.5807 36.2048 55.2693 35.9513 54.6392 35.9803C54.3459 36.0002 54.0435 35.9893 53.7429 35.9911Z" fill="#A8A8BD"/>
<path d="M59.9257 38.3651C59.9257 36.9166 59.9493 35.4681 59.9149 34.0196C59.8967 33.2211 60.1864 32.8644 61.0175 32.8752C63.1251 32.906 65.2345 32.8589 67.3421 32.897C69.2215 32.9314 69.7412 33.4963 69.7466 35.3631C69.7466 36.4168 69.7466 37.4724 69.7466 38.5262C69.7376 40.1649 69.1038 40.8131 67.4471 40.8475C66.3336 40.871 65.2164 40.8891 64.1047 40.8475C63.2881 40.8131 62.906 41.1028 63.0183 41.9339C63.021 41.964 63.021 41.9943 63.0183 42.0244C63.0002 43.7644 62.3284 44.2714 60.6029 43.8876C60.0217 43.7572 59.9348 43.3643 59.9366 42.8772C59.9318 41.3756 59.9281 39.8716 59.9257 38.3651ZM64.8706 37.7676V37.7531C65.2888 37.7531 65.7089 37.7658 66.138 37.7531C66.7699 37.7296 66.7953 37.2769 66.8062 36.7971C66.817 36.3173 66.6704 35.9805 66.1054 35.9877C65.3812 35.9877 64.6678 36.004 63.949 35.9787C63.3279 35.957 63.0147 36.1597 63.0056 36.846C62.9966 37.5702 63.308 37.8201 63.9815 37.773C64.2694 37.7495 64.57 37.7676 64.8706 37.7676Z" fill="#A8A8BD"/>
<path d="M11.7503 38.3464C11.7503 36.8708 11.7666 35.3933 11.7503 33.9158C11.7394 33.1916 12.0599 32.8856 12.7841 32.891C14.9225 32.9091 17.0645 32.8693 19.2029 32.9091C21.0135 32.9435 21.5676 33.532 21.5784 35.3263C21.5784 36.4127 21.5784 37.4991 21.5784 38.5854C21.5621 40.0738 20.894 40.7818 19.364 40.8487C18.1907 40.9013 17.0102 40.894 15.8369 40.8596C15.0891 40.8379 14.774 41.1403 14.8483 41.8736C14.8483 41.9333 14.8483 41.9949 14.8483 42.0546C14.832 43.7729 14.124 44.298 12.4112 43.8942C11.8281 43.7566 11.7575 43.351 11.7575 42.873C11.7539 41.363 11.7515 39.8541 11.7503 38.3464ZM16.6969 37.767C17.088 37.767 17.4773 37.767 17.8666 37.767C18.7267 37.7852 18.4496 37.1243 18.5257 36.6807C18.6162 36.1375 18.2885 35.9999 17.8376 35.998C17.1478 35.998 16.4579 35.9818 15.7681 35.998C15.3118 36.0089 14.7523 35.8785 14.7921 36.6752C14.8247 37.3488 14.9352 37.8775 15.7989 37.7815C16.0977 37.7604 16.3975 37.7556 16.6969 37.767Z" fill="#A8A8BD"/>
<path d="M6.93393 20.2036C5.45826 20.2036 3.98258 20.2326 2.50691 20.2036C0.741538 20.162 0.0136635 19.387 0.00823159 17.6144C0.00823159 16.2274 0.0245273 14.8423 0.00823159 13.4499C-0.00625352 12.6116 0.354063 12.264 1.19601 12.2458C3.36878 12.1988 3.44301 12.2458 3.44301 14.4041C3.44301 16.796 3.44302 16.796 5.81495 16.796C7.0824 16.796 8.34985 16.7435 9.6173 16.8195C10.3959 16.8666 10.5498 16.5407 10.5226 15.8798C10.4936 15.0379 10.5226 14.1941 10.5226 13.3449C10.5226 12.5881 10.8847 12.2784 11.6289 12.244C13.8488 12.1463 13.9538 12.2296 13.9538 14.4168C13.9538 15.5032 13.9538 16.5896 13.9538 17.676C13.9339 19.3906 13.1951 20.1638 11.475 20.2108C9.94682 20.2326 8.44038 20.2036 6.93393 20.2036Z" fill="#A8A8BD"/>
<path d="M26.8041 38.3792C26.8041 37.2331 26.7951 36.0869 26.8041 34.939C26.8186 33.6082 27.1934 33.1084 28.5315 32.9817C30.7241 32.7735 32.9313 32.9129 35.1312 32.9129C35.5495 32.9129 35.8283 33.1392 35.8464 33.5719C35.8682 34.1441 35.8772 34.7181 35.8464 35.2903C35.812 35.8932 35.3666 35.9819 34.8741 35.9819C33.5469 35.9819 32.2179 36.0163 30.8907 35.971C30.0814 35.9439 29.8261 36.2789 29.8605 37.0448C29.9039 37.9772 29.9003 38.9152 29.8605 39.8494C29.8297 40.5737 30.0959 40.8887 30.8527 40.8652C32.1473 40.8272 33.4473 40.8833 34.7438 40.8489C35.5549 40.8272 35.8718 41.1495 35.8827 41.9661C35.9044 43.9053 35.9026 43.9342 33.9525 43.9342C32.3229 43.9342 30.6934 43.9523 29.0638 43.9342C27.3238 43.9089 26.8041 43.3675 26.7969 41.6438C26.8041 40.552 26.8041 39.4656 26.8041 38.3792Z" fill="#A8A8BD"/>
<path d="M21.9152 17.5063C21.9152 18.8317 21.9279 20.1571 21.9152 21.4806C21.8916 23.3456 21.0406 24.1966 19.1992 24.1966C18.0549 24.1966 16.9106 24.1876 15.759 24.1966C15.0022 24.1966 14.6889 23.8345 14.6563 23.0939C14.5567 20.8433 14.6129 20.7727 16.8852 20.7691C18.7828 20.7691 18.6198 20.903 18.6234 18.9946C18.6234 17.1568 18.6234 15.3209 18.6234 13.4831C18.6234 12.3804 18.761 12.2627 19.8909 12.25H20.3417C21.7577 12.25 21.8989 12.3949 21.9025 13.7963C21.911 15.0324 21.9152 16.269 21.9152 17.5063Z" fill="#A8A8BD"/>
<path d="M66.8216 12.6149C66.8216 10.5055 66.8216 8.39427 66.8216 6.27764C66.8216 5.12064 66.9338 5.01019 68.0401 4.99751C70.0735 4.96854 70.0916 4.98484 70.0916 7.0544C70.0916 10.9171 70.0916 14.7762 70.0916 18.6316C70.0916 20.0312 69.9322 20.1833 68.5326 20.196H68.0799C66.9646 20.1725 66.8234 20.0403 66.8125 18.9412C66.8125 16.8319 66.8125 14.7206 66.8125 12.604L66.8216 12.6149Z" fill="#A8A8BD"/>
<path d="M25.7169 38.4168C25.7169 39.8653 25.6952 41.3138 25.7169 42.7623C25.7332 43.5753 25.3548 43.9248 24.5798 43.9266C24.2177 43.9266 23.8556 43.9266 23.4934 43.9266C22.9502 43.903 22.6479 43.6133 22.6461 43.072C22.6388 39.9975 22.6388 36.9242 22.6461 33.8522C22.6461 33.3416 22.9158 33.0809 23.4319 33.07C26.0193 33.0121 25.7024 33.0139 25.7097 35.0888C25.7169 36.1861 25.7169 37.3015 25.7169 38.4168Z" fill="#A8A8BD"/>
<path d="M49.8519 23.8294C49.5532 23.8294 49.2526 23.8294 48.9466 23.8294C48.4324 23.8294 48.2223 23.5542 48.1626 23.0472C47.9453 20.965 48.9213 20.1737 50.9564 20.8057C51.1046 20.8366 51.2398 20.9121 51.3437 21.0222C51.4476 21.1323 51.5153 21.2716 51.5376 21.4213C51.6385 22.0143 51.6342 22.6205 51.525 23.212C51.4145 23.7624 51.1465 23.8421 49.8519 23.8294Z" fill="#A8A8BD"/>
<path d="M53.7989 23.8387C53.3806 23.7681 52.7125 24.0596 52.4663 23.5074C52.1367 22.7614 52.2472 21.9213 52.4192 21.1282C52.4753 20.8693 52.7469 20.7842 52.9968 20.7787C53.6251 20.7661 54.2552 20.757 54.8835 20.7787C55.3524 20.7932 55.5769 21.0793 55.5914 21.5392C55.5914 21.7203 55.6023 21.9013 55.6023 22.0824C55.6168 23.8116 55.5932 23.8387 53.7989 23.8387Z" fill="#A8A8BD"/>
<path d="M58.9879 23.844C58.5189 23.7734 57.7802 24.0703 57.5194 23.4239C57.2315 22.6997 57.3148 21.8921 57.505 21.128C57.5593 20.9089 57.7838 20.8184 58.0011 20.7949C58.2184 20.7713 58.4791 20.7641 58.7253 20.7605C60.717 20.7442 60.717 20.7442 60.6881 22.6254C60.6627 23.7897 60.5939 23.844 58.9879 23.844Z" fill="#A8A8BD"/>
<path d="M6.85855 23.8418C6.44572 23.7621 5.75767 24.0699 5.55126 23.4634C5.30618 22.6841 5.31125 21.8477 5.56575 21.0715C5.64361 20.818 5.92788 20.7836 6.17775 20.7709C6.38778 20.7601 6.59962 20.7601 6.80966 20.7583C8.6203 20.7492 8.73618 20.8615 8.68548 22.6051C8.65289 23.7368 8.50623 23.8418 6.85855 23.8418Z" fill="#A8A8BD"/>
</svg>
