<svg width="55" height="60" viewBox="0 0 55 60" fill="none" xmlns="http://www.w3.org/2000/svg">
<path opacity="0.3" d="M23.2134 1.17634C25.9371 -0.392113 29.2928 -0.392114 32.0165 1.17634L50.4409 11.7862C53.1645 13.3546 54.8424 16.2533 54.8424 19.3902V40.6098C54.8424 43.7467 53.1645 46.6454 50.4409 48.2138L32.0165 58.8237C29.2928 60.3921 25.9371 60.3921 23.2134 58.8237L4.78899 48.2138C2.06531 46.6454 0.387451 43.7467 0.387451 40.6098V19.3902C0.387451 16.2533 2.06531 13.3546 4.78899 11.7862L23.2134 1.17634Z" fill="#2B59FF"/>
<path d="M18.0776 26.2891H14.3536C13.8395 26.2891 13.4226 26.7048 13.4226 27.2177V42.0747C13.4226 42.5875 13.8394 43.0033 14.3536 43.0033H18.0775C18.5916 43.0033 19.0085 42.5876 19.0085 42.0747V27.2176C19.0085 26.7048 18.5917 26.2891 18.0776 26.2891Z" fill="#2B59FF"/>
<path d="M41.3308 28.7471C41.1666 27.3067 39.8176 26.2857 38.3641 26.2857H31.1059C31.7227 25.1841 32.0538 22.0682 32.0391 20.7953C32.0148 18.6884 30.2655 17 28.153 17H27.3848C26.8703 17 26.4538 17.4153 26.4538 17.9286C26.4538 20.0759 25.6155 23.9516 24.0346 25.5286C22.9704 26.5899 22.0608 26.9745 20.8679 27.5691V41.5023C22.6942 42.1094 25.013 43 28.5472 43H34.6372C36.6439 43 38.2067 41.1463 37.4291 39.1878C38.6138 38.8659 39.4874 37.7823 39.4874 36.5C39.4874 36.1382 39.4174 35.7918 39.291 35.4735C41.2874 34.931 42.0222 32.4723 40.6366 30.9286C41.1457 30.3613 41.4264 29.5855 41.3308 28.7471Z" fill="#2B59FF"/>
</svg>
