<svg width="53" height="50" viewBox="0 0 53 50" fill="none" xmlns="http://www.w3.org/2000/svg">
<path d="M43.8105 16.668H28.5977L31.0361 9.6513C31.2536 9.02508 31.3129 8.35827 31.209 7.70579C31.1051 7.05331 30.841 6.43383 30.4384 5.89837C30.0358 5.36292 29.5063 4.92681 28.8934 4.62596C28.2806 4.32511 27.6019 4.16814 26.9134 4.16797H26.4244L15.5581 15.4971V43.7513H39.464L47.9658 25.843L48.157 25.0013V20.8346C48.157 19.7296 47.6991 18.6698 46.884 17.8884C46.0688 17.107 44.9633 16.668 43.8105 16.668Z" fill="#1E46D7"/>
<path d="M11.2114 43.7513H9.03817C7.8854 43.7513 6.77985 43.3123 5.96472 42.5309C5.14959 41.7495 4.69165 40.6897 4.69165 39.5846V20.8346C4.69165 19.7296 5.14959 18.6698 5.96472 17.8884C6.77985 17.107 7.8854 16.668 9.03817 16.668H11.2114V43.7513Z" fill="#FFABB3"/>
</svg>
