<svg width="19" height="24" viewBox="0 0 19 24" fill="none" xmlns="http://www.w3.org/2000/svg">
<path d="M2.64778 3.64937C6.17808 -0.0706241 11.9018 -0.0706241 15.4321 3.64937C18.9624 7.37058 18.9624 13.4027 15.4321 17.1227L9.04051 23.8594L2.64778 17.1227C-0.882515 13.4027 -0.882515 7.37058 2.64778 3.64937ZM9.04051 13.5698C9.79539 13.5698 10.5039 13.255 11.0385 12.6836C12.1403 11.5034 12.1403 9.58345 11.0385 8.40317C10.5051 7.8318 9.79539 7.51705 9.04051 7.51705C8.28563 7.51705 7.57596 7.8318 7.04257 8.40317C5.94077 9.58345 5.94077 11.5046 7.04257 12.6836C7.57596 13.255 8.28563 13.5698 9.04051 13.5698Z" fill="#1E46D7"/>
</svg>
