<svg width="115" height="32" viewBox="0 0 115 32" fill="none" xmlns="http://www.w3.org/2000/svg">
<path d="M31.2072 20.2778C31.0598 25.187 28.4109 28.3774 24.1665 30.3544C18.6634 32.9168 12.9128 31.6609 9.73474 27.321C9.59531 27.1506 9.47106 26.9681 9.36347 26.7756C9.0633 26.1609 8.29708 25.5409 8.67098 24.8997C8.98431 24.3675 9.80846 24.8544 10.4035 24.8651C15.7012 24.9715 20.2643 20.2352 19.9641 14.9082C19.8957 13.4807 19.2788 12.1366 18.2447 11.1617C17.9814 10.8956 17.4548 10.6774 17.5812 10.2597C17.7181 9.7754 18.2974 9.80999 18.7082 9.7275C25.1723 8.51416 31.3678 13.5671 31.2072 20.2778Z" fill="white" fill-opacity="0.5"/>
<path d="M14.3585 0.330171C17.0311 0.444588 20.117 2.28856 22.2339 5.78758C22.4551 6.15211 22.8027 6.58583 22.5921 6.99826C22.3419 7.4985 21.8179 7.20847 21.4072 7.1659C15.9094 6.59647 10.7354 11.7053 11.2542 17.2292C11.3934 18.6504 12.0503 19.9686 13.0973 20.9278C13.3343 21.1566 13.7661 21.3642 13.6002 21.758C13.4606 22.0879 13.0341 22.1066 12.6865 22.1811C7.94705 23.1842 2.84683 20.6192 0.940506 16.2633C-0.0851086 13.971 -0.278818 11.3869 0.393374 8.96458C1.06557 6.5423 2.56069 4.43676 4.61624 3.01764C7.10447 1.26414 9.86654 0.276954 14.3585 0.330171Z" fill="white"/>
<path d="M51.7774 25.6953L49.1134 20.8953H48.7534H45.2494V25.6953H41.4574V8.89531H48.7534C50.9454 8.89531 52.6414 9.40731 53.8414 10.4313C55.0414 11.4393 55.6414 12.8713 55.6414 14.7273C55.6414 16.0233 55.3694 17.1353 54.8254 18.0633C54.2974 18.9753 53.5214 19.6713 52.4974 20.1513L56.0734 25.6953H51.7774ZM45.2494 17.7273H48.7534C49.8094 17.7273 50.6174 17.4873 51.1774 17.0073C51.7534 16.5113 52.0414 15.7913 52.0414 14.8473C52.0414 13.9193 51.7534 13.2233 51.1774 12.7593C50.6174 12.2793 49.8094 12.0393 48.7534 12.0393H45.2494V17.7273ZM66.2406 25.6953V24.1833C65.8086 24.7273 65.2486 25.1433 64.5606 25.4313C63.8726 25.7193 63.0806 25.8633 62.1846 25.8633C60.8246 25.8633 59.7446 25.4953 58.9446 24.7593C58.1446 24.0073 57.7446 23.0313 57.7446 21.8313C57.7446 20.6153 58.1686 19.6713 59.0166 18.9993C59.8806 18.3113 61.0966 17.9593 62.6646 17.9433H66.2166V17.7033C66.2166 17.0153 65.9846 16.4873 65.5206 16.1193C65.0726 15.7353 64.4086 15.5433 63.5286 15.5433C62.3286 15.5433 61.0486 15.9193 59.6886 16.6713L58.5366 14.1273C59.5606 13.6153 60.5206 13.2393 61.4166 12.9993C62.3126 12.7593 63.2966 12.6393 64.3686 12.6393C66.0966 12.6393 67.4326 13.0473 68.3766 13.8633C69.3366 14.6793 69.8246 15.8153 69.8406 17.2713L69.8646 25.6953H66.2406ZM63.2166 23.2233C63.9846 23.2233 64.6486 23.0393 65.2086 22.6713C65.7686 22.3033 66.1046 21.8393 66.2166 21.2793V20.1273H63.3126C62.5926 20.1273 62.0566 20.2473 61.7046 20.4873C61.3686 20.7113 61.2006 21.0793 61.2006 21.5913C61.2006 22.0873 61.3766 22.4873 61.7286 22.7913C62.0966 23.0793 62.5926 23.2233 63.2166 23.2233ZM81.1854 16.5753C80.4814 16.1753 79.7854 15.8713 79.0974 15.6633C78.4094 15.4393 77.7934 15.3273 77.2494 15.3273C76.8014 15.3273 76.4414 15.4073 76.1694 15.5673C75.8974 15.7273 75.7614 15.9673 75.7614 16.2873C75.7614 16.6393 75.9454 16.9113 76.3134 17.1033C76.6814 17.2953 77.2814 17.5113 78.1134 17.7513C79.0254 18.0233 79.7774 18.2953 80.3694 18.5673C80.9614 18.8233 81.4734 19.2153 81.9054 19.7433C82.3374 20.2553 82.5534 20.9353 82.5534 21.7833C82.5534 23.0633 82.0574 24.0633 81.0654 24.7833C80.0894 25.4873 78.8334 25.8393 77.2974 25.8393C76.2414 25.8393 75.2254 25.6873 74.2494 25.3833C73.2734 25.0633 72.4254 24.6153 71.7054 24.0393L72.9054 21.5433C73.5614 22.0553 74.2894 22.4553 75.0894 22.7433C75.9054 23.0153 76.6734 23.1513 77.3934 23.1513C77.8894 23.1513 78.2814 23.0713 78.5694 22.9113C78.8734 22.7353 79.0254 22.4793 79.0254 22.1433C79.0254 21.7753 78.8334 21.4873 78.4494 21.2793C78.0814 21.0713 77.4814 20.8473 76.6494 20.6073C75.7694 20.3513 75.0334 20.0953 74.4414 19.8393C73.8654 19.5833 73.3694 19.1993 72.9534 18.6873C72.5374 18.1593 72.3294 17.4793 72.3294 16.6473C72.3294 15.3673 72.8094 14.3753 73.7694 13.6713C74.7294 12.9673 75.9454 12.6153 77.4174 12.6153C78.2974 12.6153 79.1774 12.7433 80.0574 12.9993C80.9374 13.2393 81.7374 13.5913 82.4574 14.0553L81.1854 16.5753ZM92.514 25.6953V24.1833C92.082 24.7273 91.522 25.1433 90.834 25.4313C90.146 25.7193 89.354 25.8633 88.458 25.8633C87.098 25.8633 86.018 25.4953 85.218 24.7593C84.418 24.0073 84.018 23.0313 84.018 21.8313C84.018 20.6153 84.442 19.6713 85.29 18.9993C86.154 18.3113 87.37 17.9593 88.938 17.9433H92.49V17.7033C92.49 17.0153 92.258 16.4873 91.794 16.1193C91.346 15.7353 90.682 15.5433 89.802 15.5433C88.602 15.5433 87.322 15.9193 85.962 16.6713L84.81 14.1273C85.834 13.6153 86.794 13.2393 87.69 12.9993C88.586 12.7593 89.57 12.6393 90.642 12.6393C92.37 12.6393 93.706 13.0473 94.65 13.8633C95.61 14.6793 96.098 15.8153 96.114 17.2713L96.138 25.6953H92.514ZM89.49 23.2233C90.258 23.2233 90.922 23.0393 91.482 22.6713C92.042 22.3033 92.378 21.8393 92.49 21.2793V20.1273H89.586C88.866 20.1273 88.33 20.2473 87.978 20.4873C87.642 20.7113 87.474 21.0793 87.474 21.5913C87.474 22.0873 87.65 22.4873 88.002 22.7913C88.37 23.0793 88.866 23.2233 89.49 23.2233ZM112.067 7.88731V25.6953H108.395V23.7993C107.931 24.4713 107.355 24.9833 106.667 25.3353C105.979 25.6713 105.195 25.8393 104.315 25.8393C103.099 25.8393 102.027 25.5673 101.099 25.0233C100.187 24.4633 99.4749 23.6793 98.9629 22.6713C98.4669 21.6633 98.2189 20.5033 98.2189 19.1913C98.2189 17.8953 98.4669 16.7513 98.9629 15.7593C99.4589 14.7673 100.163 13.9993 101.075 13.4553C101.987 12.9113 103.035 12.6393 104.219 12.6393C106.043 12.6393 107.435 13.3193 108.395 14.6793V7.88731H112.067ZM105.179 22.8633C106.123 22.8633 106.891 22.5353 107.483 21.8793C108.091 21.2073 108.395 20.3433 108.395 19.2873C108.395 18.2313 108.091 17.3753 107.483 16.7193C106.891 16.0473 106.123 15.7113 105.179 15.7113C104.219 15.7113 103.435 16.0473 102.827 16.7193C102.235 17.3753 101.931 18.2313 101.915 19.2873C101.931 20.3433 102.235 21.2073 102.827 21.8793C103.435 22.5353 104.219 22.8633 105.179 22.8633Z" fill="white"/>
</svg>
