<svg width="53" height="50" viewBox="0 0 53 50" fill="none" xmlns="http://www.w3.org/2000/svg">
<path d="M17.1879 3.75H36.2332C43.3735 3.75 47.4376 8.33334 47.4376 16.0244V32.7659C47.4376 40.4524 42.7078 45 34.6776 45H17.1879C9.13677 45 4.40698 40.4524 4.40698 32.7659V16.0244C4.40698 8.33781 9.13677 3.75 17.1879 3.75Z" fill="#1E46D7"/>
<path fill-rule="evenodd" clip-rule="evenodd" d="M25.5963 17.5C26.4964 17.5 27.2262 18.1996 27.2262 19.0625V31.5625C27.2262 32.4254 26.4964 33.125 25.5963 33.125C24.6961 33.125 23.9663 32.4254 23.9663 31.5625V19.0625C23.9663 18.1996 24.6961 17.5 25.5963 17.5Z" fill="#FFABB3"/>
<path fill-rule="evenodd" clip-rule="evenodd" d="M33.746 25.3125C33.746 26.1754 33.0162 26.875 32.116 26.875L19.0765 26.875C18.1763 26.875 17.4465 26.1754 17.4465 25.3125C17.4465 24.4496 18.1763 23.75 19.0765 23.75L32.116 23.75C33.0162 23.75 33.746 24.4496 33.746 25.3125Z" fill="#FFABB3"/>
<ellipse cx="11.5787" cy="10.625" rx="1.95594" ry="1.875" fill="#FFABB3"/>
<ellipse cx="18.0985" cy="10.625" rx="1.95594" ry="1.875" fill="#FFABB3"/>
</svg>
