<svg width="21" height="18" viewBox="0 0 21 18" fill="none" xmlns="http://www.w3.org/2000/svg">
<path d="M15.698 17.8519C14.1416 17.8519 12.5862 17.8356 11.0307 17.8615C10.5723 17.8692 10.4532 17.7087 10.4569 17.256C10.4766 15.0627 10.4569 12.8683 10.4701 10.675C10.4851 8.81897 10.0013 7.16962 8.69521 5.83073C8.62302 5.75768 8.49457 5.68367 8.55457 5.55776C8.61458 5.43185 8.74866 5.48375 8.85179 5.48375C9.73875 5.48375 10.6257 5.46837 11.5117 5.48375C11.8614 5.49144 11.9702 5.36264 11.9664 5.0099C11.9505 3.79307 11.9664 2.57625 11.9552 1.3575C11.9496 0.98457 12.0677 0.848085 12.4371 0.855775C13.401 0.875959 14.3657 0.871153 15.3305 0.855775C15.654 0.850969 15.7712 0.975922 15.7646 1.3056C15.7402 2.69928 15.9212 2.44649 14.6723 2.45899C13.521 2.47437 13.52 2.45899 13.52 3.6489C13.52 4.0497 13.5491 4.45243 13.5135 4.84939C13.4713 5.3242 13.6072 5.50586 14.1013 5.48183C14.9245 5.4405 15.7505 5.46453 16.5747 5.47222C17.7415 5.49014 18.8554 5.974 19.6796 6.82086C20.5037 7.66773 20.9731 8.8108 20.9879 10.007C21.0019 12.4406 20.9823 14.8743 21.0001 17.3118C21.0001 17.7433 20.8566 17.8567 20.4581 17.8519C18.8717 17.8414 17.2844 17.8519 15.698 17.8519Z" fill="#1E46D7"/>
<path d="M4.47419 17.8536C3.1522 17.8536 1.82927 17.843 0.507282 17.8613C0.121935 17.8661 -0.00276639 17.7315 4.63562e-05 17.3365C0.0131725 14.9336 4.31511e-05 12.5307 0.0084814 10.1278C0.0150445 7.77298 1.66332 5.81799 3.89383 5.50273C4.99414 5.35068 6.1107 5.61656 7.03297 6.25024C7.95525 6.88391 8.61951 7.8416 8.90052 8.94272C8.98936 9.26687 9.0354 9.60178 9.03741 9.93848C9.03741 12.3875 9.02803 14.8404 9.04585 17.2865C9.04585 17.7287 8.91271 17.8632 8.4833 17.8632C7.15005 17.8392 5.81212 17.8536 4.47419 17.8536Z" fill="#1E46D7"/>
</svg>
