<svg width="446" height="410" viewBox="0 0 446 410" fill="none" xmlns="http://www.w3.org/2000/svg">
<g filter="url(#filter0_d_49_4226)">
<rect x="70" y="45" width="306" height="270" rx="10" fill="white"/>
</g>
<path d="M150.449 251H148.972L153.244 239.364H154.699L158.972 251H157.494L154.017 241.205H153.926L150.449 251ZM150.994 246.455H156.949V247.705H150.994V246.455ZM161.943 239.364V251H160.602V239.364H161.943ZM165.74 239.364V251H164.399V239.364H165.74ZM176.241 251.182C175.423 251.182 174.719 250.989 174.128 250.602C173.537 250.216 173.082 249.684 172.764 249.006C172.446 248.328 172.287 247.553 172.287 246.682C172.287 245.795 172.45 245.013 172.776 244.335C173.105 243.653 173.563 243.121 174.151 242.739C174.741 242.352 175.431 242.159 176.219 242.159C176.832 242.159 177.385 242.273 177.878 242.5C178.37 242.727 178.774 243.045 179.088 243.455C179.402 243.864 179.598 244.341 179.673 244.886H178.332C178.23 244.489 178.003 244.136 177.651 243.83C177.302 243.519 176.832 243.364 176.241 243.364C175.719 243.364 175.26 243.5 174.866 243.773C174.476 244.042 174.171 244.422 173.952 244.915C173.736 245.403 173.628 245.977 173.628 246.636C173.628 247.311 173.734 247.898 173.946 248.398C174.162 248.898 174.465 249.286 174.855 249.562C175.249 249.839 175.711 249.977 176.241 249.977C176.59 249.977 176.906 249.917 177.19 249.795C177.474 249.674 177.715 249.5 177.912 249.273C178.109 249.045 178.249 248.773 178.332 248.455H179.673C179.598 248.97 179.41 249.434 179.111 249.847C178.815 250.256 178.423 250.581 177.935 250.824C177.45 251.062 176.885 251.182 176.241 251.182ZM187.134 247.432V242.273H188.474V251H187.134V249.523H187.043C186.838 249.966 186.52 250.343 186.088 250.653C185.656 250.96 185.111 251.114 184.452 251.114C183.906 251.114 183.421 250.994 182.997 250.756C182.573 250.513 182.24 250.15 181.997 249.665C181.755 249.176 181.634 248.561 181.634 247.818V242.273H182.974V247.727C182.974 248.364 183.152 248.871 183.509 249.25C183.868 249.629 184.327 249.818 184.884 249.818C185.217 249.818 185.556 249.733 185.901 249.562C186.249 249.392 186.541 249.131 186.776 248.778C187.014 248.426 187.134 247.977 187.134 247.432ZM197.112 244.227L195.908 244.568C195.832 244.367 195.72 244.172 195.572 243.983C195.429 243.79 195.232 243.631 194.982 243.506C194.732 243.381 194.411 243.318 194.021 243.318C193.487 243.318 193.042 243.441 192.686 243.688C192.334 243.93 192.158 244.239 192.158 244.614C192.158 244.947 192.279 245.21 192.521 245.403C192.764 245.597 193.143 245.758 193.658 245.886L194.953 246.205C195.733 246.394 196.315 246.684 196.697 247.074C197.08 247.46 197.271 247.958 197.271 248.568C197.271 249.068 197.127 249.515 196.839 249.909C196.555 250.303 196.158 250.614 195.646 250.841C195.135 251.068 194.54 251.182 193.862 251.182C192.972 251.182 192.235 250.989 191.652 250.602C191.069 250.216 190.699 249.652 190.544 248.909L191.817 248.591C191.938 249.061 192.167 249.413 192.504 249.648C192.845 249.883 193.29 250 193.839 250C194.464 250 194.961 249.867 195.328 249.602C195.699 249.333 195.885 249.011 195.885 248.636C195.885 248.333 195.779 248.08 195.567 247.875C195.355 247.667 195.029 247.511 194.589 247.409L193.135 247.068C192.336 246.879 191.749 246.585 191.374 246.188C191.002 245.786 190.817 245.284 190.817 244.682C190.817 244.189 190.955 243.754 191.232 243.375C191.512 242.996 191.893 242.699 192.374 242.483C192.858 242.267 193.408 242.159 194.021 242.159C194.885 242.159 195.563 242.348 196.055 242.727C196.552 243.106 196.904 243.606 197.112 244.227ZM203.085 242.273V243.409H198.562V242.273H203.085ZM199.881 240.182H201.222V248.5C201.222 248.879 201.277 249.163 201.386 249.352C201.5 249.538 201.644 249.663 201.818 249.727C201.996 249.788 202.184 249.818 202.381 249.818C202.528 249.818 202.65 249.811 202.744 249.795C202.839 249.777 202.915 249.761 202.972 249.75L203.244 250.955C203.153 250.989 203.027 251.023 202.864 251.057C202.701 251.095 202.494 251.114 202.244 251.114C201.866 251.114 201.494 251.032 201.131 250.869C200.771 250.706 200.472 250.458 200.233 250.125C199.998 249.792 199.881 249.371 199.881 248.864V240.182ZM208.554 251.182C207.766 251.182 207.075 250.994 206.48 250.619C205.889 250.244 205.427 249.72 205.094 249.045C204.764 248.371 204.599 247.583 204.599 246.682C204.599 245.773 204.764 244.979 205.094 244.301C205.427 243.623 205.889 243.097 206.48 242.722C207.075 242.347 207.766 242.159 208.554 242.159C209.342 242.159 210.031 242.347 210.622 242.722C211.217 243.097 211.679 243.623 212.009 244.301C212.342 244.979 212.509 245.773 212.509 246.682C212.509 247.583 212.342 248.371 212.009 249.045C211.679 249.72 211.217 250.244 210.622 250.619C210.031 250.994 209.342 251.182 208.554 251.182ZM208.554 249.977C209.152 249.977 209.645 249.824 210.031 249.517C210.418 249.21 210.704 248.807 210.889 248.307C211.075 247.807 211.168 247.265 211.168 246.682C211.168 246.098 211.075 245.555 210.889 245.051C210.704 244.547 210.418 244.14 210.031 243.83C209.645 243.519 209.152 243.364 208.554 243.364C207.955 243.364 207.463 243.519 207.077 243.83C206.69 244.14 206.404 244.547 206.219 245.051C206.033 245.555 205.94 246.098 205.94 246.682C205.94 247.265 206.033 247.807 206.219 248.307C206.404 248.807 206.69 249.21 207.077 249.517C207.463 249.824 207.955 249.977 208.554 249.977ZM214.555 251V242.273H215.851V243.636H215.964C216.146 243.17 216.44 242.809 216.845 242.551C217.25 242.29 217.737 242.159 218.305 242.159C218.881 242.159 219.36 242.29 219.743 242.551C220.129 242.809 220.43 243.17 220.646 243.636H220.737C220.961 243.186 221.296 242.828 221.743 242.562C222.19 242.294 222.726 242.159 223.351 242.159C224.131 242.159 224.769 242.403 225.266 242.892C225.762 243.377 226.01 244.133 226.01 245.159V251H224.669V245.159C224.669 244.515 224.493 244.055 224.141 243.778C223.788 243.502 223.374 243.364 222.896 243.364C222.283 243.364 221.807 243.549 221.47 243.92C221.133 244.288 220.964 244.754 220.964 245.318V251H219.601V245.023C219.601 244.527 219.44 244.127 219.118 243.824C218.796 243.517 218.381 243.364 217.874 243.364C217.525 243.364 217.199 243.456 216.896 243.642C216.597 243.828 216.355 244.085 216.169 244.415C215.987 244.741 215.896 245.117 215.896 245.545V251H214.555ZM232.121 251.182C231.28 251.182 230.554 250.996 229.945 250.625C229.339 250.25 228.871 249.727 228.541 249.057C228.215 248.383 228.053 247.598 228.053 246.705C228.053 245.811 228.215 245.023 228.541 244.341C228.871 243.655 229.329 243.121 229.916 242.739C230.507 242.352 231.196 242.159 231.984 242.159C232.439 242.159 232.888 242.235 233.331 242.386C233.774 242.538 234.178 242.784 234.541 243.125C234.905 243.462 235.195 243.909 235.411 244.466C235.626 245.023 235.734 245.708 235.734 246.523V247.091H229.007V245.932H234.371C234.371 245.439 234.272 245 234.075 244.614C233.882 244.227 233.606 243.922 233.246 243.699C232.89 243.475 232.469 243.364 231.984 243.364C231.45 243.364 230.988 243.496 230.598 243.761C230.212 244.023 229.914 244.364 229.706 244.784C229.498 245.205 229.393 245.655 229.393 246.136V246.909C229.393 247.568 229.507 248.127 229.734 248.585C229.965 249.04 230.286 249.386 230.695 249.625C231.104 249.86 231.579 249.977 232.121 249.977C232.473 249.977 232.791 249.928 233.075 249.83C233.363 249.727 233.611 249.576 233.82 249.375C234.028 249.17 234.189 248.917 234.303 248.614L235.598 248.977C235.462 249.417 235.232 249.803 234.911 250.136C234.589 250.466 234.191 250.723 233.717 250.909C233.244 251.091 232.712 251.182 232.121 251.182ZM237.774 251V242.273H239.07V243.591H239.161C239.32 243.159 239.607 242.809 240.024 242.54C240.441 242.271 240.911 242.136 241.433 242.136C241.532 242.136 241.655 242.138 241.803 242.142C241.95 242.146 242.062 242.152 242.138 242.159V243.523C242.092 243.511 241.988 243.494 241.825 243.472C241.666 243.445 241.498 243.432 241.32 243.432C240.895 243.432 240.517 243.521 240.183 243.699C239.854 243.873 239.592 244.116 239.399 244.426C239.21 244.733 239.115 245.083 239.115 245.477V251H237.774ZM251.523 251.182C250.795 251.182 250.153 250.998 249.597 250.631C249.04 250.259 248.604 249.737 248.29 249.062C247.975 248.384 247.818 247.583 247.818 246.659C247.818 245.742 247.975 244.947 248.29 244.273C248.604 243.598 249.042 243.078 249.602 242.71C250.163 242.343 250.811 242.159 251.545 242.159C252.114 242.159 252.563 242.254 252.892 242.443C253.225 242.629 253.479 242.841 253.653 243.08C253.831 243.314 253.97 243.508 254.068 243.659H254.182V239.364H255.523V251H254.227V249.659H254.068C253.97 249.818 253.83 250.019 253.648 250.261C253.466 250.5 253.206 250.714 252.869 250.903C252.532 251.089 252.083 251.182 251.523 251.182ZM251.705 249.977C252.242 249.977 252.697 249.837 253.068 249.557C253.439 249.273 253.722 248.881 253.915 248.381C254.108 247.877 254.205 247.295 254.205 246.636C254.205 245.985 254.11 245.415 253.92 244.926C253.731 244.434 253.451 244.051 253.08 243.778C252.708 243.502 252.25 243.364 251.705 243.364C251.136 243.364 250.663 243.509 250.284 243.801C249.909 244.089 249.627 244.481 249.438 244.977C249.252 245.47 249.159 246.023 249.159 246.636C249.159 247.258 249.254 247.822 249.443 248.33C249.636 248.833 249.92 249.235 250.295 249.534C250.674 249.83 251.144 249.977 251.705 249.977ZM260.733 251.205C260.18 251.205 259.678 251.1 259.227 250.892C258.777 250.68 258.419 250.375 258.153 249.977C257.888 249.576 257.756 249.091 257.756 248.523C257.756 248.023 257.854 247.617 258.051 247.307C258.248 246.992 258.511 246.746 258.841 246.568C259.17 246.39 259.534 246.258 259.932 246.17C260.333 246.08 260.737 246.008 261.142 245.955C261.672 245.886 262.102 245.835 262.432 245.801C262.765 245.763 263.008 245.701 263.159 245.614C263.314 245.527 263.392 245.375 263.392 245.159V245.114C263.392 244.553 263.239 244.117 262.932 243.807C262.629 243.496 262.169 243.341 261.551 243.341C260.911 243.341 260.409 243.481 260.045 243.761C259.682 244.042 259.426 244.341 259.278 244.659L258.006 244.205C258.233 243.674 258.536 243.261 258.915 242.966C259.297 242.667 259.714 242.458 260.165 242.341C260.619 242.22 261.066 242.159 261.506 242.159C261.786 242.159 262.108 242.193 262.472 242.261C262.839 242.326 263.193 242.46 263.534 242.665C263.879 242.869 264.165 243.178 264.392 243.591C264.619 244.004 264.733 244.557 264.733 245.25V251H263.392V249.818H263.324C263.233 250.008 263.081 250.21 262.869 250.426C262.657 250.642 262.375 250.826 262.023 250.977C261.67 251.129 261.241 251.205 260.733 251.205ZM260.938 250C261.468 250 261.915 249.896 262.278 249.688C262.646 249.479 262.922 249.21 263.108 248.881C263.297 248.551 263.392 248.205 263.392 247.841V246.614C263.335 246.682 263.21 246.744 263.017 246.801C262.828 246.854 262.608 246.902 262.358 246.943C262.112 246.981 261.871 247.015 261.636 247.045C261.405 247.072 261.218 247.095 261.074 247.114C260.725 247.159 260.4 247.233 260.097 247.335C259.797 247.434 259.555 247.583 259.369 247.784C259.188 247.981 259.097 248.25 259.097 248.591C259.097 249.057 259.269 249.409 259.614 249.648C259.962 249.883 260.403 250 260.938 250ZM270.976 242.273V243.409H266.453V242.273H270.976ZM267.771 240.182H269.112V248.5C269.112 248.879 269.167 249.163 269.277 249.352C269.391 249.538 269.535 249.663 269.709 249.727C269.887 249.788 270.074 249.818 270.271 249.818C270.419 249.818 270.54 249.811 270.635 249.795C270.73 249.777 270.805 249.761 270.862 249.75L271.135 250.955C271.044 250.989 270.917 251.023 270.754 251.057C270.591 251.095 270.385 251.114 270.135 251.114C269.756 251.114 269.385 251.032 269.021 250.869C268.661 250.706 268.362 250.458 268.124 250.125C267.889 249.792 267.771 249.371 267.771 248.864V240.182ZM275.561 251.205C275.008 251.205 274.506 251.1 274.055 250.892C273.605 250.68 273.247 250.375 272.982 249.977C272.716 249.576 272.584 249.091 272.584 248.523C272.584 248.023 272.682 247.617 272.879 247.307C273.076 246.992 273.339 246.746 273.669 246.568C273.999 246.39 274.362 246.258 274.76 246.17C275.161 246.08 275.565 246.008 275.97 245.955C276.5 245.886 276.93 245.835 277.26 245.801C277.593 245.763 277.836 245.701 277.987 245.614C278.143 245.527 278.22 245.375 278.22 245.159V245.114C278.22 244.553 278.067 244.117 277.76 243.807C277.457 243.496 276.997 243.341 276.379 243.341C275.739 243.341 275.237 243.481 274.874 243.761C274.51 244.042 274.254 244.341 274.107 244.659L272.834 244.205C273.061 243.674 273.364 243.261 273.743 242.966C274.125 242.667 274.542 242.458 274.993 242.341C275.447 242.22 275.894 242.159 276.334 242.159C276.614 242.159 276.936 242.193 277.3 242.261C277.667 242.326 278.021 242.46 278.362 242.665C278.707 242.869 278.993 243.178 279.22 243.591C279.447 244.004 279.561 244.557 279.561 245.25V251H278.22V249.818H278.152C278.061 250.008 277.91 250.21 277.697 250.426C277.485 250.642 277.203 250.826 276.851 250.977C276.499 251.129 276.069 251.205 275.561 251.205ZM275.766 250C276.296 250 276.743 249.896 277.107 249.688C277.474 249.479 277.75 249.21 277.936 248.881C278.125 248.551 278.22 248.205 278.22 247.841V246.614C278.163 246.682 278.038 246.744 277.845 246.801C277.656 246.854 277.436 246.902 277.186 246.943C276.94 246.981 276.699 247.015 276.464 247.045C276.233 247.072 276.046 247.095 275.902 247.114C275.554 247.159 275.228 247.233 274.925 247.335C274.625 247.434 274.383 247.583 274.197 247.784C274.016 247.981 273.925 248.25 273.925 248.591C273.925 249.057 274.097 249.409 274.442 249.648C274.79 249.883 275.232 250 275.766 250ZM286.509 251V242.273H287.849V251H286.509ZM287.19 240.818C286.929 240.818 286.704 240.729 286.514 240.551C286.329 240.373 286.236 240.159 286.236 239.909C286.236 239.659 286.329 239.445 286.514 239.267C286.704 239.089 286.929 239 287.19 239C287.452 239 287.675 239.089 287.861 239.267C288.05 239.445 288.145 239.659 288.145 239.909C288.145 240.159 288.05 240.373 287.861 240.551C287.675 240.729 287.452 240.818 287.19 240.818ZM296.487 244.227L295.283 244.568C295.207 244.367 295.095 244.172 294.947 243.983C294.804 243.79 294.607 243.631 294.357 243.506C294.107 243.381 293.786 243.318 293.396 243.318C292.862 243.318 292.417 243.441 292.061 243.688C291.709 243.93 291.533 244.239 291.533 244.614C291.533 244.947 291.654 245.21 291.896 245.403C292.139 245.597 292.518 245.758 293.033 245.886L294.328 246.205C295.108 246.394 295.69 246.684 296.072 247.074C296.455 247.46 296.646 247.958 296.646 248.568C296.646 249.068 296.502 249.515 296.214 249.909C295.93 250.303 295.533 250.614 295.021 250.841C294.51 251.068 293.915 251.182 293.237 251.182C292.347 251.182 291.61 250.989 291.027 250.602C290.444 250.216 290.074 249.652 289.919 248.909L291.192 248.591C291.313 249.061 291.542 249.413 291.879 249.648C292.22 249.883 292.665 250 293.214 250C293.839 250 294.336 249.867 294.703 249.602C295.074 249.333 295.26 249.011 295.26 248.636C295.26 248.333 295.154 248.08 294.942 247.875C294.73 247.667 294.404 247.511 293.964 247.409L292.51 247.068C291.711 246.879 291.124 246.585 290.749 246.188C290.377 245.786 290.192 245.284 290.192 244.682C290.192 244.189 290.33 243.754 290.607 243.375C290.887 242.996 291.268 242.699 291.749 242.483C292.233 242.267 292.783 242.159 293.396 242.159C294.26 242.159 294.938 242.348 295.43 242.727C295.927 243.106 296.279 243.606 296.487 244.227ZM189.16 275.182C188.319 275.182 187.594 274.996 186.984 274.625C186.378 274.25 185.91 273.727 185.58 273.057C185.254 272.383 185.092 271.598 185.092 270.705C185.092 269.811 185.254 269.023 185.58 268.341C185.91 267.655 186.368 267.121 186.955 266.739C187.546 266.352 188.236 266.159 189.023 266.159C189.478 266.159 189.927 266.235 190.37 266.386C190.813 266.538 191.217 266.784 191.58 267.125C191.944 267.462 192.234 267.909 192.45 268.466C192.665 269.023 192.773 269.708 192.773 270.523V271.091H186.046V269.932H191.41C191.41 269.439 191.311 269 191.114 268.614C190.921 268.227 190.645 267.922 190.285 267.699C189.929 267.475 189.508 267.364 189.023 267.364C188.489 267.364 188.027 267.496 187.637 267.761C187.251 268.023 186.953 268.364 186.745 268.784C186.537 269.205 186.433 269.655 186.433 270.136V270.909C186.433 271.568 186.546 272.127 186.773 272.585C187.004 273.04 187.325 273.386 187.734 273.625C188.143 273.86 188.618 273.977 189.16 273.977C189.512 273.977 189.83 273.928 190.114 273.83C190.402 273.727 190.65 273.576 190.859 273.375C191.067 273.17 191.228 272.917 191.342 272.614L192.637 272.977C192.501 273.417 192.272 273.803 191.95 274.136C191.628 274.466 191.23 274.723 190.756 274.909C190.283 275.091 189.751 275.182 189.16 275.182ZM196.154 269.75V275H194.813V266.273H196.109V267.636H196.222C196.427 267.193 196.737 266.837 197.154 266.568C197.571 266.295 198.109 266.159 198.768 266.159C199.359 266.159 199.876 266.28 200.319 266.523C200.762 266.761 201.107 267.125 201.353 267.614C201.599 268.098 201.722 268.712 201.722 269.455V275H200.381V269.545C200.381 268.86 200.203 268.326 199.847 267.943C199.491 267.557 199.003 267.364 198.381 267.364C197.953 267.364 197.571 267.456 197.234 267.642C196.9 267.828 196.637 268.098 196.444 268.455C196.251 268.811 196.154 269.242 196.154 269.75ZM207.718 275.182C206.9 275.182 206.195 274.989 205.604 274.602C205.013 274.216 204.559 273.684 204.241 273.006C203.923 272.328 203.763 271.553 203.763 270.682C203.763 269.795 203.926 269.013 204.252 268.335C204.582 267.653 205.04 267.121 205.627 266.739C206.218 266.352 206.907 266.159 207.695 266.159C208.309 266.159 208.862 266.273 209.354 266.5C209.847 266.727 210.25 267.045 210.565 267.455C210.879 267.864 211.074 268.341 211.15 268.886H209.809C209.707 268.489 209.479 268.136 209.127 267.83C208.779 267.519 208.309 267.364 207.718 267.364C207.195 267.364 206.737 267.5 206.343 267.773C205.953 268.042 205.648 268.422 205.428 268.915C205.212 269.403 205.104 269.977 205.104 270.636C205.104 271.311 205.21 271.898 205.423 272.398C205.638 272.898 205.942 273.286 206.332 273.562C206.726 273.839 207.188 273.977 207.718 273.977C208.067 273.977 208.383 273.917 208.667 273.795C208.951 273.674 209.192 273.5 209.388 273.273C209.585 273.045 209.726 272.773 209.809 272.455H211.15C211.074 272.97 210.887 273.434 210.587 273.847C210.292 274.256 209.9 274.581 209.411 274.824C208.926 275.062 208.362 275.182 207.718 275.182ZM213.11 275V266.273H214.406V267.591H214.496C214.656 267.159 214.943 266.809 215.36 266.54C215.777 266.271 216.246 266.136 216.769 266.136C216.868 266.136 216.991 266.138 217.138 266.142C217.286 266.146 217.398 266.152 217.474 266.159V267.523C217.428 267.511 217.324 267.494 217.161 267.472C217.002 267.445 216.834 267.432 216.656 267.432C216.231 267.432 215.853 267.521 215.519 267.699C215.19 267.873 214.928 268.116 214.735 268.426C214.546 268.733 214.451 269.083 214.451 269.477V275H213.11ZM220.192 278.273C219.965 278.273 219.763 278.254 219.585 278.216C219.406 278.182 219.283 278.148 219.215 278.114L219.556 276.932C219.882 277.015 220.17 277.045 220.42 277.023C220.67 277 220.891 276.888 221.085 276.688C221.281 276.491 221.461 276.17 221.624 275.727L221.874 275.045L218.647 266.273H220.102L222.511 273.227H222.602L225.011 266.273H226.465L222.761 276.273C222.594 276.723 222.388 277.097 222.141 277.392C221.895 277.691 221.609 277.913 221.283 278.057C220.961 278.201 220.598 278.273 220.192 278.273ZM228.235 278.273V266.273H229.531V267.659H229.69C229.788 267.508 229.924 267.314 230.099 267.08C230.277 266.841 230.531 266.629 230.86 266.443C231.193 266.254 231.644 266.159 232.212 266.159C232.947 266.159 233.595 266.343 234.156 266.71C234.716 267.078 235.154 267.598 235.468 268.273C235.782 268.947 235.94 269.742 235.94 270.659C235.94 271.583 235.782 272.384 235.468 273.062C235.154 273.737 234.718 274.259 234.161 274.631C233.604 274.998 232.962 275.182 232.235 275.182C231.674 275.182 231.226 275.089 230.888 274.903C230.551 274.714 230.292 274.5 230.11 274.261C229.928 274.019 229.788 273.818 229.69 273.659H229.576V278.273H228.235ZM229.553 270.636C229.553 271.295 229.65 271.877 229.843 272.381C230.036 272.881 230.318 273.273 230.69 273.557C231.061 273.837 231.515 273.977 232.053 273.977C232.614 273.977 233.082 273.83 233.457 273.534C233.835 273.235 234.12 272.833 234.309 272.33C234.502 271.822 234.599 271.258 234.599 270.636C234.599 270.023 234.504 269.47 234.315 268.977C234.129 268.481 233.847 268.089 233.468 267.801C233.093 267.509 232.621 267.364 232.053 267.364C231.508 267.364 231.049 267.502 230.678 267.778C230.307 268.051 230.027 268.434 229.837 268.926C229.648 269.415 229.553 269.985 229.553 270.636ZM241.781 266.273V267.409H237.258V266.273H241.781ZM238.576 264.182H239.917V272.5C239.917 272.879 239.972 273.163 240.082 273.352C240.195 273.538 240.339 273.663 240.513 273.727C240.692 273.788 240.879 273.818 241.076 273.818C241.224 273.818 241.345 273.811 241.44 273.795C241.534 273.777 241.61 273.761 241.667 273.75L241.94 274.955C241.849 274.989 241.722 275.023 241.559 275.057C241.396 275.095 241.19 275.114 240.94 275.114C240.561 275.114 240.19 275.032 239.826 274.869C239.466 274.706 239.167 274.458 238.928 274.125C238.693 273.792 238.576 273.371 238.576 272.864V264.182ZM247.363 275.182C246.522 275.182 245.797 274.996 245.187 274.625C244.581 274.25 244.113 273.727 243.783 273.057C243.458 272.383 243.295 271.598 243.295 270.705C243.295 269.811 243.458 269.023 243.783 268.341C244.113 267.655 244.571 267.121 245.158 266.739C245.749 266.352 246.439 266.159 247.227 266.159C247.681 266.159 248.13 266.235 248.573 266.386C249.016 266.538 249.42 266.784 249.783 267.125C250.147 267.462 250.437 267.909 250.653 268.466C250.869 269.023 250.977 269.708 250.977 270.523V271.091H244.249V269.932H249.613C249.613 269.439 249.514 269 249.317 268.614C249.124 268.227 248.848 267.922 248.488 267.699C248.132 267.475 247.711 267.364 247.227 267.364C246.692 267.364 246.23 267.496 245.84 267.761C245.454 268.023 245.156 268.364 244.948 268.784C244.74 269.205 244.636 269.655 244.636 270.136V270.909C244.636 271.568 244.749 272.127 244.977 272.585C245.208 273.04 245.528 273.386 245.937 273.625C246.346 273.86 246.821 273.977 247.363 273.977C247.715 273.977 248.033 273.928 248.317 273.83C248.605 273.727 248.853 273.576 249.062 273.375C249.27 273.17 249.431 272.917 249.545 272.614L250.84 272.977C250.704 273.417 250.475 273.803 250.153 274.136C249.831 274.466 249.433 274.723 248.96 274.909C248.486 275.091 247.954 275.182 247.363 275.182ZM256.312 275.182C255.585 275.182 254.942 274.998 254.386 274.631C253.829 274.259 253.393 273.737 253.079 273.062C252.764 272.384 252.607 271.583 252.607 270.659C252.607 269.742 252.764 268.947 253.079 268.273C253.393 267.598 253.831 267.078 254.391 266.71C254.952 266.343 255.6 266.159 256.335 266.159C256.903 266.159 257.352 266.254 257.681 266.443C258.014 266.629 258.268 266.841 258.442 267.08C258.621 267.314 258.759 267.508 258.857 267.659H258.971V263.364H260.312V275H259.016V273.659H258.857C258.759 273.818 258.619 274.019 258.437 274.261C258.255 274.5 257.996 274.714 257.658 274.903C257.321 275.089 256.872 275.182 256.312 275.182ZM256.494 273.977C257.031 273.977 257.486 273.837 257.857 273.557C258.228 273.273 258.511 272.881 258.704 272.381C258.897 271.877 258.994 271.295 258.994 270.636C258.994 269.985 258.899 269.415 258.71 268.926C258.52 268.434 258.24 268.051 257.869 267.778C257.497 267.502 257.039 267.364 256.494 267.364C255.925 267.364 255.452 267.509 255.073 267.801C254.698 268.089 254.416 268.481 254.227 268.977C254.041 269.47 253.948 270.023 253.948 270.636C253.948 271.258 254.043 271.822 254.232 272.33C254.425 272.833 254.71 273.235 255.085 273.534C255.463 273.83 255.933 273.977 256.494 273.977Z" fill="#374151"/>
<path d="M158.583 206.638C158.526 206.065 158.282 205.62 157.851 205.303C157.42 204.985 156.835 204.827 156.097 204.827C155.595 204.827 155.171 204.898 154.825 205.04C154.48 205.177 154.215 205.369 154.03 205.615C153.85 205.861 153.76 206.141 153.76 206.453C153.751 206.714 153.805 206.941 153.923 207.135C154.047 207.329 154.215 207.497 154.428 207.639C154.641 207.777 154.887 207.897 155.166 208.001C155.446 208.101 155.744 208.186 156.061 208.257L157.368 208.57C158.003 208.712 158.585 208.901 159.115 209.138C159.646 209.375 160.105 209.666 160.493 210.011C160.881 210.357 161.182 210.764 161.395 211.233C161.613 211.702 161.724 212.239 161.729 212.845C161.724 213.735 161.497 214.507 161.047 215.161C160.602 215.809 159.958 216.313 159.115 216.673C158.277 217.028 157.266 217.206 156.083 217.206C154.908 217.206 153.886 217.026 153.014 216.666C152.148 216.306 151.471 215.774 150.983 215.068C150.5 214.358 150.247 213.48 150.223 212.433H153.199C153.232 212.921 153.372 213.328 153.618 213.655C153.869 213.977 154.203 214.221 154.619 214.386C155.041 214.547 155.517 214.628 156.047 214.628C156.568 214.628 157.02 214.552 157.404 214.401C157.792 214.249 158.093 214.038 158.306 213.768C158.519 213.499 158.625 213.188 158.625 212.838C158.625 212.511 158.528 212.237 158.334 212.014C158.145 211.792 157.865 211.602 157.496 211.446C157.131 211.29 156.684 211.148 156.154 211.02L154.57 210.622C153.343 210.324 152.375 209.857 151.665 209.223C150.955 208.589 150.602 207.734 150.607 206.659C150.602 205.778 150.836 205.009 151.31 204.351C151.788 203.693 152.444 203.179 153.277 202.81C154.11 202.44 155.057 202.256 156.118 202.256C157.198 202.256 158.14 202.44 158.945 202.81C159.754 203.179 160.384 203.693 160.834 204.351C161.284 205.009 161.516 205.771 161.53 206.638H158.583ZM166.851 217.206C166.155 217.206 165.535 217.085 164.991 216.844C164.446 216.598 164.015 216.235 163.698 215.757C163.385 215.274 163.229 214.673 163.229 213.953C163.229 213.347 163.34 212.838 163.563 212.426C163.786 212.014 164.089 211.683 164.472 211.432C164.856 211.181 165.291 210.991 165.779 210.864C166.271 210.736 166.787 210.646 167.327 210.594C167.962 210.527 168.473 210.466 168.861 210.409C169.25 210.348 169.531 210.258 169.706 210.139C169.882 210.021 169.969 209.846 169.969 209.614V209.571C169.969 209.121 169.827 208.773 169.543 208.527C169.264 208.281 168.866 208.158 168.35 208.158C167.805 208.158 167.372 208.278 167.05 208.52C166.728 208.757 166.515 209.055 166.411 209.415L163.613 209.188C163.755 208.525 164.034 207.952 164.451 207.469C164.867 206.981 165.405 206.607 166.063 206.347C166.726 206.081 167.493 205.949 168.364 205.949C168.97 205.949 169.55 206.02 170.104 206.162C170.663 206.304 171.158 206.524 171.589 206.822C172.024 207.121 172.367 207.504 172.618 207.973C172.869 208.437 172.995 208.993 172.995 209.642V217H170.126V215.487H170.04C169.865 215.828 169.631 216.129 169.337 216.389C169.044 216.645 168.691 216.846 168.279 216.993C167.867 217.135 167.391 217.206 166.851 217.206ZM167.718 215.118C168.163 215.118 168.556 215.03 168.897 214.855C169.238 214.675 169.505 214.434 169.699 214.131C169.894 213.828 169.991 213.484 169.991 213.101V211.943C169.896 212.005 169.766 212.062 169.6 212.114C169.439 212.161 169.257 212.206 169.053 212.249C168.849 212.286 168.646 212.322 168.442 212.355C168.239 212.384 168.054 212.41 167.888 212.433C167.533 212.485 167.223 212.568 166.958 212.682C166.693 212.795 166.487 212.949 166.34 213.143C166.193 213.333 166.12 213.57 166.12 213.854C166.12 214.266 166.269 214.58 166.567 214.798C166.87 215.011 167.254 215.118 167.718 215.118ZM181.209 206.091V208.364H174.476V206.091H181.209ZM176.017 217V205.303C176.017 204.512 176.171 203.856 176.479 203.335C176.791 202.814 177.217 202.424 177.757 202.163C178.297 201.903 178.91 201.773 179.596 201.773C180.06 201.773 180.484 201.808 180.868 201.879C181.256 201.95 181.545 202.014 181.734 202.071L181.194 204.344C181.076 204.306 180.929 204.27 180.754 204.237C180.584 204.204 180.408 204.188 180.229 204.188C179.783 204.188 179.473 204.292 179.298 204.5C179.123 204.704 179.035 204.99 179.035 205.359V217H176.017ZM187.638 217.213C186.516 217.213 185.55 216.986 184.74 216.531C183.935 216.072 183.315 215.423 182.879 214.585C182.444 213.742 182.226 212.746 182.226 211.595C182.226 210.473 182.444 209.488 182.879 208.641C183.315 207.793 183.928 207.133 184.719 206.659C185.514 206.186 186.447 205.949 187.517 205.949C188.237 205.949 188.907 206.065 189.527 206.297C190.152 206.524 190.697 206.867 191.161 207.327C191.629 207.786 191.994 208.364 192.254 209.06C192.515 209.751 192.645 210.561 192.645 211.489V212.32H183.433V210.445H189.797C189.797 210.009 189.702 209.623 189.513 209.287C189.324 208.951 189.061 208.688 188.725 208.499C188.393 208.304 188.007 208.207 187.567 208.207C187.108 208.207 186.7 208.314 186.345 208.527C185.995 208.735 185.72 209.017 185.521 209.372C185.323 209.723 185.221 210.113 185.216 210.544V212.327C185.216 212.866 185.316 213.333 185.514 213.726C185.718 214.119 186.004 214.422 186.374 214.635C186.743 214.848 187.181 214.955 187.688 214.955C188.024 214.955 188.332 214.907 188.611 214.812C188.89 214.718 189.129 214.576 189.328 214.386C189.527 214.197 189.679 213.965 189.783 213.69L192.581 213.875C192.439 214.547 192.148 215.134 191.708 215.636C191.272 216.134 190.709 216.522 190.017 216.801C189.331 217.076 188.538 217.213 187.638 217.213ZM197.645 202.455V217H194.619V202.455H197.645ZM201.937 221.091C201.553 221.091 201.193 221.06 200.857 220.999C200.526 220.942 200.251 220.868 200.033 220.778L200.715 218.52C201.07 218.629 201.39 218.688 201.674 218.697C201.963 218.707 202.211 218.641 202.42 218.499C202.633 218.357 202.805 218.115 202.938 217.774L203.116 217.312L199.202 206.091H202.384L204.643 214.102H204.756L207.036 206.091H210.239L205.999 218.179C205.796 218.766 205.519 219.277 205.168 219.713C204.823 220.153 204.385 220.492 203.854 220.729C203.324 220.97 202.685 221.091 201.937 221.091ZM224.364 206.638C224.307 206.065 224.063 205.62 223.632 205.303C223.201 204.985 222.617 204.827 221.878 204.827C221.376 204.827 220.952 204.898 220.607 205.04C220.261 205.177 219.996 205.369 219.811 205.615C219.631 205.861 219.541 206.141 219.541 206.453C219.532 206.714 219.586 206.941 219.705 207.135C219.828 207.329 219.996 207.497 220.209 207.639C220.422 207.777 220.668 207.897 220.948 208.001C221.227 208.101 221.525 208.186 221.843 208.257L223.149 208.57C223.784 208.712 224.366 208.901 224.896 209.138C225.427 209.375 225.886 209.666 226.274 210.011C226.663 210.357 226.963 210.764 227.176 211.233C227.394 211.702 227.505 212.239 227.51 212.845C227.505 213.735 227.278 214.507 226.828 215.161C226.383 215.809 225.739 216.313 224.896 216.673C224.058 217.028 223.048 217.206 221.864 217.206C220.69 217.206 219.667 217.026 218.796 216.666C217.929 216.306 217.252 215.774 216.764 215.068C216.281 214.358 216.028 213.48 216.004 212.433H218.98C219.013 212.921 219.153 213.328 219.399 213.655C219.65 213.977 219.984 214.221 220.401 214.386C220.822 214.547 221.298 214.628 221.828 214.628C222.349 214.628 222.801 214.552 223.185 214.401C223.573 214.249 223.874 214.038 224.087 213.768C224.3 213.499 224.406 213.188 224.406 212.838C224.406 212.511 224.309 212.237 224.115 212.014C223.926 211.792 223.646 211.602 223.277 211.446C222.913 211.29 222.465 211.148 221.935 211.02L220.351 210.622C219.125 210.324 218.156 209.857 217.446 209.223C216.736 208.589 216.383 207.734 216.388 206.659C216.383 205.778 216.618 205.009 217.091 204.351C217.569 203.693 218.225 203.179 219.058 202.81C219.892 202.44 220.839 202.256 221.899 202.256C222.979 202.256 223.921 202.44 224.726 202.81C225.536 203.179 226.165 203.693 226.615 204.351C227.065 205.009 227.297 205.771 227.311 206.638H224.364ZM234.493 217.213C233.371 217.213 232.405 216.986 231.596 216.531C230.791 216.072 230.171 215.423 229.735 214.585C229.299 213.742 229.081 212.746 229.081 211.595C229.081 210.473 229.299 209.488 229.735 208.641C230.171 207.793 230.784 207.133 231.574 206.659C232.37 206.186 233.303 205.949 234.373 205.949C235.092 205.949 235.762 206.065 236.383 206.297C237.008 206.524 237.552 206.867 238.016 207.327C238.485 207.786 238.849 208.364 239.11 209.06C239.37 209.751 239.501 210.561 239.501 211.489V212.32H230.289V210.445H236.653C236.653 210.009 236.558 209.623 236.368 209.287C236.179 208.951 235.916 208.688 235.58 208.499C235.249 208.304 234.863 208.207 234.422 208.207C233.963 208.207 233.556 208.314 233.201 208.527C232.85 208.735 232.576 209.017 232.377 209.372C232.178 209.723 232.076 210.113 232.072 210.544V212.327C232.072 212.866 232.171 213.333 232.37 213.726C232.573 214.119 232.86 214.422 233.229 214.635C233.599 214.848 234.037 214.955 234.543 214.955C234.879 214.955 235.187 214.907 235.466 214.812C235.746 214.718 235.985 214.576 236.184 214.386C236.383 214.197 236.534 213.965 236.638 213.69L239.437 213.875C239.295 214.547 239.003 215.134 238.563 215.636C238.127 216.134 237.564 216.522 236.873 216.801C236.186 217.076 235.393 217.213 234.493 217.213ZM246.404 217.213C245.287 217.213 244.325 216.976 243.52 216.503C242.72 216.025 242.105 215.362 241.674 214.514C241.248 213.667 241.035 212.691 241.035 211.588C241.035 210.471 241.25 209.491 241.681 208.648C242.117 207.8 242.734 207.14 243.535 206.666C244.335 206.188 245.287 205.949 246.39 205.949C247.341 205.949 248.175 206.122 248.89 206.467C249.605 206.813 250.171 207.298 250.587 207.923C251.004 208.548 251.233 209.282 251.276 210.125H248.421C248.34 209.58 248.127 209.143 247.782 208.811C247.441 208.475 246.993 208.307 246.439 208.307C245.971 208.307 245.561 208.435 245.211 208.69C244.865 208.941 244.595 209.308 244.401 209.791C244.207 210.274 244.11 210.859 244.11 211.545C244.11 212.241 244.205 212.833 244.394 213.321C244.588 213.809 244.86 214.18 245.211 214.436C245.561 214.692 245.971 214.82 246.439 214.82C246.785 214.82 247.095 214.749 247.37 214.607C247.649 214.464 247.879 214.259 248.059 213.989C248.243 213.714 248.364 213.385 248.421 213.001H251.276C251.229 213.835 251.001 214.569 250.594 215.203C250.192 215.833 249.635 216.325 248.925 216.68C248.215 217.036 247.375 217.213 246.404 217.213ZM260.209 212.355V206.091H263.235V217H260.33V215.018H260.216C259.97 215.658 259.56 216.171 258.987 216.56C258.419 216.948 257.726 217.142 256.906 217.142C256.177 217.142 255.536 216.976 254.982 216.645C254.428 216.313 253.994 215.842 253.682 215.232C253.374 214.621 253.218 213.889 253.213 213.037V206.091H256.239V212.497C256.244 213.141 256.416 213.65 256.757 214.024C257.098 214.398 257.555 214.585 258.128 214.585C258.493 214.585 258.834 214.502 259.151 214.337C259.468 214.166 259.724 213.915 259.918 213.584C260.117 213.252 260.214 212.843 260.209 212.355ZM265.655 217V206.091H268.588V207.994H268.702C268.9 207.317 269.234 206.806 269.703 206.46C270.172 206.11 270.711 205.935 271.322 205.935C271.474 205.935 271.637 205.944 271.812 205.963C271.988 205.982 272.141 206.008 272.274 206.041V208.726C272.132 208.683 271.935 208.645 271.684 208.612C271.434 208.579 271.204 208.562 270.996 208.562C270.55 208.562 270.153 208.66 269.802 208.854C269.457 209.043 269.182 209.308 268.979 209.649C268.78 209.99 268.68 210.383 268.68 210.828V217H265.655ZM273.838 217V206.091H276.864V217H273.838ZM275.358 204.685C274.908 204.685 274.522 204.536 274.2 204.237C273.883 203.934 273.725 203.572 273.725 203.151C273.725 202.734 273.883 202.376 274.2 202.078C274.522 201.775 274.908 201.624 275.358 201.624C275.808 201.624 276.191 201.775 276.509 202.078C276.831 202.376 276.992 202.734 276.992 203.151C276.992 203.572 276.831 203.934 276.509 204.237C276.191 204.536 275.808 204.685 275.358 204.685ZM285.09 206.091V208.364H278.52V206.091H285.09ZM280.012 203.477H283.037V213.648C283.037 213.927 283.08 214.145 283.165 214.301C283.251 214.453 283.369 214.559 283.52 214.621C283.677 214.682 283.857 214.713 284.06 214.713C284.202 214.713 284.344 214.701 284.486 214.678C284.628 214.649 284.737 214.628 284.813 214.614L285.289 216.865C285.137 216.912 284.924 216.967 284.65 217.028C284.375 217.095 284.041 217.135 283.648 217.149C282.919 217.178 282.28 217.08 281.731 216.858C281.186 216.635 280.762 216.29 280.459 215.821C280.156 215.352 280.007 214.76 280.012 214.045V203.477ZM288.929 221.091C288.545 221.091 288.185 221.06 287.849 220.999C287.518 220.942 287.243 220.868 287.025 220.778L287.707 218.52C288.062 218.629 288.382 218.688 288.666 218.697C288.955 218.707 289.203 218.641 289.412 218.499C289.625 218.357 289.798 218.115 289.93 217.774L290.108 217.312L286.194 206.091H289.376L291.635 214.102H291.748L294.028 206.091H297.231L292.991 218.179C292.788 218.766 292.511 219.277 292.16 219.713C291.815 220.153 291.377 220.492 290.846 220.729C290.316 220.97 289.677 221.091 288.929 221.091Z" fill="#111827"/>
<circle opacity="0.2" cx="223" cy="125" r="40" fill="#00BB98"/>
<g clip-path="url(#clip0_49_4226)">
<path d="M208.013 119.487C208.013 117.833 208.029 116.176 208.004 114.523C207.996 113.928 208.182 113.569 208.733 113.321C213.266 111.28 217.794 109.226 222.317 107.158C222.509 107.058 222.72 107.004 222.936 107C223.151 106.997 223.365 107.044 223.559 107.139C228.06 109.196 232.565 111.24 237.075 113.273C237.569 113.496 237.895 113.844 237.886 114.391C237.809 119.096 238.443 123.859 237.323 128.489C235.549 135.825 231.318 141.085 224.247 143.752C223.435 144.076 222.535 144.083 221.72 143.77C215.552 141.538 211.58 137.094 209.277 130.963C208.213 128.136 207.933 125.167 208.009 122.155C208.033 121.266 208.015 120.376 208.013 119.487ZM213.714 125.987C213.68 126.46 213.896 126.88 214.254 127.251C216.269 129.31 218.283 131.371 220.295 133.434C220.587 133.731 220.801 133.8 221.127 133.465C224.653 129.843 228.184 126.227 231.723 122.618C231.944 122.404 232.102 122.131 232.179 121.829C232.256 121.528 232.25 121.21 232.16 120.913C231.787 119.501 230.208 119.142 229.12 120.246C226.532 122.87 223.947 125.499 221.391 128.158C220.882 128.688 220.569 128.716 220.062 128.158C218.973 126.968 217.828 125.835 216.685 124.7C216.142 124.161 215.486 123.956 214.758 124.301C214.091 124.621 213.696 125.142 213.714 125.987Z" fill="#00BB98"/>
</g>
<defs>
<filter id="filter0_d_49_4226" x="0" y="0" width="446" height="410" filterUnits="userSpaceOnUse" color-interpolation-filters="sRGB">
<feFlood flood-opacity="0" result="BackgroundImageFix"/>
<feColorMatrix in="SourceAlpha" type="matrix" values="0 0 0 0 0 0 0 0 0 0 0 0 0 0 0 0 0 0 127 0" result="hardAlpha"/>
<feOffset dy="25"/>
<feGaussianBlur stdDeviation="35"/>
<feColorMatrix type="matrix" values="0 0 0 0 0.107708 0 0 0 0 0.211814 0 0 0 0 0.5875 0 0 0 0.08 0"/>
<feBlend mode="normal" in2="BackgroundImageFix" result="effect1_dropShadow_49_4226"/>
<feBlend mode="normal" in="SourceGraphic" in2="effect1_dropShadow_49_4226" result="shape"/>
</filter>
<clipPath id="clip0_49_4226">
<rect width="30" height="37" fill="white" transform="translate(208 107)"/>
</clipPath>
</defs>
</svg>
