<svg width="350" height="319" viewBox="0 0 350 319" fill="none" xmlns="http://www.w3.org/2000/svg">
<g filter="url(#filter0_d_49_5891)">
<rect x="70.2578" y="45" width="209" height="178.217" rx="10" fill="white"/>
<g filter="url(#filter1_d_49_5891)">
<rect x="94.5598" y="166.512" width="160.395" height="32.4031" rx="6.48062" fill="white"/>
<path d="M106.113 186.992L106.978 184.498H110.66L111.521 186.992H113.031L109.638 177.566H107.995L104.603 186.992H106.113ZM107.392 183.301L108.782 179.278H108.856L110.246 183.301H107.392ZM115.658 177.566H114.281V186.992H115.658V177.566ZM118.885 177.566H117.509V186.992H118.885V177.566ZM129.418 180.042H130.79C130.749 178.532 129.414 177.437 127.499 177.437C125.607 177.437 124.158 178.519 124.158 180.143C124.158 181.455 125.097 182.224 126.611 182.633L127.725 182.937C128.733 183.204 129.511 183.536 129.511 184.373C129.511 185.294 128.631 185.901 127.421 185.901C126.325 185.901 125.414 185.413 125.331 184.387H123.904C123.996 186.095 125.317 187.149 127.43 187.149C129.644 187.149 130.919 185.984 130.919 184.387C130.919 182.689 129.405 182.03 128.208 181.736L127.287 181.497C126.551 181.308 125.571 180.963 125.575 180.061C125.575 179.26 126.307 178.666 127.467 178.666C128.549 178.666 129.317 179.172 129.418 180.042ZM132.508 189.643H133.884V185.892H133.967C134.216 186.343 134.722 187.13 136.011 187.13C137.723 187.13 138.966 185.759 138.966 183.471C138.966 181.179 137.705 179.83 135.997 179.83C134.685 179.83 134.211 180.631 133.967 181.068H133.852V179.922H132.508V189.643ZM133.857 183.457C133.857 181.98 134.501 180.999 135.702 180.999C136.95 180.999 137.576 182.053 137.576 183.457C137.576 184.875 136.931 185.957 135.702 185.957C134.519 185.957 133.857 184.944 133.857 183.457ZM143.555 187.135C145.096 187.135 146.187 186.375 146.5 185.225L145.198 184.99C144.949 185.657 144.351 185.998 143.568 185.998C142.39 185.998 141.598 185.234 141.562 183.872H146.588V183.384C146.588 180.829 145.06 179.83 143.458 179.83C141.488 179.83 140.19 181.331 140.19 183.503C140.19 185.699 141.47 187.135 143.555 187.135ZM141.566 182.841C141.621 181.837 142.349 180.967 143.467 180.967C144.535 180.967 145.235 181.759 145.239 182.841H141.566ZM149.491 182.795C149.491 181.667 150.181 181.022 151.139 181.022C152.073 181.022 152.639 181.635 152.639 182.661V186.992H154.015V182.495C154.015 180.746 153.053 179.83 151.608 179.83C150.545 179.83 149.85 180.323 149.523 181.073H149.436V179.922H148.115V186.992H149.491V182.795ZM159.161 179.922H157.711V178.229H156.335V179.922H155.3V181.027H156.335V185.202C156.331 186.486 157.311 187.107 158.397 187.084C158.834 187.08 159.129 186.997 159.29 186.937L159.042 185.8C158.949 185.818 158.779 185.86 158.558 185.86C158.112 185.86 157.711 185.713 157.711 184.916V181.027H159.161V179.922ZM169.365 180.042H170.737C170.696 178.532 169.361 177.437 167.446 177.437C165.554 177.437 164.105 178.519 164.105 180.143C164.105 181.455 165.043 182.224 166.558 182.633L167.672 182.937C168.68 183.204 169.457 183.536 169.457 184.373C169.457 185.294 168.578 185.901 167.368 185.901C166.272 185.901 165.361 185.413 165.278 184.387H163.851C163.943 186.095 165.264 187.149 167.377 187.149C169.591 187.149 170.866 185.984 170.866 184.387C170.866 182.689 169.352 182.03 168.155 181.736L167.234 181.497C166.498 181.308 165.518 180.963 165.522 180.061C165.522 179.26 166.254 178.666 167.414 178.666C168.496 178.666 169.264 179.172 169.365 180.042ZM176.933 184.06C176.938 185.262 176.045 185.832 175.272 185.832C174.42 185.832 173.831 185.216 173.831 184.254V179.922H172.455V184.419C172.455 186.173 173.417 187.084 174.775 187.084C175.838 187.084 176.561 186.523 176.887 185.768H176.961V186.992H178.314V179.922H176.933V184.06ZM180.163 186.992H181.54V182.633C181.54 181.681 182.207 181.018 182.989 181.018C183.754 181.018 184.283 181.524 184.283 182.293V186.992H185.654V182.486C185.654 181.635 186.175 181.018 187.072 181.018C187.799 181.018 188.398 181.423 188.398 182.38V186.992H189.774V182.251C189.774 180.636 188.872 179.83 187.592 179.83C186.575 179.83 185.811 180.318 185.47 181.073H185.397C185.088 180.3 184.439 179.83 183.496 179.83C182.561 179.83 181.866 180.295 181.572 181.073H181.484V179.922H180.163V186.992ZM191.618 186.992H192.995V182.633C192.995 181.681 193.662 181.018 194.444 181.018C195.209 181.018 195.738 181.524 195.738 182.293V186.992H197.109V182.486C197.109 181.635 197.63 181.018 198.527 181.018C199.254 181.018 199.853 181.423 199.853 182.38V186.992H201.229V182.251C201.229 180.636 200.327 179.83 199.047 179.83C198.03 179.83 197.266 180.318 196.925 181.073H196.852C196.543 180.3 195.894 179.83 194.951 179.83C194.016 179.83 193.321 180.295 193.027 181.073H192.939V179.922H191.618V186.992ZM205.131 187.149C206.3 187.149 206.958 186.555 207.22 186.026H207.276V186.992H208.62V182.297C208.62 180.24 207 179.83 205.876 179.83C204.597 179.83 203.419 180.346 202.958 181.635L204.252 181.929C204.454 181.428 204.97 180.944 205.895 180.944C206.783 180.944 207.239 181.409 207.239 182.21V182.242C207.239 182.744 206.723 182.735 205.453 182.882C204.114 183.038 202.742 183.388 202.742 184.995C202.742 186.385 203.787 187.149 205.131 187.149ZM205.43 186.044C204.652 186.044 204.091 185.694 204.091 185.013C204.091 184.277 204.744 184.014 205.54 183.908C205.987 183.849 207.046 183.729 207.243 183.531V184.442C207.243 185.28 206.576 186.044 205.43 186.044ZM210.453 186.992H211.829V182.675C211.829 181.75 212.542 181.082 213.518 181.082C213.803 181.082 214.126 181.133 214.236 181.165V179.849C214.098 179.83 213.826 179.817 213.652 179.817C212.823 179.817 212.114 180.286 211.857 181.045H211.783V179.922H210.453V186.992ZM216.512 189.643C217.649 189.643 218.367 189.05 218.777 187.936L221.699 179.936L220.213 179.922L218.422 185.409H218.349L216.558 179.922H215.085L217.672 187.084L217.502 187.554C217.152 188.493 216.659 188.571 215.905 188.364L215.573 189.491C215.739 189.565 216.098 189.643 216.512 189.643Z" fill="#1C1C1C"/>
<path fill-rule="evenodd" clip-rule="evenodd" d="M235.306 178.862C235.043 179.126 235.043 179.551 235.306 179.814L237.925 182.433L235.306 185.053C235.043 185.316 235.043 185.741 235.306 186.005C235.569 186.268 235.994 186.268 236.258 186.005L239.356 182.906C239.62 182.643 239.62 182.217 239.356 181.954L236.258 178.856C236.001 178.599 235.569 178.599 235.306 178.862Z" fill="#969696"/>
<rect x="94.9649" y="166.917" width="159.585" height="31.593" rx="6.07558" stroke="#E8E8E8" stroke-width="0.810077"/>
</g>
<path d="M105.8 110.838H108.396L108.409 107.731C114.25 107.303 117.592 103.961 117.592 99.4873C117.592 94.3921 113.049 92.4176 109.459 91.5338L108.451 91.2715L108.478 82.4067C111.061 82.7519 112.828 84.1879 113.09 86.4524H117.205C117.095 82.241 113.615 79.0927 108.492 78.6785L108.506 75.4888H105.91L105.896 78.7061C100.939 79.2032 97.3076 82.2962 97.3076 86.7562C97.3076 90.6915 100.124 92.9975 104.667 94.2264L105.855 94.544L105.827 103.947C103.135 103.616 101.05 102.152 100.829 99.4873H96.5482C96.8105 104.251 100.249 107.317 105.813 107.731L105.8 110.838ZM108.423 103.947L108.451 95.262C111.254 96.0353 113.367 97.0571 113.367 99.4459C113.367 101.862 111.351 103.561 108.423 103.947ZM105.869 90.5811C103.811 89.9735 101.547 88.8827 101.561 86.5077C101.561 84.4365 103.204 82.8209 105.882 82.4205L105.869 90.5811ZM132.149 107.689C137.921 107.689 142.16 104.237 142.146 99.5426C142.16 95.9663 139.992 93.3979 136.236 92.818V92.5971C139.191 91.8376 141.111 89.5179 141.097 86.342C141.111 82.1857 137.7 78.637 132.259 78.637C127.068 78.637 122.898 81.7715 122.759 86.3696H126.888C126.985 83.7737 129.429 82.1995 132.204 82.1995C135.09 82.1995 136.982 83.9532 136.968 86.5629C136.982 89.2969 134.786 91.092 131.652 91.092H129.263V94.5716H131.652C135.573 94.5716 137.838 96.56 137.838 99.4045C137.838 102.152 135.449 104.016 132.121 104.016C129.056 104.016 126.667 102.442 126.501 99.9292H122.166C122.345 104.541 126.432 107.689 132.149 107.689ZM147.366 107.303H165.979V103.644H153.248V103.436L158.868 97.5542C164.046 92.3209 165.523 89.8216 165.523 86.6596C165.523 82.1167 161.823 78.637 156.493 78.637C151.204 78.637 147.338 82.0615 147.338 87.2257H151.411C151.398 84.1879 153.358 82.1995 156.41 82.1995C159.282 82.1995 161.464 83.967 161.464 86.7838C161.464 89.2831 159.972 91.0782 156.935 94.2955L147.366 104.21V107.303ZM180.767 107.689C186.65 107.689 190.806 104.348 190.834 99.7635C190.806 96.201 188.307 93.2046 185.145 92.6385V92.4728C187.892 91.81 189.757 89.2279 189.784 86.1763C189.757 81.8543 185.946 78.637 180.767 78.637C175.534 78.637 171.723 81.8543 171.751 86.1763C171.723 89.2141 173.587 91.81 176.39 92.4728V92.6385C173.173 93.2046 170.674 96.201 170.701 99.7635C170.674 104.348 174.83 107.689 180.767 107.689ZM180.767 104.196C177.233 104.196 174.996 102.318 175.023 99.4873C174.996 96.5462 177.426 94.4474 180.767 94.4474C184.054 94.4474 186.484 96.5462 186.512 99.4873C186.484 102.318 184.261 104.196 180.767 104.196ZM180.767 91.0367C177.909 91.0367 175.879 89.2279 175.907 86.5353C175.879 83.8841 177.84 82.1305 180.767 82.1305C183.64 82.1305 185.6 83.8841 185.628 86.5353C185.6 89.2279 183.584 91.0367 180.767 91.0367Z" fill="#1C1C1C"/>
<path d="M100.856 134.559H101.961C101.91 133.137 100.599 132.074 98.7759 132.074C96.9716 132.074 95.554 133.123 95.554 134.706C95.554 135.977 96.4745 136.732 97.9474 137.155L99.1073 137.486C100.101 137.763 100.985 138.112 100.985 139.051C100.985 140.082 99.991 140.764 98.6838 140.764C97.5608 140.764 96.5666 140.267 96.4745 139.199H95.2962C95.4067 140.745 96.6587 141.795 98.6838 141.795C100.856 141.795 102.09 140.598 102.09 139.07C102.09 137.302 100.414 136.732 99.4387 136.474L98.4813 136.216C97.7817 136.032 96.6587 135.664 96.6587 134.651C96.6587 133.749 97.4871 133.086 98.7391 133.086C99.8806 133.086 100.746 133.629 100.856 134.559ZM103.819 144.28H104.906V140.543H104.998C105.237 140.929 105.697 141.776 107.06 141.776C108.827 141.776 110.061 140.359 110.061 138.112C110.061 135.885 108.827 134.467 107.041 134.467C105.66 134.467 105.237 135.314 104.998 135.682H104.869V134.559H103.819V144.28ZM104.887 138.094C104.887 136.511 105.587 135.443 106.912 135.443C108.293 135.443 108.974 136.603 108.974 138.094C108.974 139.604 108.275 140.8 106.912 140.8C105.605 140.8 104.887 139.696 104.887 138.094ZM114.682 141.776C116.118 141.776 117.167 141.058 117.499 139.99L116.449 139.696C116.173 140.432 115.533 140.8 114.682 140.8C113.407 140.8 112.528 139.977 112.477 138.462H117.609V138.002C117.609 135.369 116.044 134.467 114.571 134.467C112.657 134.467 111.386 135.977 111.386 138.149C111.386 140.322 112.638 141.776 114.682 141.776ZM112.477 137.523C112.551 136.423 113.329 135.443 114.571 135.443C115.75 135.443 116.504 136.327 116.504 137.523H112.477ZM120.348 137.376C120.348 136.142 121.112 135.443 122.152 135.443C123.16 135.443 123.772 136.101 123.772 137.21V141.629H124.858V137.137C124.858 135.332 123.896 134.467 122.465 134.467C121.397 134.467 120.734 134.946 120.403 135.664H120.311V134.559H119.261V141.629H120.348V137.376ZM129.918 134.559H128.408V132.865H127.322V134.559H126.254V135.48H127.322V139.898C127.322 141.132 128.316 141.721 129.237 141.721C129.642 141.721 129.899 141.647 130.047 141.592L129.826 140.616C129.734 140.635 129.586 140.672 129.347 140.672C128.868 140.672 128.408 140.524 128.408 139.604V135.48H129.918V134.559ZM138.272 134.559H136.762V132.865H135.676V134.559H134.608V135.48H135.676V139.898C135.676 141.132 136.67 141.721 137.591 141.721C137.996 141.721 138.253 141.647 138.401 141.592L138.18 140.616C138.088 140.635 137.94 140.672 137.701 140.672C137.222 140.672 136.762 140.524 136.762 139.604V135.48H138.272V134.559ZM141.144 137.376C141.144 136.142 141.931 135.443 143.003 135.443C144.025 135.443 144.642 136.087 144.642 137.21V141.629H145.728V137.137C145.728 135.319 144.762 134.467 143.316 134.467C142.202 134.467 141.567 134.932 141.236 135.664H141.144V132.203H140.058V141.629H141.144V137.376ZM147.715 141.629H148.802V134.559H147.715V141.629ZM148.268 133.381C148.691 133.381 149.041 133.049 149.041 132.644C149.041 132.239 148.691 131.908 148.268 131.908C147.844 131.908 147.494 132.239 147.494 132.644C147.494 133.049 147.844 133.381 148.268 133.381ZM155.799 136.142C155.458 135.139 154.694 134.467 153.295 134.467C151.804 134.467 150.699 135.314 150.699 136.511C150.699 137.486 151.279 138.14 152.577 138.444L153.755 138.72C154.469 138.886 154.805 139.226 154.805 139.714C154.805 140.322 154.16 140.819 153.148 140.819C152.259 140.819 151.702 140.437 151.509 139.677L150.478 139.935C150.731 141.136 151.721 141.776 153.166 141.776C154.809 141.776 155.928 140.879 155.928 139.659C155.928 138.674 155.311 138.053 154.05 137.744L153 137.486C152.163 137.279 151.785 136.999 151.785 136.455C151.785 135.848 152.43 135.406 153.295 135.406C154.243 135.406 154.634 135.931 154.823 136.419L155.799 136.142ZM161.208 141.629H162.294V137.21C162.294 136.175 163.049 135.443 163.896 135.443C164.72 135.443 165.295 135.981 165.295 136.787V141.629H166.4V137.026C166.4 136.115 166.971 135.443 167.965 135.443C168.738 135.443 169.401 135.853 169.401 136.897V141.629H170.487V136.897C170.487 135.236 169.594 134.467 168.333 134.467C167.321 134.467 166.58 134.932 166.216 135.664H166.142C165.793 134.909 165.176 134.467 164.246 134.467C163.325 134.467 162.644 134.909 162.35 135.664H162.258V134.559H161.208V141.629ZM175.345 141.776C177.26 141.776 178.549 140.322 178.549 138.131C178.549 135.922 177.26 134.467 175.345 134.467C173.431 134.467 172.142 135.922 172.142 138.131C172.142 140.322 173.431 141.776 175.345 141.776ZM175.345 140.8C173.891 140.8 173.228 139.548 173.228 138.131C173.228 136.713 173.891 135.443 175.345 135.443C176.8 135.443 177.463 136.713 177.463 138.131C177.463 139.548 176.8 140.8 175.345 140.8ZM181.293 137.376C181.293 136.142 182.057 135.443 183.098 135.443C184.106 135.443 184.718 136.101 184.718 137.21V141.629H185.804V137.137C185.804 135.332 184.842 134.467 183.411 134.467C182.343 134.467 181.68 134.946 181.349 135.664H181.257V134.559H180.207V141.629H181.293V137.376ZM190.864 134.559H189.354V132.865H188.268V134.559H187.2V135.48H188.268V139.898C188.268 141.132 189.262 141.721 190.182 141.721C190.587 141.721 190.845 141.647 190.992 141.592L190.771 140.616C190.679 140.635 190.532 140.672 190.293 140.672C189.814 140.672 189.354 140.524 189.354 139.604V135.48H190.864V134.559ZM193.736 137.376C193.736 136.142 194.523 135.443 195.595 135.443C196.617 135.443 197.234 136.087 197.234 137.21V141.629H198.32V137.137C198.32 135.319 197.353 134.467 195.908 134.467C194.794 134.467 194.159 134.932 193.828 135.664H193.736V132.203H192.649V141.629H193.736V137.376Z" fill="#969696"/>
<rect x="206.351" y="127.629" width="45.3643" height="19.4419" rx="4.86047" fill="white"/>
<rect x="206.351" y="127.629" width="45.3643" height="19.4419" rx="4.86047" fill="#00BA34" fill-opacity="0.1"/>
<path d="M214.844 141.355C216.384 141.355 217.484 140.266 217.48 138.774C217.484 137.293 216.452 136.216 215.057 136.216C214.488 136.216 213.961 136.433 213.662 136.725H213.617L213.86 134.582H217.11V133.591H212.899L212.469 137.45L213.527 137.608C213.815 137.349 214.331 137.174 214.795 137.174C215.704 137.181 216.362 137.862 216.362 138.797C216.362 139.717 215.722 140.382 214.844 140.382C214.103 140.382 213.516 139.911 213.456 139.253H212.334C212.379 140.472 213.437 141.355 214.844 141.355ZM221.52 141.355C223.12 141.37 224.183 140.218 224.179 138.748C224.183 137.282 223.117 136.231 221.789 136.231C220.981 136.231 220.282 136.62 219.889 137.267H219.833C219.837 135.528 220.495 134.496 221.617 134.496C222.354 134.496 222.818 134.945 222.975 135.581H224.115C223.939 134.369 222.986 133.486 221.617 133.486C219.837 133.486 218.726 135.016 218.726 137.679C218.723 140.498 220.159 141.343 221.52 141.355ZM221.516 140.382C220.626 140.382 219.975 139.634 219.975 138.774C219.979 137.918 220.66 137.17 221.542 137.17C222.417 137.17 223.061 137.877 223.057 138.763C223.061 139.668 222.391 140.382 221.516 140.382ZM229.539 139.814C229.542 140.678 230.085 141.407 231.098 141.407C232.1 141.407 232.65 140.678 232.65 139.814V139.41C232.65 138.542 232.115 137.817 231.098 137.817C230.1 137.817 229.542 138.546 229.539 139.41V139.814ZM225.687 135.431C225.687 136.295 226.233 137.024 227.246 137.024C228.245 137.024 228.798 136.299 228.795 135.431V135.027C228.798 134.16 228.26 133.434 227.246 133.434C226.252 133.434 225.687 134.16 225.687 135.027V135.431ZM226.001 141.25H226.895L232.16 133.591H231.266L226.001 141.25ZM230.41 139.41C230.414 138.98 230.601 138.565 231.098 138.565C231.614 138.565 231.775 138.98 231.775 139.41V139.814C231.775 140.244 231.599 140.659 231.098 140.659C230.59 140.659 230.414 140.24 230.41 139.814V139.41ZM226.562 135.027C226.562 134.601 226.749 134.182 227.246 134.182C227.762 134.182 227.923 134.597 227.923 135.027V135.431C227.923 135.861 227.747 136.276 227.246 136.276C226.738 136.276 226.562 135.861 226.562 135.431V135.027Z" fill="#00BA34"/>
<path d="M240.78 134.921C240.78 135.147 240.962 135.326 241.185 135.326H243.449L239.038 139.737C238.88 139.895 238.88 140.15 239.038 140.308C239.196 140.466 239.451 140.466 239.609 140.308L244.02 135.897V138.161C244.02 138.384 244.202 138.566 244.425 138.566C244.648 138.566 244.83 138.384 244.83 138.161V134.921C244.83 134.698 244.648 134.516 244.425 134.516H241.185C240.962 134.516 240.78 134.698 240.78 134.921Z" fill="#00BA34"/>
</g>
<defs>
<filter id="filter0_d_49_5891" x="0.257812" y="0" width="349" height="318.217" filterUnits="userSpaceOnUse" color-interpolation-filters="sRGB">
<feFlood flood-opacity="0" result="BackgroundImageFix"/>
<feColorMatrix in="SourceAlpha" type="matrix" values="0 0 0 0 0 0 0 0 0 0 0 0 0 0 0 0 0 0 127 0" result="hardAlpha"/>
<feOffset dy="25"/>
<feGaussianBlur stdDeviation="35"/>
<feColorMatrix type="matrix" values="0 0 0 0 0.107708 0 0 0 0 0.211814 0 0 0 0 0.5875 0 0 0 0.08 0"/>
<feBlend mode="normal" in2="BackgroundImageFix" result="effect1_dropShadow_49_5891"/>
<feBlend mode="normal" in="SourceGraphic" in2="effect1_dropShadow_49_5891" result="shape"/>
</filter>
<filter id="filter1_d_49_5891" x="93.7497" y="166.512" width="162.015" height="34.0225" filterUnits="userSpaceOnUse" color-interpolation-filters="sRGB">
<feFlood flood-opacity="0" result="BackgroundImageFix"/>
<feColorMatrix in="SourceAlpha" type="matrix" values="0 0 0 0 0 0 0 0 0 0 0 0 0 0 0 0 0 0 127 0" result="hardAlpha"/>
<feOffset dy="0.810077"/>
<feGaussianBlur stdDeviation="0.405039"/>
<feColorMatrix type="matrix" values="0 0 0 0 0 0 0 0 0 0 0 0 0 0 0 0 0 0 0.06 0"/>
<feBlend mode="normal" in2="BackgroundImageFix" result="effect1_dropShadow_49_5891"/>
<feBlend mode="normal" in="SourceGraphic" in2="effect1_dropShadow_49_5891" result="shape"/>
</filter>
</defs>
</svg>
