<svg width="55" height="60" viewBox="0 0 55 60" fill="none" xmlns="http://www.w3.org/2000/svg">
<path opacity="0.3" d="M23.1235 1.17634C25.8472 -0.392113 29.2029 -0.392114 31.9266 1.17634L50.351 11.7862C53.0747 13.3546 54.7526 16.2533 54.7526 19.3902V40.6098C54.7526 43.7467 53.0747 46.6454 50.351 48.2138L31.9266 58.8237C29.2029 60.3921 25.8472 60.3921 23.1235 58.8237L4.69915 48.2138C1.97547 46.6454 0.297607 43.7467 0.297607 40.6098V19.3902C0.297607 16.2533 1.97547 13.3546 4.69915 11.7862L23.1235 1.17634Z" fill="#FD4C5C"/>
<path d="M40.5509 26.8942L34.2951 32.9763L35.7735 41.561C35.7846 41.6302 35.7765 41.701 35.7499 41.7659C35.7234 41.8307 35.6795 41.8871 35.623 41.9287C35.5581 41.9745 35.4806 41.9994 35.4011 42C35.3404 42.0002 35.2808 41.9847 35.228 41.955L27.4976 37.9028L19.7671 41.955C19.7053 41.9876 19.6356 42.0025 19.5659 41.9979C19.4961 41.9932 19.429 41.9693 19.3721 41.9287C19.3156 41.8871 19.2717 41.8307 19.2452 41.7659C19.2187 41.701 19.2105 41.6302 19.2216 41.561L20.7 32.9763L14.4442 26.8942C14.3945 26.8451 14.3595 26.7832 14.3432 26.7154C14.3268 26.6476 14.3298 26.5765 14.3516 26.5103C14.3735 26.444 14.4135 26.3852 14.467 26.3403C14.5206 26.2955 14.5856 26.2664 14.6548 26.2564L23.2957 25.0032L27.159 17.1914C27.194 17.133 27.2436 17.0847 27.303 17.0512C27.3623 17.0176 27.4294 17 27.4976 17C27.5658 17 27.6328 17.0176 27.6921 17.0512C27.7515 17.0847 27.8011 17.133 27.8361 17.1914L31.6995 25.0032L40.3403 26.2564C40.4095 26.2664 40.4745 26.2955 40.5281 26.3403C40.5816 26.3852 40.6216 26.444 40.6435 26.5103C40.6653 26.5765 40.6683 26.6476 40.6519 26.7154C40.6356 26.7832 40.6006 26.8451 40.5509 26.8942Z" fill="#FD4C5C"/>
</svg>
