<svg width="446" height="410" viewBox="0 0 446 410" fill="none" xmlns="http://www.w3.org/2000/svg">
<g filter="url(#filter0_d_49_4236)">
<rect x="70" y="45" width="306" height="270" rx="10" fill="white"/>
</g>
<circle opacity="0.2" cx="223" cy="125" r="40" fill="#F0BD47"/>
<path d="M217 119C217 115.6 219.6 113 223 113C226.4 113 229 115.6 229 119C229 122.4 226.4 125 223 125C219.6 125 217 122.4 217 119ZM223 129C213.8 129 211 135.6 211 135.6V139H235V135.6C235 135.6 232.2 129 223 129Z" fill="#F0BD47"/>
<path d="M236 123C238.761 123 241 120.761 241 118C241 115.239 238.761 113 236 113C233.239 113 231 115.239 231 118C231 120.761 233.239 123 236 123Z" fill="#F0BD47"/>
<path d="M236 127C233.6 127 231.8 127.6 230.4 128.6C235 130.8 236.8 134.6 236.8 135V135.2H245V132.6C245 132.4 242.8 127 236 127Z" fill="#F0BD47"/>
<path d="M236 123C238.761 123 241 120.761 241 118C241 115.239 238.761 113 236 113C233.239 113 231 115.239 231 118C231 120.761 233.239 123 236 123Z" fill="#F0BD47"/>
<path d="M236 127C233.6 127 231.8 127.6 230.4 128.6C235 130.8 236.8 134.6 236.8 135V135.2H245V132.6C245 132.4 242.8 127 236 127Z" fill="#F0BD47"/>
<path d="M210 123C212.761 123 215 120.761 215 118C215 115.239 212.761 113 210 113C207.239 113 205 115.239 205 118C205 120.761 207.239 123 210 123Z" fill="#F0BD47"/>
<path d="M210 127C212.4 127 214.2 127.6 215.6 128.6C211 130.8 209.2 134.6 209.2 135V135.2H201V132.6C201 132.4 203.2 127 210 127Z" fill="#F0BD47"/>
<path d="M130.126 205.99V203.455H142.072V205.99H137.619V218H134.579V205.99H130.126ZM147.372 218.213C146.25 218.213 145.284 217.986 144.475 217.531C143.67 217.072 143.049 216.423 142.614 215.585C142.178 214.742 141.96 213.746 141.96 212.595C141.96 211.473 142.178 210.488 142.614 209.641C143.049 208.793 143.663 208.133 144.453 207.659C145.249 207.186 146.182 206.949 147.252 206.949C147.971 206.949 148.641 207.065 149.262 207.297C149.887 207.524 150.431 207.867 150.895 208.327C151.364 208.786 151.728 209.364 151.989 210.06C152.249 210.751 152.379 211.561 152.379 212.489V213.32H143.168V211.445H149.531C149.531 211.009 149.437 210.623 149.247 210.287C149.058 209.951 148.795 209.688 148.459 209.499C148.128 209.304 147.742 209.207 147.301 209.207C146.842 209.207 146.435 209.314 146.08 209.527C145.729 209.735 145.455 210.017 145.256 210.372C145.057 210.723 144.955 211.113 144.95 211.544V213.327C144.95 213.866 145.05 214.333 145.249 214.726C145.452 215.119 145.739 215.422 146.108 215.635C146.477 215.848 146.915 215.955 147.422 215.955C147.758 215.955 148.066 215.907 148.345 215.812C148.625 215.718 148.864 215.576 149.063 215.386C149.262 215.197 149.413 214.965 149.517 214.69L152.316 214.875C152.173 215.547 151.882 216.134 151.442 216.636C151.006 217.134 150.443 217.522 149.752 217.801C149.065 218.076 148.272 218.213 147.372 218.213ZM157.465 218.206C156.769 218.206 156.148 218.085 155.604 217.844C155.059 217.598 154.628 217.235 154.311 216.757C153.999 216.274 153.843 215.673 153.843 214.953C153.843 214.347 153.954 213.838 154.176 213.426C154.399 213.014 154.702 212.683 155.085 212.432C155.469 212.181 155.905 211.991 156.392 211.864C156.885 211.736 157.401 211.646 157.941 211.594C158.575 211.527 159.086 211.466 159.475 211.409C159.863 211.348 160.145 211.258 160.32 211.139C160.495 211.021 160.583 210.846 160.583 210.614V210.571C160.583 210.121 160.441 209.773 160.156 209.527C159.877 209.281 159.479 209.158 158.963 209.158C158.419 209.158 157.985 209.278 157.664 209.52C157.342 209.757 157.128 210.055 157.024 210.415L154.226 210.188C154.368 209.525 154.647 208.952 155.064 208.469C155.481 207.981 156.018 207.607 156.676 207.347C157.339 207.081 158.106 206.949 158.977 206.949C159.584 206.949 160.164 207.02 160.718 207.162C161.276 207.304 161.771 207.524 162.202 207.822C162.637 208.121 162.981 208.504 163.232 208.973C163.483 209.437 163.608 209.993 163.608 210.642V218H160.739V216.487H160.654C160.478 216.828 160.244 217.129 159.95 217.389C159.657 217.645 159.304 217.846 158.892 217.993C158.48 218.135 158.004 218.206 157.465 218.206ZM158.331 216.118C158.776 216.118 159.169 216.03 159.51 215.855C159.851 215.675 160.119 215.434 160.313 215.131C160.507 214.828 160.604 214.484 160.604 214.101V212.943C160.509 213.005 160.379 213.062 160.213 213.114C160.052 213.161 159.87 213.206 159.666 213.249C159.463 213.286 159.259 213.322 159.056 213.355C158.852 213.384 158.667 213.41 158.502 213.433C158.146 213.485 157.836 213.568 157.571 213.682C157.306 213.795 157.1 213.949 156.953 214.143C156.807 214.333 156.733 214.57 156.733 214.854C156.733 215.266 156.882 215.58 157.181 215.798C157.484 216.011 157.867 216.118 158.331 216.118ZM165.955 218V207.091H168.839V209.016H168.967C169.194 208.376 169.573 207.872 170.103 207.503C170.633 207.134 171.268 206.949 172.007 206.949C172.755 206.949 173.392 207.136 173.917 207.51C174.443 207.879 174.793 208.381 174.968 209.016H175.082C175.304 208.391 175.707 207.891 176.289 207.517C176.876 207.138 177.57 206.949 178.37 206.949C179.388 206.949 180.214 207.273 180.849 207.922C181.488 208.566 181.808 209.48 181.808 210.663V218H178.789V211.26C178.789 210.654 178.628 210.199 178.306 209.896C177.984 209.593 177.582 209.442 177.099 209.442C176.55 209.442 176.121 209.617 175.813 209.967C175.506 210.313 175.352 210.77 175.352 211.338V218H172.419V211.196C172.419 210.661 172.265 210.235 171.957 209.918C171.654 209.6 171.254 209.442 170.757 209.442C170.42 209.442 170.117 209.527 169.847 209.697C169.582 209.863 169.372 210.098 169.215 210.401C169.059 210.699 168.981 211.049 168.981 211.452V218H165.955ZM188.883 203.455H192.676L196.682 213.227H196.852L200.858 203.455H204.65V218H201.667V208.533H201.547L197.782 217.929H195.751L191.987 208.497H191.866V218H188.883V203.455ZM210.238 218.206C209.542 218.206 208.922 218.085 208.377 217.844C207.833 217.598 207.402 217.235 207.085 216.757C206.772 216.274 206.616 215.673 206.616 214.953C206.616 214.347 206.727 213.838 206.95 213.426C207.172 213.014 207.475 212.683 207.859 212.432C208.242 212.181 208.678 211.991 209.166 211.864C209.658 211.736 210.174 211.646 210.714 211.594C211.348 211.527 211.86 211.466 212.248 211.409C212.636 211.348 212.918 211.258 213.093 211.139C213.268 211.021 213.356 210.846 213.356 210.614V210.571C213.356 210.121 213.214 209.773 212.93 209.527C212.651 209.281 212.253 209.158 211.737 209.158C211.192 209.158 210.759 209.278 210.437 209.52C210.115 209.757 209.902 210.055 209.798 210.415L206.999 210.188C207.142 209.525 207.421 208.952 207.838 208.469C208.254 207.981 208.792 207.607 209.45 207.347C210.113 207.081 210.88 206.949 211.751 206.949C212.357 206.949 212.937 207.02 213.491 207.162C214.05 207.304 214.544 207.524 214.975 207.822C215.411 208.121 215.754 208.504 216.005 208.973C216.256 209.437 216.382 209.993 216.382 210.642V218H213.512V216.487H213.427C213.252 216.828 213.017 217.129 212.724 217.389C212.43 217.645 212.078 217.846 211.666 217.993C211.254 218.135 210.778 218.206 210.238 218.206ZM211.105 216.118C211.55 216.118 211.943 216.03 212.284 215.855C212.624 215.675 212.892 215.434 213.086 215.131C213.28 214.828 213.377 214.484 213.377 214.101V212.943C213.283 213.005 213.152 213.062 212.987 213.114C212.826 213.161 212.643 213.206 212.44 213.249C212.236 213.286 212.033 213.322 211.829 213.355C211.625 213.384 211.441 213.41 211.275 213.433C210.92 213.485 210.61 213.568 210.345 213.682C210.079 213.795 209.874 213.949 209.727 214.143C209.58 214.333 209.507 214.57 209.507 214.854C209.507 215.266 209.656 215.58 209.954 215.798C210.257 216.011 210.641 216.118 211.105 216.118ZM221.754 211.693V218H218.729V207.091H221.612V209.016H221.74C221.982 208.381 222.387 207.879 222.955 207.51C223.523 207.136 224.212 206.949 225.021 206.949C225.779 206.949 226.44 207.115 227.003 207.446C227.566 207.777 228.004 208.251 228.317 208.866C228.629 209.477 228.786 210.206 228.786 211.054V218H225.76V211.594C225.765 210.926 225.594 210.405 225.249 210.031C224.903 209.652 224.427 209.463 223.821 209.463C223.414 209.463 223.054 209.551 222.742 209.726C222.434 209.901 222.192 210.157 222.017 210.493C221.847 210.824 221.759 211.224 221.754 211.693ZM234.281 218.206C233.585 218.206 232.965 218.085 232.42 217.844C231.876 217.598 231.445 217.235 231.128 216.757C230.815 216.274 230.659 215.673 230.659 214.953C230.659 214.347 230.77 213.838 230.993 213.426C231.215 213.014 231.518 212.683 231.902 212.432C232.285 212.181 232.721 211.991 233.209 211.864C233.701 211.736 234.217 211.646 234.757 211.594C235.391 211.527 235.903 211.466 236.291 211.409C236.679 211.348 236.961 211.258 237.136 211.139C237.311 211.021 237.399 210.846 237.399 210.614V210.571C237.399 210.121 237.257 209.773 236.973 209.527C236.693 209.281 236.296 209.158 235.78 209.158C235.235 209.158 234.802 209.278 234.48 209.52C234.158 209.757 233.945 210.055 233.841 210.415L231.042 210.188C231.184 209.525 231.464 208.952 231.881 208.469C232.297 207.981 232.835 207.607 233.493 207.347C234.156 207.081 234.923 206.949 235.794 206.949C236.4 206.949 236.98 207.02 237.534 207.162C238.093 207.304 238.587 207.524 239.018 207.822C239.454 208.121 239.797 208.504 240.048 208.973C240.299 209.437 240.425 209.993 240.425 210.642V218H237.555V216.487H237.47C237.295 216.828 237.06 217.129 236.767 217.389C236.473 217.645 236.121 217.846 235.709 217.993C235.297 218.135 234.821 218.206 234.281 218.206ZM235.148 216.118C235.593 216.118 235.986 216.03 236.327 215.855C236.667 215.675 236.935 215.434 237.129 215.131C237.323 214.828 237.42 214.484 237.42 214.101V212.943C237.326 213.005 237.195 213.062 237.03 213.114C236.869 213.161 236.686 213.206 236.483 213.249C236.279 213.286 236.076 213.322 235.872 213.355C235.668 213.384 235.484 213.41 235.318 213.433C234.963 213.485 234.653 213.568 234.388 213.682C234.122 213.795 233.916 213.949 233.77 214.143C233.623 214.333 233.55 214.57 233.55 214.854C233.55 215.266 233.699 215.58 233.997 215.798C234.3 216.011 234.684 216.118 235.148 216.118ZM247.687 222.318C246.706 222.318 245.866 222.183 245.165 221.913C244.469 221.648 243.915 221.286 243.503 220.827C243.091 220.367 242.824 219.851 242.701 219.278L245.499 218.902C245.584 219.12 245.719 219.323 245.904 219.513C246.089 219.702 246.332 219.854 246.635 219.967C246.943 220.086 247.317 220.145 247.758 220.145C248.416 220.145 248.958 219.984 249.384 219.662C249.815 219.345 250.03 218.812 250.03 218.064V216.068H249.903C249.77 216.371 249.571 216.658 249.306 216.928C249.041 217.197 248.7 217.418 248.283 217.588C247.867 217.759 247.369 217.844 246.792 217.844C245.973 217.844 245.227 217.654 244.555 217.276C243.887 216.892 243.354 216.307 242.956 215.521C242.564 214.731 242.367 213.732 242.367 212.524C242.367 211.288 242.568 210.256 242.971 209.428C243.373 208.599 243.908 207.979 244.576 207.567C245.248 207.155 245.984 206.949 246.785 206.949C247.395 206.949 247.907 207.053 248.319 207.261C248.731 207.465 249.062 207.721 249.313 208.028C249.569 208.331 249.765 208.63 249.903 208.923H250.016V207.091H253.02V218.107C253.02 219.035 252.793 219.811 252.339 220.436C251.884 221.061 251.254 221.53 250.449 221.842C249.649 222.16 248.728 222.318 247.687 222.318ZM247.751 215.571C248.238 215.571 248.65 215.45 248.986 215.209C249.327 214.963 249.588 214.612 249.768 214.158C249.952 213.698 250.045 213.149 250.045 212.51C250.045 211.871 249.955 211.317 249.775 210.848C249.595 210.375 249.334 210.008 248.993 209.747C248.653 209.487 248.238 209.357 247.751 209.357C247.253 209.357 246.834 209.491 246.493 209.761C246.153 210.027 245.894 210.396 245.719 210.869C245.544 211.343 245.456 211.89 245.456 212.51C245.456 213.14 245.544 213.684 245.719 214.143C245.899 214.598 246.157 214.951 246.493 215.202C246.834 215.448 247.253 215.571 247.751 215.571ZM260.4 218.213C259.278 218.213 258.312 217.986 257.502 217.531C256.697 217.072 256.077 216.423 255.641 215.585C255.206 214.742 254.988 213.746 254.988 212.595C254.988 211.473 255.206 210.488 255.641 209.641C256.077 208.793 256.69 208.133 257.481 207.659C258.276 207.186 259.209 206.949 260.279 206.949C260.999 206.949 261.669 207.065 262.289 207.297C262.914 207.524 263.458 207.867 263.922 208.327C264.391 208.786 264.756 209.364 265.016 210.06C265.277 210.751 265.407 211.561 265.407 212.489V213.32H256.195V211.445H262.559C262.559 211.009 262.464 210.623 262.275 210.287C262.085 209.951 261.823 209.688 261.486 209.499C261.155 209.304 260.769 209.207 260.329 209.207C259.869 209.207 259.462 209.314 259.107 209.527C258.757 209.735 258.482 210.017 258.283 210.372C258.084 210.723 257.983 211.113 257.978 211.544V213.327C257.978 213.866 258.077 214.333 258.276 214.726C258.48 215.119 258.766 215.422 259.135 215.635C259.505 215.848 259.943 215.955 260.449 215.955C260.786 215.955 261.093 215.907 261.373 215.812C261.652 215.718 261.891 215.576 262.09 215.386C262.289 215.197 262.44 214.965 262.545 214.69L265.343 214.875C265.201 215.547 264.91 216.134 264.469 216.636C264.034 217.134 263.47 217.522 262.779 217.801C262.092 218.076 261.299 218.213 260.4 218.213ZM267.381 218V207.091H270.265V209.016H270.393C270.62 208.376 270.999 207.872 271.529 207.503C272.059 207.134 272.694 206.949 273.432 206.949C274.18 206.949 274.817 207.136 275.343 207.51C275.868 207.879 276.219 208.381 276.394 209.016H276.508C276.73 208.391 277.133 207.891 277.715 207.517C278.302 207.138 278.996 206.949 279.796 206.949C280.814 206.949 281.64 207.273 282.275 207.922C282.914 208.566 283.233 209.48 283.233 210.663V218H280.215V211.26C280.215 210.654 280.054 210.199 279.732 209.896C279.41 209.593 279.008 209.442 278.525 209.442C277.975 209.442 277.547 209.617 277.239 209.967C276.931 210.313 276.778 210.77 276.778 211.338V218H273.844V211.196C273.844 210.661 273.69 210.235 273.383 209.918C273.08 209.6 272.68 209.442 272.182 209.442C271.846 209.442 271.543 209.527 271.273 209.697C271.008 209.863 270.797 210.098 270.641 210.401C270.485 210.699 270.407 211.049 270.407 211.452V218H267.381ZM290.595 218.213C289.473 218.213 288.507 217.986 287.697 217.531C286.892 217.072 286.272 216.423 285.836 215.585C285.401 214.742 285.183 213.746 285.183 212.595C285.183 211.473 285.401 210.488 285.836 209.641C286.272 208.793 286.885 208.133 287.676 207.659C288.471 207.186 289.404 206.949 290.474 206.949C291.194 206.949 291.864 207.065 292.484 207.297C293.109 207.524 293.654 207.867 294.118 208.327C294.586 208.786 294.951 209.364 295.211 210.06C295.472 210.751 295.602 211.561 295.602 212.489V213.32H286.39V211.445H292.754C292.754 211.009 292.659 210.623 292.47 210.287C292.281 209.951 292.018 209.688 291.682 209.499C291.35 209.304 290.964 209.207 290.524 209.207C290.065 209.207 289.657 209.314 289.302 209.527C288.952 209.735 288.677 210.017 288.479 210.372C288.28 210.723 288.178 211.113 288.173 211.544V213.327C288.173 213.866 288.273 214.333 288.471 214.726C288.675 215.119 288.961 215.422 289.331 215.635C289.7 215.848 290.138 215.955 290.645 215.955C290.981 215.955 291.289 215.907 291.568 215.812C291.847 215.718 292.086 215.576 292.285 215.386C292.484 215.197 292.636 214.965 292.74 214.69L295.538 214.875C295.396 215.547 295.105 216.134 294.665 216.636C294.229 217.134 293.666 217.522 292.974 217.801C292.288 218.076 291.495 218.213 290.595 218.213ZM300.602 211.693V218H297.577V207.091H300.46V209.016H300.588C300.829 208.381 301.234 207.879 301.802 207.51C302.371 207.136 303.059 206.949 303.869 206.949C304.627 206.949 305.287 207.115 305.851 207.446C306.414 207.777 306.852 208.251 307.165 208.866C307.477 209.477 307.633 210.206 307.633 211.054V218H304.608V211.594C304.613 210.926 304.442 210.405 304.096 210.031C303.751 209.652 303.275 209.463 302.669 209.463C302.262 209.463 301.902 209.551 301.589 209.726C301.282 209.901 301.04 210.157 300.865 210.493C300.694 210.824 300.607 211.224 300.602 211.693ZM315.82 207.091V209.364H309.251V207.091H315.82ZM310.742 204.477H313.768V214.648C313.768 214.927 313.811 215.145 313.896 215.301C313.981 215.453 314.099 215.559 314.251 215.621C314.407 215.682 314.587 215.713 314.791 215.713C314.933 215.713 315.075 215.701 315.217 215.678C315.359 215.649 315.468 215.628 315.544 215.614L316.019 217.865C315.868 217.912 315.655 217.967 315.38 218.028C315.106 218.095 314.772 218.135 314.379 218.149C313.65 218.178 313.01 218.08 312.461 217.858C311.917 217.635 311.493 217.29 311.19 216.821C310.887 216.352 310.738 215.76 310.742 215.045V204.477Z" fill="#111827"/>
<path d="M115.481 244C115.356 243.617 115.191 243.275 114.987 242.972C114.786 242.665 114.545 242.403 114.265 242.188C113.988 241.972 113.674 241.807 113.322 241.693C112.969 241.58 112.583 241.523 112.163 241.523C111.473 241.523 110.846 241.701 110.282 242.057C109.718 242.413 109.269 242.938 108.935 243.631C108.602 244.324 108.435 245.174 108.435 246.182C108.435 247.189 108.604 248.04 108.941 248.733C109.278 249.426 109.735 249.951 110.31 250.307C110.886 250.663 111.534 250.841 112.254 250.841C112.92 250.841 113.507 250.699 114.015 250.415C114.526 250.127 114.924 249.722 115.208 249.199C115.496 248.672 115.64 248.053 115.64 247.341L116.072 247.432H112.572V246.182H117.004V247.432C117.004 248.39 116.799 249.223 116.39 249.932C115.985 250.64 115.424 251.189 114.708 251.58C113.996 251.966 113.178 252.159 112.254 252.159C111.223 252.159 110.318 251.917 109.538 251.432C108.761 250.947 108.155 250.258 107.719 249.364C107.288 248.47 107.072 247.409 107.072 246.182C107.072 245.261 107.195 244.434 107.441 243.699C107.691 242.96 108.043 242.331 108.498 241.812C108.952 241.294 109.49 240.896 110.112 240.619C110.733 240.343 111.416 240.205 112.163 240.205C112.776 240.205 113.348 240.297 113.879 240.483C114.413 240.665 114.888 240.924 115.305 241.261C115.725 241.595 116.076 241.994 116.356 242.46C116.636 242.922 116.829 243.436 116.935 244H115.481ZM122.894 252.182C122.053 252.182 121.328 251.996 120.718 251.625C120.112 251.25 119.644 250.727 119.315 250.057C118.989 249.383 118.826 248.598 118.826 247.705C118.826 246.811 118.989 246.023 119.315 245.341C119.644 244.655 120.103 244.121 120.69 243.739C121.281 243.352 121.97 243.159 122.758 243.159C123.212 243.159 123.661 243.235 124.104 243.386C124.548 243.538 124.951 243.784 125.315 244.125C125.678 244.462 125.968 244.909 126.184 245.466C126.4 246.023 126.508 246.708 126.508 247.523V248.091H119.781V246.932H125.144C125.144 246.439 125.046 246 124.849 245.614C124.656 245.227 124.379 244.922 124.019 244.699C123.663 244.475 123.243 244.364 122.758 244.364C122.224 244.364 121.762 244.496 121.371 244.761C120.985 245.023 120.688 245.364 120.479 245.784C120.271 246.205 120.167 246.655 120.167 247.136V247.909C120.167 248.568 120.281 249.127 120.508 249.585C120.739 250.04 121.059 250.386 121.468 250.625C121.877 250.86 122.353 250.977 122.894 250.977C123.246 250.977 123.565 250.928 123.849 250.83C124.137 250.727 124.385 250.576 124.593 250.375C124.801 250.17 124.962 249.917 125.076 249.614L126.371 249.977C126.235 250.417 126.006 250.803 125.684 251.136C125.362 251.466 124.964 251.723 124.491 251.909C124.017 252.091 123.485 252.182 122.894 252.182ZM132.343 243.273V244.409H127.82V243.273H132.343ZM129.138 241.182H130.479V249.5C130.479 249.879 130.534 250.163 130.644 250.352C130.758 250.538 130.902 250.663 131.076 250.727C131.254 250.788 131.442 250.818 131.638 250.818C131.786 250.818 131.907 250.811 132.002 250.795C132.097 250.777 132.173 250.761 132.229 250.75L132.502 251.955C132.411 251.989 132.284 252.023 132.121 252.057C131.959 252.095 131.752 252.114 131.502 252.114C131.123 252.114 130.752 252.032 130.388 251.869C130.029 251.706 129.729 251.458 129.491 251.125C129.256 250.792 129.138 250.371 129.138 249.864V241.182ZM142.656 243.273V244.409H138.133V243.273H142.656ZM139.451 241.182H140.792V249.5C140.792 249.879 140.847 250.163 140.957 250.352C141.07 250.538 141.214 250.663 141.388 250.727C141.567 250.788 141.754 250.818 141.951 250.818C142.099 250.818 142.22 250.811 142.315 250.795C142.409 250.777 142.485 250.761 142.542 250.75L142.815 251.955C142.724 251.989 142.597 252.023 142.434 252.057C142.271 252.095 142.065 252.114 141.815 252.114C141.436 252.114 141.065 252.032 140.701 251.869C140.341 251.706 140.042 251.458 139.803 251.125C139.568 250.792 139.451 250.371 139.451 249.864V241.182ZM146.201 246.75V252H144.86V240.364H146.201V244.636H146.315C146.519 244.186 146.826 243.828 147.235 243.562C147.648 243.294 148.197 243.159 148.883 243.159C149.478 243.159 149.998 243.278 150.445 243.517C150.892 243.752 151.239 244.114 151.485 244.602C151.735 245.087 151.86 245.705 151.86 246.455V252H150.519V246.545C150.519 245.852 150.339 245.316 149.979 244.938C149.623 244.555 149.129 244.364 148.496 244.364C148.057 244.364 147.663 244.456 147.315 244.642C146.97 244.828 146.697 245.098 146.496 245.455C146.299 245.811 146.201 246.242 146.201 246.75ZM157.972 252.182C157.131 252.182 156.406 251.996 155.796 251.625C155.19 251.25 154.722 250.727 154.393 250.057C154.067 249.383 153.904 248.598 153.904 247.705C153.904 246.811 154.067 246.023 154.393 245.341C154.722 244.655 155.181 244.121 155.768 243.739C156.359 243.352 157.048 243.159 157.836 243.159C158.29 243.159 158.739 243.235 159.183 243.386C159.626 243.538 160.029 243.784 160.393 244.125C160.756 244.462 161.046 244.909 161.262 245.466C161.478 246.023 161.586 246.708 161.586 247.523V248.091H154.859V246.932H160.222C160.222 246.439 160.124 246 159.927 245.614C159.734 245.227 159.457 244.922 159.097 244.699C158.741 244.475 158.321 244.364 157.836 244.364C157.302 244.364 156.84 244.496 156.45 244.761C156.063 245.023 155.766 245.364 155.558 245.784C155.349 246.205 155.245 246.655 155.245 247.136V247.909C155.245 248.568 155.359 249.127 155.586 249.585C155.817 250.04 156.137 250.386 156.546 250.625C156.955 250.86 157.431 250.977 157.972 250.977C158.325 250.977 158.643 250.928 158.927 250.83C159.215 250.727 159.463 250.576 159.671 250.375C159.879 250.17 160.04 249.917 160.154 249.614L161.45 249.977C161.313 250.417 161.084 250.803 160.762 251.136C160.44 251.466 160.042 251.723 159.569 251.909C159.095 252.091 158.563 252.182 157.972 252.182ZM171.421 252.182C170.694 252.182 170.052 251.998 169.495 251.631C168.938 251.259 168.503 250.737 168.188 250.062C167.874 249.384 167.717 248.583 167.717 247.659C167.717 246.742 167.874 245.947 168.188 245.273C168.503 244.598 168.94 244.078 169.501 243.71C170.061 243.343 170.709 243.159 171.444 243.159C172.012 243.159 172.461 243.254 172.79 243.443C173.124 243.629 173.378 243.841 173.552 244.08C173.73 244.314 173.868 244.508 173.967 244.659H174.08V240.364H175.421V252H174.126V250.659H173.967C173.868 250.818 173.728 251.019 173.546 251.261C173.364 251.5 173.105 251.714 172.768 251.903C172.431 252.089 171.982 252.182 171.421 252.182ZM171.603 250.977C172.141 250.977 172.595 250.837 172.967 250.557C173.338 250.273 173.62 249.881 173.813 249.381C174.006 248.877 174.103 248.295 174.103 247.636C174.103 246.985 174.008 246.415 173.819 245.926C173.629 245.434 173.349 245.051 172.978 244.778C172.607 244.502 172.148 244.364 171.603 244.364C171.035 244.364 170.561 244.509 170.183 244.801C169.808 245.089 169.525 245.481 169.336 245.977C169.15 246.47 169.058 247.023 169.058 247.636C169.058 248.258 169.152 248.822 169.342 249.33C169.535 249.833 169.819 250.235 170.194 250.534C170.573 250.83 171.042 250.977 171.603 250.977ZM180.631 252.205C180.078 252.205 179.576 252.1 179.126 251.892C178.675 251.68 178.317 251.375 178.052 250.977C177.787 250.576 177.654 250.091 177.654 249.523C177.654 249.023 177.753 248.617 177.95 248.307C178.147 247.992 178.41 247.746 178.739 247.568C179.069 247.39 179.433 247.258 179.83 247.17C180.232 247.08 180.635 247.008 181.04 246.955C181.571 246.886 182.001 246.835 182.33 246.801C182.664 246.763 182.906 246.701 183.058 246.614C183.213 246.527 183.29 246.375 183.29 246.159V246.114C183.29 245.553 183.137 245.117 182.83 244.807C182.527 244.496 182.067 244.341 181.45 244.341C180.809 244.341 180.308 244.481 179.944 244.761C179.58 245.042 179.325 245.341 179.177 245.659L177.904 245.205C178.131 244.674 178.434 244.261 178.813 243.966C179.196 243.667 179.612 243.458 180.063 243.341C180.518 243.22 180.965 243.159 181.404 243.159C181.684 243.159 182.006 243.193 182.37 243.261C182.737 243.326 183.092 243.46 183.433 243.665C183.777 243.869 184.063 244.178 184.29 244.591C184.518 245.004 184.631 245.557 184.631 246.25V252H183.29V250.818H183.222C183.131 251.008 182.98 251.21 182.768 251.426C182.556 251.642 182.273 251.826 181.921 251.977C181.569 252.129 181.139 252.205 180.631 252.205ZM180.836 251C181.366 251 181.813 250.896 182.177 250.688C182.544 250.479 182.821 250.21 183.006 249.881C183.196 249.551 183.29 249.205 183.29 248.841V247.614C183.234 247.682 183.109 247.744 182.915 247.801C182.726 247.854 182.506 247.902 182.256 247.943C182.01 247.981 181.77 248.015 181.535 248.045C181.304 248.072 181.116 248.095 180.972 248.114C180.624 248.159 180.298 248.233 179.995 248.335C179.696 248.434 179.453 248.583 179.268 248.784C179.086 248.981 178.995 249.25 178.995 249.591C178.995 250.057 179.167 250.409 179.512 250.648C179.861 250.883 180.302 251 180.836 251ZM190.874 243.273V244.409H186.352V243.273H190.874ZM187.67 241.182H189.011V249.5C189.011 249.879 189.066 250.163 189.175 250.352C189.289 250.538 189.433 250.663 189.607 250.727C189.785 250.788 189.973 250.818 190.17 250.818C190.317 250.818 190.439 250.811 190.533 250.795C190.628 250.777 190.704 250.761 190.761 250.75L191.033 251.955C190.942 251.989 190.816 252.023 190.653 252.057C190.49 252.095 190.283 252.114 190.033 252.114C189.655 252.114 189.283 252.032 188.92 251.869C188.56 251.706 188.261 251.458 188.022 251.125C187.787 250.792 187.67 250.371 187.67 249.864V241.182ZM195.46 252.205C194.906 252.205 194.405 252.1 193.954 251.892C193.503 251.68 193.145 251.375 192.88 250.977C192.615 250.576 192.482 250.091 192.482 249.523C192.482 249.023 192.581 248.617 192.778 248.307C192.975 247.992 193.238 247.746 193.567 247.568C193.897 247.39 194.261 247.258 194.658 247.17C195.06 247.08 195.463 247.008 195.869 246.955C196.399 246.886 196.829 246.835 197.158 246.801C197.492 246.763 197.734 246.701 197.886 246.614C198.041 246.527 198.119 246.375 198.119 246.159V246.114C198.119 245.553 197.965 245.117 197.658 244.807C197.355 244.496 196.895 244.341 196.278 244.341C195.638 244.341 195.136 244.481 194.772 244.761C194.408 245.042 194.153 245.341 194.005 245.659L192.732 245.205C192.96 244.674 193.263 244.261 193.641 243.966C194.024 243.667 194.441 243.458 194.891 243.341C195.346 243.22 195.793 243.159 196.232 243.159C196.513 243.159 196.835 243.193 197.198 243.261C197.566 243.326 197.92 243.46 198.261 243.665C198.605 243.869 198.891 244.178 199.119 244.591C199.346 245.004 199.46 245.557 199.46 246.25V252H198.119V250.818H198.05C197.96 251.008 197.808 251.21 197.596 251.426C197.384 251.642 197.102 251.826 196.749 251.977C196.397 252.129 195.967 252.205 195.46 252.205ZM195.664 251C196.194 251 196.641 250.896 197.005 250.688C197.372 250.479 197.649 250.21 197.835 249.881C198.024 249.551 198.119 249.205 198.119 248.841V247.614C198.062 247.682 197.937 247.744 197.744 247.801C197.554 247.854 197.335 247.902 197.085 247.943C196.838 247.981 196.598 248.015 196.363 248.045C196.132 248.072 195.944 248.095 195.8 248.114C195.452 248.159 195.126 248.233 194.823 248.335C194.524 248.434 194.281 248.583 194.096 248.784C193.914 248.981 193.823 249.25 193.823 249.591C193.823 250.057 193.996 250.409 194.34 250.648C194.689 250.883 195.13 251 195.664 251ZM207.271 255.273C207.043 255.273 206.841 255.254 206.663 255.216C206.485 255.182 206.362 255.148 206.293 255.114L206.634 253.932C206.96 254.015 207.248 254.045 207.498 254.023C207.748 254 207.969 253.888 208.163 253.688C208.36 253.491 208.54 253.17 208.702 252.727L208.952 252.045L205.725 243.273H207.18L209.589 250.227H209.68L212.089 243.273H213.543L209.839 253.273C209.672 253.723 209.466 254.097 209.219 254.392C208.973 254.691 208.687 254.913 208.362 255.057C208.04 255.201 207.676 255.273 207.271 255.273ZM218.546 252.182C217.758 252.182 217.067 251.994 216.472 251.619C215.881 251.244 215.419 250.72 215.086 250.045C214.756 249.371 214.592 248.583 214.592 247.682C214.592 246.773 214.756 245.979 215.086 245.301C215.419 244.623 215.881 244.097 216.472 243.722C217.067 243.347 217.758 243.159 218.546 243.159C219.334 243.159 220.023 243.347 220.614 243.722C221.209 244.097 221.671 244.623 222.001 245.301C222.334 245.979 222.501 246.773 222.501 247.682C222.501 248.583 222.334 249.371 222.001 250.045C221.671 250.72 221.209 251.244 220.614 251.619C220.023 251.994 219.334 252.182 218.546 252.182ZM218.546 250.977C219.145 250.977 219.637 250.824 220.023 250.517C220.41 250.21 220.696 249.807 220.881 249.307C221.067 248.807 221.16 248.265 221.16 247.682C221.16 247.098 221.067 246.555 220.881 246.051C220.696 245.547 220.41 245.14 220.023 244.83C219.637 244.519 219.145 244.364 218.546 244.364C217.948 244.364 217.455 244.519 217.069 244.83C216.683 245.14 216.397 245.547 216.211 246.051C216.025 246.555 215.933 247.098 215.933 247.682C215.933 248.265 216.025 248.807 216.211 249.307C216.397 249.807 216.683 250.21 217.069 250.517C217.455 250.824 217.948 250.977 218.546 250.977ZM230.048 248.432V243.273H231.388V252H230.048V250.523H229.957C229.752 250.966 229.434 251.343 229.002 251.653C228.57 251.96 228.025 252.114 227.366 252.114C226.82 252.114 226.335 251.994 225.911 251.756C225.487 251.513 225.154 251.15 224.911 250.665C224.669 250.176 224.548 249.561 224.548 248.818V243.273H225.888V248.727C225.888 249.364 226.067 249.871 226.423 250.25C226.782 250.629 227.241 250.818 227.798 250.818C228.131 250.818 228.47 250.733 228.815 250.562C229.163 250.392 229.455 250.131 229.69 249.778C229.928 249.426 230.048 248.977 230.048 248.432ZM239.685 246.75V252H238.344V243.273H239.64V244.636H239.754C239.958 244.193 240.269 243.837 240.685 243.568C241.102 243.295 241.64 243.159 242.299 243.159C242.89 243.159 243.407 243.28 243.85 243.523C244.293 243.761 244.638 244.125 244.884 244.614C245.13 245.098 245.254 245.712 245.254 246.455V252H243.913V246.545C243.913 245.86 243.735 245.326 243.379 244.943C243.022 244.557 242.534 244.364 241.913 244.364C241.485 244.364 241.102 244.456 240.765 244.642C240.432 244.828 240.168 245.098 239.975 245.455C239.782 245.811 239.685 246.242 239.685 246.75ZM251.363 252.182C250.522 252.182 249.797 251.996 249.187 251.625C248.581 251.25 248.113 250.727 247.783 250.057C247.458 249.383 247.295 248.598 247.295 247.705C247.295 246.811 247.458 246.023 247.783 245.341C248.113 244.655 248.571 244.121 249.158 243.739C249.749 243.352 250.439 243.159 251.227 243.159C251.681 243.159 252.13 243.235 252.573 243.386C253.016 243.538 253.42 243.784 253.783 244.125C254.147 244.462 254.437 244.909 254.653 245.466C254.869 246.023 254.977 246.708 254.977 247.523V248.091H248.249V246.932H253.613C253.613 246.439 253.514 246 253.317 245.614C253.124 245.227 252.848 244.922 252.488 244.699C252.132 244.475 251.711 244.364 251.227 244.364C250.692 244.364 250.23 244.496 249.84 244.761C249.454 245.023 249.156 245.364 248.948 245.784C248.74 246.205 248.636 246.655 248.636 247.136V247.909C248.636 248.568 248.749 249.127 248.977 249.585C249.208 250.04 249.528 250.386 249.937 250.625C250.346 250.86 250.821 250.977 251.363 250.977C251.715 250.977 252.033 250.928 252.317 250.83C252.605 250.727 252.853 250.576 253.062 250.375C253.27 250.17 253.431 249.917 253.545 249.614L254.84 249.977C254.704 250.417 254.475 250.803 254.153 251.136C253.831 251.466 253.433 251.723 252.96 251.909C252.486 252.091 251.954 252.182 251.363 252.182ZM260.675 252.182C259.835 252.182 259.109 251.996 258.499 251.625C257.893 251.25 257.425 250.727 257.096 250.057C256.77 249.383 256.607 248.598 256.607 247.705C256.607 246.811 256.77 246.023 257.096 245.341C257.425 244.655 257.884 244.121 258.471 243.739C259.062 243.352 259.751 243.159 260.539 243.159C260.994 243.159 261.442 243.235 261.886 243.386C262.329 243.538 262.732 243.784 263.096 244.125C263.46 244.462 263.749 244.909 263.965 245.466C264.181 246.023 264.289 246.708 264.289 247.523V248.091H257.562V246.932H262.925C262.925 246.439 262.827 246 262.63 245.614C262.437 245.227 262.16 244.922 261.8 244.699C261.444 244.475 261.024 244.364 260.539 244.364C260.005 244.364 259.543 244.496 259.153 244.761C258.766 245.023 258.469 245.364 258.261 245.784C258.052 246.205 257.948 246.655 257.948 247.136V247.909C257.948 248.568 258.062 249.127 258.289 249.585C258.52 250.04 258.84 250.386 259.249 250.625C259.658 250.86 260.134 250.977 260.675 250.977C261.028 250.977 261.346 250.928 261.63 250.83C261.918 250.727 262.166 250.576 262.374 250.375C262.583 250.17 262.744 249.917 262.857 249.614L264.153 249.977C264.016 250.417 263.787 250.803 263.465 251.136C263.143 251.466 262.746 251.723 262.272 251.909C261.799 252.091 261.266 252.182 260.675 252.182ZM269.624 252.182C268.897 252.182 268.255 251.998 267.698 251.631C267.141 251.259 266.706 250.737 266.391 250.062C266.077 249.384 265.92 248.583 265.92 247.659C265.92 246.742 266.077 245.947 266.391 245.273C266.706 244.598 267.143 244.078 267.704 243.71C268.264 243.343 268.912 243.159 269.647 243.159C270.215 243.159 270.664 243.254 270.994 243.443C271.327 243.629 271.581 243.841 271.755 244.08C271.933 244.314 272.071 244.508 272.17 244.659H272.283V240.364H273.624V252H272.329V250.659H272.17C272.071 250.818 271.931 251.019 271.749 251.261C271.567 251.5 271.308 251.714 270.971 251.903C270.634 252.089 270.185 252.182 269.624 252.182ZM269.806 250.977C270.344 250.977 270.799 250.837 271.17 250.557C271.541 250.273 271.823 249.881 272.016 249.381C272.21 248.877 272.306 248.295 272.306 247.636C272.306 246.985 272.211 246.415 272.022 245.926C271.833 245.434 271.552 245.051 271.181 244.778C270.81 244.502 270.352 244.364 269.806 244.364C269.238 244.364 268.764 244.509 268.386 244.801C268.011 245.089 267.728 245.481 267.539 245.977C267.353 246.47 267.261 247.023 267.261 247.636C267.261 248.258 267.355 248.822 267.545 249.33C267.738 249.833 268.022 250.235 268.397 250.534C268.776 250.83 269.246 250.977 269.806 250.977ZM284.562 243.273V244.409H280.039V243.273H284.562ZM281.357 241.182H282.698V249.5C282.698 249.879 282.753 250.163 282.863 250.352C282.977 250.538 283.121 250.663 283.295 250.727C283.473 250.788 283.66 250.818 283.857 250.818C284.005 250.818 284.126 250.811 284.221 250.795C284.316 250.777 284.391 250.761 284.448 250.75L284.721 251.955C284.63 251.989 284.503 252.023 284.34 252.057C284.177 252.095 283.971 252.114 283.721 252.114C283.342 252.114 282.971 252.032 282.607 251.869C282.247 251.706 281.948 251.458 281.71 251.125C281.475 250.792 281.357 250.371 281.357 249.864V241.182ZM290.031 252.182C289.243 252.182 288.551 251.994 287.957 251.619C287.366 251.244 286.904 250.72 286.57 250.045C286.241 249.371 286.076 248.583 286.076 247.682C286.076 246.773 286.241 245.979 286.57 245.301C286.904 244.623 287.366 244.097 287.957 243.722C288.551 243.347 289.243 243.159 290.031 243.159C290.818 243.159 291.508 243.347 292.099 243.722C292.693 244.097 293.156 244.623 293.485 245.301C293.818 245.979 293.985 246.773 293.985 247.682C293.985 248.583 293.818 249.371 293.485 250.045C293.156 250.72 292.693 251.244 292.099 251.619C291.508 251.994 290.818 252.182 290.031 252.182ZM290.031 250.977C290.629 250.977 291.121 250.824 291.508 250.517C291.894 250.21 292.18 249.807 292.366 249.307C292.551 248.807 292.644 248.265 292.644 247.682C292.644 247.098 292.551 246.555 292.366 246.051C292.18 245.547 291.894 245.14 291.508 244.83C291.121 244.519 290.629 244.364 290.031 244.364C289.432 244.364 288.94 244.519 288.553 244.83C288.167 245.14 287.881 245.547 287.695 246.051C287.51 246.555 287.417 247.098 287.417 247.682C287.417 248.265 287.51 248.807 287.695 249.307C287.881 249.807 288.167 250.21 288.553 250.517C288.94 250.824 289.432 250.977 290.031 250.977ZM300.532 252V243.273H301.827V244.636H301.941C302.123 244.17 302.416 243.809 302.822 243.551C303.227 243.29 303.714 243.159 304.282 243.159C304.858 243.159 305.337 243.29 305.719 243.551C306.106 243.809 306.407 244.17 306.623 244.636H306.714C306.937 244.186 307.272 243.828 307.719 243.562C308.166 243.294 308.702 243.159 309.327 243.159C310.108 243.159 310.746 243.403 311.242 243.892C311.738 244.377 311.987 245.133 311.987 246.159V252H310.646V246.159C310.646 245.515 310.469 245.055 310.117 244.778C309.765 244.502 309.35 244.364 308.873 244.364C308.259 244.364 307.784 244.549 307.447 244.92C307.11 245.288 306.941 245.754 306.941 246.318V252H305.577V246.023C305.577 245.527 305.416 245.127 305.094 244.824C304.772 244.517 304.358 244.364 303.85 244.364C303.502 244.364 303.176 244.456 302.873 244.642C302.574 244.828 302.331 245.085 302.146 245.415C301.964 245.741 301.873 246.117 301.873 246.545V252H300.532ZM317.006 252.205C316.453 252.205 315.951 252.1 315.501 251.892C315.05 251.68 314.692 251.375 314.427 250.977C314.162 250.576 314.029 250.091 314.029 249.523C314.029 249.023 314.128 248.617 314.325 248.307C314.522 247.992 314.785 247.746 315.114 247.568C315.444 247.39 315.808 247.258 316.205 247.17C316.607 247.08 317.01 247.008 317.415 246.955C317.946 246.886 318.376 246.835 318.705 246.801C319.039 246.763 319.281 246.701 319.433 246.614C319.588 246.527 319.665 246.375 319.665 246.159V246.114C319.665 245.553 319.512 245.117 319.205 244.807C318.902 244.496 318.442 244.341 317.825 244.341C317.184 244.341 316.683 244.481 316.319 244.761C315.955 245.042 315.7 245.341 315.552 245.659L314.279 245.205C314.506 244.674 314.809 244.261 315.188 243.966C315.571 243.667 315.987 243.458 316.438 243.341C316.893 243.22 317.34 243.159 317.779 243.159C318.059 243.159 318.381 243.193 318.745 243.261C319.112 243.326 319.467 243.46 319.808 243.665C320.152 243.869 320.438 244.178 320.665 244.591C320.893 245.004 321.006 245.557 321.006 246.25V252H319.665V250.818H319.597C319.506 251.008 319.355 251.21 319.143 251.426C318.931 251.642 318.648 251.826 318.296 251.977C317.944 252.129 317.514 252.205 317.006 252.205ZM317.211 251C317.741 251 318.188 250.896 318.552 250.688C318.919 250.479 319.196 250.21 319.381 249.881C319.571 249.551 319.665 249.205 319.665 248.841V247.614C319.609 247.682 319.484 247.744 319.29 247.801C319.101 247.854 318.881 247.902 318.631 247.943C318.385 247.981 318.145 248.015 317.91 248.045C317.679 248.072 317.491 248.095 317.347 248.114C316.999 248.159 316.673 248.233 316.37 248.335C316.071 248.434 315.828 248.583 315.643 248.784C315.461 248.981 315.37 249.25 315.37 249.591C315.37 250.057 315.542 250.409 315.887 250.648C316.236 250.883 316.677 251 317.211 251ZM324.704 248.818L324.681 247.159H324.954L328.772 243.273H330.431L326.363 247.386H326.249L324.704 248.818ZM323.454 252V240.364H324.795V252H323.454ZM328.999 252L325.59 247.682L326.545 246.75L330.704 252H328.999ZM335.457 252.182C334.616 252.182 333.89 251.996 333.281 251.625C332.674 251.25 332.207 250.727 331.877 250.057C331.551 249.383 331.388 248.598 331.388 247.705C331.388 246.811 331.551 246.023 331.877 245.341C332.207 244.655 332.665 244.121 333.252 243.739C333.843 243.352 334.532 243.159 335.32 243.159C335.775 243.159 336.224 243.235 336.667 243.386C337.11 243.538 337.513 243.784 337.877 244.125C338.241 244.462 338.531 244.909 338.746 245.466C338.962 246.023 339.07 246.708 339.07 247.523V248.091H332.343V246.932H337.707C337.707 246.439 337.608 246 337.411 245.614C337.218 245.227 336.942 244.922 336.582 244.699C336.226 244.475 335.805 244.364 335.32 244.364C334.786 244.364 334.324 244.496 333.934 244.761C333.548 245.023 333.25 245.364 333.042 245.784C332.834 246.205 332.729 246.655 332.729 247.136V247.909C332.729 248.568 332.843 249.127 333.07 249.585C333.301 250.04 333.621 250.386 334.031 250.625C334.44 250.86 334.915 250.977 335.457 250.977C335.809 250.977 336.127 250.928 336.411 250.83C336.699 250.727 336.947 250.576 337.156 250.375C337.364 250.17 337.525 249.917 337.638 249.614L338.934 249.977C338.798 250.417 338.568 250.803 338.246 251.136C337.924 251.466 337.527 251.723 337.053 251.909C336.58 252.091 336.048 252.182 335.457 252.182ZM160.87 269.227L159.665 269.568C159.59 269.367 159.478 269.172 159.33 268.983C159.186 268.79 158.989 268.631 158.739 268.506C158.489 268.381 158.169 268.318 157.779 268.318C157.245 268.318 156.8 268.441 156.444 268.688C156.092 268.93 155.915 269.239 155.915 269.614C155.915 269.947 156.037 270.21 156.279 270.403C156.522 270.597 156.9 270.758 157.415 270.886L158.711 271.205C159.491 271.394 160.073 271.684 160.455 272.074C160.838 272.46 161.029 272.958 161.029 273.568C161.029 274.068 160.885 274.515 160.597 274.909C160.313 275.303 159.915 275.614 159.404 275.841C158.893 276.068 158.298 276.182 157.62 276.182C156.73 276.182 155.993 275.989 155.41 275.602C154.826 275.216 154.457 274.652 154.302 273.909L155.575 273.591C155.696 274.061 155.925 274.413 156.262 274.648C156.603 274.883 157.048 275 157.597 275C158.222 275 158.719 274.867 159.086 274.602C159.457 274.333 159.643 274.011 159.643 273.636C159.643 273.333 159.537 273.08 159.325 272.875C159.112 272.667 158.787 272.511 158.347 272.409L156.893 272.068C156.094 271.879 155.506 271.585 155.131 271.188C154.76 270.786 154.575 270.284 154.575 269.682C154.575 269.189 154.713 268.754 154.989 268.375C155.27 267.996 155.65 267.699 156.131 267.483C156.616 267.267 157.165 267.159 157.779 267.159C158.643 267.159 159.321 267.348 159.813 267.727C160.309 268.106 160.662 268.606 160.87 269.227ZM163.048 276V267.273H164.343V268.636H164.457C164.638 268.17 164.932 267.809 165.337 267.551C165.743 267.29 166.229 267.159 166.798 267.159C167.373 267.159 167.853 267.29 168.235 267.551C168.621 267.809 168.923 268.17 169.138 268.636H169.229C169.453 268.186 169.788 267.828 170.235 267.562C170.682 267.294 171.218 267.159 171.843 267.159C172.623 267.159 173.262 267.403 173.758 267.892C174.254 268.377 174.502 269.133 174.502 270.159V276H173.161V270.159C173.161 269.515 172.985 269.055 172.633 268.778C172.281 268.502 171.866 268.364 171.388 268.364C170.775 268.364 170.299 268.549 169.962 268.92C169.625 269.288 169.457 269.754 169.457 270.318V276H168.093V270.023C168.093 269.527 167.932 269.127 167.61 268.824C167.288 268.517 166.873 268.364 166.366 268.364C166.017 268.364 165.692 268.456 165.388 268.642C165.089 268.828 164.847 269.085 164.661 269.415C164.479 269.741 164.388 270.117 164.388 270.545V276H163.048ZM179.522 276.205C178.969 276.205 178.467 276.1 178.016 275.892C177.566 275.68 177.208 275.375 176.942 274.977C176.677 274.576 176.545 274.091 176.545 273.523C176.545 273.023 176.643 272.617 176.84 272.307C177.037 271.992 177.3 271.746 177.63 271.568C177.96 271.39 178.323 271.258 178.721 271.17C179.122 271.08 179.526 271.008 179.931 270.955C180.461 270.886 180.891 270.835 181.221 270.801C181.554 270.763 181.797 270.701 181.948 270.614C182.103 270.527 182.181 270.375 182.181 270.159V270.114C182.181 269.553 182.028 269.117 181.721 268.807C181.418 268.496 180.958 268.341 180.34 268.341C179.7 268.341 179.198 268.481 178.835 268.761C178.471 269.042 178.215 269.341 178.067 269.659L176.795 269.205C177.022 268.674 177.325 268.261 177.704 267.966C178.086 267.667 178.503 267.458 178.954 267.341C179.408 267.22 179.855 267.159 180.295 267.159C180.575 267.159 180.897 267.193 181.261 267.261C181.628 267.326 181.982 267.46 182.323 267.665C182.668 267.869 182.954 268.178 183.181 268.591C183.408 269.004 183.522 269.557 183.522 270.25V276H182.181V274.818H182.113C182.022 275.008 181.871 275.21 181.658 275.426C181.446 275.642 181.164 275.826 180.812 275.977C180.46 276.129 180.03 276.205 179.522 276.205ZM179.727 275C180.257 275 180.704 274.896 181.067 274.688C181.435 274.479 181.711 274.21 181.897 273.881C182.086 273.551 182.181 273.205 182.181 272.841V271.614C182.124 271.682 181.999 271.744 181.806 271.801C181.617 271.854 181.397 271.902 181.147 271.943C180.901 271.981 180.66 272.015 180.425 272.045C180.194 272.072 180.007 272.095 179.863 272.114C179.514 272.159 179.189 272.233 178.886 272.335C178.586 272.434 178.344 272.583 178.158 272.784C177.977 272.981 177.886 273.25 177.886 273.591C177.886 274.057 178.058 274.409 178.403 274.648C178.751 274.883 179.192 275 179.727 275ZM185.969 276V267.273H187.265V268.591H187.356C187.515 268.159 187.803 267.809 188.219 267.54C188.636 267.271 189.106 267.136 189.629 267.136C189.727 267.136 189.85 267.138 189.998 267.142C190.146 267.146 190.257 267.152 190.333 267.159V268.523C190.288 268.511 190.183 268.494 190.021 268.472C189.862 268.445 189.693 268.432 189.515 268.432C189.091 268.432 188.712 268.521 188.379 268.699C188.049 268.873 187.788 269.116 187.594 269.426C187.405 269.733 187.31 270.083 187.31 270.477V276H185.969ZM196.265 267.273V268.409H191.742V267.273H196.265ZM193.06 265.182H194.401V273.5C194.401 273.879 194.456 274.163 194.566 274.352C194.68 274.538 194.824 274.663 194.998 274.727C195.176 274.788 195.363 274.818 195.56 274.818C195.708 274.818 195.829 274.811 195.924 274.795C196.019 274.777 196.094 274.761 196.151 274.75L196.424 275.955C196.333 275.989 196.206 276.023 196.043 276.057C195.88 276.095 195.674 276.114 195.424 276.114C195.045 276.114 194.674 276.032 194.31 275.869C193.951 275.706 193.651 275.458 193.413 275.125C193.178 274.792 193.06 274.371 193.06 273.864V265.182ZM201.847 276.182C201.006 276.182 200.281 275.996 199.671 275.625C199.065 275.25 198.597 274.727 198.268 274.057C197.942 273.383 197.779 272.598 197.779 271.705C197.779 270.811 197.942 270.023 198.268 269.341C198.597 268.655 199.056 268.121 199.643 267.739C200.234 267.352 200.923 267.159 201.711 267.159C202.165 267.159 202.614 267.235 203.058 267.386C203.501 267.538 203.904 267.784 204.268 268.125C204.631 268.462 204.921 268.909 205.137 269.466C205.353 270.023 205.461 270.708 205.461 271.523V272.091H198.734V270.932H204.097C204.097 270.439 203.999 270 203.802 269.614C203.609 269.227 203.332 268.922 202.972 268.699C202.616 268.475 202.196 268.364 201.711 268.364C201.177 268.364 200.715 268.496 200.325 268.761C199.938 269.023 199.641 269.364 199.433 269.784C199.224 270.205 199.12 270.655 199.12 271.136V271.909C199.12 272.568 199.234 273.127 199.461 273.585C199.692 274.04 200.012 274.386 200.421 274.625C200.83 274.86 201.306 274.977 201.847 274.977C202.2 274.977 202.518 274.928 202.802 274.83C203.09 274.727 203.338 274.576 203.546 274.375C203.754 274.17 203.915 273.917 204.029 273.614L205.325 273.977C205.188 274.417 204.959 274.803 204.637 275.136C204.315 275.466 203.917 275.723 203.444 275.909C202.97 276.091 202.438 276.182 201.847 276.182ZM207.501 276V267.273H208.796V268.591H208.887C209.046 268.159 209.334 267.809 209.751 267.54C210.167 267.271 210.637 267.136 211.16 267.136C211.258 267.136 211.381 267.138 211.529 267.142C211.677 267.146 211.789 267.152 211.864 267.159V268.523C211.819 268.511 211.715 268.494 211.552 268.472C211.393 268.445 211.224 268.432 211.046 268.432C210.622 268.432 210.243 268.521 209.91 268.699C209.58 268.873 209.319 269.116 209.126 269.426C208.936 269.733 208.842 270.083 208.842 270.477V276H207.501ZM221.249 276.182C220.522 276.182 219.88 275.998 219.323 275.631C218.766 275.259 218.331 274.737 218.016 274.062C217.702 273.384 217.545 272.583 217.545 271.659C217.545 270.742 217.702 269.947 218.016 269.273C218.331 268.598 218.768 268.078 219.329 267.71C219.889 267.343 220.537 267.159 221.272 267.159C221.84 267.159 222.289 267.254 222.619 267.443C222.952 267.629 223.206 267.841 223.38 268.08C223.558 268.314 223.696 268.508 223.795 268.659H223.908V264.364H225.249V276H223.954V274.659H223.795C223.696 274.818 223.556 275.019 223.374 275.261C223.192 275.5 222.933 275.714 222.596 275.903C222.259 276.089 221.81 276.182 221.249 276.182ZM221.431 274.977C221.969 274.977 222.424 274.837 222.795 274.557C223.166 274.273 223.448 273.881 223.641 273.381C223.835 272.877 223.931 272.295 223.931 271.636C223.931 270.985 223.836 270.415 223.647 269.926C223.458 269.434 223.177 269.051 222.806 268.778C222.435 268.502 221.977 268.364 221.431 268.364C220.863 268.364 220.389 268.509 220.011 268.801C219.636 269.089 219.353 269.481 219.164 269.977C218.978 270.47 218.886 271.023 218.886 271.636C218.886 272.258 218.98 272.822 219.17 273.33C219.363 273.833 219.647 274.235 220.022 274.534C220.401 274.83 220.871 274.977 221.431 274.977ZM231.55 276.182C230.71 276.182 229.984 275.996 229.374 275.625C228.768 275.25 228.3 274.727 227.971 274.057C227.645 273.383 227.482 272.598 227.482 271.705C227.482 270.811 227.645 270.023 227.971 269.341C228.3 268.655 228.759 268.121 229.346 267.739C229.937 267.352 230.626 267.159 231.414 267.159C231.869 267.159 232.317 267.235 232.761 267.386C233.204 267.538 233.607 267.784 233.971 268.125C234.335 268.462 234.624 268.909 234.84 269.466C235.056 270.023 235.164 270.708 235.164 271.523V272.091H228.437V270.932H233.8C233.8 270.439 233.702 270 233.505 269.614C233.312 269.227 233.035 268.922 232.675 268.699C232.319 268.475 231.899 268.364 231.414 268.364C230.88 268.364 230.418 268.496 230.028 268.761C229.641 269.023 229.344 269.364 229.136 269.784C228.927 270.205 228.823 270.655 228.823 271.136V271.909C228.823 272.568 228.937 273.127 229.164 273.585C229.395 274.04 229.715 274.386 230.124 274.625C230.533 274.86 231.009 274.977 231.55 274.977C231.903 274.977 232.221 274.928 232.505 274.83C232.793 274.727 233.041 274.576 233.249 274.375C233.458 274.17 233.619 273.917 233.732 273.614L235.028 273.977C234.891 274.417 234.662 274.803 234.34 275.136C234.018 275.466 233.621 275.723 233.147 275.909C232.674 276.091 232.141 276.182 231.55 276.182ZM240.749 276.182C239.931 276.182 239.227 275.989 238.636 275.602C238.045 275.216 237.59 274.684 237.272 274.006C236.954 273.328 236.795 272.553 236.795 271.682C236.795 270.795 236.958 270.013 237.283 269.335C237.613 268.653 238.071 268.121 238.658 267.739C239.249 267.352 239.939 267.159 240.727 267.159C241.34 267.159 241.893 267.273 242.386 267.5C242.878 267.727 243.281 268.045 243.596 268.455C243.91 268.864 244.105 269.341 244.181 269.886H242.84C242.738 269.489 242.511 269.136 242.158 268.83C241.81 268.519 241.34 268.364 240.749 268.364C240.227 268.364 239.768 268.5 239.374 268.773C238.984 269.042 238.679 269.422 238.46 269.915C238.244 270.403 238.136 270.977 238.136 271.636C238.136 272.311 238.242 272.898 238.454 273.398C238.67 273.898 238.973 274.286 239.363 274.562C239.757 274.839 240.219 274.977 240.749 274.977C241.098 274.977 241.414 274.917 241.698 274.795C241.982 274.674 242.223 274.5 242.42 274.273C242.617 274.045 242.757 273.773 242.84 273.455H244.181C244.105 273.97 243.918 274.434 243.619 274.847C243.323 275.256 242.931 275.581 242.442 275.824C241.958 276.062 241.393 276.182 240.749 276.182ZM246.141 276V267.273H247.482V276H246.141ZM246.823 265.818C246.562 265.818 246.336 265.729 246.147 265.551C245.961 265.373 245.869 265.159 245.869 264.909C245.869 264.659 245.961 264.445 246.147 264.267C246.336 264.089 246.562 264 246.823 264C247.085 264 247.308 264.089 247.494 264.267C247.683 264.445 247.778 264.659 247.778 264.909C247.778 265.159 247.683 265.373 247.494 265.551C247.308 265.729 247.085 265.818 246.823 265.818ZM256.12 269.227L254.915 269.568C254.84 269.367 254.728 269.172 254.58 268.983C254.436 268.79 254.239 268.631 253.989 268.506C253.739 268.381 253.419 268.318 253.029 268.318C252.495 268.318 252.05 268.441 251.694 268.688C251.342 268.93 251.165 269.239 251.165 269.614C251.165 269.947 251.287 270.21 251.529 270.403C251.772 270.597 252.15 270.758 252.665 270.886L253.961 271.205C254.741 271.394 255.323 271.684 255.705 272.074C256.088 272.46 256.279 272.958 256.279 273.568C256.279 274.068 256.135 274.515 255.847 274.909C255.563 275.303 255.165 275.614 254.654 275.841C254.143 276.068 253.548 276.182 252.87 276.182C251.98 276.182 251.243 275.989 250.66 275.602C250.076 275.216 249.707 274.652 249.552 273.909L250.825 273.591C250.946 274.061 251.175 274.413 251.512 274.648C251.853 274.883 252.298 275 252.847 275C253.472 275 253.969 274.867 254.336 274.602C254.707 274.333 254.893 274.011 254.893 273.636C254.893 273.333 254.787 273.08 254.575 272.875C254.362 272.667 254.037 272.511 253.597 272.409L252.143 272.068C251.344 271.879 250.756 271.585 250.381 271.188C250.01 270.786 249.825 270.284 249.825 269.682C249.825 269.189 249.963 268.754 250.239 268.375C250.52 267.996 250.9 267.699 251.381 267.483C251.866 267.267 252.415 267.159 253.029 267.159C253.893 267.159 254.571 267.348 255.063 267.727C255.559 268.106 255.912 268.606 256.12 269.227ZM258.298 276V267.273H259.638V276H258.298ZM258.979 265.818C258.718 265.818 258.493 265.729 258.303 265.551C258.118 265.373 258.025 265.159 258.025 264.909C258.025 264.659 258.118 264.445 258.303 264.267C258.493 264.089 258.718 264 258.979 264C259.241 264 259.464 264.089 259.65 264.267C259.839 264.445 259.934 264.659 259.934 264.909C259.934 265.159 259.839 265.373 259.65 265.551C259.464 265.729 259.241 265.818 258.979 265.818ZM265.64 276.182C264.852 276.182 264.161 275.994 263.566 275.619C262.975 275.244 262.513 274.72 262.18 274.045C261.85 273.371 261.685 272.583 261.685 271.682C261.685 270.773 261.85 269.979 262.18 269.301C262.513 268.623 262.975 268.097 263.566 267.722C264.161 267.347 264.852 267.159 265.64 267.159C266.428 267.159 267.117 267.347 267.708 267.722C268.303 268.097 268.765 268.623 269.094 269.301C269.428 269.979 269.594 270.773 269.594 271.682C269.594 272.583 269.428 273.371 269.094 274.045C268.765 274.72 268.303 275.244 267.708 275.619C267.117 275.994 266.428 276.182 265.64 276.182ZM265.64 274.977C266.238 274.977 266.731 274.824 267.117 274.517C267.504 274.21 267.79 273.807 267.975 273.307C268.161 272.807 268.254 272.265 268.254 271.682C268.254 271.098 268.161 270.555 267.975 270.051C267.79 269.547 267.504 269.14 267.117 268.83C266.731 268.519 266.238 268.364 265.64 268.364C265.041 268.364 264.549 268.519 264.163 268.83C263.776 269.14 263.49 269.547 263.305 270.051C263.119 270.555 263.026 271.098 263.026 271.682C263.026 272.265 263.119 272.807 263.305 273.307C263.49 273.807 263.776 274.21 264.163 274.517C264.549 274.824 265.041 274.977 265.64 274.977ZM272.982 270.75V276H271.641V267.273H272.937V268.636H273.05C273.255 268.193 273.566 267.837 273.982 267.568C274.399 267.295 274.937 267.159 275.596 267.159C276.187 267.159 276.704 267.28 277.147 267.523C277.59 267.761 277.935 268.125 278.181 268.614C278.427 269.098 278.55 269.712 278.55 270.455V276H277.21V270.545C277.21 269.86 277.031 269.326 276.675 268.943C276.319 268.557 275.831 268.364 275.21 268.364C274.781 268.364 274.399 268.456 274.062 268.642C273.728 268.828 273.465 269.098 273.272 269.455C273.079 269.811 272.982 270.242 272.982 270.75ZM287.183 269.227L285.978 269.568C285.902 269.367 285.79 269.172 285.643 268.983C285.499 268.79 285.302 268.631 285.052 268.506C284.802 268.381 284.482 268.318 284.092 268.318C283.558 268.318 283.112 268.441 282.756 268.688C282.404 268.93 282.228 269.239 282.228 269.614C282.228 269.947 282.349 270.21 282.592 270.403C282.834 270.597 283.213 270.758 283.728 270.886L285.023 271.205C285.804 271.394 286.385 271.684 286.768 272.074C287.15 272.46 287.342 272.958 287.342 273.568C287.342 274.068 287.198 274.515 286.91 274.909C286.626 275.303 286.228 275.614 285.717 275.841C285.205 276.068 284.611 276.182 283.933 276.182C283.042 276.182 282.306 275.989 281.722 275.602C281.139 275.216 280.77 274.652 280.614 273.909L281.887 273.591C282.008 274.061 282.237 274.413 282.575 274.648C282.915 274.883 283.361 275 283.91 275C284.535 275 285.031 274.867 285.398 274.602C285.77 274.333 285.955 274.011 285.955 273.636C285.955 273.333 285.849 273.08 285.637 272.875C285.425 272.667 285.099 272.511 284.66 272.409L283.205 272.068C282.406 271.879 281.819 271.585 281.444 271.188C281.073 270.786 280.887 270.284 280.887 269.682C280.887 269.189 281.025 268.754 281.302 268.375C281.582 267.996 281.963 267.699 282.444 267.483C282.929 267.267 283.478 267.159 284.092 267.159C284.955 267.159 285.633 267.348 286.126 267.727C286.622 268.106 286.974 268.606 287.183 269.227ZM290.337 276.091C290.057 276.091 289.817 275.991 289.616 275.79C289.415 275.589 289.315 275.348 289.315 275.068C289.315 274.788 289.415 274.547 289.616 274.347C289.817 274.146 290.057 274.045 290.337 274.045C290.618 274.045 290.858 274.146 291.059 274.347C291.26 274.547 291.36 274.788 291.36 275.068C291.36 275.254 291.313 275.424 291.218 275.58C291.127 275.735 291.004 275.86 290.849 275.955C290.697 276.045 290.527 276.091 290.337 276.091Z" fill="#374151"/>
<defs>
<filter id="filter0_d_49_4236" x="0" y="0" width="446" height="410" filterUnits="userSpaceOnUse" color-interpolation-filters="sRGB">
<feFlood flood-opacity="0" result="BackgroundImageFix"/>
<feColorMatrix in="SourceAlpha" type="matrix" values="0 0 0 0 0 0 0 0 0 0 0 0 0 0 0 0 0 0 127 0" result="hardAlpha"/>
<feOffset dy="25"/>
<feGaussianBlur stdDeviation="35"/>
<feColorMatrix type="matrix" values="0 0 0 0 0.107708 0 0 0 0 0.211814 0 0 0 0 0.5875 0 0 0 0.08 0"/>
<feBlend mode="normal" in2="BackgroundImageFix" result="effect1_dropShadow_49_4236"/>
<feBlend mode="normal" in="SourceGraphic" in2="effect1_dropShadow_49_4236" result="shape"/>
</filter>
</defs>
</svg>
