<svg width="55" height="60" viewBox="0 0 55 60" fill="none" xmlns="http://www.w3.org/2000/svg">
<path opacity="0.3" d="M23.3567 1.17634C26.0804 -0.392113 29.4361 -0.392114 32.1598 1.17634L50.5842 11.7862C53.3078 13.3546 54.9857 16.2533 54.9857 19.3902V40.6098C54.9857 43.7467 53.3078 46.6454 50.5842 48.2138L32.1598 58.8237C29.4361 60.3921 26.0804 60.3921 23.3567 58.8237L4.9323 48.2138C2.20862 46.6454 0.530762 43.7467 0.530762 40.6098V19.3902C0.530762 16.2533 2.20862 13.3546 4.9323 11.7862L23.3567 1.17634Z" fill="#00BB98"/>
<path d="M27.4664 29.2666C30.3088 29.2666 32.613 26.9683 32.613 24.1333C32.613 21.2983 30.3088 19 27.4664 19C24.624 19 22.3198 21.2983 22.3198 24.1333C22.3198 26.9683 24.624 29.2666 27.4664 29.2666Z" fill="#00BB98"/>
<path d="M37.7616 32.2004C39.7918 32.2004 41.4377 30.5588 41.4377 28.5338C41.4377 26.5088 39.7918 24.8672 37.7616 24.8672C35.7313 24.8672 34.0854 26.5088 34.0854 28.5338C34.0854 30.5588 35.7313 32.2004 37.7616 32.2004Z" fill="#00BB98"/>
<path d="M17.2772 32.2004C19.3074 32.2004 20.9533 30.5588 20.9533 28.5338C20.9533 26.5088 19.3074 24.8672 17.2772 24.8672C15.2469 24.8672 13.6011 26.5088 13.6011 28.5338C13.6011 30.5588 15.2469 32.2004 17.2772 32.2004Z" fill="#00BB98"/>
<path d="M27.4676 30.7344C22.1975 30.7344 17.9097 35.0111 17.9097 40.2676C17.9097 40.6724 18.2391 41.001 18.6449 41.001H36.2903C36.6962 41.001 37.0256 40.6724 37.0256 40.2676C37.0256 35.0111 32.7377 30.7344 27.4676 30.7344Z" fill="#00BB98"/>
<path d="M18.5471 33.8225C18.0971 33.7271 17.6398 33.6641 17.1751 33.6641C13.5269 33.6641 10.5581 36.6252 10.5581 40.264C10.5581 40.6688 10.8875 40.9973 11.2934 40.9973H16.5752C16.4928 40.7671 16.4399 40.5221 16.4399 40.264C16.4399 37.8572 17.2281 35.6352 18.5471 33.8225Z" fill="#00BB98"/>
<path d="M37.7621 33.6641C37.2974 33.6641 36.8401 33.7271 36.3901 33.8225C37.7091 35.6352 38.4973 37.8572 38.4973 40.264C38.4973 40.5221 38.4444 40.767 38.362 40.9973H43.6438C44.0497 40.9973 44.3791 40.6688 44.3791 40.264C44.3791 36.6252 41.4103 33.6641 37.7621 33.6641Z" fill="#00BB98"/>
</svg>
